M48
; DRILL file {KiCad (5.1.5-0-10_14)} date Wednesday, January 22, 2020 at 02:19:15 AM
; FORMAT={-:-/ absolute / inch / decimal}
; #@! TF.CreationDate,2020-01-22T02:19:15-06:00
; #@! TF.GenerationSoftware,Kicad,Pcbnew,(5.1.5-0-10_14)
; #@! TF.FileFunction,NonPlated,1,2,NPTH
FMAT,2
INCH
T1C0.0390
T2C0.0670
T3C0.1350
%
G90
G05
T1
X3.393Y-2.3659
X4.893Y-2.3659
X4.143Y-2.3659
X3.393Y-3.3034
X4.893Y-3.3034
X4.143Y-3.3034
X4.893Y-4.0534
X3.393Y-4.8034
X4.143Y-4.8034
X4.143Y-4.0534
X3.393Y-4.0534
X4.893Y-4.8034
T2
X3.721Y-2.5312
X4.154Y-2.5312
X3.721Y-4.2188
X4.154Y-4.2188
X2.971Y-3.4688
X3.404Y-3.4688
X4.471Y-3.4688
X4.904Y-3.4688
X2.971Y-4.2188
X3.404Y-4.2188
X3.721Y-3.4688
X4.154Y-3.4688
X2.971Y-2.5312
X3.404Y-2.5312
X4.471Y-4.2188
X4.904Y-4.2188
X2.971Y-4.9688
X3.404Y-4.9688
X4.471Y-4.9688
X4.904Y-4.9688
X4.471Y-2.5312
X4.904Y-2.5312
X3.721Y-4.9688
X4.154Y-4.9688
T3
X3.1875Y-4.2188
X4.6875Y-4.9688
X3.9375Y-4.9688
X3.9375Y-4.2188
X4.6875Y-4.2188
X3.1875Y-4.9688
X3.9375Y-2.5312
X3.1875Y-3.4688
X4.6875Y-3.4688
X3.9375Y-3.4688
X3.1875Y-2.5312
X4.6875Y-2.5312
T0
M30
