G04 #@! TF.FileFunction,Copper,L1,Top,Signal*
%FSLAX46Y46*%
G04 Gerber Fmt 4.6, Leading zero omitted, Abs format (unit mm)*
G04 Created by KiCad (PCBNEW 4.0.7) date Tuesday, February 27, 2018 'PMt' 06:21:59 PM*
%MOMM*%
%LPD*%
G01*
G04 APERTURE LIST*
%ADD10C,0.100000*%
%ADD11C,0.010000*%
%ADD12C,1.524000*%
%ADD13C,1.676400*%
%ADD14C,2.032000*%
%ADD15C,0.685800*%
%ADD16C,0.254000*%
%ADD17C,0.508000*%
%ADD18C,0.250000*%
G04 APERTURE END LIST*
D10*
D11*
G36*
X87963360Y-100952468D02*
X87998592Y-100969874D01*
X88042040Y-101000206D01*
X88073706Y-101033283D01*
X88095394Y-101074817D01*
X88108903Y-101130522D01*
X88116038Y-101206111D01*
X88118600Y-101307296D01*
X88118750Y-101350797D01*
X88118312Y-101446135D01*
X88116496Y-101514271D01*
X88112545Y-101561418D01*
X88105702Y-101593790D01*
X88095211Y-101617600D01*
X88084296Y-101633843D01*
X88014619Y-101702952D01*
X87932566Y-101744521D01*
X87844050Y-101757023D01*
X87754981Y-101738934D01*
X87726763Y-101726142D01*
X87659210Y-101690931D01*
X87659210Y-102242700D01*
X87708512Y-102217205D01*
X87773473Y-102197480D01*
X87853320Y-102192427D01*
X87933052Y-102201756D01*
X87993265Y-102222714D01*
X88043208Y-102262627D01*
X88085881Y-102319741D01*
X88089090Y-102325605D01*
X88102622Y-102353227D01*
X88112505Y-102381068D01*
X88119309Y-102414794D01*
X88123601Y-102460071D01*
X88125951Y-102522562D01*
X88126928Y-102607935D01*
X88127105Y-102704010D01*
X88127105Y-103010526D01*
X87943289Y-103010526D01*
X87943289Y-102445339D01*
X87891875Y-102402077D01*
X87838466Y-102367472D01*
X87787888Y-102361180D01*
X87737030Y-102377372D01*
X87709925Y-102393227D01*
X87689751Y-102415810D01*
X87675403Y-102449940D01*
X87665776Y-102500434D01*
X87659763Y-102572111D01*
X87656260Y-102669788D01*
X87655026Y-102734802D01*
X87650855Y-103002171D01*
X87563125Y-103007222D01*
X87475394Y-103012273D01*
X87475394Y-101353101D01*
X87659210Y-101353101D01*
X87663896Y-101445600D01*
X87679688Y-101509809D01*
X87709183Y-101549759D01*
X87754980Y-101569480D01*
X87801250Y-101573421D01*
X87853628Y-101568892D01*
X87888390Y-101551069D01*
X87910128Y-101527519D01*
X87927240Y-101502189D01*
X87937427Y-101473969D01*
X87941960Y-101434431D01*
X87942109Y-101375142D01*
X87940584Y-101325498D01*
X87937081Y-101250710D01*
X87931867Y-101201611D01*
X87923087Y-101170467D01*
X87908886Y-101149545D01*
X87895484Y-101137452D01*
X87839487Y-101111081D01*
X87773211Y-101106822D01*
X87735156Y-101115906D01*
X87697477Y-101148196D01*
X87672519Y-101211006D01*
X87660422Y-101303894D01*
X87659210Y-101353101D01*
X87475394Y-101353101D01*
X87475394Y-100938421D01*
X87567302Y-100938421D01*
X87622483Y-100940603D01*
X87650952Y-100948351D01*
X87659206Y-100963468D01*
X87659210Y-100963916D01*
X87663040Y-100978720D01*
X87679933Y-100977039D01*
X87713519Y-100960772D01*
X87791778Y-100935887D01*
X87879827Y-100933271D01*
X87963360Y-100952468D01*
X87963360Y-100952468D01*
G37*
X87963360Y-100952468D02*
X87998592Y-100969874D01*
X88042040Y-101000206D01*
X88073706Y-101033283D01*
X88095394Y-101074817D01*
X88108903Y-101130522D01*
X88116038Y-101206111D01*
X88118600Y-101307296D01*
X88118750Y-101350797D01*
X88118312Y-101446135D01*
X88116496Y-101514271D01*
X88112545Y-101561418D01*
X88105702Y-101593790D01*
X88095211Y-101617600D01*
X88084296Y-101633843D01*
X88014619Y-101702952D01*
X87932566Y-101744521D01*
X87844050Y-101757023D01*
X87754981Y-101738934D01*
X87726763Y-101726142D01*
X87659210Y-101690931D01*
X87659210Y-102242700D01*
X87708512Y-102217205D01*
X87773473Y-102197480D01*
X87853320Y-102192427D01*
X87933052Y-102201756D01*
X87993265Y-102222714D01*
X88043208Y-102262627D01*
X88085881Y-102319741D01*
X88089090Y-102325605D01*
X88102622Y-102353227D01*
X88112505Y-102381068D01*
X88119309Y-102414794D01*
X88123601Y-102460071D01*
X88125951Y-102522562D01*
X88126928Y-102607935D01*
X88127105Y-102704010D01*
X88127105Y-103010526D01*
X87943289Y-103010526D01*
X87943289Y-102445339D01*
X87891875Y-102402077D01*
X87838466Y-102367472D01*
X87787888Y-102361180D01*
X87737030Y-102377372D01*
X87709925Y-102393227D01*
X87689751Y-102415810D01*
X87675403Y-102449940D01*
X87665776Y-102500434D01*
X87659763Y-102572111D01*
X87656260Y-102669788D01*
X87655026Y-102734802D01*
X87650855Y-103002171D01*
X87563125Y-103007222D01*
X87475394Y-103012273D01*
X87475394Y-101353101D01*
X87659210Y-101353101D01*
X87663896Y-101445600D01*
X87679688Y-101509809D01*
X87709183Y-101549759D01*
X87754980Y-101569480D01*
X87801250Y-101573421D01*
X87853628Y-101568892D01*
X87888390Y-101551069D01*
X87910128Y-101527519D01*
X87927240Y-101502189D01*
X87937427Y-101473969D01*
X87941960Y-101434431D01*
X87942109Y-101375142D01*
X87940584Y-101325498D01*
X87937081Y-101250710D01*
X87931867Y-101201611D01*
X87923087Y-101170467D01*
X87908886Y-101149545D01*
X87895484Y-101137452D01*
X87839487Y-101111081D01*
X87773211Y-101106822D01*
X87735156Y-101115906D01*
X87697477Y-101148196D01*
X87672519Y-101211006D01*
X87660422Y-101303894D01*
X87659210Y-101353101D01*
X87475394Y-101353101D01*
X87475394Y-100938421D01*
X87567302Y-100938421D01*
X87622483Y-100940603D01*
X87650952Y-100948351D01*
X87659206Y-100963468D01*
X87659210Y-100963916D01*
X87663040Y-100978720D01*
X87679933Y-100977039D01*
X87713519Y-100960772D01*
X87791778Y-100935887D01*
X87879827Y-100933271D01*
X87963360Y-100952468D01*
G36*
X88660457Y-102198184D02*
X88739070Y-102219160D01*
X88798916Y-102257180D01*
X88841147Y-102306978D01*
X88854275Y-102328230D01*
X88863968Y-102350492D01*
X88870744Y-102378970D01*
X88875123Y-102418871D01*
X88877624Y-102475401D01*
X88878768Y-102553767D01*
X88879072Y-102659176D01*
X88879078Y-102687142D01*
X88879078Y-103010526D01*
X88798868Y-103010526D01*
X88747706Y-103006943D01*
X88709877Y-102997866D01*
X88700399Y-102992268D01*
X88674488Y-102982606D01*
X88648024Y-102992268D01*
X88604452Y-103004330D01*
X88541160Y-103009185D01*
X88471010Y-103007078D01*
X88406860Y-102998256D01*
X88369407Y-102986937D01*
X88296933Y-102940412D01*
X88251640Y-102875846D01*
X88231278Y-102790000D01*
X88231088Y-102787796D01*
X88232875Y-102749713D01*
X88394473Y-102749713D01*
X88408601Y-102793030D01*
X88431612Y-102817408D01*
X88477804Y-102835845D01*
X88538775Y-102843205D01*
X88600949Y-102839583D01*
X88650751Y-102825074D01*
X88664703Y-102815765D01*
X88689085Y-102772753D01*
X88695263Y-102723857D01*
X88695263Y-102659605D01*
X88602818Y-102659605D01*
X88514995Y-102666366D01*
X88448418Y-102685520D01*
X88407002Y-102715376D01*
X88394473Y-102749713D01*
X88232875Y-102749713D01*
X88235490Y-102694004D01*
X88266424Y-102619847D01*
X88324581Y-102563767D01*
X88332620Y-102558665D01*
X88367163Y-102542055D01*
X88409918Y-102531996D01*
X88469686Y-102527107D01*
X88540690Y-102525983D01*
X88695263Y-102525921D01*
X88695263Y-102461125D01*
X88688706Y-102410850D01*
X88671975Y-102377169D01*
X88670016Y-102375376D01*
X88632783Y-102360642D01*
X88576580Y-102354931D01*
X88514467Y-102357737D01*
X88459510Y-102368556D01*
X88426899Y-102384782D01*
X88409228Y-102397780D01*
X88390569Y-102400262D01*
X88364819Y-102389613D01*
X88325873Y-102363218D01*
X88267630Y-102318465D01*
X88262284Y-102314273D01*
X88265023Y-102298760D01*
X88287876Y-102272960D01*
X88322609Y-102244289D01*
X88360990Y-102220166D01*
X88373048Y-102214470D01*
X88417034Y-102203103D01*
X88481487Y-102194995D01*
X88553497Y-102191743D01*
X88556864Y-102191736D01*
X88660457Y-102198184D01*
X88660457Y-102198184D01*
G37*
X88660457Y-102198184D02*
X88739070Y-102219160D01*
X88798916Y-102257180D01*
X88841147Y-102306978D01*
X88854275Y-102328230D01*
X88863968Y-102350492D01*
X88870744Y-102378970D01*
X88875123Y-102418871D01*
X88877624Y-102475401D01*
X88878768Y-102553767D01*
X88879072Y-102659176D01*
X88879078Y-102687142D01*
X88879078Y-103010526D01*
X88798868Y-103010526D01*
X88747706Y-103006943D01*
X88709877Y-102997866D01*
X88700399Y-102992268D01*
X88674488Y-102982606D01*
X88648024Y-102992268D01*
X88604452Y-103004330D01*
X88541160Y-103009185D01*
X88471010Y-103007078D01*
X88406860Y-102998256D01*
X88369407Y-102986937D01*
X88296933Y-102940412D01*
X88251640Y-102875846D01*
X88231278Y-102790000D01*
X88231088Y-102787796D01*
X88232875Y-102749713D01*
X88394473Y-102749713D01*
X88408601Y-102793030D01*
X88431612Y-102817408D01*
X88477804Y-102835845D01*
X88538775Y-102843205D01*
X88600949Y-102839583D01*
X88650751Y-102825074D01*
X88664703Y-102815765D01*
X88689085Y-102772753D01*
X88695263Y-102723857D01*
X88695263Y-102659605D01*
X88602818Y-102659605D01*
X88514995Y-102666366D01*
X88448418Y-102685520D01*
X88407002Y-102715376D01*
X88394473Y-102749713D01*
X88232875Y-102749713D01*
X88235490Y-102694004D01*
X88266424Y-102619847D01*
X88324581Y-102563767D01*
X88332620Y-102558665D01*
X88367163Y-102542055D01*
X88409918Y-102531996D01*
X88469686Y-102527107D01*
X88540690Y-102525983D01*
X88695263Y-102525921D01*
X88695263Y-102461125D01*
X88688706Y-102410850D01*
X88671975Y-102377169D01*
X88670016Y-102375376D01*
X88632783Y-102360642D01*
X88576580Y-102354931D01*
X88514467Y-102357737D01*
X88459510Y-102368556D01*
X88426899Y-102384782D01*
X88409228Y-102397780D01*
X88390569Y-102400262D01*
X88364819Y-102389613D01*
X88325873Y-102363218D01*
X88267630Y-102318465D01*
X88262284Y-102314273D01*
X88265023Y-102298760D01*
X88287876Y-102272960D01*
X88322609Y-102244289D01*
X88360990Y-102220166D01*
X88373048Y-102214470D01*
X88417034Y-102203103D01*
X88481487Y-102194995D01*
X88553497Y-102191743D01*
X88556864Y-102191736D01*
X88660457Y-102198184D01*
G36*
X89179881Y-102193486D02*
X89204888Y-102200982D01*
X89212950Y-102217451D01*
X89213289Y-102224886D01*
X89214736Y-102245594D01*
X89224698Y-102248845D01*
X89251612Y-102234648D01*
X89267598Y-102224948D01*
X89318033Y-102204175D01*
X89378272Y-102193904D01*
X89441434Y-102193114D01*
X89500637Y-102200786D01*
X89549002Y-102215898D01*
X89579646Y-102237432D01*
X89585689Y-102264366D01*
X89582639Y-102271660D01*
X89560406Y-102301937D01*
X89525930Y-102339175D01*
X89519694Y-102345195D01*
X89486833Y-102372875D01*
X89458480Y-102381818D01*
X89418827Y-102375576D01*
X89402942Y-102371429D01*
X89353509Y-102361467D01*
X89318752Y-102365947D01*
X89289400Y-102381746D01*
X89262513Y-102402949D01*
X89242710Y-102429614D01*
X89228948Y-102466827D01*
X89220184Y-102519673D01*
X89215374Y-102593237D01*
X89213474Y-102692605D01*
X89213289Y-102752601D01*
X89213289Y-103010526D01*
X89046184Y-103010526D01*
X89046184Y-102191710D01*
X89129736Y-102191710D01*
X89179881Y-102193486D01*
X89179881Y-102193486D01*
G37*
X89179881Y-102193486D02*
X89204888Y-102200982D01*
X89212950Y-102217451D01*
X89213289Y-102224886D01*
X89214736Y-102245594D01*
X89224698Y-102248845D01*
X89251612Y-102234648D01*
X89267598Y-102224948D01*
X89318033Y-102204175D01*
X89378272Y-102193904D01*
X89441434Y-102193114D01*
X89500637Y-102200786D01*
X89549002Y-102215898D01*
X89579646Y-102237432D01*
X89585689Y-102264366D01*
X89582639Y-102271660D01*
X89560406Y-102301937D01*
X89525930Y-102339175D01*
X89519694Y-102345195D01*
X89486833Y-102372875D01*
X89458480Y-102381818D01*
X89418827Y-102375576D01*
X89402942Y-102371429D01*
X89353509Y-102361467D01*
X89318752Y-102365947D01*
X89289400Y-102381746D01*
X89262513Y-102402949D01*
X89242710Y-102429614D01*
X89228948Y-102466827D01*
X89220184Y-102519673D01*
X89215374Y-102593237D01*
X89213474Y-102692605D01*
X89213289Y-102752601D01*
X89213289Y-103010526D01*
X89046184Y-103010526D01*
X89046184Y-102191710D01*
X89129736Y-102191710D01*
X89179881Y-102193486D01*
G36*
X90232631Y-103010526D02*
X90140723Y-103010526D01*
X90087377Y-103008962D01*
X90059593Y-103002485D01*
X90049590Y-102988418D01*
X90048815Y-102978906D01*
X90047128Y-102959832D01*
X90036490Y-102956174D01*
X90008535Y-102967932D01*
X89986795Y-102978906D01*
X89903332Y-103004911D01*
X89812604Y-103006416D01*
X89738842Y-102987021D01*
X89670154Y-102940165D01*
X89617794Y-102871004D01*
X89589122Y-102789427D01*
X89588392Y-102784866D01*
X89584132Y-102735101D01*
X89582014Y-102663659D01*
X89582184Y-102609626D01*
X89764720Y-102609626D01*
X89768949Y-102681441D01*
X89778568Y-102740634D01*
X89791590Y-102774060D01*
X89840856Y-102819740D01*
X89899350Y-102836115D01*
X89959671Y-102822873D01*
X90011217Y-102783373D01*
X90030738Y-102756807D01*
X90042152Y-102725106D01*
X90047498Y-102678832D01*
X90048815Y-102609328D01*
X90046458Y-102540499D01*
X90040233Y-102480026D01*
X90031408Y-102439556D01*
X90029937Y-102435929D01*
X89994347Y-102392802D01*
X89942400Y-102369124D01*
X89884278Y-102365301D01*
X89830160Y-102381738D01*
X89790226Y-102418840D01*
X89786083Y-102426222D01*
X89773116Y-102471239D01*
X89766052Y-102535967D01*
X89764720Y-102609626D01*
X89582184Y-102609626D01*
X89582271Y-102582230D01*
X89583472Y-102538405D01*
X89591645Y-102429988D01*
X89608630Y-102348588D01*
X89636887Y-102288412D01*
X89678872Y-102243666D01*
X89719632Y-102217400D01*
X89776581Y-102198935D01*
X89847411Y-102192602D01*
X89919941Y-102197760D01*
X89981986Y-102213769D01*
X90014768Y-102232920D01*
X90048815Y-102263732D01*
X90048815Y-101874210D01*
X90232631Y-101874210D01*
X90232631Y-103010526D01*
X90232631Y-103010526D01*
G37*
X90232631Y-103010526D02*
X90140723Y-103010526D01*
X90087377Y-103008962D01*
X90059593Y-103002485D01*
X90049590Y-102988418D01*
X90048815Y-102978906D01*
X90047128Y-102959832D01*
X90036490Y-102956174D01*
X90008535Y-102967932D01*
X89986795Y-102978906D01*
X89903332Y-103004911D01*
X89812604Y-103006416D01*
X89738842Y-102987021D01*
X89670154Y-102940165D01*
X89617794Y-102871004D01*
X89589122Y-102789427D01*
X89588392Y-102784866D01*
X89584132Y-102735101D01*
X89582014Y-102663659D01*
X89582184Y-102609626D01*
X89764720Y-102609626D01*
X89768949Y-102681441D01*
X89778568Y-102740634D01*
X89791590Y-102774060D01*
X89840856Y-102819740D01*
X89899350Y-102836115D01*
X89959671Y-102822873D01*
X90011217Y-102783373D01*
X90030738Y-102756807D01*
X90042152Y-102725106D01*
X90047498Y-102678832D01*
X90048815Y-102609328D01*
X90046458Y-102540499D01*
X90040233Y-102480026D01*
X90031408Y-102439556D01*
X90029937Y-102435929D01*
X89994347Y-102392802D01*
X89942400Y-102369124D01*
X89884278Y-102365301D01*
X89830160Y-102381738D01*
X89790226Y-102418840D01*
X89786083Y-102426222D01*
X89773116Y-102471239D01*
X89766052Y-102535967D01*
X89764720Y-102609626D01*
X89582184Y-102609626D01*
X89582271Y-102582230D01*
X89583472Y-102538405D01*
X89591645Y-102429988D01*
X89608630Y-102348588D01*
X89636887Y-102288412D01*
X89678872Y-102243666D01*
X89719632Y-102217400D01*
X89776581Y-102198935D01*
X89847411Y-102192602D01*
X89919941Y-102197760D01*
X89981986Y-102213769D01*
X90014768Y-102232920D01*
X90048815Y-102263732D01*
X90048815Y-101874210D01*
X90232631Y-101874210D01*
X90232631Y-103010526D01*
G36*
X90874130Y-102195104D02*
X90940220Y-102200066D01*
X91026626Y-102459079D01*
X91113031Y-102718092D01*
X91140124Y-102626184D01*
X91156428Y-102569384D01*
X91177875Y-102492625D01*
X91201035Y-102408251D01*
X91213280Y-102362993D01*
X91259344Y-102191710D01*
X91449387Y-102191710D01*
X91392582Y-102371349D01*
X91364607Y-102459704D01*
X91330813Y-102566281D01*
X91295520Y-102677454D01*
X91264013Y-102776579D01*
X91192250Y-103002171D01*
X91037286Y-103012253D01*
X90995270Y-102873528D01*
X90969359Y-102787351D01*
X90941083Y-102692347D01*
X90916369Y-102608441D01*
X90915394Y-102605102D01*
X90896935Y-102548248D01*
X90880649Y-102509456D01*
X90869242Y-102494787D01*
X90866898Y-102496483D01*
X90858671Y-102519225D01*
X90843038Y-102567940D01*
X90821904Y-102636502D01*
X90797170Y-102718785D01*
X90783787Y-102764046D01*
X90711311Y-103010526D01*
X90557495Y-103010526D01*
X90434531Y-102622006D01*
X90399988Y-102513022D01*
X90368521Y-102414048D01*
X90341616Y-102329736D01*
X90320759Y-102264734D01*
X90307438Y-102223692D01*
X90303388Y-102211701D01*
X90306594Y-102199423D01*
X90331765Y-102194046D01*
X90384146Y-102194584D01*
X90392345Y-102194990D01*
X90489482Y-102200066D01*
X90553100Y-102434013D01*
X90576484Y-102519333D01*
X90597381Y-102594335D01*
X90613951Y-102652507D01*
X90624354Y-102687337D01*
X90626276Y-102693016D01*
X90634241Y-102686486D01*
X90650304Y-102652654D01*
X90672621Y-102596127D01*
X90699345Y-102521510D01*
X90721937Y-102454107D01*
X90808041Y-102190143D01*
X90874130Y-102195104D01*
X90874130Y-102195104D01*
G37*
X90874130Y-102195104D02*
X90940220Y-102200066D01*
X91026626Y-102459079D01*
X91113031Y-102718092D01*
X91140124Y-102626184D01*
X91156428Y-102569384D01*
X91177875Y-102492625D01*
X91201035Y-102408251D01*
X91213280Y-102362993D01*
X91259344Y-102191710D01*
X91449387Y-102191710D01*
X91392582Y-102371349D01*
X91364607Y-102459704D01*
X91330813Y-102566281D01*
X91295520Y-102677454D01*
X91264013Y-102776579D01*
X91192250Y-103002171D01*
X91037286Y-103012253D01*
X90995270Y-102873528D01*
X90969359Y-102787351D01*
X90941083Y-102692347D01*
X90916369Y-102608441D01*
X90915394Y-102605102D01*
X90896935Y-102548248D01*
X90880649Y-102509456D01*
X90869242Y-102494787D01*
X90866898Y-102496483D01*
X90858671Y-102519225D01*
X90843038Y-102567940D01*
X90821904Y-102636502D01*
X90797170Y-102718785D01*
X90783787Y-102764046D01*
X90711311Y-103010526D01*
X90557495Y-103010526D01*
X90434531Y-102622006D01*
X90399988Y-102513022D01*
X90368521Y-102414048D01*
X90341616Y-102329736D01*
X90320759Y-102264734D01*
X90307438Y-102223692D01*
X90303388Y-102211701D01*
X90306594Y-102199423D01*
X90331765Y-102194046D01*
X90384146Y-102194584D01*
X90392345Y-102194990D01*
X90489482Y-102200066D01*
X90553100Y-102434013D01*
X90576484Y-102519333D01*
X90597381Y-102594335D01*
X90613951Y-102652507D01*
X90624354Y-102687337D01*
X90626276Y-102693016D01*
X90634241Y-102686486D01*
X90650304Y-102652654D01*
X90672621Y-102596127D01*
X90699345Y-102521510D01*
X90721937Y-102454107D01*
X90808041Y-102190143D01*
X90874130Y-102195104D01*
G36*
X91879992Y-102196673D02*
X91950427Y-102213780D01*
X91970787Y-102222844D01*
X92010253Y-102246583D01*
X92040541Y-102273321D01*
X92062952Y-102307699D01*
X92078786Y-102354360D01*
X92089343Y-102417946D01*
X92095924Y-102503099D01*
X92099828Y-102614462D01*
X92101310Y-102688849D01*
X92106765Y-103010526D01*
X92013580Y-103010526D01*
X91957047Y-103008156D01*
X91927922Y-103000055D01*
X91920394Y-102986451D01*
X91916420Y-102971741D01*
X91898652Y-102974554D01*
X91874440Y-102986348D01*
X91813828Y-103004427D01*
X91735929Y-103009299D01*
X91653995Y-103001330D01*
X91581281Y-102980889D01*
X91574759Y-102978051D01*
X91508302Y-102931365D01*
X91464491Y-102866464D01*
X91444332Y-102790600D01*
X91445872Y-102763344D01*
X91610345Y-102763344D01*
X91624837Y-102800024D01*
X91667805Y-102826309D01*
X91737129Y-102840417D01*
X91774177Y-102842290D01*
X91835919Y-102837494D01*
X91876960Y-102818858D01*
X91886973Y-102810000D01*
X91914100Y-102761806D01*
X91920394Y-102718092D01*
X91920394Y-102659605D01*
X91838930Y-102659605D01*
X91744234Y-102664432D01*
X91677813Y-102679613D01*
X91635846Y-102706200D01*
X91626449Y-102718052D01*
X91610345Y-102763344D01*
X91445872Y-102763344D01*
X91448829Y-102711026D01*
X91478985Y-102634995D01*
X91520131Y-102583612D01*
X91545052Y-102561397D01*
X91569448Y-102546798D01*
X91601191Y-102537897D01*
X91648152Y-102532775D01*
X91718204Y-102529515D01*
X91745990Y-102528577D01*
X91920394Y-102522879D01*
X91920138Y-102470091D01*
X91913384Y-102414603D01*
X91888964Y-102381052D01*
X91839630Y-102359618D01*
X91838306Y-102359236D01*
X91768360Y-102350808D01*
X91699914Y-102361816D01*
X91649047Y-102388585D01*
X91628637Y-102401803D01*
X91606654Y-102399974D01*
X91572826Y-102380824D01*
X91552961Y-102367308D01*
X91514106Y-102338432D01*
X91490038Y-102316786D01*
X91486176Y-102310589D01*
X91502079Y-102278519D01*
X91549065Y-102240219D01*
X91569473Y-102227297D01*
X91628143Y-102205041D01*
X91707212Y-102192432D01*
X91795041Y-102189600D01*
X91879992Y-102196673D01*
X91879992Y-102196673D01*
G37*
X91879992Y-102196673D02*
X91950427Y-102213780D01*
X91970787Y-102222844D01*
X92010253Y-102246583D01*
X92040541Y-102273321D01*
X92062952Y-102307699D01*
X92078786Y-102354360D01*
X92089343Y-102417946D01*
X92095924Y-102503099D01*
X92099828Y-102614462D01*
X92101310Y-102688849D01*
X92106765Y-103010526D01*
X92013580Y-103010526D01*
X91957047Y-103008156D01*
X91927922Y-103000055D01*
X91920394Y-102986451D01*
X91916420Y-102971741D01*
X91898652Y-102974554D01*
X91874440Y-102986348D01*
X91813828Y-103004427D01*
X91735929Y-103009299D01*
X91653995Y-103001330D01*
X91581281Y-102980889D01*
X91574759Y-102978051D01*
X91508302Y-102931365D01*
X91464491Y-102866464D01*
X91444332Y-102790600D01*
X91445872Y-102763344D01*
X91610345Y-102763344D01*
X91624837Y-102800024D01*
X91667805Y-102826309D01*
X91737129Y-102840417D01*
X91774177Y-102842290D01*
X91835919Y-102837494D01*
X91876960Y-102818858D01*
X91886973Y-102810000D01*
X91914100Y-102761806D01*
X91920394Y-102718092D01*
X91920394Y-102659605D01*
X91838930Y-102659605D01*
X91744234Y-102664432D01*
X91677813Y-102679613D01*
X91635846Y-102706200D01*
X91626449Y-102718052D01*
X91610345Y-102763344D01*
X91445872Y-102763344D01*
X91448829Y-102711026D01*
X91478985Y-102634995D01*
X91520131Y-102583612D01*
X91545052Y-102561397D01*
X91569448Y-102546798D01*
X91601191Y-102537897D01*
X91648152Y-102532775D01*
X91718204Y-102529515D01*
X91745990Y-102528577D01*
X91920394Y-102522879D01*
X91920138Y-102470091D01*
X91913384Y-102414603D01*
X91888964Y-102381052D01*
X91839630Y-102359618D01*
X91838306Y-102359236D01*
X91768360Y-102350808D01*
X91699914Y-102361816D01*
X91649047Y-102388585D01*
X91628637Y-102401803D01*
X91606654Y-102399974D01*
X91572826Y-102380824D01*
X91552961Y-102367308D01*
X91514106Y-102338432D01*
X91490038Y-102316786D01*
X91486176Y-102310589D01*
X91502079Y-102278519D01*
X91549065Y-102240219D01*
X91569473Y-102227297D01*
X91628143Y-102205041D01*
X91707212Y-102192432D01*
X91795041Y-102189600D01*
X91879992Y-102196673D01*
G36*
X92673167Y-102191447D02*
X92737408Y-102204112D01*
X92773980Y-102222864D01*
X92812453Y-102254017D01*
X92757717Y-102323127D01*
X92723969Y-102364979D01*
X92701053Y-102385398D01*
X92678279Y-102388517D01*
X92644956Y-102378472D01*
X92629314Y-102372789D01*
X92565542Y-102364404D01*
X92507140Y-102382378D01*
X92464264Y-102422982D01*
X92457299Y-102435929D01*
X92449713Y-102470224D01*
X92443859Y-102533427D01*
X92440011Y-102621060D01*
X92438443Y-102728640D01*
X92438421Y-102743944D01*
X92438421Y-103010526D01*
X92254605Y-103010526D01*
X92254605Y-102191710D01*
X92346513Y-102191710D01*
X92399507Y-102193094D01*
X92427115Y-102199252D01*
X92437324Y-102213194D01*
X92438421Y-102226344D01*
X92438421Y-102260978D01*
X92482450Y-102226344D01*
X92532937Y-102202716D01*
X92600760Y-102191033D01*
X92673167Y-102191447D01*
X92673167Y-102191447D01*
G37*
X92673167Y-102191447D02*
X92737408Y-102204112D01*
X92773980Y-102222864D01*
X92812453Y-102254017D01*
X92757717Y-102323127D01*
X92723969Y-102364979D01*
X92701053Y-102385398D01*
X92678279Y-102388517D01*
X92644956Y-102378472D01*
X92629314Y-102372789D01*
X92565542Y-102364404D01*
X92507140Y-102382378D01*
X92464264Y-102422982D01*
X92457299Y-102435929D01*
X92449713Y-102470224D01*
X92443859Y-102533427D01*
X92440011Y-102621060D01*
X92438443Y-102728640D01*
X92438421Y-102743944D01*
X92438421Y-103010526D01*
X92254605Y-103010526D01*
X92254605Y-102191710D01*
X92346513Y-102191710D01*
X92399507Y-102193094D01*
X92427115Y-102199252D01*
X92437324Y-102213194D01*
X92438421Y-102226344D01*
X92438421Y-102260978D01*
X92482450Y-102226344D01*
X92532937Y-102202716D01*
X92600760Y-102191033D01*
X92673167Y-102191447D01*
G36*
X93201193Y-102196078D02*
X93281068Y-102216845D01*
X93347962Y-102259705D01*
X93380351Y-102291723D01*
X93433445Y-102367413D01*
X93463873Y-102455216D01*
X93474327Y-102563150D01*
X93474380Y-102571875D01*
X93474473Y-102659605D01*
X92969534Y-102659605D01*
X92980298Y-102705559D01*
X92999732Y-102747178D01*
X93033745Y-102790544D01*
X93040860Y-102797467D01*
X93102003Y-102834935D01*
X93171729Y-102841289D01*
X93251987Y-102816638D01*
X93265592Y-102810000D01*
X93307319Y-102789819D01*
X93335268Y-102778321D01*
X93340145Y-102777258D01*
X93357168Y-102787583D01*
X93389633Y-102812845D01*
X93406114Y-102826650D01*
X93440264Y-102858361D01*
X93451478Y-102879299D01*
X93443695Y-102898560D01*
X93439535Y-102903827D01*
X93411357Y-102926878D01*
X93364862Y-102954892D01*
X93332434Y-102971246D01*
X93240385Y-103000059D01*
X93138476Y-103009395D01*
X93041963Y-102998332D01*
X93014934Y-102990412D01*
X92931276Y-102945581D01*
X92869266Y-102876598D01*
X92828545Y-102782794D01*
X92808755Y-102663498D01*
X92806582Y-102601118D01*
X92812926Y-102510298D01*
X92973157Y-102510298D01*
X92988655Y-102517012D01*
X93030312Y-102522280D01*
X93090876Y-102525389D01*
X93131907Y-102525921D01*
X93205711Y-102525408D01*
X93252293Y-102523006D01*
X93277848Y-102517422D01*
X93288569Y-102507361D01*
X93290657Y-102492763D01*
X93276331Y-102447796D01*
X93240262Y-102403353D01*
X93192815Y-102369242D01*
X93145349Y-102355288D01*
X93080879Y-102367666D01*
X93025070Y-102403452D01*
X92986374Y-102455033D01*
X92973157Y-102510298D01*
X92812926Y-102510298D01*
X92815821Y-102468866D01*
X92844336Y-102363498D01*
X92892729Y-102284178D01*
X92961604Y-102230071D01*
X93051565Y-102200343D01*
X93100300Y-102194618D01*
X93201193Y-102196078D01*
X93201193Y-102196078D01*
G37*
X93201193Y-102196078D02*
X93281068Y-102216845D01*
X93347962Y-102259705D01*
X93380351Y-102291723D01*
X93433445Y-102367413D01*
X93463873Y-102455216D01*
X93474327Y-102563150D01*
X93474380Y-102571875D01*
X93474473Y-102659605D01*
X92969534Y-102659605D01*
X92980298Y-102705559D01*
X92999732Y-102747178D01*
X93033745Y-102790544D01*
X93040860Y-102797467D01*
X93102003Y-102834935D01*
X93171729Y-102841289D01*
X93251987Y-102816638D01*
X93265592Y-102810000D01*
X93307319Y-102789819D01*
X93335268Y-102778321D01*
X93340145Y-102777258D01*
X93357168Y-102787583D01*
X93389633Y-102812845D01*
X93406114Y-102826650D01*
X93440264Y-102858361D01*
X93451478Y-102879299D01*
X93443695Y-102898560D01*
X93439535Y-102903827D01*
X93411357Y-102926878D01*
X93364862Y-102954892D01*
X93332434Y-102971246D01*
X93240385Y-103000059D01*
X93138476Y-103009395D01*
X93041963Y-102998332D01*
X93014934Y-102990412D01*
X92931276Y-102945581D01*
X92869266Y-102876598D01*
X92828545Y-102782794D01*
X92808755Y-102663498D01*
X92806582Y-102601118D01*
X92812926Y-102510298D01*
X92973157Y-102510298D01*
X92988655Y-102517012D01*
X93030312Y-102522280D01*
X93090876Y-102525389D01*
X93131907Y-102525921D01*
X93205711Y-102525408D01*
X93252293Y-102523006D01*
X93277848Y-102517422D01*
X93288569Y-102507361D01*
X93290657Y-102492763D01*
X93276331Y-102447796D01*
X93240262Y-102403353D01*
X93192815Y-102369242D01*
X93145349Y-102355288D01*
X93080879Y-102367666D01*
X93025070Y-102403452D01*
X92986374Y-102455033D01*
X92973157Y-102510298D01*
X92812926Y-102510298D01*
X92815821Y-102468866D01*
X92844336Y-102363498D01*
X92892729Y-102284178D01*
X92961604Y-102230071D01*
X93051565Y-102200343D01*
X93100300Y-102194618D01*
X93201193Y-102196078D01*
G36*
X87126784Y-100947104D02*
X87214205Y-100985754D01*
X87280570Y-101050290D01*
X87325976Y-101140812D01*
X87350518Y-101257418D01*
X87352277Y-101275624D01*
X87353656Y-101403984D01*
X87335784Y-101516496D01*
X87299750Y-101607688D01*
X87280455Y-101637022D01*
X87213245Y-101699106D01*
X87127650Y-101739316D01*
X87031890Y-101756003D01*
X86934187Y-101747517D01*
X86859917Y-101721380D01*
X86796047Y-101677335D01*
X86743846Y-101619587D01*
X86742943Y-101618236D01*
X86721744Y-101582593D01*
X86707967Y-101546752D01*
X86699624Y-101501519D01*
X86694727Y-101437701D01*
X86692569Y-101385368D01*
X86691671Y-101337910D01*
X86858743Y-101337910D01*
X86860376Y-101385154D01*
X86866304Y-101448046D01*
X86876761Y-101488407D01*
X86895619Y-101517122D01*
X86913281Y-101533896D01*
X86975894Y-101569016D01*
X87041408Y-101573710D01*
X87102421Y-101548440D01*
X87132928Y-101520124D01*
X87154911Y-101491589D01*
X87167769Y-101464284D01*
X87173412Y-101428750D01*
X87173751Y-101375524D01*
X87172012Y-101326506D01*
X87168271Y-101256482D01*
X87162341Y-101211064D01*
X87151653Y-101181440D01*
X87133639Y-101158797D01*
X87119363Y-101145855D01*
X87059651Y-101111860D01*
X86995234Y-101110165D01*
X86941219Y-101130301D01*
X86895140Y-101172352D01*
X86867689Y-101241428D01*
X86858743Y-101337910D01*
X86691671Y-101337910D01*
X86690599Y-101281299D01*
X86693964Y-101203468D01*
X86704045Y-101144930D01*
X86722226Y-101098737D01*
X86749890Y-101057942D01*
X86760146Y-101045828D01*
X86824278Y-100985474D01*
X86893066Y-100950220D01*
X86977189Y-100935450D01*
X87018209Y-100934243D01*
X87126784Y-100947104D01*
X87126784Y-100947104D01*
G37*
X87126784Y-100947104D02*
X87214205Y-100985754D01*
X87280570Y-101050290D01*
X87325976Y-101140812D01*
X87350518Y-101257418D01*
X87352277Y-101275624D01*
X87353656Y-101403984D01*
X87335784Y-101516496D01*
X87299750Y-101607688D01*
X87280455Y-101637022D01*
X87213245Y-101699106D01*
X87127650Y-101739316D01*
X87031890Y-101756003D01*
X86934187Y-101747517D01*
X86859917Y-101721380D01*
X86796047Y-101677335D01*
X86743846Y-101619587D01*
X86742943Y-101618236D01*
X86721744Y-101582593D01*
X86707967Y-101546752D01*
X86699624Y-101501519D01*
X86694727Y-101437701D01*
X86692569Y-101385368D01*
X86691671Y-101337910D01*
X86858743Y-101337910D01*
X86860376Y-101385154D01*
X86866304Y-101448046D01*
X86876761Y-101488407D01*
X86895619Y-101517122D01*
X86913281Y-101533896D01*
X86975894Y-101569016D01*
X87041408Y-101573710D01*
X87102421Y-101548440D01*
X87132928Y-101520124D01*
X87154911Y-101491589D01*
X87167769Y-101464284D01*
X87173412Y-101428750D01*
X87173751Y-101375524D01*
X87172012Y-101326506D01*
X87168271Y-101256482D01*
X87162341Y-101211064D01*
X87151653Y-101181440D01*
X87133639Y-101158797D01*
X87119363Y-101145855D01*
X87059651Y-101111860D01*
X86995234Y-101110165D01*
X86941219Y-101130301D01*
X86895140Y-101172352D01*
X86867689Y-101241428D01*
X86858743Y-101337910D01*
X86691671Y-101337910D01*
X86690599Y-101281299D01*
X86693964Y-101203468D01*
X86704045Y-101144930D01*
X86722226Y-101098737D01*
X86749890Y-101057942D01*
X86760146Y-101045828D01*
X86824278Y-100985474D01*
X86893066Y-100950220D01*
X86977189Y-100935450D01*
X87018209Y-100934243D01*
X87126784Y-100947104D01*
G36*
X88697018Y-100957027D02*
X88713670Y-100964866D01*
X88771305Y-101007086D01*
X88825805Y-101068700D01*
X88866499Y-101136543D01*
X88878074Y-101167734D01*
X88888634Y-101223449D01*
X88894931Y-101290781D01*
X88895696Y-101318585D01*
X88895789Y-101406316D01*
X88390850Y-101406316D01*
X88401613Y-101452270D01*
X88428033Y-101506620D01*
X88474222Y-101553591D01*
X88529172Y-101583848D01*
X88564189Y-101590131D01*
X88611677Y-101582506D01*
X88668335Y-101563383D01*
X88687582Y-101554584D01*
X88758759Y-101519036D01*
X88819502Y-101565367D01*
X88854552Y-101596703D01*
X88873202Y-101622567D01*
X88874147Y-101630158D01*
X88857485Y-101648556D01*
X88820970Y-101676515D01*
X88787828Y-101698327D01*
X88698393Y-101737537D01*
X88598129Y-101755285D01*
X88498754Y-101750670D01*
X88419539Y-101726551D01*
X88337880Y-101674884D01*
X88279849Y-101606856D01*
X88243546Y-101518843D01*
X88227072Y-101407216D01*
X88225611Y-101356138D01*
X88231457Y-101239091D01*
X88232175Y-101235686D01*
X88399489Y-101235686D01*
X88404097Y-101246662D01*
X88423036Y-101252715D01*
X88462098Y-101255310D01*
X88527077Y-101255910D01*
X88552097Y-101255921D01*
X88628221Y-101255014D01*
X88676496Y-101251720D01*
X88702460Y-101245181D01*
X88711648Y-101234537D01*
X88711973Y-101231119D01*
X88701487Y-101203956D01*
X88675242Y-101165903D01*
X88663959Y-101152579D01*
X88622072Y-101114896D01*
X88578409Y-101100080D01*
X88554885Y-101098842D01*
X88491243Y-101114329D01*
X88437873Y-101155930D01*
X88404019Y-101216353D01*
X88403419Y-101218322D01*
X88399489Y-101235686D01*
X88232175Y-101235686D01*
X88250899Y-101146928D01*
X88285922Y-101073190D01*
X88328756Y-101020848D01*
X88407948Y-100964092D01*
X88501040Y-100933762D01*
X88600055Y-100931021D01*
X88697018Y-100957027D01*
X88697018Y-100957027D01*
G37*
X88697018Y-100957027D02*
X88713670Y-100964866D01*
X88771305Y-101007086D01*
X88825805Y-101068700D01*
X88866499Y-101136543D01*
X88878074Y-101167734D01*
X88888634Y-101223449D01*
X88894931Y-101290781D01*
X88895696Y-101318585D01*
X88895789Y-101406316D01*
X88390850Y-101406316D01*
X88401613Y-101452270D01*
X88428033Y-101506620D01*
X88474222Y-101553591D01*
X88529172Y-101583848D01*
X88564189Y-101590131D01*
X88611677Y-101582506D01*
X88668335Y-101563383D01*
X88687582Y-101554584D01*
X88758759Y-101519036D01*
X88819502Y-101565367D01*
X88854552Y-101596703D01*
X88873202Y-101622567D01*
X88874147Y-101630158D01*
X88857485Y-101648556D01*
X88820970Y-101676515D01*
X88787828Y-101698327D01*
X88698393Y-101737537D01*
X88598129Y-101755285D01*
X88498754Y-101750670D01*
X88419539Y-101726551D01*
X88337880Y-101674884D01*
X88279849Y-101606856D01*
X88243546Y-101518843D01*
X88227072Y-101407216D01*
X88225611Y-101356138D01*
X88231457Y-101239091D01*
X88232175Y-101235686D01*
X88399489Y-101235686D01*
X88404097Y-101246662D01*
X88423036Y-101252715D01*
X88462098Y-101255310D01*
X88527077Y-101255910D01*
X88552097Y-101255921D01*
X88628221Y-101255014D01*
X88676496Y-101251720D01*
X88702460Y-101245181D01*
X88711648Y-101234537D01*
X88711973Y-101231119D01*
X88701487Y-101203956D01*
X88675242Y-101165903D01*
X88663959Y-101152579D01*
X88622072Y-101114896D01*
X88578409Y-101100080D01*
X88554885Y-101098842D01*
X88491243Y-101114329D01*
X88437873Y-101155930D01*
X88404019Y-101216353D01*
X88403419Y-101218322D01*
X88399489Y-101235686D01*
X88232175Y-101235686D01*
X88250899Y-101146928D01*
X88285922Y-101073190D01*
X88328756Y-101020848D01*
X88407948Y-100964092D01*
X88501040Y-100933762D01*
X88600055Y-100931021D01*
X88697018Y-100957027D01*
G36*
X90518628Y-100935547D02*
X90581908Y-100947548D01*
X90647557Y-100972648D01*
X90654572Y-100975848D01*
X90704356Y-101002026D01*
X90738834Y-101026353D01*
X90749978Y-101041937D01*
X90739366Y-101067353D01*
X90713588Y-101104853D01*
X90702146Y-101118852D01*
X90654992Y-101173954D01*
X90594201Y-101138086D01*
X90536347Y-101114192D01*
X90469500Y-101101420D01*
X90405394Y-101100613D01*
X90355764Y-101112615D01*
X90343854Y-101120105D01*
X90321172Y-101154450D01*
X90318416Y-101194013D01*
X90335388Y-101224920D01*
X90345427Y-101230913D01*
X90375510Y-101238357D01*
X90428389Y-101247106D01*
X90493575Y-101255467D01*
X90505600Y-101256778D01*
X90610297Y-101274888D01*
X90686232Y-101305651D01*
X90736592Y-101351907D01*
X90764564Y-101416497D01*
X90773278Y-101495387D01*
X90761240Y-101585065D01*
X90722151Y-101655486D01*
X90655855Y-101706777D01*
X90562194Y-101739067D01*
X90458223Y-101751807D01*
X90373438Y-101751654D01*
X90304665Y-101740083D01*
X90257697Y-101724109D01*
X90198350Y-101696275D01*
X90143506Y-101663973D01*
X90124013Y-101649755D01*
X90073881Y-101608835D01*
X90194803Y-101486477D01*
X90263543Y-101531967D01*
X90332488Y-101566133D01*
X90406111Y-101584004D01*
X90476883Y-101585889D01*
X90537274Y-101572101D01*
X90579757Y-101542949D01*
X90593474Y-101518352D01*
X90591417Y-101478904D01*
X90557330Y-101448737D01*
X90491308Y-101427906D01*
X90418974Y-101418279D01*
X90307652Y-101399910D01*
X90224952Y-101365254D01*
X90169765Y-101313297D01*
X90140988Y-101243023D01*
X90137001Y-101159707D01*
X90156693Y-101072681D01*
X90201589Y-101006902D01*
X90272091Y-100962068D01*
X90368601Y-100937879D01*
X90440100Y-100933137D01*
X90518628Y-100935547D01*
X90518628Y-100935547D01*
G37*
X90518628Y-100935547D02*
X90581908Y-100947548D01*
X90647557Y-100972648D01*
X90654572Y-100975848D01*
X90704356Y-101002026D01*
X90738834Y-101026353D01*
X90749978Y-101041937D01*
X90739366Y-101067353D01*
X90713588Y-101104853D01*
X90702146Y-101118852D01*
X90654992Y-101173954D01*
X90594201Y-101138086D01*
X90536347Y-101114192D01*
X90469500Y-101101420D01*
X90405394Y-101100613D01*
X90355764Y-101112615D01*
X90343854Y-101120105D01*
X90321172Y-101154450D01*
X90318416Y-101194013D01*
X90335388Y-101224920D01*
X90345427Y-101230913D01*
X90375510Y-101238357D01*
X90428389Y-101247106D01*
X90493575Y-101255467D01*
X90505600Y-101256778D01*
X90610297Y-101274888D01*
X90686232Y-101305651D01*
X90736592Y-101351907D01*
X90764564Y-101416497D01*
X90773278Y-101495387D01*
X90761240Y-101585065D01*
X90722151Y-101655486D01*
X90655855Y-101706777D01*
X90562194Y-101739067D01*
X90458223Y-101751807D01*
X90373438Y-101751654D01*
X90304665Y-101740083D01*
X90257697Y-101724109D01*
X90198350Y-101696275D01*
X90143506Y-101663973D01*
X90124013Y-101649755D01*
X90073881Y-101608835D01*
X90194803Y-101486477D01*
X90263543Y-101531967D01*
X90332488Y-101566133D01*
X90406111Y-101584004D01*
X90476883Y-101585889D01*
X90537274Y-101572101D01*
X90579757Y-101542949D01*
X90593474Y-101518352D01*
X90591417Y-101478904D01*
X90557330Y-101448737D01*
X90491308Y-101427906D01*
X90418974Y-101418279D01*
X90307652Y-101399910D01*
X90224952Y-101365254D01*
X90169765Y-101313297D01*
X90140988Y-101243023D01*
X90137001Y-101159707D01*
X90156693Y-101072681D01*
X90201589Y-101006902D01*
X90272091Y-100962068D01*
X90368601Y-100937879D01*
X90440100Y-100933137D01*
X90518628Y-100935547D01*
G36*
X91311669Y-100948310D02*
X91396192Y-100994340D01*
X91462321Y-101067006D01*
X91493478Y-101126106D01*
X91506855Y-101178305D01*
X91515522Y-101252719D01*
X91519237Y-101338442D01*
X91517754Y-101424569D01*
X91510831Y-101500193D01*
X91502745Y-101540584D01*
X91475465Y-101595840D01*
X91428220Y-101654530D01*
X91371282Y-101705852D01*
X91314924Y-101739005D01*
X91313550Y-101739531D01*
X91243616Y-101754018D01*
X91160737Y-101754377D01*
X91081977Y-101741188D01*
X91051566Y-101730617D01*
X90973239Y-101686201D01*
X90917143Y-101628007D01*
X90880286Y-101550965D01*
X90859680Y-101450001D01*
X90855018Y-101397116D01*
X90855613Y-101330663D01*
X91034736Y-101330663D01*
X91040770Y-101427630D01*
X91058138Y-101501523D01*
X91085740Y-101548736D01*
X91105404Y-101562237D01*
X91155787Y-101571651D01*
X91215673Y-101568864D01*
X91267449Y-101555316D01*
X91281027Y-101547862D01*
X91316849Y-101504451D01*
X91340493Y-101438014D01*
X91350558Y-101357161D01*
X91345642Y-101270502D01*
X91334655Y-101218349D01*
X91303109Y-101157951D01*
X91253311Y-101120197D01*
X91193337Y-101107143D01*
X91131264Y-101120849D01*
X91083582Y-101154372D01*
X91058525Y-101182031D01*
X91043900Y-101209294D01*
X91036929Y-101246190D01*
X91034833Y-101302750D01*
X91034736Y-101330663D01*
X90855613Y-101330663D01*
X90856282Y-101255994D01*
X90879265Y-101140271D01*
X90923972Y-101049941D01*
X90990405Y-100985000D01*
X91078565Y-100945445D01*
X91097495Y-100940858D01*
X91211266Y-100930090D01*
X91311669Y-100948310D01*
X91311669Y-100948310D01*
G37*
X91311669Y-100948310D02*
X91396192Y-100994340D01*
X91462321Y-101067006D01*
X91493478Y-101126106D01*
X91506855Y-101178305D01*
X91515522Y-101252719D01*
X91519237Y-101338442D01*
X91517754Y-101424569D01*
X91510831Y-101500193D01*
X91502745Y-101540584D01*
X91475465Y-101595840D01*
X91428220Y-101654530D01*
X91371282Y-101705852D01*
X91314924Y-101739005D01*
X91313550Y-101739531D01*
X91243616Y-101754018D01*
X91160737Y-101754377D01*
X91081977Y-101741188D01*
X91051566Y-101730617D01*
X90973239Y-101686201D01*
X90917143Y-101628007D01*
X90880286Y-101550965D01*
X90859680Y-101450001D01*
X90855018Y-101397116D01*
X90855613Y-101330663D01*
X91034736Y-101330663D01*
X91040770Y-101427630D01*
X91058138Y-101501523D01*
X91085740Y-101548736D01*
X91105404Y-101562237D01*
X91155787Y-101571651D01*
X91215673Y-101568864D01*
X91267449Y-101555316D01*
X91281027Y-101547862D01*
X91316849Y-101504451D01*
X91340493Y-101438014D01*
X91350558Y-101357161D01*
X91345642Y-101270502D01*
X91334655Y-101218349D01*
X91303109Y-101157951D01*
X91253311Y-101120197D01*
X91193337Y-101107143D01*
X91131264Y-101120849D01*
X91083582Y-101154372D01*
X91058525Y-101182031D01*
X91043900Y-101209294D01*
X91036929Y-101246190D01*
X91034833Y-101302750D01*
X91034736Y-101330663D01*
X90855613Y-101330663D01*
X90856282Y-101255994D01*
X90879265Y-101140271D01*
X90923972Y-101049941D01*
X90990405Y-100985000D01*
X91078565Y-100945445D01*
X91097495Y-100940858D01*
X91211266Y-100930090D01*
X91311669Y-100948310D01*
G36*
X91820131Y-101198533D02*
X91821710Y-101321089D01*
X91827481Y-101414179D01*
X91838991Y-101481651D01*
X91857790Y-101527355D01*
X91885426Y-101555139D01*
X91923448Y-101568854D01*
X91970526Y-101572358D01*
X92019832Y-101568432D01*
X92057283Y-101554089D01*
X92084428Y-101525478D01*
X92102815Y-101478751D01*
X92113993Y-101410058D01*
X92119511Y-101315550D01*
X92120921Y-101198533D01*
X92120921Y-100938421D01*
X92304736Y-100938421D01*
X92304736Y-101740526D01*
X92212828Y-101740526D01*
X92157422Y-101738281D01*
X92128891Y-101730396D01*
X92120921Y-101715428D01*
X92116120Y-101702097D01*
X92097014Y-101704917D01*
X92058504Y-101723783D01*
X91970239Y-101752887D01*
X91876623Y-101750825D01*
X91786921Y-101719221D01*
X91744204Y-101694257D01*
X91711621Y-101667226D01*
X91687817Y-101633405D01*
X91671439Y-101588068D01*
X91661131Y-101526489D01*
X91655541Y-101443943D01*
X91653312Y-101335705D01*
X91653026Y-101252004D01*
X91653026Y-100938421D01*
X91820131Y-100938421D01*
X91820131Y-101198533D01*
X91820131Y-101198533D01*
G37*
X91820131Y-101198533D02*
X91821710Y-101321089D01*
X91827481Y-101414179D01*
X91838991Y-101481651D01*
X91857790Y-101527355D01*
X91885426Y-101555139D01*
X91923448Y-101568854D01*
X91970526Y-101572358D01*
X92019832Y-101568432D01*
X92057283Y-101554089D01*
X92084428Y-101525478D01*
X92102815Y-101478751D01*
X92113993Y-101410058D01*
X92119511Y-101315550D01*
X92120921Y-101198533D01*
X92120921Y-100938421D01*
X92304736Y-100938421D01*
X92304736Y-101740526D01*
X92212828Y-101740526D01*
X92157422Y-101738281D01*
X92128891Y-101730396D01*
X92120921Y-101715428D01*
X92116120Y-101702097D01*
X92097014Y-101704917D01*
X92058504Y-101723783D01*
X91970239Y-101752887D01*
X91876623Y-101750825D01*
X91786921Y-101719221D01*
X91744204Y-101694257D01*
X91711621Y-101667226D01*
X91687817Y-101633405D01*
X91671439Y-101588068D01*
X91661131Y-101526489D01*
X91655541Y-101443943D01*
X91653312Y-101335705D01*
X91653026Y-101252004D01*
X91653026Y-100938421D01*
X91820131Y-100938421D01*
X91820131Y-101198533D01*
G36*
X93446576Y-100945419D02*
X93543395Y-100986549D01*
X93573890Y-101006571D01*
X93612865Y-101037340D01*
X93637331Y-101061533D01*
X93641578Y-101069413D01*
X93629584Y-101086899D01*
X93598887Y-101116570D01*
X93574312Y-101137279D01*
X93507046Y-101191336D01*
X93453930Y-101146642D01*
X93412884Y-101117789D01*
X93372863Y-101107829D01*
X93327059Y-101110261D01*
X93254324Y-101128345D01*
X93204256Y-101165881D01*
X93173829Y-101226562D01*
X93160017Y-101314081D01*
X93160013Y-101314136D01*
X93161208Y-101411958D01*
X93179772Y-101483730D01*
X93216804Y-101532595D01*
X93242050Y-101549143D01*
X93309097Y-101569749D01*
X93380709Y-101569762D01*
X93443015Y-101549768D01*
X93457763Y-101540000D01*
X93494750Y-101515047D01*
X93523668Y-101510958D01*
X93554856Y-101529530D01*
X93589336Y-101562887D01*
X93643912Y-101619196D01*
X93583318Y-101669142D01*
X93489698Y-101725513D01*
X93384125Y-101753293D01*
X93273798Y-101751282D01*
X93201343Y-101732862D01*
X93116656Y-101687310D01*
X93048927Y-101615650D01*
X93018157Y-101565066D01*
X92993236Y-101492488D01*
X92980766Y-101400569D01*
X92980670Y-101300948D01*
X92992870Y-101205267D01*
X93017290Y-101125169D01*
X93021136Y-101116956D01*
X93078093Y-101036413D01*
X93155209Y-100977771D01*
X93246390Y-100942247D01*
X93345543Y-100931057D01*
X93446576Y-100945419D01*
X93446576Y-100945419D01*
G37*
X93446576Y-100945419D02*
X93543395Y-100986549D01*
X93573890Y-101006571D01*
X93612865Y-101037340D01*
X93637331Y-101061533D01*
X93641578Y-101069413D01*
X93629584Y-101086899D01*
X93598887Y-101116570D01*
X93574312Y-101137279D01*
X93507046Y-101191336D01*
X93453930Y-101146642D01*
X93412884Y-101117789D01*
X93372863Y-101107829D01*
X93327059Y-101110261D01*
X93254324Y-101128345D01*
X93204256Y-101165881D01*
X93173829Y-101226562D01*
X93160017Y-101314081D01*
X93160013Y-101314136D01*
X93161208Y-101411958D01*
X93179772Y-101483730D01*
X93216804Y-101532595D01*
X93242050Y-101549143D01*
X93309097Y-101569749D01*
X93380709Y-101569762D01*
X93443015Y-101549768D01*
X93457763Y-101540000D01*
X93494750Y-101515047D01*
X93523668Y-101510958D01*
X93554856Y-101529530D01*
X93589336Y-101562887D01*
X93643912Y-101619196D01*
X93583318Y-101669142D01*
X93489698Y-101725513D01*
X93384125Y-101753293D01*
X93273798Y-101751282D01*
X93201343Y-101732862D01*
X93116656Y-101687310D01*
X93048927Y-101615650D01*
X93018157Y-101565066D01*
X92993236Y-101492488D01*
X92980766Y-101400569D01*
X92980670Y-101300948D01*
X92992870Y-101205267D01*
X93017290Y-101125169D01*
X93021136Y-101116956D01*
X93078093Y-101036413D01*
X93155209Y-100977771D01*
X93246390Y-100942247D01*
X93345543Y-100931057D01*
X93446576Y-100945419D01*
G36*
X94058784Y-100935554D02*
X94101574Y-100945949D01*
X94183609Y-100984013D01*
X94253757Y-101042149D01*
X94302305Y-101111852D01*
X94308975Y-101127502D01*
X94318124Y-101168496D01*
X94324529Y-101229138D01*
X94326710Y-101290430D01*
X94326710Y-101406316D01*
X94084407Y-101406316D01*
X93984471Y-101406693D01*
X93914069Y-101408987D01*
X93869313Y-101414938D01*
X93846315Y-101426285D01*
X93841189Y-101444771D01*
X93850048Y-101472136D01*
X93865917Y-101504155D01*
X93910184Y-101557592D01*
X93971699Y-101584215D01*
X94046885Y-101583347D01*
X94132053Y-101554371D01*
X94205659Y-101518611D01*
X94266734Y-101566904D01*
X94327810Y-101615197D01*
X94270351Y-101668285D01*
X94193641Y-101718445D01*
X94099302Y-101748688D01*
X93997827Y-101757151D01*
X93899711Y-101741974D01*
X93883881Y-101736824D01*
X93797647Y-101691791D01*
X93733501Y-101624652D01*
X93690091Y-101533405D01*
X93666064Y-101416044D01*
X93665784Y-101413529D01*
X93663633Y-101285627D01*
X93672329Y-101239997D01*
X93842105Y-101239997D01*
X93857697Y-101247013D01*
X93900029Y-101252388D01*
X93962434Y-101255457D01*
X94001981Y-101255921D01*
X94075728Y-101255630D01*
X94121840Y-101253783D01*
X94146100Y-101248912D01*
X94154294Y-101239555D01*
X94152206Y-101224245D01*
X94150455Y-101218322D01*
X94120560Y-101162668D01*
X94073542Y-101117815D01*
X94032049Y-101098105D01*
X93976926Y-101099295D01*
X93921068Y-101123875D01*
X93874212Y-101164570D01*
X93846094Y-101214108D01*
X93842105Y-101239997D01*
X93672329Y-101239997D01*
X93685074Y-101173133D01*
X93727611Y-101078727D01*
X93788747Y-101005088D01*
X93865985Y-100954893D01*
X93956830Y-100930822D01*
X94058784Y-100935554D01*
X94058784Y-100935554D01*
G37*
X94058784Y-100935554D02*
X94101574Y-100945949D01*
X94183609Y-100984013D01*
X94253757Y-101042149D01*
X94302305Y-101111852D01*
X94308975Y-101127502D01*
X94318124Y-101168496D01*
X94324529Y-101229138D01*
X94326710Y-101290430D01*
X94326710Y-101406316D01*
X94084407Y-101406316D01*
X93984471Y-101406693D01*
X93914069Y-101408987D01*
X93869313Y-101414938D01*
X93846315Y-101426285D01*
X93841189Y-101444771D01*
X93850048Y-101472136D01*
X93865917Y-101504155D01*
X93910184Y-101557592D01*
X93971699Y-101584215D01*
X94046885Y-101583347D01*
X94132053Y-101554371D01*
X94205659Y-101518611D01*
X94266734Y-101566904D01*
X94327810Y-101615197D01*
X94270351Y-101668285D01*
X94193641Y-101718445D01*
X94099302Y-101748688D01*
X93997827Y-101757151D01*
X93899711Y-101741974D01*
X93883881Y-101736824D01*
X93797647Y-101691791D01*
X93733501Y-101624652D01*
X93690091Y-101533405D01*
X93666064Y-101416044D01*
X93665784Y-101413529D01*
X93663633Y-101285627D01*
X93672329Y-101239997D01*
X93842105Y-101239997D01*
X93857697Y-101247013D01*
X93900029Y-101252388D01*
X93962434Y-101255457D01*
X94001981Y-101255921D01*
X94075728Y-101255630D01*
X94121840Y-101253783D01*
X94146100Y-101248912D01*
X94154294Y-101239555D01*
X94152206Y-101224245D01*
X94150455Y-101218322D01*
X94120560Y-101162668D01*
X94073542Y-101117815D01*
X94032049Y-101098105D01*
X93976926Y-101099295D01*
X93921068Y-101123875D01*
X93874212Y-101164570D01*
X93846094Y-101214108D01*
X93842105Y-101239997D01*
X93672329Y-101239997D01*
X93685074Y-101173133D01*
X93727611Y-101078727D01*
X93788747Y-101005088D01*
X93865985Y-100954893D01*
X93956830Y-100930822D01*
X94058784Y-100935554D01*
G36*
X89497957Y-100952226D02*
X89539546Y-100972090D01*
X89579825Y-101000784D01*
X89610510Y-101033809D01*
X89632861Y-101075931D01*
X89648136Y-101131915D01*
X89657592Y-101206528D01*
X89662487Y-101304535D01*
X89664081Y-101430702D01*
X89664106Y-101443914D01*
X89664473Y-101740526D01*
X89480657Y-101740526D01*
X89480657Y-101467081D01*
X89480527Y-101365777D01*
X89479621Y-101292353D01*
X89477173Y-101241271D01*
X89472414Y-101206990D01*
X89464574Y-101183971D01*
X89452885Y-101166673D01*
X89436602Y-101149581D01*
X89379634Y-101112857D01*
X89317445Y-101106042D01*
X89258199Y-101129261D01*
X89237595Y-101146543D01*
X89222470Y-101162791D01*
X89211610Y-101180191D01*
X89204310Y-101204212D01*
X89199863Y-101240322D01*
X89197564Y-101293988D01*
X89196704Y-101370680D01*
X89196578Y-101464043D01*
X89196578Y-101740526D01*
X89012763Y-101740526D01*
X89012763Y-100938421D01*
X89104671Y-100938421D01*
X89159851Y-100940603D01*
X89188320Y-100948351D01*
X89196575Y-100963468D01*
X89196578Y-100963916D01*
X89200408Y-100978720D01*
X89217301Y-100977040D01*
X89250888Y-100960773D01*
X89327063Y-100936840D01*
X89414200Y-100934178D01*
X89497957Y-100952226D01*
X89497957Y-100952226D01*
G37*
X89497957Y-100952226D02*
X89539546Y-100972090D01*
X89579825Y-101000784D01*
X89610510Y-101033809D01*
X89632861Y-101075931D01*
X89648136Y-101131915D01*
X89657592Y-101206528D01*
X89662487Y-101304535D01*
X89664081Y-101430702D01*
X89664106Y-101443914D01*
X89664473Y-101740526D01*
X89480657Y-101740526D01*
X89480657Y-101467081D01*
X89480527Y-101365777D01*
X89479621Y-101292353D01*
X89477173Y-101241271D01*
X89472414Y-101206990D01*
X89464574Y-101183971D01*
X89452885Y-101166673D01*
X89436602Y-101149581D01*
X89379634Y-101112857D01*
X89317445Y-101106042D01*
X89258199Y-101129261D01*
X89237595Y-101146543D01*
X89222470Y-101162791D01*
X89211610Y-101180191D01*
X89204310Y-101204212D01*
X89199863Y-101240322D01*
X89197564Y-101293988D01*
X89196704Y-101370680D01*
X89196578Y-101464043D01*
X89196578Y-101740526D01*
X89012763Y-101740526D01*
X89012763Y-100938421D01*
X89104671Y-100938421D01*
X89159851Y-100940603D01*
X89188320Y-100948351D01*
X89196575Y-100963468D01*
X89196578Y-100963916D01*
X89200408Y-100978720D01*
X89217301Y-100977040D01*
X89250888Y-100960773D01*
X89327063Y-100936840D01*
X89414200Y-100934178D01*
X89497957Y-100952226D01*
G36*
X92891388Y-100937645D02*
X92948865Y-100955206D01*
X92985872Y-100977395D01*
X92997927Y-100994942D01*
X92994609Y-101015742D01*
X92973079Y-101048419D01*
X92954874Y-101071562D01*
X92917344Y-101113402D01*
X92889148Y-101131005D01*
X92865111Y-101129856D01*
X92793808Y-101111710D01*
X92741442Y-101112534D01*
X92698918Y-101133098D01*
X92684642Y-101145134D01*
X92638947Y-101187483D01*
X92638947Y-101740526D01*
X92455131Y-101740526D01*
X92455131Y-100938421D01*
X92547039Y-100938421D01*
X92602219Y-100940603D01*
X92630688Y-100948351D01*
X92638943Y-100963468D01*
X92638947Y-100963916D01*
X92642845Y-100979749D01*
X92660474Y-100977684D01*
X92684901Y-100966261D01*
X92735350Y-100945005D01*
X92776316Y-100932216D01*
X92829028Y-100928938D01*
X92891388Y-100937645D01*
X92891388Y-100937645D01*
G37*
X92891388Y-100937645D02*
X92948865Y-100955206D01*
X92985872Y-100977395D01*
X92997927Y-100994942D01*
X92994609Y-101015742D01*
X92973079Y-101048419D01*
X92954874Y-101071562D01*
X92917344Y-101113402D01*
X92889148Y-101131005D01*
X92865111Y-101129856D01*
X92793808Y-101111710D01*
X92741442Y-101112534D01*
X92698918Y-101133098D01*
X92684642Y-101145134D01*
X92638947Y-101187483D01*
X92638947Y-101740526D01*
X92455131Y-101740526D01*
X92455131Y-100938421D01*
X92547039Y-100938421D01*
X92602219Y-100940603D01*
X92630688Y-100948351D01*
X92638943Y-100963468D01*
X92638947Y-100963916D01*
X92642845Y-100979749D01*
X92660474Y-100977684D01*
X92684901Y-100966261D01*
X92735350Y-100945005D01*
X92776316Y-100932216D01*
X92829028Y-100928938D01*
X92891388Y-100937645D01*
G36*
X91000964Y-95398576D02*
X91076513Y-95799322D01*
X91634041Y-96029154D01*
X91968465Y-95801748D01*
X92062122Y-95738431D01*
X92146782Y-95681896D01*
X92218495Y-95634727D01*
X92273311Y-95599502D01*
X92307280Y-95578805D01*
X92316530Y-95574342D01*
X92333195Y-95585820D01*
X92368806Y-95617551D01*
X92419371Y-95665483D01*
X92480900Y-95725562D01*
X92549399Y-95793733D01*
X92620879Y-95865945D01*
X92691347Y-95938142D01*
X92756811Y-96006273D01*
X92813280Y-96066283D01*
X92856763Y-96114119D01*
X92883268Y-96145727D01*
X92889605Y-96156305D01*
X92880486Y-96175806D01*
X92854920Y-96218531D01*
X92815597Y-96280298D01*
X92765203Y-96356931D01*
X92706427Y-96444248D01*
X92672368Y-96494052D01*
X92610289Y-96584993D01*
X92555126Y-96667059D01*
X92509554Y-96736163D01*
X92476250Y-96788222D01*
X92457890Y-96819150D01*
X92455131Y-96825650D01*
X92461385Y-96844121D01*
X92478434Y-96887172D01*
X92503703Y-96948749D01*
X92534622Y-97022799D01*
X92568618Y-97103270D01*
X92603118Y-97184107D01*
X92635551Y-97259258D01*
X92663343Y-97322671D01*
X92683923Y-97368293D01*
X92694719Y-97390069D01*
X92695356Y-97390926D01*
X92712307Y-97395084D01*
X92757451Y-97404361D01*
X92826110Y-97417844D01*
X92913602Y-97434621D01*
X93015250Y-97453781D01*
X93074556Y-97464830D01*
X93183172Y-97485510D01*
X93281277Y-97505189D01*
X93363909Y-97522789D01*
X93426104Y-97537233D01*
X93462899Y-97547446D01*
X93470296Y-97550686D01*
X93477540Y-97572617D01*
X93483385Y-97622147D01*
X93487835Y-97693485D01*
X93490893Y-97780839D01*
X93492565Y-97878417D01*
X93492853Y-97980426D01*
X93491761Y-98081075D01*
X93489294Y-98174572D01*
X93485456Y-98255125D01*
X93480250Y-98316942D01*
X93473681Y-98354230D01*
X93469741Y-98361993D01*
X93446188Y-98371298D01*
X93396282Y-98384600D01*
X93326623Y-98400337D01*
X93243813Y-98416946D01*
X93214905Y-98422319D01*
X93075531Y-98447848D01*
X92965436Y-98468408D01*
X92880982Y-98484815D01*
X92818530Y-98497887D01*
X92774444Y-98508441D01*
X92745085Y-98517294D01*
X92726815Y-98525263D01*
X92715998Y-98533165D01*
X92714485Y-98534727D01*
X92699377Y-98559886D01*
X92676329Y-98608850D01*
X92647644Y-98675621D01*
X92615622Y-98754205D01*
X92582565Y-98838607D01*
X92550773Y-98922830D01*
X92522549Y-99000879D01*
X92500193Y-99066759D01*
X92486007Y-99114473D01*
X92482293Y-99138027D01*
X92482602Y-99138852D01*
X92495189Y-99158104D01*
X92523744Y-99200463D01*
X92565267Y-99261521D01*
X92616756Y-99336868D01*
X92675211Y-99422096D01*
X92691858Y-99446315D01*
X92751215Y-99534123D01*
X92803447Y-99614238D01*
X92845708Y-99682062D01*
X92875153Y-99732993D01*
X92888937Y-99762431D01*
X92889605Y-99766048D01*
X92878024Y-99785057D01*
X92846024Y-99822714D01*
X92797718Y-99874973D01*
X92737220Y-99937786D01*
X92668644Y-100007106D01*
X92596104Y-100078885D01*
X92523712Y-100149077D01*
X92455584Y-100213635D01*
X92395832Y-100268510D01*
X92348571Y-100309656D01*
X92317913Y-100333026D01*
X92309432Y-100336842D01*
X92289691Y-100327855D01*
X92249274Y-100303616D01*
X92194763Y-100268209D01*
X92152823Y-100239711D01*
X92076829Y-100187418D01*
X91986834Y-100125845D01*
X91896564Y-100064370D01*
X91848032Y-100031469D01*
X91683762Y-99920359D01*
X91545869Y-99994916D01*
X91483049Y-100027578D01*
X91429629Y-100052966D01*
X91393484Y-100067446D01*
X91384284Y-100069460D01*
X91373221Y-100054584D01*
X91351394Y-100012547D01*
X91320434Y-99947227D01*
X91281970Y-99862500D01*
X91237632Y-99762245D01*
X91189047Y-99650339D01*
X91137846Y-99530659D01*
X91085659Y-99407084D01*
X91034113Y-99283491D01*
X90984840Y-99163757D01*
X90939467Y-99051759D01*
X90899625Y-98951377D01*
X90866942Y-98866486D01*
X90843049Y-98800965D01*
X90829574Y-98758690D01*
X90827406Y-98744172D01*
X90844583Y-98725653D01*
X90882190Y-98695590D01*
X90932366Y-98660232D01*
X90936578Y-98657434D01*
X91066264Y-98553625D01*
X91170834Y-98432515D01*
X91249381Y-98297976D01*
X91300999Y-98153882D01*
X91324782Y-98004105D01*
X91319823Y-97852517D01*
X91285217Y-97702992D01*
X91220057Y-97559400D01*
X91200886Y-97527984D01*
X91101174Y-97401125D01*
X90983377Y-97299255D01*
X90851571Y-97222904D01*
X90709833Y-97172602D01*
X90562242Y-97148879D01*
X90412873Y-97152265D01*
X90265803Y-97183288D01*
X90125111Y-97242480D01*
X89994873Y-97330369D01*
X89954586Y-97366042D01*
X89852055Y-97477706D01*
X89777341Y-97595257D01*
X89726090Y-97727020D01*
X89697546Y-97857507D01*
X89690500Y-98004216D01*
X89713996Y-98151653D01*
X89765649Y-98294834D01*
X89843071Y-98428777D01*
X89943875Y-98548498D01*
X90065676Y-98649014D01*
X90081684Y-98659609D01*
X90132398Y-98694306D01*
X90170950Y-98724370D01*
X90189381Y-98743565D01*
X90189649Y-98744172D01*
X90185692Y-98764936D01*
X90170007Y-98812062D01*
X90144222Y-98881673D01*
X90109969Y-98969893D01*
X90068877Y-99072844D01*
X90022576Y-99186650D01*
X89972696Y-99307435D01*
X89920867Y-99431321D01*
X89868719Y-99554432D01*
X89817882Y-99672891D01*
X89769987Y-99782823D01*
X89726662Y-99880349D01*
X89689538Y-99961593D01*
X89660244Y-100022679D01*
X89640412Y-100059730D01*
X89632426Y-100069460D01*
X89608021Y-100061883D01*
X89562358Y-100041560D01*
X89503310Y-100012125D01*
X89470840Y-99994916D01*
X89332947Y-99920359D01*
X89168677Y-100031469D01*
X89084821Y-100088390D01*
X88993013Y-100151030D01*
X88906980Y-100210011D01*
X88863887Y-100239711D01*
X88803277Y-100280410D01*
X88751955Y-100312663D01*
X88716615Y-100332384D01*
X88705137Y-100336554D01*
X88688430Y-100325307D01*
X88651454Y-100293911D01*
X88597795Y-100245624D01*
X88531038Y-100183708D01*
X88454766Y-100111421D01*
X88406527Y-100065008D01*
X88322133Y-99982087D01*
X88249197Y-99907920D01*
X88190669Y-99845680D01*
X88149497Y-99798541D01*
X88128628Y-99769673D01*
X88126626Y-99763815D01*
X88135917Y-99741532D01*
X88161591Y-99696477D01*
X88200800Y-99633211D01*
X88250697Y-99556295D01*
X88308433Y-99470292D01*
X88324851Y-99446315D01*
X88384677Y-99359170D01*
X88438350Y-99280710D01*
X88482870Y-99215345D01*
X88515235Y-99167484D01*
X88532445Y-99141535D01*
X88534107Y-99138852D01*
X88531621Y-99118172D01*
X88518423Y-99072704D01*
X88496814Y-99008444D01*
X88469096Y-98931387D01*
X88437570Y-98847529D01*
X88404537Y-98762866D01*
X88372299Y-98683392D01*
X88343157Y-98615104D01*
X88319412Y-98563997D01*
X88303365Y-98536067D01*
X88302225Y-98534727D01*
X88292412Y-98526745D01*
X88275839Y-98518851D01*
X88248868Y-98510229D01*
X88207861Y-98500062D01*
X88149180Y-98487531D01*
X88069187Y-98471821D01*
X87964245Y-98452113D01*
X87830715Y-98427592D01*
X87801804Y-98422319D01*
X87716118Y-98405764D01*
X87641418Y-98389569D01*
X87584306Y-98375296D01*
X87551383Y-98364508D01*
X87546969Y-98361993D01*
X87539694Y-98339696D01*
X87533781Y-98289869D01*
X87529234Y-98218304D01*
X87526055Y-98130793D01*
X87524251Y-98033128D01*
X87523823Y-97931101D01*
X87524777Y-97830503D01*
X87527116Y-97737127D01*
X87530844Y-97656765D01*
X87535966Y-97595209D01*
X87542484Y-97558250D01*
X87546414Y-97550686D01*
X87568292Y-97543056D01*
X87618109Y-97530642D01*
X87690903Y-97514522D01*
X87781711Y-97495773D01*
X87885569Y-97475471D01*
X87942154Y-97464830D01*
X88049514Y-97444760D01*
X88145254Y-97426580D01*
X88224694Y-97411199D01*
X88283154Y-97399531D01*
X88315955Y-97392488D01*
X88321354Y-97390926D01*
X88330478Y-97373322D01*
X88349765Y-97330918D01*
X88376645Y-97269772D01*
X88408546Y-97195943D01*
X88442898Y-97115489D01*
X88477129Y-97034468D01*
X88508669Y-96958937D01*
X88534946Y-96894955D01*
X88553389Y-96848580D01*
X88561429Y-96825869D01*
X88561578Y-96824876D01*
X88552465Y-96806961D01*
X88526914Y-96765733D01*
X88487612Y-96705291D01*
X88437243Y-96629731D01*
X88378494Y-96543152D01*
X88344342Y-96493421D01*
X88282110Y-96402236D01*
X88226836Y-96319449D01*
X88181218Y-96249249D01*
X88147952Y-96195824D01*
X88129736Y-96163361D01*
X88127105Y-96156083D01*
X88138414Y-96139145D01*
X88169681Y-96102978D01*
X88216910Y-96051635D01*
X88276108Y-95989167D01*
X88343281Y-95919626D01*
X88414434Y-95847065D01*
X88485574Y-95775535D01*
X88552707Y-95709087D01*
X88611839Y-95651774D01*
X88658975Y-95607647D01*
X88690123Y-95580759D01*
X88700543Y-95574342D01*
X88717509Y-95583365D01*
X88758089Y-95608715D01*
X88818337Y-95647810D01*
X88894307Y-95698071D01*
X88982054Y-95756917D01*
X89048244Y-95801748D01*
X89382668Y-96029154D01*
X89661433Y-95914238D01*
X89940197Y-95799322D01*
X90015746Y-95398576D01*
X90091294Y-94997829D01*
X90925415Y-94997829D01*
X91000964Y-95398576D01*
X91000964Y-95398576D01*
G37*
X91000964Y-95398576D02*
X91076513Y-95799322D01*
X91634041Y-96029154D01*
X91968465Y-95801748D01*
X92062122Y-95738431D01*
X92146782Y-95681896D01*
X92218495Y-95634727D01*
X92273311Y-95599502D01*
X92307280Y-95578805D01*
X92316530Y-95574342D01*
X92333195Y-95585820D01*
X92368806Y-95617551D01*
X92419371Y-95665483D01*
X92480900Y-95725562D01*
X92549399Y-95793733D01*
X92620879Y-95865945D01*
X92691347Y-95938142D01*
X92756811Y-96006273D01*
X92813280Y-96066283D01*
X92856763Y-96114119D01*
X92883268Y-96145727D01*
X92889605Y-96156305D01*
X92880486Y-96175806D01*
X92854920Y-96218531D01*
X92815597Y-96280298D01*
X92765203Y-96356931D01*
X92706427Y-96444248D01*
X92672368Y-96494052D01*
X92610289Y-96584993D01*
X92555126Y-96667059D01*
X92509554Y-96736163D01*
X92476250Y-96788222D01*
X92457890Y-96819150D01*
X92455131Y-96825650D01*
X92461385Y-96844121D01*
X92478434Y-96887172D01*
X92503703Y-96948749D01*
X92534622Y-97022799D01*
X92568618Y-97103270D01*
X92603118Y-97184107D01*
X92635551Y-97259258D01*
X92663343Y-97322671D01*
X92683923Y-97368293D01*
X92694719Y-97390069D01*
X92695356Y-97390926D01*
X92712307Y-97395084D01*
X92757451Y-97404361D01*
X92826110Y-97417844D01*
X92913602Y-97434621D01*
X93015250Y-97453781D01*
X93074556Y-97464830D01*
X93183172Y-97485510D01*
X93281277Y-97505189D01*
X93363909Y-97522789D01*
X93426104Y-97537233D01*
X93462899Y-97547446D01*
X93470296Y-97550686D01*
X93477540Y-97572617D01*
X93483385Y-97622147D01*
X93487835Y-97693485D01*
X93490893Y-97780839D01*
X93492565Y-97878417D01*
X93492853Y-97980426D01*
X93491761Y-98081075D01*
X93489294Y-98174572D01*
X93485456Y-98255125D01*
X93480250Y-98316942D01*
X93473681Y-98354230D01*
X93469741Y-98361993D01*
X93446188Y-98371298D01*
X93396282Y-98384600D01*
X93326623Y-98400337D01*
X93243813Y-98416946D01*
X93214905Y-98422319D01*
X93075531Y-98447848D01*
X92965436Y-98468408D01*
X92880982Y-98484815D01*
X92818530Y-98497887D01*
X92774444Y-98508441D01*
X92745085Y-98517294D01*
X92726815Y-98525263D01*
X92715998Y-98533165D01*
X92714485Y-98534727D01*
X92699377Y-98559886D01*
X92676329Y-98608850D01*
X92647644Y-98675621D01*
X92615622Y-98754205D01*
X92582565Y-98838607D01*
X92550773Y-98922830D01*
X92522549Y-99000879D01*
X92500193Y-99066759D01*
X92486007Y-99114473D01*
X92482293Y-99138027D01*
X92482602Y-99138852D01*
X92495189Y-99158104D01*
X92523744Y-99200463D01*
X92565267Y-99261521D01*
X92616756Y-99336868D01*
X92675211Y-99422096D01*
X92691858Y-99446315D01*
X92751215Y-99534123D01*
X92803447Y-99614238D01*
X92845708Y-99682062D01*
X92875153Y-99732993D01*
X92888937Y-99762431D01*
X92889605Y-99766048D01*
X92878024Y-99785057D01*
X92846024Y-99822714D01*
X92797718Y-99874973D01*
X92737220Y-99937786D01*
X92668644Y-100007106D01*
X92596104Y-100078885D01*
X92523712Y-100149077D01*
X92455584Y-100213635D01*
X92395832Y-100268510D01*
X92348571Y-100309656D01*
X92317913Y-100333026D01*
X92309432Y-100336842D01*
X92289691Y-100327855D01*
X92249274Y-100303616D01*
X92194763Y-100268209D01*
X92152823Y-100239711D01*
X92076829Y-100187418D01*
X91986834Y-100125845D01*
X91896564Y-100064370D01*
X91848032Y-100031469D01*
X91683762Y-99920359D01*
X91545869Y-99994916D01*
X91483049Y-100027578D01*
X91429629Y-100052966D01*
X91393484Y-100067446D01*
X91384284Y-100069460D01*
X91373221Y-100054584D01*
X91351394Y-100012547D01*
X91320434Y-99947227D01*
X91281970Y-99862500D01*
X91237632Y-99762245D01*
X91189047Y-99650339D01*
X91137846Y-99530659D01*
X91085659Y-99407084D01*
X91034113Y-99283491D01*
X90984840Y-99163757D01*
X90939467Y-99051759D01*
X90899625Y-98951377D01*
X90866942Y-98866486D01*
X90843049Y-98800965D01*
X90829574Y-98758690D01*
X90827406Y-98744172D01*
X90844583Y-98725653D01*
X90882190Y-98695590D01*
X90932366Y-98660232D01*
X90936578Y-98657434D01*
X91066264Y-98553625D01*
X91170834Y-98432515D01*
X91249381Y-98297976D01*
X91300999Y-98153882D01*
X91324782Y-98004105D01*
X91319823Y-97852517D01*
X91285217Y-97702992D01*
X91220057Y-97559400D01*
X91200886Y-97527984D01*
X91101174Y-97401125D01*
X90983377Y-97299255D01*
X90851571Y-97222904D01*
X90709833Y-97172602D01*
X90562242Y-97148879D01*
X90412873Y-97152265D01*
X90265803Y-97183288D01*
X90125111Y-97242480D01*
X89994873Y-97330369D01*
X89954586Y-97366042D01*
X89852055Y-97477706D01*
X89777341Y-97595257D01*
X89726090Y-97727020D01*
X89697546Y-97857507D01*
X89690500Y-98004216D01*
X89713996Y-98151653D01*
X89765649Y-98294834D01*
X89843071Y-98428777D01*
X89943875Y-98548498D01*
X90065676Y-98649014D01*
X90081684Y-98659609D01*
X90132398Y-98694306D01*
X90170950Y-98724370D01*
X90189381Y-98743565D01*
X90189649Y-98744172D01*
X90185692Y-98764936D01*
X90170007Y-98812062D01*
X90144222Y-98881673D01*
X90109969Y-98969893D01*
X90068877Y-99072844D01*
X90022576Y-99186650D01*
X89972696Y-99307435D01*
X89920867Y-99431321D01*
X89868719Y-99554432D01*
X89817882Y-99672891D01*
X89769987Y-99782823D01*
X89726662Y-99880349D01*
X89689538Y-99961593D01*
X89660244Y-100022679D01*
X89640412Y-100059730D01*
X89632426Y-100069460D01*
X89608021Y-100061883D01*
X89562358Y-100041560D01*
X89503310Y-100012125D01*
X89470840Y-99994916D01*
X89332947Y-99920359D01*
X89168677Y-100031469D01*
X89084821Y-100088390D01*
X88993013Y-100151030D01*
X88906980Y-100210011D01*
X88863887Y-100239711D01*
X88803277Y-100280410D01*
X88751955Y-100312663D01*
X88716615Y-100332384D01*
X88705137Y-100336554D01*
X88688430Y-100325307D01*
X88651454Y-100293911D01*
X88597795Y-100245624D01*
X88531038Y-100183708D01*
X88454766Y-100111421D01*
X88406527Y-100065008D01*
X88322133Y-99982087D01*
X88249197Y-99907920D01*
X88190669Y-99845680D01*
X88149497Y-99798541D01*
X88128628Y-99769673D01*
X88126626Y-99763815D01*
X88135917Y-99741532D01*
X88161591Y-99696477D01*
X88200800Y-99633211D01*
X88250697Y-99556295D01*
X88308433Y-99470292D01*
X88324851Y-99446315D01*
X88384677Y-99359170D01*
X88438350Y-99280710D01*
X88482870Y-99215345D01*
X88515235Y-99167484D01*
X88532445Y-99141535D01*
X88534107Y-99138852D01*
X88531621Y-99118172D01*
X88518423Y-99072704D01*
X88496814Y-99008444D01*
X88469096Y-98931387D01*
X88437570Y-98847529D01*
X88404537Y-98762866D01*
X88372299Y-98683392D01*
X88343157Y-98615104D01*
X88319412Y-98563997D01*
X88303365Y-98536067D01*
X88302225Y-98534727D01*
X88292412Y-98526745D01*
X88275839Y-98518851D01*
X88248868Y-98510229D01*
X88207861Y-98500062D01*
X88149180Y-98487531D01*
X88069187Y-98471821D01*
X87964245Y-98452113D01*
X87830715Y-98427592D01*
X87801804Y-98422319D01*
X87716118Y-98405764D01*
X87641418Y-98389569D01*
X87584306Y-98375296D01*
X87551383Y-98364508D01*
X87546969Y-98361993D01*
X87539694Y-98339696D01*
X87533781Y-98289869D01*
X87529234Y-98218304D01*
X87526055Y-98130793D01*
X87524251Y-98033128D01*
X87523823Y-97931101D01*
X87524777Y-97830503D01*
X87527116Y-97737127D01*
X87530844Y-97656765D01*
X87535966Y-97595209D01*
X87542484Y-97558250D01*
X87546414Y-97550686D01*
X87568292Y-97543056D01*
X87618109Y-97530642D01*
X87690903Y-97514522D01*
X87781711Y-97495773D01*
X87885569Y-97475471D01*
X87942154Y-97464830D01*
X88049514Y-97444760D01*
X88145254Y-97426580D01*
X88224694Y-97411199D01*
X88283154Y-97399531D01*
X88315955Y-97392488D01*
X88321354Y-97390926D01*
X88330478Y-97373322D01*
X88349765Y-97330918D01*
X88376645Y-97269772D01*
X88408546Y-97195943D01*
X88442898Y-97115489D01*
X88477129Y-97034468D01*
X88508669Y-96958937D01*
X88534946Y-96894955D01*
X88553389Y-96848580D01*
X88561429Y-96825869D01*
X88561578Y-96824876D01*
X88552465Y-96806961D01*
X88526914Y-96765733D01*
X88487612Y-96705291D01*
X88437243Y-96629731D01*
X88378494Y-96543152D01*
X88344342Y-96493421D01*
X88282110Y-96402236D01*
X88226836Y-96319449D01*
X88181218Y-96249249D01*
X88147952Y-96195824D01*
X88129736Y-96163361D01*
X88127105Y-96156083D01*
X88138414Y-96139145D01*
X88169681Y-96102978D01*
X88216910Y-96051635D01*
X88276108Y-95989167D01*
X88343281Y-95919626D01*
X88414434Y-95847065D01*
X88485574Y-95775535D01*
X88552707Y-95709087D01*
X88611839Y-95651774D01*
X88658975Y-95607647D01*
X88690123Y-95580759D01*
X88700543Y-95574342D01*
X88717509Y-95583365D01*
X88758089Y-95608715D01*
X88818337Y-95647810D01*
X88894307Y-95698071D01*
X88982054Y-95756917D01*
X89048244Y-95801748D01*
X89382668Y-96029154D01*
X89661433Y-95914238D01*
X89940197Y-95799322D01*
X90015746Y-95398576D01*
X90091294Y-94997829D01*
X90925415Y-94997829D01*
X91000964Y-95398576D01*
D12*
X91110000Y-74660000D03*
X93650000Y-74660000D03*
X96190000Y-74660000D03*
X98730000Y-74660000D03*
X101270000Y-74660000D03*
X103810000Y-74660000D03*
X106350000Y-74660000D03*
X108890000Y-74660000D03*
X111430000Y-74660000D03*
X113970000Y-74660000D03*
X116510000Y-74660000D03*
X119050000Y-74660000D03*
X119050000Y-54340000D03*
X116510000Y-54340000D03*
X113970000Y-54340000D03*
X111430000Y-54340000D03*
X108890000Y-54340000D03*
X106350000Y-54340000D03*
X103810000Y-54340000D03*
X101270000Y-54340000D03*
X98730000Y-54340000D03*
X96190000Y-54340000D03*
X93650000Y-54340000D03*
X91110000Y-54340000D03*
X88570000Y-54340000D03*
X86030000Y-54340000D03*
X83490000Y-54340000D03*
X80950000Y-54340000D03*
D13*
X75350000Y-117000000D03*
X80650000Y-117000000D03*
D14*
X114062500Y-68093750D03*
X119062500Y-70193750D03*
X95012500Y-68093750D03*
X100012500Y-70193750D03*
X114062500Y-91906250D03*
X119062500Y-94006250D03*
X114062500Y-110956250D03*
X119062500Y-113056250D03*
X95012500Y-110956250D03*
X100012500Y-113056250D03*
X75962500Y-110956250D03*
X80962500Y-113056250D03*
X114062500Y-130006250D03*
X119062500Y-132106250D03*
X95012500Y-130006250D03*
X100012500Y-132106250D03*
X75962500Y-130006250D03*
X80962500Y-132106250D03*
D12*
X124740000Y-116540000D03*
X122200000Y-116540000D03*
D14*
X75962500Y-91906250D03*
X80962500Y-94006250D03*
X95012500Y-91906250D03*
X100012500Y-94006250D03*
X75962500Y-68093750D03*
X80962500Y-70193750D03*
D15*
X110500000Y-58000000D03*
X100000000Y-58000000D03*
X91000000Y-80000000D03*
X91000000Y-82000000D03*
X126500000Y-72500000D03*
X77724000Y-69850000D03*
X88500000Y-85000000D03*
X87500000Y-117000000D03*
D16*
X100000000Y-58000000D02*
X110500000Y-58000000D01*
X91000000Y-82000000D02*
X91000000Y-80000000D01*
D17*
X96190000Y-74660000D02*
X96190000Y-74310000D01*
X96190000Y-74310000D02*
X98000000Y-72500000D01*
X98000000Y-72500000D02*
X126500000Y-72500000D01*
D16*
X96202500Y-74453750D02*
X96202500Y-74003750D01*
X79480250Y-68093750D02*
X95012500Y-68093750D01*
X77724000Y-69850000D02*
X79480250Y-68093750D01*
X101270000Y-74660000D02*
X101270000Y-76730000D01*
X75106250Y-132106250D02*
X80962500Y-132106250D01*
X73000000Y-130000000D02*
X75106250Y-132106250D01*
X73000000Y-97500000D02*
X73000000Y-130000000D01*
X79500000Y-91000000D02*
X73000000Y-97500000D01*
X87000000Y-91000000D02*
X79500000Y-91000000D01*
X101270000Y-76730000D02*
X87000000Y-91000000D01*
D18*
X100012500Y-132106250D02*
X119062500Y-132106250D01*
X80962500Y-132106250D02*
X100012500Y-132106250D01*
D16*
X103810000Y-74660000D02*
X103810000Y-76690000D01*
X77500000Y-109593750D02*
X80962500Y-113056250D01*
X77500000Y-94500000D02*
X77500000Y-109593750D01*
X80000000Y-92000000D02*
X77500000Y-94500000D01*
X88500000Y-92000000D02*
X80000000Y-92000000D01*
X103810000Y-76690000D02*
X88500000Y-92000000D01*
D18*
X119062500Y-112712500D02*
X119062500Y-113056250D01*
X100012500Y-113056250D02*
X80962500Y-113056250D01*
X119062500Y-113056250D02*
X100012500Y-113056250D01*
D16*
X100012500Y-94006250D02*
X100493750Y-94006250D01*
X100493750Y-94006250D02*
X103500000Y-91000000D01*
X106350000Y-77150000D02*
X106350000Y-74660000D01*
X103500000Y-80000000D02*
X106350000Y-77150000D01*
X103500000Y-91000000D02*
X103500000Y-80000000D01*
D18*
X100012500Y-94006250D02*
X119062500Y-94006250D01*
D16*
X80962500Y-94006250D02*
X100012500Y-94006250D01*
X103822500Y-54822500D02*
X103822500Y-54133750D01*
D18*
X80962500Y-70193750D02*
X100012500Y-70193750D01*
X119062500Y-70193750D02*
X100012500Y-70193750D01*
D16*
X80650000Y-117000000D02*
X87500000Y-117000000D01*
X88500000Y-80000000D02*
X93650000Y-74850000D01*
X88500000Y-85000000D02*
X88500000Y-80000000D01*
X93650000Y-74850000D02*
X93650000Y-74660000D01*
X80650000Y-117000000D02*
X80650000Y-116650000D01*
G36*
X80159697Y-53154990D02*
X79766371Y-53547630D01*
X79553243Y-54060900D01*
X79552758Y-54616661D01*
X79764990Y-55130303D01*
X80157630Y-55523629D01*
X80670900Y-55736757D01*
X81226661Y-55737242D01*
X81740303Y-55525010D01*
X82133629Y-55132370D01*
X82219949Y-54924488D01*
X82304990Y-55130303D01*
X82697630Y-55523629D01*
X83210900Y-55736757D01*
X83766661Y-55737242D01*
X84280303Y-55525010D01*
X84673629Y-55132370D01*
X84759949Y-54924488D01*
X84844990Y-55130303D01*
X85237630Y-55523629D01*
X85750900Y-55736757D01*
X86306661Y-55737242D01*
X86820303Y-55525010D01*
X87025457Y-55320213D01*
X87769392Y-55320213D01*
X87838857Y-55562397D01*
X88362302Y-55749144D01*
X88917368Y-55721362D01*
X89301143Y-55562397D01*
X89370608Y-55320213D01*
X88570000Y-54519605D01*
X87769392Y-55320213D01*
X87025457Y-55320213D01*
X87213629Y-55132370D01*
X87293395Y-54940273D01*
X87347603Y-55071143D01*
X87589787Y-55140608D01*
X88390395Y-54340000D01*
X87589787Y-53539392D01*
X87347603Y-53608857D01*
X87297491Y-53749318D01*
X87215010Y-53549697D01*
X86822370Y-53156371D01*
X86680593Y-53097500D01*
X87887390Y-53097500D01*
X87838857Y-53117603D01*
X87769392Y-53359787D01*
X88570000Y-54160395D01*
X89370608Y-53359787D01*
X89301143Y-53117603D01*
X89244795Y-53097500D01*
X90458834Y-53097500D01*
X90319697Y-53154990D01*
X89926371Y-53547630D01*
X89846605Y-53739727D01*
X89792397Y-53608857D01*
X89550213Y-53539392D01*
X88749605Y-54340000D01*
X89550213Y-55140608D01*
X89792397Y-55071143D01*
X89842509Y-54930682D01*
X89924990Y-55130303D01*
X90317630Y-55523629D01*
X90830900Y-55736757D01*
X91386661Y-55737242D01*
X91900303Y-55525010D01*
X92293629Y-55132370D01*
X92379949Y-54924488D01*
X92464990Y-55130303D01*
X92857630Y-55523629D01*
X93370900Y-55736757D01*
X93926661Y-55737242D01*
X94440303Y-55525010D01*
X94833629Y-55132370D01*
X94919949Y-54924488D01*
X95004990Y-55130303D01*
X95397630Y-55523629D01*
X95910900Y-55736757D01*
X96466661Y-55737242D01*
X96980303Y-55525010D01*
X97373629Y-55132370D01*
X97459949Y-54924488D01*
X97544990Y-55130303D01*
X97937630Y-55523629D01*
X98450900Y-55736757D01*
X99006661Y-55737242D01*
X99520303Y-55525010D01*
X99913629Y-55132370D01*
X99999949Y-54924488D01*
X100084990Y-55130303D01*
X100477630Y-55523629D01*
X100990900Y-55736757D01*
X101546661Y-55737242D01*
X102060303Y-55525010D01*
X102453629Y-55132370D01*
X102539949Y-54924488D01*
X102624990Y-55130303D01*
X103017630Y-55523629D01*
X103530900Y-55736757D01*
X104086661Y-55737242D01*
X104600303Y-55525010D01*
X104993629Y-55132370D01*
X105079949Y-54924488D01*
X105164990Y-55130303D01*
X105557630Y-55523629D01*
X106070900Y-55736757D01*
X106626661Y-55737242D01*
X107140303Y-55525010D01*
X107533629Y-55132370D01*
X107619949Y-54924488D01*
X107704990Y-55130303D01*
X108097630Y-55523629D01*
X108610900Y-55736757D01*
X109166661Y-55737242D01*
X109680303Y-55525010D01*
X110073629Y-55132370D01*
X110159949Y-54924488D01*
X110244990Y-55130303D01*
X110637630Y-55523629D01*
X111150900Y-55736757D01*
X111706661Y-55737242D01*
X112220303Y-55525010D01*
X112613629Y-55132370D01*
X112699949Y-54924488D01*
X112784990Y-55130303D01*
X113177630Y-55523629D01*
X113690900Y-55736757D01*
X114246661Y-55737242D01*
X114760303Y-55525010D01*
X115153629Y-55132370D01*
X115239949Y-54924488D01*
X115324990Y-55130303D01*
X115717630Y-55523629D01*
X116230900Y-55736757D01*
X116786661Y-55737242D01*
X117300303Y-55525010D01*
X117693629Y-55132370D01*
X117779949Y-54924488D01*
X117864990Y-55130303D01*
X118257630Y-55523629D01*
X118770900Y-55736757D01*
X119326661Y-55737242D01*
X119840303Y-55525010D01*
X120233629Y-55132370D01*
X120446757Y-54619100D01*
X120447242Y-54063339D01*
X120235010Y-53549697D01*
X119842370Y-53156371D01*
X119700593Y-53097500D01*
X127877500Y-53097500D01*
X127877500Y-135021250D01*
X72147500Y-135021250D01*
X72147500Y-97500000D01*
X72238000Y-97500000D01*
X72238000Y-130000000D01*
X72296004Y-130291605D01*
X72405540Y-130455537D01*
X72461185Y-130538815D01*
X74567434Y-132645065D01*
X74811879Y-132808398D01*
X74814645Y-132810246D01*
X75106250Y-132868250D01*
X79490967Y-132868250D01*
X79562034Y-133040245D01*
X80026063Y-133505084D01*
X80632655Y-133756963D01*
X81289463Y-133757536D01*
X81896495Y-133506716D01*
X82361334Y-133042687D01*
X82434597Y-132866250D01*
X98540141Y-132866250D01*
X98612034Y-133040245D01*
X99076063Y-133505084D01*
X99682655Y-133756963D01*
X100339463Y-133757536D01*
X100946495Y-133506716D01*
X101411334Y-133042687D01*
X101484597Y-132866250D01*
X117590141Y-132866250D01*
X117662034Y-133040245D01*
X118126063Y-133505084D01*
X118732655Y-133756963D01*
X119389463Y-133757536D01*
X119996495Y-133506716D01*
X120461334Y-133042687D01*
X120713213Y-132436095D01*
X120713786Y-131779287D01*
X120462966Y-131172255D01*
X119998937Y-130707416D01*
X119392345Y-130455537D01*
X118735537Y-130454964D01*
X118128505Y-130705784D01*
X117663666Y-131169813D01*
X117590403Y-131346250D01*
X115057067Y-131346250D01*
X115461334Y-130942687D01*
X115713213Y-130336095D01*
X115713786Y-129679287D01*
X115462966Y-129072255D01*
X114998937Y-128607416D01*
X114392345Y-128355537D01*
X113735537Y-128354964D01*
X113128505Y-128605784D01*
X112663666Y-129069813D01*
X112411787Y-129676405D01*
X112411214Y-130333213D01*
X112662034Y-130940245D01*
X113067332Y-131346250D01*
X101484859Y-131346250D01*
X101412966Y-131172255D01*
X100948937Y-130707416D01*
X100342345Y-130455537D01*
X99685537Y-130454964D01*
X99078505Y-130705784D01*
X98613666Y-131169813D01*
X98540403Y-131346250D01*
X96007067Y-131346250D01*
X96411334Y-130942687D01*
X96663213Y-130336095D01*
X96663786Y-129679287D01*
X96412966Y-129072255D01*
X95948937Y-128607416D01*
X95342345Y-128355537D01*
X94685537Y-128354964D01*
X94078505Y-128605784D01*
X93613666Y-129069813D01*
X93361787Y-129676405D01*
X93361214Y-130333213D01*
X93612034Y-130940245D01*
X94017332Y-131346250D01*
X82434859Y-131346250D01*
X82362966Y-131172255D01*
X81898937Y-130707416D01*
X81292345Y-130455537D01*
X80635537Y-130454964D01*
X80028505Y-130705784D01*
X79563666Y-131169813D01*
X79491233Y-131344250D01*
X76959070Y-131344250D01*
X77361334Y-130942687D01*
X77613213Y-130336095D01*
X77613786Y-129679287D01*
X77362966Y-129072255D01*
X76898937Y-128607416D01*
X76292345Y-128355537D01*
X75635537Y-128354964D01*
X75028505Y-128605784D01*
X74563666Y-129069813D01*
X74311787Y-129676405D01*
X74311301Y-130233670D01*
X73762000Y-129684370D01*
X73762000Y-126515608D01*
X73900130Y-126515608D01*
X74137444Y-127089952D01*
X74576486Y-127529761D01*
X75150416Y-127768078D01*
X75771858Y-127768620D01*
X76346202Y-127531306D01*
X76786011Y-127092264D01*
X76964886Y-126661484D01*
X78663402Y-126661484D01*
X79012621Y-127506658D01*
X79658691Y-128153857D01*
X80503254Y-128504550D01*
X81417734Y-128505348D01*
X82262908Y-128156129D01*
X82910107Y-127510059D01*
X83260800Y-126665496D01*
X83260930Y-126515608D01*
X84900130Y-126515608D01*
X85137444Y-127089952D01*
X85576486Y-127529761D01*
X86150416Y-127768078D01*
X86771858Y-127768620D01*
X87346202Y-127531306D01*
X87786011Y-127092264D01*
X88024328Y-126518334D01*
X88024330Y-126515608D01*
X92950130Y-126515608D01*
X93187444Y-127089952D01*
X93626486Y-127529761D01*
X94200416Y-127768078D01*
X94821858Y-127768620D01*
X95396202Y-127531306D01*
X95836011Y-127092264D01*
X96014886Y-126661484D01*
X97713402Y-126661484D01*
X98062621Y-127506658D01*
X98708691Y-128153857D01*
X99553254Y-128504550D01*
X100467734Y-128505348D01*
X101312908Y-128156129D01*
X101960107Y-127510059D01*
X102310800Y-126665496D01*
X102310930Y-126515608D01*
X103950130Y-126515608D01*
X104187444Y-127089952D01*
X104626486Y-127529761D01*
X105200416Y-127768078D01*
X105821858Y-127768620D01*
X106396202Y-127531306D01*
X106836011Y-127092264D01*
X107074328Y-126518334D01*
X107074330Y-126515608D01*
X112000130Y-126515608D01*
X112237444Y-127089952D01*
X112676486Y-127529761D01*
X113250416Y-127768078D01*
X113871858Y-127768620D01*
X114446202Y-127531306D01*
X114886011Y-127092264D01*
X115064886Y-126661484D01*
X116763402Y-126661484D01*
X117112621Y-127506658D01*
X117758691Y-128153857D01*
X118603254Y-128504550D01*
X119517734Y-128505348D01*
X120362908Y-128156129D01*
X121010107Y-127510059D01*
X121360800Y-126665496D01*
X121360930Y-126515608D01*
X123000130Y-126515608D01*
X123237444Y-127089952D01*
X123676486Y-127529761D01*
X124250416Y-127768078D01*
X124871858Y-127768620D01*
X125446202Y-127531306D01*
X125886011Y-127092264D01*
X126124328Y-126518334D01*
X126124870Y-125896892D01*
X125887556Y-125322548D01*
X125448514Y-124882739D01*
X124874584Y-124644422D01*
X124253142Y-124643880D01*
X123678798Y-124881194D01*
X123238989Y-125320236D01*
X123000672Y-125894166D01*
X123000130Y-126515608D01*
X121360930Y-126515608D01*
X121361598Y-125751016D01*
X121012379Y-124905842D01*
X120366309Y-124258643D01*
X119521746Y-123907950D01*
X118607266Y-123907152D01*
X117762092Y-124256371D01*
X117114893Y-124902441D01*
X116764200Y-125747004D01*
X116763402Y-126661484D01*
X115064886Y-126661484D01*
X115124328Y-126518334D01*
X115124870Y-125896892D01*
X114887556Y-125322548D01*
X114448514Y-124882739D01*
X113874584Y-124644422D01*
X113253142Y-124643880D01*
X112678798Y-124881194D01*
X112238989Y-125320236D01*
X112000672Y-125894166D01*
X112000130Y-126515608D01*
X107074330Y-126515608D01*
X107074870Y-125896892D01*
X106837556Y-125322548D01*
X106398514Y-124882739D01*
X105824584Y-124644422D01*
X105203142Y-124643880D01*
X104628798Y-124881194D01*
X104188989Y-125320236D01*
X103950672Y-125894166D01*
X103950130Y-126515608D01*
X102310930Y-126515608D01*
X102311598Y-125751016D01*
X101962379Y-124905842D01*
X101316309Y-124258643D01*
X100471746Y-123907950D01*
X99557266Y-123907152D01*
X98712092Y-124256371D01*
X98064893Y-124902441D01*
X97714200Y-125747004D01*
X97713402Y-126661484D01*
X96014886Y-126661484D01*
X96074328Y-126518334D01*
X96074870Y-125896892D01*
X95837556Y-125322548D01*
X95398514Y-124882739D01*
X94824584Y-124644422D01*
X94203142Y-124643880D01*
X93628798Y-124881194D01*
X93188989Y-125320236D01*
X92950672Y-125894166D01*
X92950130Y-126515608D01*
X88024330Y-126515608D01*
X88024870Y-125896892D01*
X87787556Y-125322548D01*
X87348514Y-124882739D01*
X86774584Y-124644422D01*
X86153142Y-124643880D01*
X85578798Y-124881194D01*
X85138989Y-125320236D01*
X84900672Y-125894166D01*
X84900130Y-126515608D01*
X83260930Y-126515608D01*
X83261598Y-125751016D01*
X82912379Y-124905842D01*
X82266309Y-124258643D01*
X81421746Y-123907950D01*
X80507266Y-123907152D01*
X79662092Y-124256371D01*
X79014893Y-124902441D01*
X78664200Y-125747004D01*
X78663402Y-126661484D01*
X76964886Y-126661484D01*
X77024328Y-126518334D01*
X77024870Y-125896892D01*
X76787556Y-125322548D01*
X76348514Y-124882739D01*
X75774584Y-124644422D01*
X75153142Y-124643880D01*
X74578798Y-124881194D01*
X74138989Y-125320236D01*
X73900672Y-125894166D01*
X73900130Y-126515608D01*
X73762000Y-126515608D01*
X73762000Y-122230094D01*
X85052004Y-122230094D01*
X85223719Y-122645677D01*
X85541400Y-122963913D01*
X85956683Y-123136353D01*
X86406344Y-123136746D01*
X86821927Y-122965031D01*
X87140163Y-122647350D01*
X87312603Y-122232067D01*
X87312604Y-122230094D01*
X104102004Y-122230094D01*
X104273719Y-122645677D01*
X104591400Y-122963913D01*
X105006683Y-123136353D01*
X105456344Y-123136746D01*
X105871927Y-122965031D01*
X106190163Y-122647350D01*
X106362603Y-122232067D01*
X106362604Y-122230094D01*
X123152004Y-122230094D01*
X123323719Y-122645677D01*
X123641400Y-122963913D01*
X124056683Y-123136353D01*
X124506344Y-123136746D01*
X124921927Y-122965031D01*
X125240163Y-122647350D01*
X125412603Y-122232067D01*
X125412996Y-121782406D01*
X125241281Y-121366823D01*
X124923600Y-121048587D01*
X124508317Y-120876147D01*
X124058656Y-120875754D01*
X123643073Y-121047469D01*
X123324837Y-121365150D01*
X123152397Y-121780433D01*
X123152004Y-122230094D01*
X106362604Y-122230094D01*
X106362996Y-121782406D01*
X106191281Y-121366823D01*
X105873600Y-121048587D01*
X105458317Y-120876147D01*
X105008656Y-120875754D01*
X104593073Y-121047469D01*
X104274837Y-121365150D01*
X104102397Y-121780433D01*
X104102004Y-122230094D01*
X87312604Y-122230094D01*
X87312996Y-121782406D01*
X87141281Y-121366823D01*
X86823600Y-121048587D01*
X86408317Y-120876147D01*
X85958656Y-120875754D01*
X85543073Y-121047469D01*
X85224837Y-121365150D01*
X85052397Y-121780433D01*
X85052004Y-122230094D01*
X73762000Y-122230094D01*
X73762000Y-118035413D01*
X74494192Y-118035413D01*
X74573017Y-118285490D01*
X75124097Y-118484977D01*
X75709569Y-118458389D01*
X76126983Y-118285490D01*
X76205808Y-118035413D01*
X75350000Y-117179605D01*
X74494192Y-118035413D01*
X73762000Y-118035413D01*
X73762000Y-116774097D01*
X73865023Y-116774097D01*
X73891611Y-117359569D01*
X74064510Y-117776983D01*
X74314587Y-117855808D01*
X75170395Y-117000000D01*
X75529605Y-117000000D01*
X76385413Y-117855808D01*
X76635490Y-117776983D01*
X76811140Y-117291752D01*
X79176545Y-117291752D01*
X79400353Y-117833411D01*
X79814409Y-118248190D01*
X80355677Y-118472944D01*
X80941752Y-118473455D01*
X81483411Y-118249647D01*
X81898190Y-117835591D01*
X81928748Y-117762000D01*
X86878917Y-117762000D01*
X86945341Y-117828540D01*
X87304630Y-117977730D01*
X87693663Y-117978069D01*
X88053212Y-117829507D01*
X88328540Y-117554659D01*
X88342843Y-117520213D01*
X121399392Y-117520213D01*
X121468857Y-117762397D01*
X121992302Y-117949144D01*
X122547368Y-117921362D01*
X122931143Y-117762397D01*
X123000608Y-117520213D01*
X122200000Y-116719605D01*
X121399392Y-117520213D01*
X88342843Y-117520213D01*
X88477730Y-117195370D01*
X88478069Y-116806337D01*
X88329507Y-116446788D01*
X88215221Y-116332302D01*
X120790856Y-116332302D01*
X120818638Y-116887368D01*
X120977603Y-117271143D01*
X121219787Y-117340608D01*
X122020395Y-116540000D01*
X122379605Y-116540000D01*
X123180213Y-117340608D01*
X123422397Y-117271143D01*
X123472509Y-117130682D01*
X123554990Y-117330303D01*
X123947630Y-117723629D01*
X124460900Y-117936757D01*
X125016661Y-117937242D01*
X125530303Y-117725010D01*
X125923629Y-117332370D01*
X126136757Y-116819100D01*
X126137242Y-116263339D01*
X125925010Y-115749697D01*
X125532370Y-115356371D01*
X125019100Y-115143243D01*
X124463339Y-115142758D01*
X123949697Y-115354990D01*
X123556371Y-115747630D01*
X123476605Y-115939727D01*
X123422397Y-115808857D01*
X123180213Y-115739392D01*
X122379605Y-116540000D01*
X122020395Y-116540000D01*
X121219787Y-115739392D01*
X120977603Y-115808857D01*
X120790856Y-116332302D01*
X88215221Y-116332302D01*
X88054659Y-116171460D01*
X87695370Y-116022270D01*
X87306337Y-116021931D01*
X86946788Y-116170493D01*
X86879163Y-116238000D01*
X81929153Y-116238000D01*
X81899647Y-116166589D01*
X81485591Y-115751810D01*
X81023149Y-115559787D01*
X121399392Y-115559787D01*
X122200000Y-116360395D01*
X123000608Y-115559787D01*
X122931143Y-115317603D01*
X122407698Y-115130856D01*
X121852632Y-115158638D01*
X121468857Y-115317603D01*
X121399392Y-115559787D01*
X81023149Y-115559787D01*
X80944323Y-115527056D01*
X80358248Y-115526545D01*
X79816589Y-115750353D01*
X79401810Y-116164409D01*
X79177056Y-116705677D01*
X79176545Y-117291752D01*
X76811140Y-117291752D01*
X76834977Y-117225903D01*
X76808389Y-116640431D01*
X76635490Y-116223017D01*
X76385413Y-116144192D01*
X75529605Y-117000000D01*
X75170395Y-117000000D01*
X74314587Y-116144192D01*
X74064510Y-116223017D01*
X73865023Y-116774097D01*
X73762000Y-116774097D01*
X73762000Y-115964587D01*
X74494192Y-115964587D01*
X75350000Y-116820395D01*
X76205808Y-115964587D01*
X76126983Y-115714510D01*
X75575903Y-115515023D01*
X74990431Y-115541611D01*
X74573017Y-115714510D01*
X74494192Y-115964587D01*
X73762000Y-115964587D01*
X73762000Y-97815630D01*
X76738000Y-94839630D01*
X76738000Y-106222905D01*
X76348514Y-105832739D01*
X75774584Y-105594422D01*
X75153142Y-105593880D01*
X74578798Y-105831194D01*
X74138989Y-106270236D01*
X73900672Y-106844166D01*
X73900130Y-107465608D01*
X74137444Y-108039952D01*
X74576486Y-108479761D01*
X75150416Y-108718078D01*
X75771858Y-108718620D01*
X76346202Y-108481306D01*
X76738000Y-108090191D01*
X76738000Y-109490589D01*
X76292345Y-109305537D01*
X75635537Y-109304964D01*
X75028505Y-109555784D01*
X74563666Y-110019813D01*
X74311787Y-110626405D01*
X74311214Y-111283213D01*
X74562034Y-111890245D01*
X75026063Y-112355084D01*
X75632655Y-112606963D01*
X76289463Y-112607536D01*
X76896495Y-112356716D01*
X77361334Y-111892687D01*
X77613213Y-111286095D01*
X77613650Y-110785030D01*
X79383154Y-112554535D01*
X79311787Y-112726405D01*
X79311214Y-113383213D01*
X79562034Y-113990245D01*
X80026063Y-114455084D01*
X80632655Y-114706963D01*
X81289463Y-114707536D01*
X81896495Y-114456716D01*
X82361334Y-113992687D01*
X82434597Y-113816250D01*
X98540141Y-113816250D01*
X98612034Y-113990245D01*
X99076063Y-114455084D01*
X99682655Y-114706963D01*
X100339463Y-114707536D01*
X100946495Y-114456716D01*
X101411334Y-113992687D01*
X101484597Y-113816250D01*
X117590141Y-113816250D01*
X117662034Y-113990245D01*
X118126063Y-114455084D01*
X118732655Y-114706963D01*
X119389463Y-114707536D01*
X119996495Y-114456716D01*
X120461334Y-113992687D01*
X120713213Y-113386095D01*
X120713786Y-112729287D01*
X120462966Y-112122255D01*
X119998937Y-111657416D01*
X119392345Y-111405537D01*
X118735537Y-111404964D01*
X118128505Y-111655784D01*
X117663666Y-112119813D01*
X117590403Y-112296250D01*
X115057067Y-112296250D01*
X115461334Y-111892687D01*
X115713213Y-111286095D01*
X115713786Y-110629287D01*
X115462966Y-110022255D01*
X114998937Y-109557416D01*
X114392345Y-109305537D01*
X113735537Y-109304964D01*
X113128505Y-109555784D01*
X112663666Y-110019813D01*
X112411787Y-110626405D01*
X112411214Y-111283213D01*
X112662034Y-111890245D01*
X113067332Y-112296250D01*
X101484859Y-112296250D01*
X101412966Y-112122255D01*
X100948937Y-111657416D01*
X100342345Y-111405537D01*
X99685537Y-111404964D01*
X99078505Y-111655784D01*
X98613666Y-112119813D01*
X98540403Y-112296250D01*
X96007067Y-112296250D01*
X96411334Y-111892687D01*
X96663213Y-111286095D01*
X96663786Y-110629287D01*
X96412966Y-110022255D01*
X95948937Y-109557416D01*
X95342345Y-109305537D01*
X94685537Y-109304964D01*
X94078505Y-109555784D01*
X93613666Y-110019813D01*
X93361787Y-110626405D01*
X93361214Y-111283213D01*
X93612034Y-111890245D01*
X94017332Y-112296250D01*
X82434859Y-112296250D01*
X82362966Y-112122255D01*
X81898937Y-111657416D01*
X81292345Y-111405537D01*
X80635537Y-111404964D01*
X80460973Y-111477092D01*
X78262000Y-109278120D01*
X78262000Y-107611484D01*
X78663402Y-107611484D01*
X79012621Y-108456658D01*
X79658691Y-109103857D01*
X80503254Y-109454550D01*
X81417734Y-109455348D01*
X82262908Y-109106129D01*
X82910107Y-108460059D01*
X83260800Y-107615496D01*
X83260930Y-107465608D01*
X84900130Y-107465608D01*
X85137444Y-108039952D01*
X85576486Y-108479761D01*
X86150416Y-108718078D01*
X86771858Y-108718620D01*
X87346202Y-108481306D01*
X87786011Y-108042264D01*
X88024328Y-107468334D01*
X88024330Y-107465608D01*
X92950130Y-107465608D01*
X93187444Y-108039952D01*
X93626486Y-108479761D01*
X94200416Y-108718078D01*
X94821858Y-108718620D01*
X95396202Y-108481306D01*
X95836011Y-108042264D01*
X96014886Y-107611484D01*
X97713402Y-107611484D01*
X98062621Y-108456658D01*
X98708691Y-109103857D01*
X99553254Y-109454550D01*
X100467734Y-109455348D01*
X101312908Y-109106129D01*
X101960107Y-108460059D01*
X102310800Y-107615496D01*
X102310930Y-107465608D01*
X103950130Y-107465608D01*
X104187444Y-108039952D01*
X104626486Y-108479761D01*
X105200416Y-108718078D01*
X105821858Y-108718620D01*
X106396202Y-108481306D01*
X106836011Y-108042264D01*
X107074328Y-107468334D01*
X107074330Y-107465608D01*
X112000130Y-107465608D01*
X112237444Y-108039952D01*
X112676486Y-108479761D01*
X113250416Y-108718078D01*
X113871858Y-108718620D01*
X114446202Y-108481306D01*
X114886011Y-108042264D01*
X115064886Y-107611484D01*
X116763402Y-107611484D01*
X117112621Y-108456658D01*
X117758691Y-109103857D01*
X118603254Y-109454550D01*
X119517734Y-109455348D01*
X120362908Y-109106129D01*
X121010107Y-108460059D01*
X121360800Y-107615496D01*
X121360930Y-107465608D01*
X123000130Y-107465608D01*
X123237444Y-108039952D01*
X123676486Y-108479761D01*
X124250416Y-108718078D01*
X124871858Y-108718620D01*
X125446202Y-108481306D01*
X125886011Y-108042264D01*
X126124328Y-107468334D01*
X126124870Y-106846892D01*
X125887556Y-106272548D01*
X125448514Y-105832739D01*
X124874584Y-105594422D01*
X124253142Y-105593880D01*
X123678798Y-105831194D01*
X123238989Y-106270236D01*
X123000672Y-106844166D01*
X123000130Y-107465608D01*
X121360930Y-107465608D01*
X121361598Y-106701016D01*
X121012379Y-105855842D01*
X120366309Y-105208643D01*
X119521746Y-104857950D01*
X118607266Y-104857152D01*
X117762092Y-105206371D01*
X117114893Y-105852441D01*
X116764200Y-106697004D01*
X116763402Y-107611484D01*
X115064886Y-107611484D01*
X115124328Y-107468334D01*
X115124870Y-106846892D01*
X114887556Y-106272548D01*
X114448514Y-105832739D01*
X113874584Y-105594422D01*
X113253142Y-105593880D01*
X112678798Y-105831194D01*
X112238989Y-106270236D01*
X112000672Y-106844166D01*
X112000130Y-107465608D01*
X107074330Y-107465608D01*
X107074870Y-106846892D01*
X106837556Y-106272548D01*
X106398514Y-105832739D01*
X105824584Y-105594422D01*
X105203142Y-105593880D01*
X104628798Y-105831194D01*
X104188989Y-106270236D01*
X103950672Y-106844166D01*
X103950130Y-107465608D01*
X102310930Y-107465608D01*
X102311598Y-106701016D01*
X101962379Y-105855842D01*
X101316309Y-105208643D01*
X100471746Y-104857950D01*
X99557266Y-104857152D01*
X98712092Y-105206371D01*
X98064893Y-105852441D01*
X97714200Y-106697004D01*
X97713402Y-107611484D01*
X96014886Y-107611484D01*
X96074328Y-107468334D01*
X96074870Y-106846892D01*
X95837556Y-106272548D01*
X95398514Y-105832739D01*
X94824584Y-105594422D01*
X94203142Y-105593880D01*
X93628798Y-105831194D01*
X93188989Y-106270236D01*
X92950672Y-106844166D01*
X92950130Y-107465608D01*
X88024330Y-107465608D01*
X88024870Y-106846892D01*
X87787556Y-106272548D01*
X87348514Y-105832739D01*
X86774584Y-105594422D01*
X86153142Y-105593880D01*
X85578798Y-105831194D01*
X85138989Y-106270236D01*
X84900672Y-106844166D01*
X84900130Y-107465608D01*
X83260930Y-107465608D01*
X83261598Y-106701016D01*
X82912379Y-105855842D01*
X82266309Y-105208643D01*
X81421746Y-104857950D01*
X80507266Y-104857152D01*
X79662092Y-105206371D01*
X79014893Y-105852441D01*
X78664200Y-106697004D01*
X78663402Y-107611484D01*
X78262000Y-107611484D01*
X78262000Y-94815630D01*
X79311709Y-93765921D01*
X79311214Y-94333213D01*
X79562034Y-94940245D01*
X80026063Y-95405084D01*
X80632655Y-95656963D01*
X81289463Y-95657536D01*
X81896495Y-95406716D01*
X82361334Y-94942687D01*
X82433767Y-94768250D01*
X89496960Y-94768250D01*
X89487095Y-94817847D01*
X89462372Y-94879266D01*
X89390489Y-95260571D01*
X89340956Y-95227022D01*
X89339577Y-95226441D01*
X89338520Y-95225380D01*
X89250773Y-95166534D01*
X89248889Y-95165750D01*
X89247437Y-95164311D01*
X89171467Y-95114051D01*
X89168789Y-95112956D01*
X89166715Y-95110937D01*
X89106467Y-95071842D01*
X89101255Y-95069765D01*
X89097168Y-95065921D01*
X89056588Y-95040571D01*
X89035492Y-95032582D01*
X89018023Y-95018306D01*
X89001057Y-95009283D01*
X88922831Y-94985732D01*
X88848576Y-94951698D01*
X88804338Y-94950058D01*
X88761944Y-94937294D01*
X88680662Y-94945471D01*
X88599032Y-94942444D01*
X88557530Y-94957859D01*
X88513482Y-94962290D01*
X88494539Y-94972466D01*
X88489148Y-94973133D01*
X88437375Y-95002487D01*
X88364942Y-95029390D01*
X88354523Y-95035807D01*
X88324173Y-95063986D01*
X88293498Y-95080465D01*
X88288023Y-95087165D01*
X88271918Y-95096296D01*
X88240770Y-95123184D01*
X88232713Y-95133516D01*
X88221585Y-95140432D01*
X88174449Y-95184559D01*
X88171159Y-95189147D01*
X88166414Y-95192212D01*
X88107282Y-95249525D01*
X88105337Y-95252339D01*
X88102485Y-95254224D01*
X88035352Y-95320672D01*
X88033917Y-95322797D01*
X88031790Y-95324226D01*
X87960650Y-95395755D01*
X87959375Y-95397675D01*
X87957474Y-95398972D01*
X87886321Y-95471533D01*
X87884979Y-95473585D01*
X87882963Y-95474983D01*
X87815790Y-95544524D01*
X87814105Y-95547142D01*
X87811564Y-95548941D01*
X87752366Y-95611409D01*
X87749789Y-95615499D01*
X87745884Y-95618351D01*
X87698655Y-95669694D01*
X87693436Y-95678257D01*
X87685525Y-95684417D01*
X87654258Y-95720584D01*
X87634471Y-95755425D01*
X87606148Y-95783767D01*
X87594840Y-95800705D01*
X87576346Y-95845398D01*
X87547660Y-95884342D01*
X87537198Y-95926698D01*
X87530936Y-95937723D01*
X87527908Y-95962055D01*
X87513619Y-95990157D01*
X87512964Y-95998566D01*
X87499359Y-96031445D01*
X87499376Y-96079814D01*
X87487777Y-96126772D01*
X87497825Y-96193019D01*
X87494236Y-96239119D01*
X87499438Y-96255083D01*
X87499447Y-96281161D01*
X87517971Y-96325837D01*
X87525225Y-96373663D01*
X87527856Y-96380941D01*
X87555208Y-96426237D01*
X87571601Y-96476548D01*
X87589818Y-96509011D01*
X87599440Y-96520258D01*
X87604664Y-96534112D01*
X87637930Y-96587536D01*
X87642237Y-96592129D01*
X87644572Y-96597977D01*
X87690190Y-96668177D01*
X87693019Y-96671079D01*
X87694569Y-96674825D01*
X87749843Y-96757612D01*
X87752189Y-96759959D01*
X87753488Y-96763011D01*
X87805554Y-96839300D01*
X87767288Y-96846496D01*
X87765122Y-96847367D01*
X87762787Y-96847359D01*
X87658929Y-96867661D01*
X87655744Y-96868968D01*
X87652300Y-96868993D01*
X87561493Y-96887742D01*
X87557194Y-96889559D01*
X87552530Y-96889660D01*
X87479735Y-96905780D01*
X87471904Y-96909224D01*
X87463358Y-96909633D01*
X87413541Y-96922047D01*
X87386808Y-96934651D01*
X87357539Y-96938752D01*
X87335662Y-96946382D01*
X87235985Y-97005041D01*
X87226774Y-97010103D01*
X87187672Y-97028539D01*
X87187597Y-97028621D01*
X87175411Y-97033983D01*
X87166618Y-97043168D01*
X87134644Y-97060742D01*
X87128675Y-97068191D01*
X87120447Y-97073033D01*
X87055186Y-97159564D01*
X87002723Y-97214363D01*
X86994400Y-97235764D01*
X86978494Y-97255614D01*
X86974564Y-97263178D01*
X86973012Y-97268518D01*
X86970082Y-97272403D01*
X86955296Y-97329477D01*
X86947440Y-97356511D01*
X86912210Y-97447097D01*
X86905692Y-97484055D01*
X86906019Y-97499041D01*
X86904876Y-97502972D01*
X86906134Y-97514377D01*
X86898170Y-97542139D01*
X86893048Y-97603695D01*
X86894396Y-97615540D01*
X86891532Y-97627108D01*
X86887804Y-97707469D01*
X86888841Y-97714330D01*
X86887317Y-97721101D01*
X86884978Y-97814476D01*
X86885842Y-97819471D01*
X86884806Y-97824433D01*
X86883852Y-97925032D01*
X86884680Y-97929412D01*
X86883829Y-97933786D01*
X86884257Y-98035813D01*
X86885183Y-98040369D01*
X86884360Y-98044948D01*
X86886164Y-98142613D01*
X86887403Y-98148291D01*
X86886477Y-98154027D01*
X86889656Y-98241538D01*
X86891692Y-98250132D01*
X86890522Y-98258886D01*
X86895069Y-98330450D01*
X86899627Y-98347597D01*
X86898240Y-98365289D01*
X86904153Y-98415116D01*
X86923741Y-98475338D01*
X86928719Y-98516964D01*
X86929731Y-98531157D01*
X86930633Y-98532959D01*
X86931261Y-98538214D01*
X86938536Y-98560511D01*
X86969207Y-98615121D01*
X86972399Y-98624933D01*
X86980418Y-98653641D01*
X87009644Y-98690905D01*
X87041451Y-98754487D01*
X87053202Y-98764674D01*
X87060819Y-98778237D01*
X87106010Y-98813773D01*
X87134527Y-98850132D01*
X87183771Y-98877871D01*
X87230132Y-98918064D01*
X87234546Y-98920578D01*
X87247193Y-98924791D01*
X87257115Y-98932593D01*
X87304557Y-98945910D01*
X87352098Y-98972690D01*
X87385020Y-98983478D01*
X87408107Y-98986269D01*
X87429134Y-98996200D01*
X87486246Y-99010473D01*
X87496449Y-99010969D01*
X87505816Y-99015038D01*
X87580516Y-99031233D01*
X87587886Y-99031359D01*
X87594712Y-99034143D01*
X87680398Y-99050698D01*
X87683801Y-99050679D01*
X87686970Y-99051933D01*
X87715882Y-99057206D01*
X87804505Y-99073480D01*
X87797221Y-99084091D01*
X87797067Y-99084451D01*
X87796784Y-99084727D01*
X87780367Y-99108704D01*
X87779190Y-99111458D01*
X87777066Y-99113572D01*
X87719330Y-99199575D01*
X87717357Y-99204310D01*
X87713779Y-99207986D01*
X87663882Y-99284901D01*
X87661392Y-99291152D01*
X87656801Y-99296068D01*
X87617592Y-99359334D01*
X87613386Y-99370559D01*
X87605535Y-99379615D01*
X87579861Y-99424671D01*
X87567538Y-99461657D01*
X87552046Y-99481934D01*
X87550675Y-99487093D01*
X87545208Y-99495234D01*
X87535917Y-99517516D01*
X87516085Y-99616017D01*
X87496748Y-99668050D01*
X87497460Y-99687341D01*
X87487911Y-99723274D01*
X87490537Y-99742905D01*
X87486628Y-99762319D01*
X87503371Y-99847534D01*
X87505957Y-99917596D01*
X87517178Y-99942089D01*
X87521016Y-99970785D01*
X87523018Y-99976643D01*
X87531670Y-99991558D01*
X87534773Y-100007349D01*
X87574345Y-100066874D01*
X87609963Y-100144622D01*
X87630832Y-100173490D01*
X87644660Y-100186333D01*
X87648321Y-100192645D01*
X87654893Y-100197666D01*
X87667470Y-100219552D01*
X87708642Y-100266691D01*
X87718104Y-100273982D01*
X87724431Y-100284111D01*
X87742349Y-100303166D01*
X87698403Y-100313272D01*
X87647770Y-100301103D01*
X87592589Y-100298921D01*
X87579902Y-100300927D01*
X87567302Y-100298421D01*
X87475394Y-100298421D01*
X87280783Y-100337132D01*
X87202067Y-100311547D01*
X87093492Y-100298686D01*
X87046181Y-100302405D01*
X86999386Y-100294520D01*
X86958365Y-100295727D01*
X86913024Y-100306141D01*
X86866513Y-100305092D01*
X86782390Y-100319862D01*
X86693192Y-100354475D01*
X86601167Y-100380663D01*
X86532379Y-100415917D01*
X86461903Y-100471746D01*
X86385666Y-100519406D01*
X86321534Y-100579760D01*
X86300307Y-100609532D01*
X86271692Y-100632292D01*
X86261436Y-100644405D01*
X86244728Y-100674544D01*
X86220195Y-100698744D01*
X86192531Y-100739539D01*
X86167835Y-100798026D01*
X86162906Y-100803216D01*
X86158326Y-100815134D01*
X86126693Y-100864343D01*
X86108512Y-100910536D01*
X86099687Y-100959416D01*
X86095393Y-100969586D01*
X86095328Y-100979066D01*
X86073329Y-101036312D01*
X86063248Y-101094851D01*
X86064308Y-101135916D01*
X86054561Y-101175823D01*
X86051196Y-101253655D01*
X86054271Y-101273577D01*
X86050714Y-101293416D01*
X86051786Y-101350018D01*
X86052684Y-101397475D01*
X86054234Y-101404563D01*
X86053112Y-101411737D01*
X86055270Y-101464069D01*
X86057977Y-101475249D01*
X86056603Y-101486667D01*
X86061500Y-101550485D01*
X86070717Y-101583414D01*
X86070240Y-101617606D01*
X86078583Y-101662839D01*
X86100511Y-101717940D01*
X86110581Y-101776382D01*
X86124358Y-101812224D01*
X86133000Y-101825906D01*
X85958656Y-101825754D01*
X85543073Y-101997469D01*
X85224837Y-102315150D01*
X85052397Y-102730433D01*
X85052004Y-103180094D01*
X85223719Y-103595677D01*
X85541400Y-103913913D01*
X85956683Y-104086353D01*
X86406344Y-104086746D01*
X86821927Y-103915031D01*
X87140163Y-103597350D01*
X87157761Y-103554969D01*
X87230477Y-103603556D01*
X87248781Y-103607197D01*
X87264868Y-103616656D01*
X87370645Y-103631437D01*
X87475394Y-103652273D01*
X87493697Y-103648632D01*
X87512180Y-103651215D01*
X87599911Y-103646164D01*
X87599912Y-103646164D01*
X87687641Y-103641113D01*
X87778045Y-103617657D01*
X87943289Y-103650526D01*
X88127105Y-103650526D01*
X88282836Y-103619549D01*
X88319667Y-103632289D01*
X88383817Y-103641111D01*
X88418215Y-103639055D01*
X88451796Y-103646790D01*
X88521946Y-103648897D01*
X88555916Y-103643194D01*
X88590109Y-103647310D01*
X88653401Y-103642455D01*
X88672586Y-103637085D01*
X88702995Y-103645379D01*
X88754156Y-103648962D01*
X88776639Y-103646104D01*
X88798868Y-103650526D01*
X88879078Y-103650526D01*
X88962631Y-103633906D01*
X89046184Y-103650526D01*
X89213289Y-103650526D01*
X89458206Y-103601809D01*
X89504313Y-103571001D01*
X89576092Y-103605982D01*
X89649854Y-103625377D01*
X89737162Y-103630689D01*
X89823219Y-103646328D01*
X89913946Y-103644823D01*
X89968097Y-103633115D01*
X89968330Y-103633108D01*
X90006145Y-103634344D01*
X90068622Y-103648687D01*
X90121968Y-103650251D01*
X90131370Y-103648666D01*
X90140723Y-103650526D01*
X90232631Y-103650526D01*
X90395063Y-103618216D01*
X90408501Y-103620889D01*
X90502408Y-103648150D01*
X90530132Y-103645083D01*
X90557495Y-103650526D01*
X90711311Y-103650526D01*
X90745134Y-103643798D01*
X90779479Y-103646885D01*
X90859373Y-103621902D01*
X90904045Y-103627805D01*
X90974279Y-103649144D01*
X91026658Y-103644008D01*
X91078837Y-103650903D01*
X91233801Y-103640821D01*
X91240012Y-103639160D01*
X91246400Y-103639876D01*
X91360383Y-103606969D01*
X91404480Y-103595176D01*
X91408081Y-103597007D01*
X91480795Y-103617448D01*
X91537547Y-103621866D01*
X91592040Y-103638324D01*
X91673975Y-103646293D01*
X91725028Y-103641202D01*
X91775878Y-103648051D01*
X91853777Y-103643179D01*
X91881662Y-103635796D01*
X91930240Y-103647594D01*
X91986774Y-103649964D01*
X92000226Y-103647870D01*
X92013580Y-103650526D01*
X92106765Y-103650526D01*
X92112182Y-103649448D01*
X92117617Y-103650434D01*
X92182973Y-103636278D01*
X92254605Y-103650526D01*
X92438421Y-103650526D01*
X92683338Y-103601809D01*
X92741128Y-103563195D01*
X92776137Y-103573855D01*
X92834969Y-103604588D01*
X92861997Y-103612508D01*
X92916744Y-103617376D01*
X92969079Y-103634168D01*
X93065592Y-103645231D01*
X93131297Y-103639817D01*
X93196863Y-103646726D01*
X93298772Y-103637390D01*
X93363969Y-103618097D01*
X93431569Y-103610836D01*
X93523618Y-103582023D01*
X93569859Y-103556779D01*
X93620623Y-103542689D01*
X93653050Y-103526335D01*
X93672238Y-103511337D01*
X93695153Y-103503078D01*
X93741648Y-103475064D01*
X93775809Y-103443959D01*
X93816590Y-103422243D01*
X93844768Y-103399192D01*
X93871598Y-103366604D01*
X93900154Y-103347163D01*
X93916766Y-103321828D01*
X93941775Y-103300508D01*
X93945935Y-103295240D01*
X93971387Y-103245400D01*
X94003489Y-103206409D01*
X94011516Y-103180094D01*
X104102004Y-103180094D01*
X104273719Y-103595677D01*
X104591400Y-103913913D01*
X105006683Y-104086353D01*
X105456344Y-104086746D01*
X105871927Y-103915031D01*
X106190163Y-103597350D01*
X106362603Y-103182067D01*
X106362604Y-103180094D01*
X123152004Y-103180094D01*
X123323719Y-103595677D01*
X123641400Y-103913913D01*
X124056683Y-104086353D01*
X124506344Y-104086746D01*
X124921927Y-103915031D01*
X125240163Y-103597350D01*
X125412603Y-103182067D01*
X125412996Y-102732406D01*
X125241281Y-102316823D01*
X124923600Y-101998587D01*
X124508317Y-101826147D01*
X124058656Y-101825754D01*
X123643073Y-101997469D01*
X123324837Y-102315150D01*
X123152397Y-102730433D01*
X123152004Y-103180094D01*
X106362604Y-103180094D01*
X106362996Y-102732406D01*
X106191281Y-102316823D01*
X105873600Y-101998587D01*
X105458317Y-101826147D01*
X105008656Y-101825754D01*
X104593073Y-101997469D01*
X104274837Y-102315150D01*
X104102397Y-102730433D01*
X104102004Y-103180094D01*
X94011516Y-103180094D01*
X94013097Y-103174914D01*
X94037081Y-103138336D01*
X94044864Y-103119075D01*
X94050172Y-103091126D01*
X94056090Y-103079538D01*
X94064074Y-103064572D01*
X94072227Y-102981086D01*
X94076353Y-102967560D01*
X94075436Y-102958093D01*
X94091454Y-102873744D01*
X94085503Y-102845128D01*
X94088344Y-102816038D01*
X94085344Y-102806179D01*
X94090256Y-102781352D01*
X94114473Y-102659605D01*
X94114406Y-102659267D01*
X94114473Y-102658927D01*
X94114380Y-102571197D01*
X94114059Y-102569592D01*
X94114368Y-102567987D01*
X94114315Y-102559262D01*
X94108429Y-102530583D01*
X94111346Y-102501451D01*
X94100892Y-102393517D01*
X94100086Y-102390845D01*
X94152493Y-102386474D01*
X94222410Y-102366403D01*
X94294678Y-102358137D01*
X94389017Y-102327894D01*
X94464170Y-102286193D01*
X94543898Y-102254094D01*
X94620608Y-102203934D01*
X94658918Y-102166379D01*
X94704666Y-102138360D01*
X94762126Y-102085271D01*
X94791629Y-102044684D01*
X94829835Y-102012150D01*
X94864364Y-101944626D01*
X94908955Y-101883284D01*
X94920681Y-101834493D01*
X94943527Y-101789817D01*
X94949587Y-101714223D01*
X94967310Y-101640482D01*
X94959472Y-101590916D01*
X94963482Y-101540900D01*
X94948907Y-101495818D01*
X94966710Y-101406316D01*
X94966710Y-101290430D01*
X94964454Y-101279087D01*
X94966305Y-101267671D01*
X94964124Y-101206379D01*
X94958934Y-101184404D01*
X94960989Y-101161915D01*
X94954584Y-101101273D01*
X94943615Y-101066010D01*
X94942757Y-101029092D01*
X94933608Y-100988097D01*
X94909811Y-100934221D01*
X94897733Y-100876575D01*
X94891063Y-100860925D01*
X94853877Y-100806481D01*
X94827476Y-100746072D01*
X94778928Y-100676368D01*
X94716647Y-100616449D01*
X94662144Y-100549381D01*
X94591996Y-100491245D01*
X94519520Y-100452056D01*
X94452983Y-100403463D01*
X94370947Y-100365399D01*
X94309762Y-100350550D01*
X94252656Y-100324037D01*
X94209865Y-100313642D01*
X94148286Y-100311056D01*
X94088457Y-100296242D01*
X93986502Y-100291510D01*
X93890155Y-100306069D01*
X93792907Y-100312171D01*
X93702062Y-100336242D01*
X93671661Y-100351129D01*
X93615256Y-100339380D01*
X93536648Y-100311789D01*
X93435615Y-100297427D01*
X93354612Y-100301898D01*
X93280397Y-100295652D01*
X93315998Y-100257138D01*
X93323087Y-100245570D01*
X93333719Y-100237145D01*
X93365719Y-100199489D01*
X93390332Y-100155281D01*
X93395858Y-100149272D01*
X93416815Y-100128882D01*
X93418757Y-100124370D01*
X93424579Y-100118039D01*
X93436160Y-100099030D01*
X93462567Y-100026874D01*
X93490686Y-99980370D01*
X93496137Y-99944580D01*
X93515535Y-99899508D01*
X93515783Y-99881468D01*
X93521983Y-99864526D01*
X93519038Y-99794209D01*
X93528283Y-99733501D01*
X93518366Y-99693249D01*
X93518962Y-99649816D01*
X93518294Y-99646199D01*
X93512196Y-99630887D01*
X93511532Y-99615029D01*
X93485023Y-99557916D01*
X93468545Y-99491036D01*
X93454761Y-99461598D01*
X93438212Y-99439103D01*
X93429221Y-99412667D01*
X93399776Y-99361736D01*
X93392686Y-99353661D01*
X93388891Y-99343606D01*
X93346630Y-99275782D01*
X93342058Y-99270909D01*
X93339570Y-99264706D01*
X93287338Y-99184591D01*
X93283540Y-99180706D01*
X93281435Y-99175701D01*
X93222079Y-99087893D01*
X93220280Y-99086113D01*
X93219281Y-99083789D01*
X93212185Y-99073465D01*
X93330215Y-99051845D01*
X93331004Y-99051532D01*
X93331856Y-99051543D01*
X93360764Y-99046170D01*
X93365053Y-99044456D01*
X93369670Y-99044449D01*
X93452480Y-99027840D01*
X93459765Y-99024809D01*
X93467654Y-99024605D01*
X93537313Y-99008868D01*
X93548689Y-99003808D01*
X93561114Y-99003010D01*
X93611019Y-98989708D01*
X93644555Y-98973224D01*
X93668474Y-98970355D01*
X93672378Y-98968161D01*
X93681344Y-98966530D01*
X93704897Y-98957225D01*
X93793874Y-98899868D01*
X93794371Y-98899588D01*
X93807960Y-98892909D01*
X93840850Y-98878431D01*
X93851141Y-98867678D01*
X93886157Y-98847995D01*
X93898285Y-98832560D01*
X93914782Y-98821926D01*
X93966701Y-98746925D01*
X94013504Y-98698019D01*
X94022803Y-98674095D01*
X94040444Y-98651645D01*
X94044384Y-98643882D01*
X94048707Y-98628461D01*
X94056914Y-98616605D01*
X94071639Y-98548458D01*
X94103975Y-98465268D01*
X94110544Y-98427981D01*
X94110134Y-98409331D01*
X94111787Y-98403435D01*
X94110835Y-98395503D01*
X94117992Y-98370650D01*
X94123198Y-98308833D01*
X94121871Y-98297072D01*
X94124731Y-98285584D01*
X94128569Y-98205031D01*
X94127544Y-98198193D01*
X94129071Y-98191453D01*
X94131538Y-98097956D01*
X94130682Y-98092969D01*
X94131723Y-98088018D01*
X94132815Y-97987369D01*
X94131993Y-97982990D01*
X94132850Y-97978619D01*
X94132562Y-97876610D01*
X94131640Y-97872041D01*
X94132471Y-97867452D01*
X94130799Y-97769874D01*
X94129567Y-97764189D01*
X94130501Y-97758449D01*
X94127443Y-97671094D01*
X94125406Y-97662445D01*
X94126593Y-97653640D01*
X94122143Y-97582302D01*
X94117564Y-97564994D01*
X94118975Y-97547142D01*
X94113130Y-97497612D01*
X94093161Y-97436083D01*
X94085246Y-97371886D01*
X94078002Y-97349955D01*
X94069437Y-97334834D01*
X94066391Y-97317728D01*
X94042752Y-97280760D01*
X94036045Y-97260092D01*
X94024756Y-97246865D01*
X94019996Y-97232419D01*
X93994959Y-97203349D01*
X93954927Y-97132676D01*
X93941227Y-97121984D01*
X93931867Y-97107345D01*
X93882771Y-97073090D01*
X93857034Y-97043207D01*
X93809719Y-97019345D01*
X93758071Y-96979035D01*
X93741325Y-96974400D01*
X93727073Y-96964456D01*
X93719677Y-96961216D01*
X93674952Y-96951379D01*
X93634069Y-96930761D01*
X93597274Y-96920548D01*
X93583484Y-96919520D01*
X93570883Y-96913824D01*
X93508688Y-96899380D01*
X93502721Y-96899190D01*
X93497234Y-96896830D01*
X93414602Y-96879230D01*
X93410726Y-96879178D01*
X93407148Y-96877689D01*
X93309043Y-96858010D01*
X93305843Y-96858005D01*
X93302875Y-96856804D01*
X93211532Y-96839413D01*
X93234710Y-96805520D01*
X93235650Y-96803317D01*
X93237349Y-96801630D01*
X93296125Y-96714313D01*
X93297479Y-96711075D01*
X93299942Y-96708576D01*
X93350336Y-96631943D01*
X93352146Y-96627481D01*
X93355474Y-96624002D01*
X93394797Y-96562235D01*
X93398060Y-96553837D01*
X93404106Y-96547156D01*
X93429672Y-96504431D01*
X93440738Y-96473431D01*
X93460232Y-96446905D01*
X93469351Y-96427404D01*
X93484051Y-96367608D01*
X93510390Y-96311951D01*
X93512316Y-96272924D01*
X93513627Y-96269252D01*
X93513059Y-96257865D01*
X93513569Y-96247536D01*
X93528965Y-96184909D01*
X93519664Y-96124042D01*
X93522699Y-96062538D01*
X93500985Y-96001808D01*
X93493983Y-95955992D01*
X93493708Y-95953470D01*
X93493555Y-95953192D01*
X93491243Y-95938059D01*
X93459357Y-95885384D01*
X93438625Y-95827402D01*
X93432288Y-95816824D01*
X93398126Y-95779116D01*
X93373668Y-95734500D01*
X93347163Y-95702892D01*
X93337038Y-95694761D01*
X93330346Y-95683632D01*
X93286863Y-95635796D01*
X93282348Y-95632458D01*
X93279371Y-95627695D01*
X93222902Y-95567685D01*
X93220133Y-95565711D01*
X93218302Y-95562848D01*
X93152838Y-95494716D01*
X93150740Y-95493253D01*
X93149346Y-95491111D01*
X93078878Y-95418914D01*
X93076990Y-95417619D01*
X93075727Y-95415708D01*
X93004247Y-95343496D01*
X93002222Y-95342128D01*
X93000860Y-95340100D01*
X92932361Y-95271929D01*
X92929777Y-95270211D01*
X92928021Y-95267650D01*
X92866492Y-95207571D01*
X92862450Y-95204940D01*
X92859665Y-95201003D01*
X92809100Y-95153071D01*
X92800615Y-95147724D01*
X92794574Y-95139721D01*
X92758963Y-95107990D01*
X92744771Y-95099646D01*
X92742638Y-95096816D01*
X92720649Y-95083867D01*
X92696220Y-95058740D01*
X92679555Y-95047263D01*
X92601084Y-95013456D01*
X92527461Y-94970101D01*
X92487385Y-94964473D01*
X92450217Y-94948461D01*
X92364782Y-94947257D01*
X92280171Y-94935376D01*
X92240992Y-94945513D01*
X92200526Y-94944943D01*
X92121134Y-94976526D01*
X92038417Y-94997928D01*
X92029168Y-95002391D01*
X92003943Y-95021404D01*
X91974277Y-95032262D01*
X91940308Y-95052959D01*
X91934573Y-95058234D01*
X91927322Y-95061086D01*
X91872506Y-95096311D01*
X91870009Y-95098720D01*
X91866796Y-95100024D01*
X91795083Y-95147193D01*
X91793463Y-95148789D01*
X91791360Y-95149660D01*
X91706701Y-95206195D01*
X91705390Y-95207506D01*
X91703677Y-95208226D01*
X91626224Y-95260588D01*
X91554337Y-94879264D01*
X91529614Y-94817845D01*
X91519749Y-94768250D01*
X98540967Y-94768250D01*
X98612034Y-94940245D01*
X99076063Y-95405084D01*
X99682655Y-95656963D01*
X100339463Y-95657536D01*
X100946495Y-95406716D01*
X101411334Y-94942687D01*
X101484597Y-94766250D01*
X117590141Y-94766250D01*
X117662034Y-94940245D01*
X118126063Y-95405084D01*
X118732655Y-95656963D01*
X119389463Y-95657536D01*
X119996495Y-95406716D01*
X120461334Y-94942687D01*
X120713213Y-94336095D01*
X120713786Y-93679287D01*
X120462966Y-93072255D01*
X119998937Y-92607416D01*
X119392345Y-92355537D01*
X118735537Y-92354964D01*
X118128505Y-92605784D01*
X117663666Y-93069813D01*
X117590403Y-93246250D01*
X115057067Y-93246250D01*
X115461334Y-92842687D01*
X115713213Y-92236095D01*
X115713786Y-91579287D01*
X115462966Y-90972255D01*
X114998937Y-90507416D01*
X114392345Y-90255537D01*
X113735537Y-90254964D01*
X113128505Y-90505784D01*
X112663666Y-90969813D01*
X112411787Y-91576405D01*
X112411214Y-92233213D01*
X112662034Y-92840245D01*
X113067332Y-93246250D01*
X102331380Y-93246250D01*
X104038816Y-91538815D01*
X104203997Y-91291604D01*
X104262000Y-91000000D01*
X104262000Y-89064638D01*
X104626486Y-89429761D01*
X105200416Y-89668078D01*
X105821858Y-89668620D01*
X106396202Y-89431306D01*
X106836011Y-88992264D01*
X107074328Y-88418334D01*
X107074330Y-88415608D01*
X112000130Y-88415608D01*
X112237444Y-88989952D01*
X112676486Y-89429761D01*
X113250416Y-89668078D01*
X113871858Y-89668620D01*
X114446202Y-89431306D01*
X114886011Y-88992264D01*
X115064886Y-88561484D01*
X116763402Y-88561484D01*
X117112621Y-89406658D01*
X117758691Y-90053857D01*
X118603254Y-90404550D01*
X119517734Y-90405348D01*
X120362908Y-90056129D01*
X121010107Y-89410059D01*
X121360800Y-88565496D01*
X121360930Y-88415608D01*
X123000130Y-88415608D01*
X123237444Y-88989952D01*
X123676486Y-89429761D01*
X124250416Y-89668078D01*
X124871858Y-89668620D01*
X125446202Y-89431306D01*
X125886011Y-88992264D01*
X126124328Y-88418334D01*
X126124870Y-87796892D01*
X125887556Y-87222548D01*
X125448514Y-86782739D01*
X124874584Y-86544422D01*
X124253142Y-86543880D01*
X123678798Y-86781194D01*
X123238989Y-87220236D01*
X123000672Y-87794166D01*
X123000130Y-88415608D01*
X121360930Y-88415608D01*
X121361598Y-87651016D01*
X121012379Y-86805842D01*
X120366309Y-86158643D01*
X119521746Y-85807950D01*
X118607266Y-85807152D01*
X117762092Y-86156371D01*
X117114893Y-86802441D01*
X116764200Y-87647004D01*
X116763402Y-88561484D01*
X115064886Y-88561484D01*
X115124328Y-88418334D01*
X115124870Y-87796892D01*
X114887556Y-87222548D01*
X114448514Y-86782739D01*
X113874584Y-86544422D01*
X113253142Y-86543880D01*
X112678798Y-86781194D01*
X112238989Y-87220236D01*
X112000672Y-87794166D01*
X112000130Y-88415608D01*
X107074330Y-88415608D01*
X107074870Y-87796892D01*
X106837556Y-87222548D01*
X106398514Y-86782739D01*
X105824584Y-86544422D01*
X105203142Y-86543880D01*
X104628798Y-86781194D01*
X104262000Y-87147352D01*
X104262000Y-84517315D01*
X104273719Y-84545677D01*
X104591400Y-84863913D01*
X105006683Y-85036353D01*
X105456344Y-85036746D01*
X105871927Y-84865031D01*
X106190163Y-84547350D01*
X106362603Y-84132067D01*
X106362604Y-84130094D01*
X123152004Y-84130094D01*
X123323719Y-84545677D01*
X123641400Y-84863913D01*
X124056683Y-85036353D01*
X124506344Y-85036746D01*
X124921927Y-84865031D01*
X125240163Y-84547350D01*
X125412603Y-84132067D01*
X125412996Y-83682406D01*
X125241281Y-83266823D01*
X124923600Y-82948587D01*
X124508317Y-82776147D01*
X124058656Y-82775754D01*
X123643073Y-82947469D01*
X123324837Y-83265150D01*
X123152397Y-83680433D01*
X123152004Y-84130094D01*
X106362604Y-84130094D01*
X106362996Y-83682406D01*
X106191281Y-83266823D01*
X105873600Y-82948587D01*
X105458317Y-82776147D01*
X105008656Y-82775754D01*
X104593073Y-82947469D01*
X104274837Y-83265150D01*
X104262000Y-83296065D01*
X104262000Y-80315630D01*
X106888816Y-77688815D01*
X107047050Y-77452000D01*
X107053996Y-77441605D01*
X107112000Y-77150000D01*
X107112000Y-75856705D01*
X107140303Y-75845010D01*
X107533629Y-75452370D01*
X107619949Y-75244488D01*
X107704990Y-75450303D01*
X108097630Y-75843629D01*
X108610900Y-76056757D01*
X109166661Y-76057242D01*
X109680303Y-75845010D01*
X110073629Y-75452370D01*
X110159949Y-75244488D01*
X110244990Y-75450303D01*
X110637630Y-75843629D01*
X111150900Y-76056757D01*
X111706661Y-76057242D01*
X112220303Y-75845010D01*
X112613629Y-75452370D01*
X112699949Y-75244488D01*
X112784990Y-75450303D01*
X113177630Y-75843629D01*
X113690900Y-76056757D01*
X114246661Y-76057242D01*
X114760303Y-75845010D01*
X115153629Y-75452370D01*
X115239949Y-75244488D01*
X115324990Y-75450303D01*
X115717630Y-75843629D01*
X116230900Y-76056757D01*
X116786661Y-76057242D01*
X117300303Y-75845010D01*
X117693629Y-75452370D01*
X117779949Y-75244488D01*
X117864990Y-75450303D01*
X118257630Y-75843629D01*
X118770900Y-76056757D01*
X119326661Y-76057242D01*
X119840303Y-75845010D01*
X120233629Y-75452370D01*
X120446757Y-74939100D01*
X120447242Y-74383339D01*
X120235010Y-73869697D01*
X119842370Y-73476371D01*
X119631957Y-73389000D01*
X126090945Y-73389000D01*
X126304630Y-73477730D01*
X126693663Y-73478069D01*
X127053212Y-73329507D01*
X127328540Y-73054659D01*
X127477730Y-72695370D01*
X127478069Y-72306337D01*
X127329507Y-71946788D01*
X127054659Y-71671460D01*
X126695370Y-71522270D01*
X126306337Y-71521931D01*
X126090773Y-71611000D01*
X119955875Y-71611000D01*
X119996495Y-71594216D01*
X120461334Y-71130187D01*
X120713213Y-70523595D01*
X120713786Y-69866787D01*
X120462966Y-69259755D01*
X119998937Y-68794916D01*
X119392345Y-68543037D01*
X118735537Y-68542464D01*
X118128505Y-68793284D01*
X117663666Y-69257313D01*
X117590403Y-69433750D01*
X115057067Y-69433750D01*
X115461334Y-69030187D01*
X115713213Y-68423595D01*
X115713786Y-67766787D01*
X115462966Y-67159755D01*
X114998937Y-66694916D01*
X114392345Y-66443037D01*
X113735537Y-66442464D01*
X113128505Y-66693284D01*
X112663666Y-67157313D01*
X112411787Y-67763905D01*
X112411214Y-68420713D01*
X112662034Y-69027745D01*
X113067332Y-69433750D01*
X101484859Y-69433750D01*
X101412966Y-69259755D01*
X100948937Y-68794916D01*
X100342345Y-68543037D01*
X99685537Y-68542464D01*
X99078505Y-68793284D01*
X98613666Y-69257313D01*
X98540403Y-69433750D01*
X96007067Y-69433750D01*
X96411334Y-69030187D01*
X96663213Y-68423595D01*
X96663786Y-67766787D01*
X96412966Y-67159755D01*
X95948937Y-66694916D01*
X95342345Y-66443037D01*
X94685537Y-66442464D01*
X94078505Y-66693284D01*
X93613666Y-67157313D01*
X93541233Y-67331750D01*
X79480250Y-67331750D01*
X79188646Y-67389753D01*
X78941435Y-67554934D01*
X77624357Y-68872013D01*
X77530337Y-68871931D01*
X77405656Y-68923448D01*
X77613213Y-68423595D01*
X77613786Y-67766787D01*
X77362966Y-67159755D01*
X76898937Y-66694916D01*
X76292345Y-66443037D01*
X75635537Y-66442464D01*
X75028505Y-66693284D01*
X74563666Y-67157313D01*
X74311787Y-67763905D01*
X74311214Y-68420713D01*
X74562034Y-69027745D01*
X75026063Y-69492584D01*
X75632655Y-69744463D01*
X76289463Y-69745036D01*
X76795563Y-69535920D01*
X76746270Y-69654630D01*
X76745931Y-70043663D01*
X76894493Y-70403212D01*
X77169341Y-70678540D01*
X77528630Y-70827730D01*
X77917663Y-70828069D01*
X78277212Y-70679507D01*
X78552540Y-70404659D01*
X78701730Y-70045370D01*
X78701813Y-69949817D01*
X79795881Y-68855750D01*
X79965930Y-68855750D01*
X79563666Y-69257313D01*
X79311787Y-69863905D01*
X79311214Y-70520713D01*
X79562034Y-71127745D01*
X80026063Y-71592584D01*
X80632655Y-71844463D01*
X81289463Y-71845036D01*
X81896495Y-71594216D01*
X82361334Y-71130187D01*
X82434597Y-70953750D01*
X98540141Y-70953750D01*
X98612034Y-71127745D01*
X99076063Y-71592584D01*
X99120414Y-71611000D01*
X98000000Y-71611000D01*
X97659795Y-71678670D01*
X97371382Y-71871382D01*
X95979948Y-73262816D01*
X95913339Y-73262758D01*
X95399697Y-73474990D01*
X95006371Y-73867630D01*
X94920051Y-74075512D01*
X94835010Y-73869697D01*
X94442370Y-73476371D01*
X93929100Y-73263243D01*
X93373339Y-73262758D01*
X92859697Y-73474990D01*
X92466371Y-73867630D01*
X92380051Y-74075512D01*
X92295010Y-73869697D01*
X91902370Y-73476371D01*
X91389100Y-73263243D01*
X90833339Y-73262758D01*
X90319697Y-73474990D01*
X89926371Y-73867630D01*
X89713243Y-74380900D01*
X89712758Y-74936661D01*
X89924990Y-75450303D01*
X90317630Y-75843629D01*
X90830900Y-76056757D01*
X91365147Y-76057223D01*
X87961185Y-79461185D01*
X87796004Y-79708395D01*
X87738000Y-80000000D01*
X87738000Y-84378917D01*
X87671460Y-84445341D01*
X87522270Y-84804630D01*
X87521931Y-85193663D01*
X87670493Y-85553212D01*
X87945341Y-85828540D01*
X88304630Y-85977730D01*
X88693663Y-85978069D01*
X89053212Y-85829507D01*
X89328540Y-85554659D01*
X89477730Y-85195370D01*
X89478069Y-84806337D01*
X89329507Y-84446788D01*
X89262000Y-84379163D01*
X89262000Y-80315630D01*
X89383967Y-80193663D01*
X90021931Y-80193663D01*
X90170493Y-80553212D01*
X90238000Y-80620837D01*
X90238000Y-81378917D01*
X90171460Y-81445341D01*
X90022270Y-81804630D01*
X90021931Y-82193663D01*
X90170493Y-82553212D01*
X90445341Y-82828540D01*
X90804630Y-82977730D01*
X91193663Y-82978069D01*
X91553212Y-82829507D01*
X91828540Y-82554659D01*
X91977730Y-82195370D01*
X91978069Y-81806337D01*
X91829507Y-81446788D01*
X91762000Y-81379163D01*
X91762000Y-80621083D01*
X91828540Y-80554659D01*
X91977730Y-80195370D01*
X91978069Y-79806337D01*
X91829507Y-79446788D01*
X91554659Y-79171460D01*
X91195370Y-79022270D01*
X90806337Y-79021931D01*
X90446788Y-79170493D01*
X90171460Y-79445341D01*
X90022270Y-79804630D01*
X90021931Y-80193663D01*
X89383967Y-80193663D01*
X93520742Y-76056888D01*
X93926661Y-76057242D01*
X94440303Y-75845010D01*
X94833629Y-75452370D01*
X94919949Y-75244488D01*
X95004990Y-75450303D01*
X95397630Y-75843629D01*
X95910900Y-76056757D01*
X96466661Y-76057242D01*
X96980303Y-75845010D01*
X97373629Y-75452370D01*
X97459949Y-75244488D01*
X97544990Y-75450303D01*
X97937630Y-75843629D01*
X98450900Y-76056757D01*
X99006661Y-76057242D01*
X99520303Y-75845010D01*
X99913629Y-75452370D01*
X99999949Y-75244488D01*
X100084990Y-75450303D01*
X100477630Y-75843629D01*
X100508000Y-75856240D01*
X100508000Y-76414369D01*
X86684370Y-90238000D01*
X81822747Y-90238000D01*
X82262908Y-90056129D01*
X82910107Y-89410059D01*
X83260800Y-88565496D01*
X83260930Y-88415608D01*
X84900130Y-88415608D01*
X85137444Y-88989952D01*
X85576486Y-89429761D01*
X86150416Y-89668078D01*
X86771858Y-89668620D01*
X87346202Y-89431306D01*
X87786011Y-88992264D01*
X88024328Y-88418334D01*
X88024870Y-87796892D01*
X87787556Y-87222548D01*
X87348514Y-86782739D01*
X86774584Y-86544422D01*
X86153142Y-86543880D01*
X85578798Y-86781194D01*
X85138989Y-87220236D01*
X84900672Y-87794166D01*
X84900130Y-88415608D01*
X83260930Y-88415608D01*
X83261598Y-87651016D01*
X82912379Y-86805842D01*
X82266309Y-86158643D01*
X81421746Y-85807950D01*
X80507266Y-85807152D01*
X79662092Y-86156371D01*
X79014893Y-86802441D01*
X78664200Y-87647004D01*
X78663402Y-88561484D01*
X79012621Y-89406658D01*
X79658691Y-90053857D01*
X80102157Y-90238000D01*
X79500000Y-90238000D01*
X79208400Y-90296003D01*
X79208395Y-90296004D01*
X78961185Y-90461185D01*
X77613586Y-91808784D01*
X77613786Y-91579287D01*
X77362966Y-90972255D01*
X76898937Y-90507416D01*
X76292345Y-90255537D01*
X75635537Y-90254964D01*
X75028505Y-90505784D01*
X74563666Y-90969813D01*
X74311787Y-91576405D01*
X74311214Y-92233213D01*
X74562034Y-92840245D01*
X75026063Y-93305084D01*
X75632655Y-93556963D01*
X75865204Y-93557166D01*
X72461185Y-96961185D01*
X72296004Y-97208395D01*
X72238000Y-97500000D01*
X72147500Y-97500000D01*
X72147500Y-88415608D01*
X73900130Y-88415608D01*
X74137444Y-88989952D01*
X74576486Y-89429761D01*
X75150416Y-89668078D01*
X75771858Y-89668620D01*
X76346202Y-89431306D01*
X76786011Y-88992264D01*
X77024328Y-88418334D01*
X77024870Y-87796892D01*
X76787556Y-87222548D01*
X76348514Y-86782739D01*
X75774584Y-86544422D01*
X75153142Y-86543880D01*
X74578798Y-86781194D01*
X74138989Y-87220236D01*
X73900672Y-87794166D01*
X73900130Y-88415608D01*
X72147500Y-88415608D01*
X72147500Y-84130094D01*
X85052004Y-84130094D01*
X85223719Y-84545677D01*
X85541400Y-84863913D01*
X85956683Y-85036353D01*
X86406344Y-85036746D01*
X86821927Y-84865031D01*
X87140163Y-84547350D01*
X87312603Y-84132067D01*
X87312996Y-83682406D01*
X87141281Y-83266823D01*
X86823600Y-82948587D01*
X86408317Y-82776147D01*
X85958656Y-82775754D01*
X85543073Y-82947469D01*
X85224837Y-83265150D01*
X85052397Y-83680433D01*
X85052004Y-84130094D01*
X72147500Y-84130094D01*
X72147500Y-64603108D01*
X73900130Y-64603108D01*
X74137444Y-65177452D01*
X74576486Y-65617261D01*
X75150416Y-65855578D01*
X75771858Y-65856120D01*
X76346202Y-65618806D01*
X76786011Y-65179764D01*
X76964886Y-64748984D01*
X78663402Y-64748984D01*
X79012621Y-65594158D01*
X79658691Y-66241357D01*
X80503254Y-66592050D01*
X81417734Y-66592848D01*
X82262908Y-66243629D01*
X82910107Y-65597559D01*
X83260800Y-64752996D01*
X83260930Y-64603108D01*
X84900130Y-64603108D01*
X85137444Y-65177452D01*
X85576486Y-65617261D01*
X86150416Y-65855578D01*
X86771858Y-65856120D01*
X87346202Y-65618806D01*
X87786011Y-65179764D01*
X88024328Y-64605834D01*
X88024330Y-64603108D01*
X92950130Y-64603108D01*
X93187444Y-65177452D01*
X93626486Y-65617261D01*
X94200416Y-65855578D01*
X94821858Y-65856120D01*
X95396202Y-65618806D01*
X95836011Y-65179764D01*
X96014886Y-64748984D01*
X97713402Y-64748984D01*
X98062621Y-65594158D01*
X98708691Y-66241357D01*
X99553254Y-66592050D01*
X100467734Y-66592848D01*
X101312908Y-66243629D01*
X101960107Y-65597559D01*
X102310800Y-64752996D01*
X102310930Y-64603108D01*
X103950130Y-64603108D01*
X104187444Y-65177452D01*
X104626486Y-65617261D01*
X105200416Y-65855578D01*
X105821858Y-65856120D01*
X106396202Y-65618806D01*
X106836011Y-65179764D01*
X107074328Y-64605834D01*
X107074330Y-64603108D01*
X112000130Y-64603108D01*
X112237444Y-65177452D01*
X112676486Y-65617261D01*
X113250416Y-65855578D01*
X113871858Y-65856120D01*
X114446202Y-65618806D01*
X114886011Y-65179764D01*
X115064886Y-64748984D01*
X116763402Y-64748984D01*
X117112621Y-65594158D01*
X117758691Y-66241357D01*
X118603254Y-66592050D01*
X119517734Y-66592848D01*
X120362908Y-66243629D01*
X121010107Y-65597559D01*
X121360800Y-64752996D01*
X121360930Y-64603108D01*
X123000130Y-64603108D01*
X123237444Y-65177452D01*
X123676486Y-65617261D01*
X124250416Y-65855578D01*
X124871858Y-65856120D01*
X125446202Y-65618806D01*
X125886011Y-65179764D01*
X126124328Y-64605834D01*
X126124870Y-63984392D01*
X125887556Y-63410048D01*
X125448514Y-62970239D01*
X124874584Y-62731922D01*
X124253142Y-62731380D01*
X123678798Y-62968694D01*
X123238989Y-63407736D01*
X123000672Y-63981666D01*
X123000130Y-64603108D01*
X121360930Y-64603108D01*
X121361598Y-63838516D01*
X121012379Y-62993342D01*
X120366309Y-62346143D01*
X119521746Y-61995450D01*
X118607266Y-61994652D01*
X117762092Y-62343871D01*
X117114893Y-62989941D01*
X116764200Y-63834504D01*
X116763402Y-64748984D01*
X115064886Y-64748984D01*
X115124328Y-64605834D01*
X115124870Y-63984392D01*
X114887556Y-63410048D01*
X114448514Y-62970239D01*
X113874584Y-62731922D01*
X113253142Y-62731380D01*
X112678798Y-62968694D01*
X112238989Y-63407736D01*
X112000672Y-63981666D01*
X112000130Y-64603108D01*
X107074330Y-64603108D01*
X107074870Y-63984392D01*
X106837556Y-63410048D01*
X106398514Y-62970239D01*
X105824584Y-62731922D01*
X105203142Y-62731380D01*
X104628798Y-62968694D01*
X104188989Y-63407736D01*
X103950672Y-63981666D01*
X103950130Y-64603108D01*
X102310930Y-64603108D01*
X102311598Y-63838516D01*
X101962379Y-62993342D01*
X101316309Y-62346143D01*
X100471746Y-61995450D01*
X99557266Y-61994652D01*
X98712092Y-62343871D01*
X98064893Y-62989941D01*
X97714200Y-63834504D01*
X97713402Y-64748984D01*
X96014886Y-64748984D01*
X96074328Y-64605834D01*
X96074870Y-63984392D01*
X95837556Y-63410048D01*
X95398514Y-62970239D01*
X94824584Y-62731922D01*
X94203142Y-62731380D01*
X93628798Y-62968694D01*
X93188989Y-63407736D01*
X92950672Y-63981666D01*
X92950130Y-64603108D01*
X88024330Y-64603108D01*
X88024870Y-63984392D01*
X87787556Y-63410048D01*
X87348514Y-62970239D01*
X86774584Y-62731922D01*
X86153142Y-62731380D01*
X85578798Y-62968694D01*
X85138989Y-63407736D01*
X84900672Y-63981666D01*
X84900130Y-64603108D01*
X83260930Y-64603108D01*
X83261598Y-63838516D01*
X82912379Y-62993342D01*
X82266309Y-62346143D01*
X81421746Y-61995450D01*
X80507266Y-61994652D01*
X79662092Y-62343871D01*
X79014893Y-62989941D01*
X78664200Y-63834504D01*
X78663402Y-64748984D01*
X76964886Y-64748984D01*
X77024328Y-64605834D01*
X77024870Y-63984392D01*
X76787556Y-63410048D01*
X76348514Y-62970239D01*
X75774584Y-62731922D01*
X75153142Y-62731380D01*
X74578798Y-62968694D01*
X74138989Y-63407736D01*
X73900672Y-63981666D01*
X73900130Y-64603108D01*
X72147500Y-64603108D01*
X72147500Y-60317594D01*
X85052004Y-60317594D01*
X85223719Y-60733177D01*
X85541400Y-61051413D01*
X85956683Y-61223853D01*
X86406344Y-61224246D01*
X86821927Y-61052531D01*
X87140163Y-60734850D01*
X87312603Y-60319567D01*
X87312604Y-60317594D01*
X104102004Y-60317594D01*
X104273719Y-60733177D01*
X104591400Y-61051413D01*
X105006683Y-61223853D01*
X105456344Y-61224246D01*
X105871927Y-61052531D01*
X106190163Y-60734850D01*
X106362603Y-60319567D01*
X106362604Y-60317594D01*
X123152004Y-60317594D01*
X123323719Y-60733177D01*
X123641400Y-61051413D01*
X124056683Y-61223853D01*
X124506344Y-61224246D01*
X124921927Y-61052531D01*
X125240163Y-60734850D01*
X125412603Y-60319567D01*
X125412996Y-59869906D01*
X125241281Y-59454323D01*
X124923600Y-59136087D01*
X124508317Y-58963647D01*
X124058656Y-58963254D01*
X123643073Y-59134969D01*
X123324837Y-59452650D01*
X123152397Y-59867933D01*
X123152004Y-60317594D01*
X106362604Y-60317594D01*
X106362996Y-59869906D01*
X106191281Y-59454323D01*
X105873600Y-59136087D01*
X105458317Y-58963647D01*
X105008656Y-58963254D01*
X104593073Y-59134969D01*
X104274837Y-59452650D01*
X104102397Y-59867933D01*
X104102004Y-60317594D01*
X87312604Y-60317594D01*
X87312996Y-59869906D01*
X87141281Y-59454323D01*
X86823600Y-59136087D01*
X86408317Y-58963647D01*
X85958656Y-58963254D01*
X85543073Y-59134969D01*
X85224837Y-59452650D01*
X85052397Y-59867933D01*
X85052004Y-60317594D01*
X72147500Y-60317594D01*
X72147500Y-58193663D01*
X99021931Y-58193663D01*
X99170493Y-58553212D01*
X99445341Y-58828540D01*
X99804630Y-58977730D01*
X100193663Y-58978069D01*
X100553212Y-58829507D01*
X100620837Y-58762000D01*
X109878917Y-58762000D01*
X109945341Y-58828540D01*
X110304630Y-58977730D01*
X110693663Y-58978069D01*
X111053212Y-58829507D01*
X111328540Y-58554659D01*
X111477730Y-58195370D01*
X111478069Y-57806337D01*
X111329507Y-57446788D01*
X111054659Y-57171460D01*
X110695370Y-57022270D01*
X110306337Y-57021931D01*
X109946788Y-57170493D01*
X109879163Y-57238000D01*
X100621083Y-57238000D01*
X100554659Y-57171460D01*
X100195370Y-57022270D01*
X99806337Y-57021931D01*
X99446788Y-57170493D01*
X99171460Y-57445341D01*
X99022270Y-57804630D01*
X99021931Y-58193663D01*
X72147500Y-58193663D01*
X72147500Y-53097500D01*
X80298834Y-53097500D01*
X80159697Y-53154990D01*
X80159697Y-53154990D01*
G37*
X80159697Y-53154990D02*
X79766371Y-53547630D01*
X79553243Y-54060900D01*
X79552758Y-54616661D01*
X79764990Y-55130303D01*
X80157630Y-55523629D01*
X80670900Y-55736757D01*
X81226661Y-55737242D01*
X81740303Y-55525010D01*
X82133629Y-55132370D01*
X82219949Y-54924488D01*
X82304990Y-55130303D01*
X82697630Y-55523629D01*
X83210900Y-55736757D01*
X83766661Y-55737242D01*
X84280303Y-55525010D01*
X84673629Y-55132370D01*
X84759949Y-54924488D01*
X84844990Y-55130303D01*
X85237630Y-55523629D01*
X85750900Y-55736757D01*
X86306661Y-55737242D01*
X86820303Y-55525010D01*
X87025457Y-55320213D01*
X87769392Y-55320213D01*
X87838857Y-55562397D01*
X88362302Y-55749144D01*
X88917368Y-55721362D01*
X89301143Y-55562397D01*
X89370608Y-55320213D01*
X88570000Y-54519605D01*
X87769392Y-55320213D01*
X87025457Y-55320213D01*
X87213629Y-55132370D01*
X87293395Y-54940273D01*
X87347603Y-55071143D01*
X87589787Y-55140608D01*
X88390395Y-54340000D01*
X87589787Y-53539392D01*
X87347603Y-53608857D01*
X87297491Y-53749318D01*
X87215010Y-53549697D01*
X86822370Y-53156371D01*
X86680593Y-53097500D01*
X87887390Y-53097500D01*
X87838857Y-53117603D01*
X87769392Y-53359787D01*
X88570000Y-54160395D01*
X89370608Y-53359787D01*
X89301143Y-53117603D01*
X89244795Y-53097500D01*
X90458834Y-53097500D01*
X90319697Y-53154990D01*
X89926371Y-53547630D01*
X89846605Y-53739727D01*
X89792397Y-53608857D01*
X89550213Y-53539392D01*
X88749605Y-54340000D01*
X89550213Y-55140608D01*
X89792397Y-55071143D01*
X89842509Y-54930682D01*
X89924990Y-55130303D01*
X90317630Y-55523629D01*
X90830900Y-55736757D01*
X91386661Y-55737242D01*
X91900303Y-55525010D01*
X92293629Y-55132370D01*
X92379949Y-54924488D01*
X92464990Y-55130303D01*
X92857630Y-55523629D01*
X93370900Y-55736757D01*
X93926661Y-55737242D01*
X94440303Y-55525010D01*
X94833629Y-55132370D01*
X94919949Y-54924488D01*
X95004990Y-55130303D01*
X95397630Y-55523629D01*
X95910900Y-55736757D01*
X96466661Y-55737242D01*
X96980303Y-55525010D01*
X97373629Y-55132370D01*
X97459949Y-54924488D01*
X97544990Y-55130303D01*
X97937630Y-55523629D01*
X98450900Y-55736757D01*
X99006661Y-55737242D01*
X99520303Y-55525010D01*
X99913629Y-55132370D01*
X99999949Y-54924488D01*
X100084990Y-55130303D01*
X100477630Y-55523629D01*
X100990900Y-55736757D01*
X101546661Y-55737242D01*
X102060303Y-55525010D01*
X102453629Y-55132370D01*
X102539949Y-54924488D01*
X102624990Y-55130303D01*
X103017630Y-55523629D01*
X103530900Y-55736757D01*
X104086661Y-55737242D01*
X104600303Y-55525010D01*
X104993629Y-55132370D01*
X105079949Y-54924488D01*
X105164990Y-55130303D01*
X105557630Y-55523629D01*
X106070900Y-55736757D01*
X106626661Y-55737242D01*
X107140303Y-55525010D01*
X107533629Y-55132370D01*
X107619949Y-54924488D01*
X107704990Y-55130303D01*
X108097630Y-55523629D01*
X108610900Y-55736757D01*
X109166661Y-55737242D01*
X109680303Y-55525010D01*
X110073629Y-55132370D01*
X110159949Y-54924488D01*
X110244990Y-55130303D01*
X110637630Y-55523629D01*
X111150900Y-55736757D01*
X111706661Y-55737242D01*
X112220303Y-55525010D01*
X112613629Y-55132370D01*
X112699949Y-54924488D01*
X112784990Y-55130303D01*
X113177630Y-55523629D01*
X113690900Y-55736757D01*
X114246661Y-55737242D01*
X114760303Y-55525010D01*
X115153629Y-55132370D01*
X115239949Y-54924488D01*
X115324990Y-55130303D01*
X115717630Y-55523629D01*
X116230900Y-55736757D01*
X116786661Y-55737242D01*
X117300303Y-55525010D01*
X117693629Y-55132370D01*
X117779949Y-54924488D01*
X117864990Y-55130303D01*
X118257630Y-55523629D01*
X118770900Y-55736757D01*
X119326661Y-55737242D01*
X119840303Y-55525010D01*
X120233629Y-55132370D01*
X120446757Y-54619100D01*
X120447242Y-54063339D01*
X120235010Y-53549697D01*
X119842370Y-53156371D01*
X119700593Y-53097500D01*
X127877500Y-53097500D01*
X127877500Y-135021250D01*
X72147500Y-135021250D01*
X72147500Y-97500000D01*
X72238000Y-97500000D01*
X72238000Y-130000000D01*
X72296004Y-130291605D01*
X72405540Y-130455537D01*
X72461185Y-130538815D01*
X74567434Y-132645065D01*
X74811879Y-132808398D01*
X74814645Y-132810246D01*
X75106250Y-132868250D01*
X79490967Y-132868250D01*
X79562034Y-133040245D01*
X80026063Y-133505084D01*
X80632655Y-133756963D01*
X81289463Y-133757536D01*
X81896495Y-133506716D01*
X82361334Y-133042687D01*
X82434597Y-132866250D01*
X98540141Y-132866250D01*
X98612034Y-133040245D01*
X99076063Y-133505084D01*
X99682655Y-133756963D01*
X100339463Y-133757536D01*
X100946495Y-133506716D01*
X101411334Y-133042687D01*
X101484597Y-132866250D01*
X117590141Y-132866250D01*
X117662034Y-133040245D01*
X118126063Y-133505084D01*
X118732655Y-133756963D01*
X119389463Y-133757536D01*
X119996495Y-133506716D01*
X120461334Y-133042687D01*
X120713213Y-132436095D01*
X120713786Y-131779287D01*
X120462966Y-131172255D01*
X119998937Y-130707416D01*
X119392345Y-130455537D01*
X118735537Y-130454964D01*
X118128505Y-130705784D01*
X117663666Y-131169813D01*
X117590403Y-131346250D01*
X115057067Y-131346250D01*
X115461334Y-130942687D01*
X115713213Y-130336095D01*
X115713786Y-129679287D01*
X115462966Y-129072255D01*
X114998937Y-128607416D01*
X114392345Y-128355537D01*
X113735537Y-128354964D01*
X113128505Y-128605784D01*
X112663666Y-129069813D01*
X112411787Y-129676405D01*
X112411214Y-130333213D01*
X112662034Y-130940245D01*
X113067332Y-131346250D01*
X101484859Y-131346250D01*
X101412966Y-131172255D01*
X100948937Y-130707416D01*
X100342345Y-130455537D01*
X99685537Y-130454964D01*
X99078505Y-130705784D01*
X98613666Y-131169813D01*
X98540403Y-131346250D01*
X96007067Y-131346250D01*
X96411334Y-130942687D01*
X96663213Y-130336095D01*
X96663786Y-129679287D01*
X96412966Y-129072255D01*
X95948937Y-128607416D01*
X95342345Y-128355537D01*
X94685537Y-128354964D01*
X94078505Y-128605784D01*
X93613666Y-129069813D01*
X93361787Y-129676405D01*
X93361214Y-130333213D01*
X93612034Y-130940245D01*
X94017332Y-131346250D01*
X82434859Y-131346250D01*
X82362966Y-131172255D01*
X81898937Y-130707416D01*
X81292345Y-130455537D01*
X80635537Y-130454964D01*
X80028505Y-130705784D01*
X79563666Y-131169813D01*
X79491233Y-131344250D01*
X76959070Y-131344250D01*
X77361334Y-130942687D01*
X77613213Y-130336095D01*
X77613786Y-129679287D01*
X77362966Y-129072255D01*
X76898937Y-128607416D01*
X76292345Y-128355537D01*
X75635537Y-128354964D01*
X75028505Y-128605784D01*
X74563666Y-129069813D01*
X74311787Y-129676405D01*
X74311301Y-130233670D01*
X73762000Y-129684370D01*
X73762000Y-126515608D01*
X73900130Y-126515608D01*
X74137444Y-127089952D01*
X74576486Y-127529761D01*
X75150416Y-127768078D01*
X75771858Y-127768620D01*
X76346202Y-127531306D01*
X76786011Y-127092264D01*
X76964886Y-126661484D01*
X78663402Y-126661484D01*
X79012621Y-127506658D01*
X79658691Y-128153857D01*
X80503254Y-128504550D01*
X81417734Y-128505348D01*
X82262908Y-128156129D01*
X82910107Y-127510059D01*
X83260800Y-126665496D01*
X83260930Y-126515608D01*
X84900130Y-126515608D01*
X85137444Y-127089952D01*
X85576486Y-127529761D01*
X86150416Y-127768078D01*
X86771858Y-127768620D01*
X87346202Y-127531306D01*
X87786011Y-127092264D01*
X88024328Y-126518334D01*
X88024330Y-126515608D01*
X92950130Y-126515608D01*
X93187444Y-127089952D01*
X93626486Y-127529761D01*
X94200416Y-127768078D01*
X94821858Y-127768620D01*
X95396202Y-127531306D01*
X95836011Y-127092264D01*
X96014886Y-126661484D01*
X97713402Y-126661484D01*
X98062621Y-127506658D01*
X98708691Y-128153857D01*
X99553254Y-128504550D01*
X100467734Y-128505348D01*
X101312908Y-128156129D01*
X101960107Y-127510059D01*
X102310800Y-126665496D01*
X102310930Y-126515608D01*
X103950130Y-126515608D01*
X104187444Y-127089952D01*
X104626486Y-127529761D01*
X105200416Y-127768078D01*
X105821858Y-127768620D01*
X106396202Y-127531306D01*
X106836011Y-127092264D01*
X107074328Y-126518334D01*
X107074330Y-126515608D01*
X112000130Y-126515608D01*
X112237444Y-127089952D01*
X112676486Y-127529761D01*
X113250416Y-127768078D01*
X113871858Y-127768620D01*
X114446202Y-127531306D01*
X114886011Y-127092264D01*
X115064886Y-126661484D01*
X116763402Y-126661484D01*
X117112621Y-127506658D01*
X117758691Y-128153857D01*
X118603254Y-128504550D01*
X119517734Y-128505348D01*
X120362908Y-128156129D01*
X121010107Y-127510059D01*
X121360800Y-126665496D01*
X121360930Y-126515608D01*
X123000130Y-126515608D01*
X123237444Y-127089952D01*
X123676486Y-127529761D01*
X124250416Y-127768078D01*
X124871858Y-127768620D01*
X125446202Y-127531306D01*
X125886011Y-127092264D01*
X126124328Y-126518334D01*
X126124870Y-125896892D01*
X125887556Y-125322548D01*
X125448514Y-124882739D01*
X124874584Y-124644422D01*
X124253142Y-124643880D01*
X123678798Y-124881194D01*
X123238989Y-125320236D01*
X123000672Y-125894166D01*
X123000130Y-126515608D01*
X121360930Y-126515608D01*
X121361598Y-125751016D01*
X121012379Y-124905842D01*
X120366309Y-124258643D01*
X119521746Y-123907950D01*
X118607266Y-123907152D01*
X117762092Y-124256371D01*
X117114893Y-124902441D01*
X116764200Y-125747004D01*
X116763402Y-126661484D01*
X115064886Y-126661484D01*
X115124328Y-126518334D01*
X115124870Y-125896892D01*
X114887556Y-125322548D01*
X114448514Y-124882739D01*
X113874584Y-124644422D01*
X113253142Y-124643880D01*
X112678798Y-124881194D01*
X112238989Y-125320236D01*
X112000672Y-125894166D01*
X112000130Y-126515608D01*
X107074330Y-126515608D01*
X107074870Y-125896892D01*
X106837556Y-125322548D01*
X106398514Y-124882739D01*
X105824584Y-124644422D01*
X105203142Y-124643880D01*
X104628798Y-124881194D01*
X104188989Y-125320236D01*
X103950672Y-125894166D01*
X103950130Y-126515608D01*
X102310930Y-126515608D01*
X102311598Y-125751016D01*
X101962379Y-124905842D01*
X101316309Y-124258643D01*
X100471746Y-123907950D01*
X99557266Y-123907152D01*
X98712092Y-124256371D01*
X98064893Y-124902441D01*
X97714200Y-125747004D01*
X97713402Y-126661484D01*
X96014886Y-126661484D01*
X96074328Y-126518334D01*
X96074870Y-125896892D01*
X95837556Y-125322548D01*
X95398514Y-124882739D01*
X94824584Y-124644422D01*
X94203142Y-124643880D01*
X93628798Y-124881194D01*
X93188989Y-125320236D01*
X92950672Y-125894166D01*
X92950130Y-126515608D01*
X88024330Y-126515608D01*
X88024870Y-125896892D01*
X87787556Y-125322548D01*
X87348514Y-124882739D01*
X86774584Y-124644422D01*
X86153142Y-124643880D01*
X85578798Y-124881194D01*
X85138989Y-125320236D01*
X84900672Y-125894166D01*
X84900130Y-126515608D01*
X83260930Y-126515608D01*
X83261598Y-125751016D01*
X82912379Y-124905842D01*
X82266309Y-124258643D01*
X81421746Y-123907950D01*
X80507266Y-123907152D01*
X79662092Y-124256371D01*
X79014893Y-124902441D01*
X78664200Y-125747004D01*
X78663402Y-126661484D01*
X76964886Y-126661484D01*
X77024328Y-126518334D01*
X77024870Y-125896892D01*
X76787556Y-125322548D01*
X76348514Y-124882739D01*
X75774584Y-124644422D01*
X75153142Y-124643880D01*
X74578798Y-124881194D01*
X74138989Y-125320236D01*
X73900672Y-125894166D01*
X73900130Y-126515608D01*
X73762000Y-126515608D01*
X73762000Y-122230094D01*
X85052004Y-122230094D01*
X85223719Y-122645677D01*
X85541400Y-122963913D01*
X85956683Y-123136353D01*
X86406344Y-123136746D01*
X86821927Y-122965031D01*
X87140163Y-122647350D01*
X87312603Y-122232067D01*
X87312604Y-122230094D01*
X104102004Y-122230094D01*
X104273719Y-122645677D01*
X104591400Y-122963913D01*
X105006683Y-123136353D01*
X105456344Y-123136746D01*
X105871927Y-122965031D01*
X106190163Y-122647350D01*
X106362603Y-122232067D01*
X106362604Y-122230094D01*
X123152004Y-122230094D01*
X123323719Y-122645677D01*
X123641400Y-122963913D01*
X124056683Y-123136353D01*
X124506344Y-123136746D01*
X124921927Y-122965031D01*
X125240163Y-122647350D01*
X125412603Y-122232067D01*
X125412996Y-121782406D01*
X125241281Y-121366823D01*
X124923600Y-121048587D01*
X124508317Y-120876147D01*
X124058656Y-120875754D01*
X123643073Y-121047469D01*
X123324837Y-121365150D01*
X123152397Y-121780433D01*
X123152004Y-122230094D01*
X106362604Y-122230094D01*
X106362996Y-121782406D01*
X106191281Y-121366823D01*
X105873600Y-121048587D01*
X105458317Y-120876147D01*
X105008656Y-120875754D01*
X104593073Y-121047469D01*
X104274837Y-121365150D01*
X104102397Y-121780433D01*
X104102004Y-122230094D01*
X87312604Y-122230094D01*
X87312996Y-121782406D01*
X87141281Y-121366823D01*
X86823600Y-121048587D01*
X86408317Y-120876147D01*
X85958656Y-120875754D01*
X85543073Y-121047469D01*
X85224837Y-121365150D01*
X85052397Y-121780433D01*
X85052004Y-122230094D01*
X73762000Y-122230094D01*
X73762000Y-118035413D01*
X74494192Y-118035413D01*
X74573017Y-118285490D01*
X75124097Y-118484977D01*
X75709569Y-118458389D01*
X76126983Y-118285490D01*
X76205808Y-118035413D01*
X75350000Y-117179605D01*
X74494192Y-118035413D01*
X73762000Y-118035413D01*
X73762000Y-116774097D01*
X73865023Y-116774097D01*
X73891611Y-117359569D01*
X74064510Y-117776983D01*
X74314587Y-117855808D01*
X75170395Y-117000000D01*
X75529605Y-117000000D01*
X76385413Y-117855808D01*
X76635490Y-117776983D01*
X76811140Y-117291752D01*
X79176545Y-117291752D01*
X79400353Y-117833411D01*
X79814409Y-118248190D01*
X80355677Y-118472944D01*
X80941752Y-118473455D01*
X81483411Y-118249647D01*
X81898190Y-117835591D01*
X81928748Y-117762000D01*
X86878917Y-117762000D01*
X86945341Y-117828540D01*
X87304630Y-117977730D01*
X87693663Y-117978069D01*
X88053212Y-117829507D01*
X88328540Y-117554659D01*
X88342843Y-117520213D01*
X121399392Y-117520213D01*
X121468857Y-117762397D01*
X121992302Y-117949144D01*
X122547368Y-117921362D01*
X122931143Y-117762397D01*
X123000608Y-117520213D01*
X122200000Y-116719605D01*
X121399392Y-117520213D01*
X88342843Y-117520213D01*
X88477730Y-117195370D01*
X88478069Y-116806337D01*
X88329507Y-116446788D01*
X88215221Y-116332302D01*
X120790856Y-116332302D01*
X120818638Y-116887368D01*
X120977603Y-117271143D01*
X121219787Y-117340608D01*
X122020395Y-116540000D01*
X122379605Y-116540000D01*
X123180213Y-117340608D01*
X123422397Y-117271143D01*
X123472509Y-117130682D01*
X123554990Y-117330303D01*
X123947630Y-117723629D01*
X124460900Y-117936757D01*
X125016661Y-117937242D01*
X125530303Y-117725010D01*
X125923629Y-117332370D01*
X126136757Y-116819100D01*
X126137242Y-116263339D01*
X125925010Y-115749697D01*
X125532370Y-115356371D01*
X125019100Y-115143243D01*
X124463339Y-115142758D01*
X123949697Y-115354990D01*
X123556371Y-115747630D01*
X123476605Y-115939727D01*
X123422397Y-115808857D01*
X123180213Y-115739392D01*
X122379605Y-116540000D01*
X122020395Y-116540000D01*
X121219787Y-115739392D01*
X120977603Y-115808857D01*
X120790856Y-116332302D01*
X88215221Y-116332302D01*
X88054659Y-116171460D01*
X87695370Y-116022270D01*
X87306337Y-116021931D01*
X86946788Y-116170493D01*
X86879163Y-116238000D01*
X81929153Y-116238000D01*
X81899647Y-116166589D01*
X81485591Y-115751810D01*
X81023149Y-115559787D01*
X121399392Y-115559787D01*
X122200000Y-116360395D01*
X123000608Y-115559787D01*
X122931143Y-115317603D01*
X122407698Y-115130856D01*
X121852632Y-115158638D01*
X121468857Y-115317603D01*
X121399392Y-115559787D01*
X81023149Y-115559787D01*
X80944323Y-115527056D01*
X80358248Y-115526545D01*
X79816589Y-115750353D01*
X79401810Y-116164409D01*
X79177056Y-116705677D01*
X79176545Y-117291752D01*
X76811140Y-117291752D01*
X76834977Y-117225903D01*
X76808389Y-116640431D01*
X76635490Y-116223017D01*
X76385413Y-116144192D01*
X75529605Y-117000000D01*
X75170395Y-117000000D01*
X74314587Y-116144192D01*
X74064510Y-116223017D01*
X73865023Y-116774097D01*
X73762000Y-116774097D01*
X73762000Y-115964587D01*
X74494192Y-115964587D01*
X75350000Y-116820395D01*
X76205808Y-115964587D01*
X76126983Y-115714510D01*
X75575903Y-115515023D01*
X74990431Y-115541611D01*
X74573017Y-115714510D01*
X74494192Y-115964587D01*
X73762000Y-115964587D01*
X73762000Y-97815630D01*
X76738000Y-94839630D01*
X76738000Y-106222905D01*
X76348514Y-105832739D01*
X75774584Y-105594422D01*
X75153142Y-105593880D01*
X74578798Y-105831194D01*
X74138989Y-106270236D01*
X73900672Y-106844166D01*
X73900130Y-107465608D01*
X74137444Y-108039952D01*
X74576486Y-108479761D01*
X75150416Y-108718078D01*
X75771858Y-108718620D01*
X76346202Y-108481306D01*
X76738000Y-108090191D01*
X76738000Y-109490589D01*
X76292345Y-109305537D01*
X75635537Y-109304964D01*
X75028505Y-109555784D01*
X74563666Y-110019813D01*
X74311787Y-110626405D01*
X74311214Y-111283213D01*
X74562034Y-111890245D01*
X75026063Y-112355084D01*
X75632655Y-112606963D01*
X76289463Y-112607536D01*
X76896495Y-112356716D01*
X77361334Y-111892687D01*
X77613213Y-111286095D01*
X77613650Y-110785030D01*
X79383154Y-112554535D01*
X79311787Y-112726405D01*
X79311214Y-113383213D01*
X79562034Y-113990245D01*
X80026063Y-114455084D01*
X80632655Y-114706963D01*
X81289463Y-114707536D01*
X81896495Y-114456716D01*
X82361334Y-113992687D01*
X82434597Y-113816250D01*
X98540141Y-113816250D01*
X98612034Y-113990245D01*
X99076063Y-114455084D01*
X99682655Y-114706963D01*
X100339463Y-114707536D01*
X100946495Y-114456716D01*
X101411334Y-113992687D01*
X101484597Y-113816250D01*
X117590141Y-113816250D01*
X117662034Y-113990245D01*
X118126063Y-114455084D01*
X118732655Y-114706963D01*
X119389463Y-114707536D01*
X119996495Y-114456716D01*
X120461334Y-113992687D01*
X120713213Y-113386095D01*
X120713786Y-112729287D01*
X120462966Y-112122255D01*
X119998937Y-111657416D01*
X119392345Y-111405537D01*
X118735537Y-111404964D01*
X118128505Y-111655784D01*
X117663666Y-112119813D01*
X117590403Y-112296250D01*
X115057067Y-112296250D01*
X115461334Y-111892687D01*
X115713213Y-111286095D01*
X115713786Y-110629287D01*
X115462966Y-110022255D01*
X114998937Y-109557416D01*
X114392345Y-109305537D01*
X113735537Y-109304964D01*
X113128505Y-109555784D01*
X112663666Y-110019813D01*
X112411787Y-110626405D01*
X112411214Y-111283213D01*
X112662034Y-111890245D01*
X113067332Y-112296250D01*
X101484859Y-112296250D01*
X101412966Y-112122255D01*
X100948937Y-111657416D01*
X100342345Y-111405537D01*
X99685537Y-111404964D01*
X99078505Y-111655784D01*
X98613666Y-112119813D01*
X98540403Y-112296250D01*
X96007067Y-112296250D01*
X96411334Y-111892687D01*
X96663213Y-111286095D01*
X96663786Y-110629287D01*
X96412966Y-110022255D01*
X95948937Y-109557416D01*
X95342345Y-109305537D01*
X94685537Y-109304964D01*
X94078505Y-109555784D01*
X93613666Y-110019813D01*
X93361787Y-110626405D01*
X93361214Y-111283213D01*
X93612034Y-111890245D01*
X94017332Y-112296250D01*
X82434859Y-112296250D01*
X82362966Y-112122255D01*
X81898937Y-111657416D01*
X81292345Y-111405537D01*
X80635537Y-111404964D01*
X80460973Y-111477092D01*
X78262000Y-109278120D01*
X78262000Y-107611484D01*
X78663402Y-107611484D01*
X79012621Y-108456658D01*
X79658691Y-109103857D01*
X80503254Y-109454550D01*
X81417734Y-109455348D01*
X82262908Y-109106129D01*
X82910107Y-108460059D01*
X83260800Y-107615496D01*
X83260930Y-107465608D01*
X84900130Y-107465608D01*
X85137444Y-108039952D01*
X85576486Y-108479761D01*
X86150416Y-108718078D01*
X86771858Y-108718620D01*
X87346202Y-108481306D01*
X87786011Y-108042264D01*
X88024328Y-107468334D01*
X88024330Y-107465608D01*
X92950130Y-107465608D01*
X93187444Y-108039952D01*
X93626486Y-108479761D01*
X94200416Y-108718078D01*
X94821858Y-108718620D01*
X95396202Y-108481306D01*
X95836011Y-108042264D01*
X96014886Y-107611484D01*
X97713402Y-107611484D01*
X98062621Y-108456658D01*
X98708691Y-109103857D01*
X99553254Y-109454550D01*
X100467734Y-109455348D01*
X101312908Y-109106129D01*
X101960107Y-108460059D01*
X102310800Y-107615496D01*
X102310930Y-107465608D01*
X103950130Y-107465608D01*
X104187444Y-108039952D01*
X104626486Y-108479761D01*
X105200416Y-108718078D01*
X105821858Y-108718620D01*
X106396202Y-108481306D01*
X106836011Y-108042264D01*
X107074328Y-107468334D01*
X107074330Y-107465608D01*
X112000130Y-107465608D01*
X112237444Y-108039952D01*
X112676486Y-108479761D01*
X113250416Y-108718078D01*
X113871858Y-108718620D01*
X114446202Y-108481306D01*
X114886011Y-108042264D01*
X115064886Y-107611484D01*
X116763402Y-107611484D01*
X117112621Y-108456658D01*
X117758691Y-109103857D01*
X118603254Y-109454550D01*
X119517734Y-109455348D01*
X120362908Y-109106129D01*
X121010107Y-108460059D01*
X121360800Y-107615496D01*
X121360930Y-107465608D01*
X123000130Y-107465608D01*
X123237444Y-108039952D01*
X123676486Y-108479761D01*
X124250416Y-108718078D01*
X124871858Y-108718620D01*
X125446202Y-108481306D01*
X125886011Y-108042264D01*
X126124328Y-107468334D01*
X126124870Y-106846892D01*
X125887556Y-106272548D01*
X125448514Y-105832739D01*
X124874584Y-105594422D01*
X124253142Y-105593880D01*
X123678798Y-105831194D01*
X123238989Y-106270236D01*
X123000672Y-106844166D01*
X123000130Y-107465608D01*
X121360930Y-107465608D01*
X121361598Y-106701016D01*
X121012379Y-105855842D01*
X120366309Y-105208643D01*
X119521746Y-104857950D01*
X118607266Y-104857152D01*
X117762092Y-105206371D01*
X117114893Y-105852441D01*
X116764200Y-106697004D01*
X116763402Y-107611484D01*
X115064886Y-107611484D01*
X115124328Y-107468334D01*
X115124870Y-106846892D01*
X114887556Y-106272548D01*
X114448514Y-105832739D01*
X113874584Y-105594422D01*
X113253142Y-105593880D01*
X112678798Y-105831194D01*
X112238989Y-106270236D01*
X112000672Y-106844166D01*
X112000130Y-107465608D01*
X107074330Y-107465608D01*
X107074870Y-106846892D01*
X106837556Y-106272548D01*
X106398514Y-105832739D01*
X105824584Y-105594422D01*
X105203142Y-105593880D01*
X104628798Y-105831194D01*
X104188989Y-106270236D01*
X103950672Y-106844166D01*
X103950130Y-107465608D01*
X102310930Y-107465608D01*
X102311598Y-106701016D01*
X101962379Y-105855842D01*
X101316309Y-105208643D01*
X100471746Y-104857950D01*
X99557266Y-104857152D01*
X98712092Y-105206371D01*
X98064893Y-105852441D01*
X97714200Y-106697004D01*
X97713402Y-107611484D01*
X96014886Y-107611484D01*
X96074328Y-107468334D01*
X96074870Y-106846892D01*
X95837556Y-106272548D01*
X95398514Y-105832739D01*
X94824584Y-105594422D01*
X94203142Y-105593880D01*
X93628798Y-105831194D01*
X93188989Y-106270236D01*
X92950672Y-106844166D01*
X92950130Y-107465608D01*
X88024330Y-107465608D01*
X88024870Y-106846892D01*
X87787556Y-106272548D01*
X87348514Y-105832739D01*
X86774584Y-105594422D01*
X86153142Y-105593880D01*
X85578798Y-105831194D01*
X85138989Y-106270236D01*
X84900672Y-106844166D01*
X84900130Y-107465608D01*
X83260930Y-107465608D01*
X83261598Y-106701016D01*
X82912379Y-105855842D01*
X82266309Y-105208643D01*
X81421746Y-104857950D01*
X80507266Y-104857152D01*
X79662092Y-105206371D01*
X79014893Y-105852441D01*
X78664200Y-106697004D01*
X78663402Y-107611484D01*
X78262000Y-107611484D01*
X78262000Y-94815630D01*
X79311709Y-93765921D01*
X79311214Y-94333213D01*
X79562034Y-94940245D01*
X80026063Y-95405084D01*
X80632655Y-95656963D01*
X81289463Y-95657536D01*
X81896495Y-95406716D01*
X82361334Y-94942687D01*
X82433767Y-94768250D01*
X89496960Y-94768250D01*
X89487095Y-94817847D01*
X89462372Y-94879266D01*
X89390489Y-95260571D01*
X89340956Y-95227022D01*
X89339577Y-95226441D01*
X89338520Y-95225380D01*
X89250773Y-95166534D01*
X89248889Y-95165750D01*
X89247437Y-95164311D01*
X89171467Y-95114051D01*
X89168789Y-95112956D01*
X89166715Y-95110937D01*
X89106467Y-95071842D01*
X89101255Y-95069765D01*
X89097168Y-95065921D01*
X89056588Y-95040571D01*
X89035492Y-95032582D01*
X89018023Y-95018306D01*
X89001057Y-95009283D01*
X88922831Y-94985732D01*
X88848576Y-94951698D01*
X88804338Y-94950058D01*
X88761944Y-94937294D01*
X88680662Y-94945471D01*
X88599032Y-94942444D01*
X88557530Y-94957859D01*
X88513482Y-94962290D01*
X88494539Y-94972466D01*
X88489148Y-94973133D01*
X88437375Y-95002487D01*
X88364942Y-95029390D01*
X88354523Y-95035807D01*
X88324173Y-95063986D01*
X88293498Y-95080465D01*
X88288023Y-95087165D01*
X88271918Y-95096296D01*
X88240770Y-95123184D01*
X88232713Y-95133516D01*
X88221585Y-95140432D01*
X88174449Y-95184559D01*
X88171159Y-95189147D01*
X88166414Y-95192212D01*
X88107282Y-95249525D01*
X88105337Y-95252339D01*
X88102485Y-95254224D01*
X88035352Y-95320672D01*
X88033917Y-95322797D01*
X88031790Y-95324226D01*
X87960650Y-95395755D01*
X87959375Y-95397675D01*
X87957474Y-95398972D01*
X87886321Y-95471533D01*
X87884979Y-95473585D01*
X87882963Y-95474983D01*
X87815790Y-95544524D01*
X87814105Y-95547142D01*
X87811564Y-95548941D01*
X87752366Y-95611409D01*
X87749789Y-95615499D01*
X87745884Y-95618351D01*
X87698655Y-95669694D01*
X87693436Y-95678257D01*
X87685525Y-95684417D01*
X87654258Y-95720584D01*
X87634471Y-95755425D01*
X87606148Y-95783767D01*
X87594840Y-95800705D01*
X87576346Y-95845398D01*
X87547660Y-95884342D01*
X87537198Y-95926698D01*
X87530936Y-95937723D01*
X87527908Y-95962055D01*
X87513619Y-95990157D01*
X87512964Y-95998566D01*
X87499359Y-96031445D01*
X87499376Y-96079814D01*
X87487777Y-96126772D01*
X87497825Y-96193019D01*
X87494236Y-96239119D01*
X87499438Y-96255083D01*
X87499447Y-96281161D01*
X87517971Y-96325837D01*
X87525225Y-96373663D01*
X87527856Y-96380941D01*
X87555208Y-96426237D01*
X87571601Y-96476548D01*
X87589818Y-96509011D01*
X87599440Y-96520258D01*
X87604664Y-96534112D01*
X87637930Y-96587536D01*
X87642237Y-96592129D01*
X87644572Y-96597977D01*
X87690190Y-96668177D01*
X87693019Y-96671079D01*
X87694569Y-96674825D01*
X87749843Y-96757612D01*
X87752189Y-96759959D01*
X87753488Y-96763011D01*
X87805554Y-96839300D01*
X87767288Y-96846496D01*
X87765122Y-96847367D01*
X87762787Y-96847359D01*
X87658929Y-96867661D01*
X87655744Y-96868968D01*
X87652300Y-96868993D01*
X87561493Y-96887742D01*
X87557194Y-96889559D01*
X87552530Y-96889660D01*
X87479735Y-96905780D01*
X87471904Y-96909224D01*
X87463358Y-96909633D01*
X87413541Y-96922047D01*
X87386808Y-96934651D01*
X87357539Y-96938752D01*
X87335662Y-96946382D01*
X87235985Y-97005041D01*
X87226774Y-97010103D01*
X87187672Y-97028539D01*
X87187597Y-97028621D01*
X87175411Y-97033983D01*
X87166618Y-97043168D01*
X87134644Y-97060742D01*
X87128675Y-97068191D01*
X87120447Y-97073033D01*
X87055186Y-97159564D01*
X87002723Y-97214363D01*
X86994400Y-97235764D01*
X86978494Y-97255614D01*
X86974564Y-97263178D01*
X86973012Y-97268518D01*
X86970082Y-97272403D01*
X86955296Y-97329477D01*
X86947440Y-97356511D01*
X86912210Y-97447097D01*
X86905692Y-97484055D01*
X86906019Y-97499041D01*
X86904876Y-97502972D01*
X86906134Y-97514377D01*
X86898170Y-97542139D01*
X86893048Y-97603695D01*
X86894396Y-97615540D01*
X86891532Y-97627108D01*
X86887804Y-97707469D01*
X86888841Y-97714330D01*
X86887317Y-97721101D01*
X86884978Y-97814476D01*
X86885842Y-97819471D01*
X86884806Y-97824433D01*
X86883852Y-97925032D01*
X86884680Y-97929412D01*
X86883829Y-97933786D01*
X86884257Y-98035813D01*
X86885183Y-98040369D01*
X86884360Y-98044948D01*
X86886164Y-98142613D01*
X86887403Y-98148291D01*
X86886477Y-98154027D01*
X86889656Y-98241538D01*
X86891692Y-98250132D01*
X86890522Y-98258886D01*
X86895069Y-98330450D01*
X86899627Y-98347597D01*
X86898240Y-98365289D01*
X86904153Y-98415116D01*
X86923741Y-98475338D01*
X86928719Y-98516964D01*
X86929731Y-98531157D01*
X86930633Y-98532959D01*
X86931261Y-98538214D01*
X86938536Y-98560511D01*
X86969207Y-98615121D01*
X86972399Y-98624933D01*
X86980418Y-98653641D01*
X87009644Y-98690905D01*
X87041451Y-98754487D01*
X87053202Y-98764674D01*
X87060819Y-98778237D01*
X87106010Y-98813773D01*
X87134527Y-98850132D01*
X87183771Y-98877871D01*
X87230132Y-98918064D01*
X87234546Y-98920578D01*
X87247193Y-98924791D01*
X87257115Y-98932593D01*
X87304557Y-98945910D01*
X87352098Y-98972690D01*
X87385020Y-98983478D01*
X87408107Y-98986269D01*
X87429134Y-98996200D01*
X87486246Y-99010473D01*
X87496449Y-99010969D01*
X87505816Y-99015038D01*
X87580516Y-99031233D01*
X87587886Y-99031359D01*
X87594712Y-99034143D01*
X87680398Y-99050698D01*
X87683801Y-99050679D01*
X87686970Y-99051933D01*
X87715882Y-99057206D01*
X87804505Y-99073480D01*
X87797221Y-99084091D01*
X87797067Y-99084451D01*
X87796784Y-99084727D01*
X87780367Y-99108704D01*
X87779190Y-99111458D01*
X87777066Y-99113572D01*
X87719330Y-99199575D01*
X87717357Y-99204310D01*
X87713779Y-99207986D01*
X87663882Y-99284901D01*
X87661392Y-99291152D01*
X87656801Y-99296068D01*
X87617592Y-99359334D01*
X87613386Y-99370559D01*
X87605535Y-99379615D01*
X87579861Y-99424671D01*
X87567538Y-99461657D01*
X87552046Y-99481934D01*
X87550675Y-99487093D01*
X87545208Y-99495234D01*
X87535917Y-99517516D01*
X87516085Y-99616017D01*
X87496748Y-99668050D01*
X87497460Y-99687341D01*
X87487911Y-99723274D01*
X87490537Y-99742905D01*
X87486628Y-99762319D01*
X87503371Y-99847534D01*
X87505957Y-99917596D01*
X87517178Y-99942089D01*
X87521016Y-99970785D01*
X87523018Y-99976643D01*
X87531670Y-99991558D01*
X87534773Y-100007349D01*
X87574345Y-100066874D01*
X87609963Y-100144622D01*
X87630832Y-100173490D01*
X87644660Y-100186333D01*
X87648321Y-100192645D01*
X87654893Y-100197666D01*
X87667470Y-100219552D01*
X87708642Y-100266691D01*
X87718104Y-100273982D01*
X87724431Y-100284111D01*
X87742349Y-100303166D01*
X87698403Y-100313272D01*
X87647770Y-100301103D01*
X87592589Y-100298921D01*
X87579902Y-100300927D01*
X87567302Y-100298421D01*
X87475394Y-100298421D01*
X87280783Y-100337132D01*
X87202067Y-100311547D01*
X87093492Y-100298686D01*
X87046181Y-100302405D01*
X86999386Y-100294520D01*
X86958365Y-100295727D01*
X86913024Y-100306141D01*
X86866513Y-100305092D01*
X86782390Y-100319862D01*
X86693192Y-100354475D01*
X86601167Y-100380663D01*
X86532379Y-100415917D01*
X86461903Y-100471746D01*
X86385666Y-100519406D01*
X86321534Y-100579760D01*
X86300307Y-100609532D01*
X86271692Y-100632292D01*
X86261436Y-100644405D01*
X86244728Y-100674544D01*
X86220195Y-100698744D01*
X86192531Y-100739539D01*
X86167835Y-100798026D01*
X86162906Y-100803216D01*
X86158326Y-100815134D01*
X86126693Y-100864343D01*
X86108512Y-100910536D01*
X86099687Y-100959416D01*
X86095393Y-100969586D01*
X86095328Y-100979066D01*
X86073329Y-101036312D01*
X86063248Y-101094851D01*
X86064308Y-101135916D01*
X86054561Y-101175823D01*
X86051196Y-101253655D01*
X86054271Y-101273577D01*
X86050714Y-101293416D01*
X86051786Y-101350018D01*
X86052684Y-101397475D01*
X86054234Y-101404563D01*
X86053112Y-101411737D01*
X86055270Y-101464069D01*
X86057977Y-101475249D01*
X86056603Y-101486667D01*
X86061500Y-101550485D01*
X86070717Y-101583414D01*
X86070240Y-101617606D01*
X86078583Y-101662839D01*
X86100511Y-101717940D01*
X86110581Y-101776382D01*
X86124358Y-101812224D01*
X86133000Y-101825906D01*
X85958656Y-101825754D01*
X85543073Y-101997469D01*
X85224837Y-102315150D01*
X85052397Y-102730433D01*
X85052004Y-103180094D01*
X85223719Y-103595677D01*
X85541400Y-103913913D01*
X85956683Y-104086353D01*
X86406344Y-104086746D01*
X86821927Y-103915031D01*
X87140163Y-103597350D01*
X87157761Y-103554969D01*
X87230477Y-103603556D01*
X87248781Y-103607197D01*
X87264868Y-103616656D01*
X87370645Y-103631437D01*
X87475394Y-103652273D01*
X87493697Y-103648632D01*
X87512180Y-103651215D01*
X87599911Y-103646164D01*
X87599912Y-103646164D01*
X87687641Y-103641113D01*
X87778045Y-103617657D01*
X87943289Y-103650526D01*
X88127105Y-103650526D01*
X88282836Y-103619549D01*
X88319667Y-103632289D01*
X88383817Y-103641111D01*
X88418215Y-103639055D01*
X88451796Y-103646790D01*
X88521946Y-103648897D01*
X88555916Y-103643194D01*
X88590109Y-103647310D01*
X88653401Y-103642455D01*
X88672586Y-103637085D01*
X88702995Y-103645379D01*
X88754156Y-103648962D01*
X88776639Y-103646104D01*
X88798868Y-103650526D01*
X88879078Y-103650526D01*
X88962631Y-103633906D01*
X89046184Y-103650526D01*
X89213289Y-103650526D01*
X89458206Y-103601809D01*
X89504313Y-103571001D01*
X89576092Y-103605982D01*
X89649854Y-103625377D01*
X89737162Y-103630689D01*
X89823219Y-103646328D01*
X89913946Y-103644823D01*
X89968097Y-103633115D01*
X89968330Y-103633108D01*
X90006145Y-103634344D01*
X90068622Y-103648687D01*
X90121968Y-103650251D01*
X90131370Y-103648666D01*
X90140723Y-103650526D01*
X90232631Y-103650526D01*
X90395063Y-103618216D01*
X90408501Y-103620889D01*
X90502408Y-103648150D01*
X90530132Y-103645083D01*
X90557495Y-103650526D01*
X90711311Y-103650526D01*
X90745134Y-103643798D01*
X90779479Y-103646885D01*
X90859373Y-103621902D01*
X90904045Y-103627805D01*
X90974279Y-103649144D01*
X91026658Y-103644008D01*
X91078837Y-103650903D01*
X91233801Y-103640821D01*
X91240012Y-103639160D01*
X91246400Y-103639876D01*
X91360383Y-103606969D01*
X91404480Y-103595176D01*
X91408081Y-103597007D01*
X91480795Y-103617448D01*
X91537547Y-103621866D01*
X91592040Y-103638324D01*
X91673975Y-103646293D01*
X91725028Y-103641202D01*
X91775878Y-103648051D01*
X91853777Y-103643179D01*
X91881662Y-103635796D01*
X91930240Y-103647594D01*
X91986774Y-103649964D01*
X92000226Y-103647870D01*
X92013580Y-103650526D01*
X92106765Y-103650526D01*
X92112182Y-103649448D01*
X92117617Y-103650434D01*
X92182973Y-103636278D01*
X92254605Y-103650526D01*
X92438421Y-103650526D01*
X92683338Y-103601809D01*
X92741128Y-103563195D01*
X92776137Y-103573855D01*
X92834969Y-103604588D01*
X92861997Y-103612508D01*
X92916744Y-103617376D01*
X92969079Y-103634168D01*
X93065592Y-103645231D01*
X93131297Y-103639817D01*
X93196863Y-103646726D01*
X93298772Y-103637390D01*
X93363969Y-103618097D01*
X93431569Y-103610836D01*
X93523618Y-103582023D01*
X93569859Y-103556779D01*
X93620623Y-103542689D01*
X93653050Y-103526335D01*
X93672238Y-103511337D01*
X93695153Y-103503078D01*
X93741648Y-103475064D01*
X93775809Y-103443959D01*
X93816590Y-103422243D01*
X93844768Y-103399192D01*
X93871598Y-103366604D01*
X93900154Y-103347163D01*
X93916766Y-103321828D01*
X93941775Y-103300508D01*
X93945935Y-103295240D01*
X93971387Y-103245400D01*
X94003489Y-103206409D01*
X94011516Y-103180094D01*
X104102004Y-103180094D01*
X104273719Y-103595677D01*
X104591400Y-103913913D01*
X105006683Y-104086353D01*
X105456344Y-104086746D01*
X105871927Y-103915031D01*
X106190163Y-103597350D01*
X106362603Y-103182067D01*
X106362604Y-103180094D01*
X123152004Y-103180094D01*
X123323719Y-103595677D01*
X123641400Y-103913913D01*
X124056683Y-104086353D01*
X124506344Y-104086746D01*
X124921927Y-103915031D01*
X125240163Y-103597350D01*
X125412603Y-103182067D01*
X125412996Y-102732406D01*
X125241281Y-102316823D01*
X124923600Y-101998587D01*
X124508317Y-101826147D01*
X124058656Y-101825754D01*
X123643073Y-101997469D01*
X123324837Y-102315150D01*
X123152397Y-102730433D01*
X123152004Y-103180094D01*
X106362604Y-103180094D01*
X106362996Y-102732406D01*
X106191281Y-102316823D01*
X105873600Y-101998587D01*
X105458317Y-101826147D01*
X105008656Y-101825754D01*
X104593073Y-101997469D01*
X104274837Y-102315150D01*
X104102397Y-102730433D01*
X104102004Y-103180094D01*
X94011516Y-103180094D01*
X94013097Y-103174914D01*
X94037081Y-103138336D01*
X94044864Y-103119075D01*
X94050172Y-103091126D01*
X94056090Y-103079538D01*
X94064074Y-103064572D01*
X94072227Y-102981086D01*
X94076353Y-102967560D01*
X94075436Y-102958093D01*
X94091454Y-102873744D01*
X94085503Y-102845128D01*
X94088344Y-102816038D01*
X94085344Y-102806179D01*
X94090256Y-102781352D01*
X94114473Y-102659605D01*
X94114406Y-102659267D01*
X94114473Y-102658927D01*
X94114380Y-102571197D01*
X94114059Y-102569592D01*
X94114368Y-102567987D01*
X94114315Y-102559262D01*
X94108429Y-102530583D01*
X94111346Y-102501451D01*
X94100892Y-102393517D01*
X94100086Y-102390845D01*
X94152493Y-102386474D01*
X94222410Y-102366403D01*
X94294678Y-102358137D01*
X94389017Y-102327894D01*
X94464170Y-102286193D01*
X94543898Y-102254094D01*
X94620608Y-102203934D01*
X94658918Y-102166379D01*
X94704666Y-102138360D01*
X94762126Y-102085271D01*
X94791629Y-102044684D01*
X94829835Y-102012150D01*
X94864364Y-101944626D01*
X94908955Y-101883284D01*
X94920681Y-101834493D01*
X94943527Y-101789817D01*
X94949587Y-101714223D01*
X94967310Y-101640482D01*
X94959472Y-101590916D01*
X94963482Y-101540900D01*
X94948907Y-101495818D01*
X94966710Y-101406316D01*
X94966710Y-101290430D01*
X94964454Y-101279087D01*
X94966305Y-101267671D01*
X94964124Y-101206379D01*
X94958934Y-101184404D01*
X94960989Y-101161915D01*
X94954584Y-101101273D01*
X94943615Y-101066010D01*
X94942757Y-101029092D01*
X94933608Y-100988097D01*
X94909811Y-100934221D01*
X94897733Y-100876575D01*
X94891063Y-100860925D01*
X94853877Y-100806481D01*
X94827476Y-100746072D01*
X94778928Y-100676368D01*
X94716647Y-100616449D01*
X94662144Y-100549381D01*
X94591996Y-100491245D01*
X94519520Y-100452056D01*
X94452983Y-100403463D01*
X94370947Y-100365399D01*
X94309762Y-100350550D01*
X94252656Y-100324037D01*
X94209865Y-100313642D01*
X94148286Y-100311056D01*
X94088457Y-100296242D01*
X93986502Y-100291510D01*
X93890155Y-100306069D01*
X93792907Y-100312171D01*
X93702062Y-100336242D01*
X93671661Y-100351129D01*
X93615256Y-100339380D01*
X93536648Y-100311789D01*
X93435615Y-100297427D01*
X93354612Y-100301898D01*
X93280397Y-100295652D01*
X93315998Y-100257138D01*
X93323087Y-100245570D01*
X93333719Y-100237145D01*
X93365719Y-100199489D01*
X93390332Y-100155281D01*
X93395858Y-100149272D01*
X93416815Y-100128882D01*
X93418757Y-100124370D01*
X93424579Y-100118039D01*
X93436160Y-100099030D01*
X93462567Y-100026874D01*
X93490686Y-99980370D01*
X93496137Y-99944580D01*
X93515535Y-99899508D01*
X93515783Y-99881468D01*
X93521983Y-99864526D01*
X93519038Y-99794209D01*
X93528283Y-99733501D01*
X93518366Y-99693249D01*
X93518962Y-99649816D01*
X93518294Y-99646199D01*
X93512196Y-99630887D01*
X93511532Y-99615029D01*
X93485023Y-99557916D01*
X93468545Y-99491036D01*
X93454761Y-99461598D01*
X93438212Y-99439103D01*
X93429221Y-99412667D01*
X93399776Y-99361736D01*
X93392686Y-99353661D01*
X93388891Y-99343606D01*
X93346630Y-99275782D01*
X93342058Y-99270909D01*
X93339570Y-99264706D01*
X93287338Y-99184591D01*
X93283540Y-99180706D01*
X93281435Y-99175701D01*
X93222079Y-99087893D01*
X93220280Y-99086113D01*
X93219281Y-99083789D01*
X93212185Y-99073465D01*
X93330215Y-99051845D01*
X93331004Y-99051532D01*
X93331856Y-99051543D01*
X93360764Y-99046170D01*
X93365053Y-99044456D01*
X93369670Y-99044449D01*
X93452480Y-99027840D01*
X93459765Y-99024809D01*
X93467654Y-99024605D01*
X93537313Y-99008868D01*
X93548689Y-99003808D01*
X93561114Y-99003010D01*
X93611019Y-98989708D01*
X93644555Y-98973224D01*
X93668474Y-98970355D01*
X93672378Y-98968161D01*
X93681344Y-98966530D01*
X93704897Y-98957225D01*
X93793874Y-98899868D01*
X93794371Y-98899588D01*
X93807960Y-98892909D01*
X93840850Y-98878431D01*
X93851141Y-98867678D01*
X93886157Y-98847995D01*
X93898285Y-98832560D01*
X93914782Y-98821926D01*
X93966701Y-98746925D01*
X94013504Y-98698019D01*
X94022803Y-98674095D01*
X94040444Y-98651645D01*
X94044384Y-98643882D01*
X94048707Y-98628461D01*
X94056914Y-98616605D01*
X94071639Y-98548458D01*
X94103975Y-98465268D01*
X94110544Y-98427981D01*
X94110134Y-98409331D01*
X94111787Y-98403435D01*
X94110835Y-98395503D01*
X94117992Y-98370650D01*
X94123198Y-98308833D01*
X94121871Y-98297072D01*
X94124731Y-98285584D01*
X94128569Y-98205031D01*
X94127544Y-98198193D01*
X94129071Y-98191453D01*
X94131538Y-98097956D01*
X94130682Y-98092969D01*
X94131723Y-98088018D01*
X94132815Y-97987369D01*
X94131993Y-97982990D01*
X94132850Y-97978619D01*
X94132562Y-97876610D01*
X94131640Y-97872041D01*
X94132471Y-97867452D01*
X94130799Y-97769874D01*
X94129567Y-97764189D01*
X94130501Y-97758449D01*
X94127443Y-97671094D01*
X94125406Y-97662445D01*
X94126593Y-97653640D01*
X94122143Y-97582302D01*
X94117564Y-97564994D01*
X94118975Y-97547142D01*
X94113130Y-97497612D01*
X94093161Y-97436083D01*
X94085246Y-97371886D01*
X94078002Y-97349955D01*
X94069437Y-97334834D01*
X94066391Y-97317728D01*
X94042752Y-97280760D01*
X94036045Y-97260092D01*
X94024756Y-97246865D01*
X94019996Y-97232419D01*
X93994959Y-97203349D01*
X93954927Y-97132676D01*
X93941227Y-97121984D01*
X93931867Y-97107345D01*
X93882771Y-97073090D01*
X93857034Y-97043207D01*
X93809719Y-97019345D01*
X93758071Y-96979035D01*
X93741325Y-96974400D01*
X93727073Y-96964456D01*
X93719677Y-96961216D01*
X93674952Y-96951379D01*
X93634069Y-96930761D01*
X93597274Y-96920548D01*
X93583484Y-96919520D01*
X93570883Y-96913824D01*
X93508688Y-96899380D01*
X93502721Y-96899190D01*
X93497234Y-96896830D01*
X93414602Y-96879230D01*
X93410726Y-96879178D01*
X93407148Y-96877689D01*
X93309043Y-96858010D01*
X93305843Y-96858005D01*
X93302875Y-96856804D01*
X93211532Y-96839413D01*
X93234710Y-96805520D01*
X93235650Y-96803317D01*
X93237349Y-96801630D01*
X93296125Y-96714313D01*
X93297479Y-96711075D01*
X93299942Y-96708576D01*
X93350336Y-96631943D01*
X93352146Y-96627481D01*
X93355474Y-96624002D01*
X93394797Y-96562235D01*
X93398060Y-96553837D01*
X93404106Y-96547156D01*
X93429672Y-96504431D01*
X93440738Y-96473431D01*
X93460232Y-96446905D01*
X93469351Y-96427404D01*
X93484051Y-96367608D01*
X93510390Y-96311951D01*
X93512316Y-96272924D01*
X93513627Y-96269252D01*
X93513059Y-96257865D01*
X93513569Y-96247536D01*
X93528965Y-96184909D01*
X93519664Y-96124042D01*
X93522699Y-96062538D01*
X93500985Y-96001808D01*
X93493983Y-95955992D01*
X93493708Y-95953470D01*
X93493555Y-95953192D01*
X93491243Y-95938059D01*
X93459357Y-95885384D01*
X93438625Y-95827402D01*
X93432288Y-95816824D01*
X93398126Y-95779116D01*
X93373668Y-95734500D01*
X93347163Y-95702892D01*
X93337038Y-95694761D01*
X93330346Y-95683632D01*
X93286863Y-95635796D01*
X93282348Y-95632458D01*
X93279371Y-95627695D01*
X93222902Y-95567685D01*
X93220133Y-95565711D01*
X93218302Y-95562848D01*
X93152838Y-95494716D01*
X93150740Y-95493253D01*
X93149346Y-95491111D01*
X93078878Y-95418914D01*
X93076990Y-95417619D01*
X93075727Y-95415708D01*
X93004247Y-95343496D01*
X93002222Y-95342128D01*
X93000860Y-95340100D01*
X92932361Y-95271929D01*
X92929777Y-95270211D01*
X92928021Y-95267650D01*
X92866492Y-95207571D01*
X92862450Y-95204940D01*
X92859665Y-95201003D01*
X92809100Y-95153071D01*
X92800615Y-95147724D01*
X92794574Y-95139721D01*
X92758963Y-95107990D01*
X92744771Y-95099646D01*
X92742638Y-95096816D01*
X92720649Y-95083867D01*
X92696220Y-95058740D01*
X92679555Y-95047263D01*
X92601084Y-95013456D01*
X92527461Y-94970101D01*
X92487385Y-94964473D01*
X92450217Y-94948461D01*
X92364782Y-94947257D01*
X92280171Y-94935376D01*
X92240992Y-94945513D01*
X92200526Y-94944943D01*
X92121134Y-94976526D01*
X92038417Y-94997928D01*
X92029168Y-95002391D01*
X92003943Y-95021404D01*
X91974277Y-95032262D01*
X91940308Y-95052959D01*
X91934573Y-95058234D01*
X91927322Y-95061086D01*
X91872506Y-95096311D01*
X91870009Y-95098720D01*
X91866796Y-95100024D01*
X91795083Y-95147193D01*
X91793463Y-95148789D01*
X91791360Y-95149660D01*
X91706701Y-95206195D01*
X91705390Y-95207506D01*
X91703677Y-95208226D01*
X91626224Y-95260588D01*
X91554337Y-94879264D01*
X91529614Y-94817845D01*
X91519749Y-94768250D01*
X98540967Y-94768250D01*
X98612034Y-94940245D01*
X99076063Y-95405084D01*
X99682655Y-95656963D01*
X100339463Y-95657536D01*
X100946495Y-95406716D01*
X101411334Y-94942687D01*
X101484597Y-94766250D01*
X117590141Y-94766250D01*
X117662034Y-94940245D01*
X118126063Y-95405084D01*
X118732655Y-95656963D01*
X119389463Y-95657536D01*
X119996495Y-95406716D01*
X120461334Y-94942687D01*
X120713213Y-94336095D01*
X120713786Y-93679287D01*
X120462966Y-93072255D01*
X119998937Y-92607416D01*
X119392345Y-92355537D01*
X118735537Y-92354964D01*
X118128505Y-92605784D01*
X117663666Y-93069813D01*
X117590403Y-93246250D01*
X115057067Y-93246250D01*
X115461334Y-92842687D01*
X115713213Y-92236095D01*
X115713786Y-91579287D01*
X115462966Y-90972255D01*
X114998937Y-90507416D01*
X114392345Y-90255537D01*
X113735537Y-90254964D01*
X113128505Y-90505784D01*
X112663666Y-90969813D01*
X112411787Y-91576405D01*
X112411214Y-92233213D01*
X112662034Y-92840245D01*
X113067332Y-93246250D01*
X102331380Y-93246250D01*
X104038816Y-91538815D01*
X104203997Y-91291604D01*
X104262000Y-91000000D01*
X104262000Y-89064638D01*
X104626486Y-89429761D01*
X105200416Y-89668078D01*
X105821858Y-89668620D01*
X106396202Y-89431306D01*
X106836011Y-88992264D01*
X107074328Y-88418334D01*
X107074330Y-88415608D01*
X112000130Y-88415608D01*
X112237444Y-88989952D01*
X112676486Y-89429761D01*
X113250416Y-89668078D01*
X113871858Y-89668620D01*
X114446202Y-89431306D01*
X114886011Y-88992264D01*
X115064886Y-88561484D01*
X116763402Y-88561484D01*
X117112621Y-89406658D01*
X117758691Y-90053857D01*
X118603254Y-90404550D01*
X119517734Y-90405348D01*
X120362908Y-90056129D01*
X121010107Y-89410059D01*
X121360800Y-88565496D01*
X121360930Y-88415608D01*
X123000130Y-88415608D01*
X123237444Y-88989952D01*
X123676486Y-89429761D01*
X124250416Y-89668078D01*
X124871858Y-89668620D01*
X125446202Y-89431306D01*
X125886011Y-88992264D01*
X126124328Y-88418334D01*
X126124870Y-87796892D01*
X125887556Y-87222548D01*
X125448514Y-86782739D01*
X124874584Y-86544422D01*
X124253142Y-86543880D01*
X123678798Y-86781194D01*
X123238989Y-87220236D01*
X123000672Y-87794166D01*
X123000130Y-88415608D01*
X121360930Y-88415608D01*
X121361598Y-87651016D01*
X121012379Y-86805842D01*
X120366309Y-86158643D01*
X119521746Y-85807950D01*
X118607266Y-85807152D01*
X117762092Y-86156371D01*
X117114893Y-86802441D01*
X116764200Y-87647004D01*
X116763402Y-88561484D01*
X115064886Y-88561484D01*
X115124328Y-88418334D01*
X115124870Y-87796892D01*
X114887556Y-87222548D01*
X114448514Y-86782739D01*
X113874584Y-86544422D01*
X113253142Y-86543880D01*
X112678798Y-86781194D01*
X112238989Y-87220236D01*
X112000672Y-87794166D01*
X112000130Y-88415608D01*
X107074330Y-88415608D01*
X107074870Y-87796892D01*
X106837556Y-87222548D01*
X106398514Y-86782739D01*
X105824584Y-86544422D01*
X105203142Y-86543880D01*
X104628798Y-86781194D01*
X104262000Y-87147352D01*
X104262000Y-84517315D01*
X104273719Y-84545677D01*
X104591400Y-84863913D01*
X105006683Y-85036353D01*
X105456344Y-85036746D01*
X105871927Y-84865031D01*
X106190163Y-84547350D01*
X106362603Y-84132067D01*
X106362604Y-84130094D01*
X123152004Y-84130094D01*
X123323719Y-84545677D01*
X123641400Y-84863913D01*
X124056683Y-85036353D01*
X124506344Y-85036746D01*
X124921927Y-84865031D01*
X125240163Y-84547350D01*
X125412603Y-84132067D01*
X125412996Y-83682406D01*
X125241281Y-83266823D01*
X124923600Y-82948587D01*
X124508317Y-82776147D01*
X124058656Y-82775754D01*
X123643073Y-82947469D01*
X123324837Y-83265150D01*
X123152397Y-83680433D01*
X123152004Y-84130094D01*
X106362604Y-84130094D01*
X106362996Y-83682406D01*
X106191281Y-83266823D01*
X105873600Y-82948587D01*
X105458317Y-82776147D01*
X105008656Y-82775754D01*
X104593073Y-82947469D01*
X104274837Y-83265150D01*
X104262000Y-83296065D01*
X104262000Y-80315630D01*
X106888816Y-77688815D01*
X107047050Y-77452000D01*
X107053996Y-77441605D01*
X107112000Y-77150000D01*
X107112000Y-75856705D01*
X107140303Y-75845010D01*
X107533629Y-75452370D01*
X107619949Y-75244488D01*
X107704990Y-75450303D01*
X108097630Y-75843629D01*
X108610900Y-76056757D01*
X109166661Y-76057242D01*
X109680303Y-75845010D01*
X110073629Y-75452370D01*
X110159949Y-75244488D01*
X110244990Y-75450303D01*
X110637630Y-75843629D01*
X111150900Y-76056757D01*
X111706661Y-76057242D01*
X112220303Y-75845010D01*
X112613629Y-75452370D01*
X112699949Y-75244488D01*
X112784990Y-75450303D01*
X113177630Y-75843629D01*
X113690900Y-76056757D01*
X114246661Y-76057242D01*
X114760303Y-75845010D01*
X115153629Y-75452370D01*
X115239949Y-75244488D01*
X115324990Y-75450303D01*
X115717630Y-75843629D01*
X116230900Y-76056757D01*
X116786661Y-76057242D01*
X117300303Y-75845010D01*
X117693629Y-75452370D01*
X117779949Y-75244488D01*
X117864990Y-75450303D01*
X118257630Y-75843629D01*
X118770900Y-76056757D01*
X119326661Y-76057242D01*
X119840303Y-75845010D01*
X120233629Y-75452370D01*
X120446757Y-74939100D01*
X120447242Y-74383339D01*
X120235010Y-73869697D01*
X119842370Y-73476371D01*
X119631957Y-73389000D01*
X126090945Y-73389000D01*
X126304630Y-73477730D01*
X126693663Y-73478069D01*
X127053212Y-73329507D01*
X127328540Y-73054659D01*
X127477730Y-72695370D01*
X127478069Y-72306337D01*
X127329507Y-71946788D01*
X127054659Y-71671460D01*
X126695370Y-71522270D01*
X126306337Y-71521931D01*
X126090773Y-71611000D01*
X119955875Y-71611000D01*
X119996495Y-71594216D01*
X120461334Y-71130187D01*
X120713213Y-70523595D01*
X120713786Y-69866787D01*
X120462966Y-69259755D01*
X119998937Y-68794916D01*
X119392345Y-68543037D01*
X118735537Y-68542464D01*
X118128505Y-68793284D01*
X117663666Y-69257313D01*
X117590403Y-69433750D01*
X115057067Y-69433750D01*
X115461334Y-69030187D01*
X115713213Y-68423595D01*
X115713786Y-67766787D01*
X115462966Y-67159755D01*
X114998937Y-66694916D01*
X114392345Y-66443037D01*
X113735537Y-66442464D01*
X113128505Y-66693284D01*
X112663666Y-67157313D01*
X112411787Y-67763905D01*
X112411214Y-68420713D01*
X112662034Y-69027745D01*
X113067332Y-69433750D01*
X101484859Y-69433750D01*
X101412966Y-69259755D01*
X100948937Y-68794916D01*
X100342345Y-68543037D01*
X99685537Y-68542464D01*
X99078505Y-68793284D01*
X98613666Y-69257313D01*
X98540403Y-69433750D01*
X96007067Y-69433750D01*
X96411334Y-69030187D01*
X96663213Y-68423595D01*
X96663786Y-67766787D01*
X96412966Y-67159755D01*
X95948937Y-66694916D01*
X95342345Y-66443037D01*
X94685537Y-66442464D01*
X94078505Y-66693284D01*
X93613666Y-67157313D01*
X93541233Y-67331750D01*
X79480250Y-67331750D01*
X79188646Y-67389753D01*
X78941435Y-67554934D01*
X77624357Y-68872013D01*
X77530337Y-68871931D01*
X77405656Y-68923448D01*
X77613213Y-68423595D01*
X77613786Y-67766787D01*
X77362966Y-67159755D01*
X76898937Y-66694916D01*
X76292345Y-66443037D01*
X75635537Y-66442464D01*
X75028505Y-66693284D01*
X74563666Y-67157313D01*
X74311787Y-67763905D01*
X74311214Y-68420713D01*
X74562034Y-69027745D01*
X75026063Y-69492584D01*
X75632655Y-69744463D01*
X76289463Y-69745036D01*
X76795563Y-69535920D01*
X76746270Y-69654630D01*
X76745931Y-70043663D01*
X76894493Y-70403212D01*
X77169341Y-70678540D01*
X77528630Y-70827730D01*
X77917663Y-70828069D01*
X78277212Y-70679507D01*
X78552540Y-70404659D01*
X78701730Y-70045370D01*
X78701813Y-69949817D01*
X79795881Y-68855750D01*
X79965930Y-68855750D01*
X79563666Y-69257313D01*
X79311787Y-69863905D01*
X79311214Y-70520713D01*
X79562034Y-71127745D01*
X80026063Y-71592584D01*
X80632655Y-71844463D01*
X81289463Y-71845036D01*
X81896495Y-71594216D01*
X82361334Y-71130187D01*
X82434597Y-70953750D01*
X98540141Y-70953750D01*
X98612034Y-71127745D01*
X99076063Y-71592584D01*
X99120414Y-71611000D01*
X98000000Y-71611000D01*
X97659795Y-71678670D01*
X97371382Y-71871382D01*
X95979948Y-73262816D01*
X95913339Y-73262758D01*
X95399697Y-73474990D01*
X95006371Y-73867630D01*
X94920051Y-74075512D01*
X94835010Y-73869697D01*
X94442370Y-73476371D01*
X93929100Y-73263243D01*
X93373339Y-73262758D01*
X92859697Y-73474990D01*
X92466371Y-73867630D01*
X92380051Y-74075512D01*
X92295010Y-73869697D01*
X91902370Y-73476371D01*
X91389100Y-73263243D01*
X90833339Y-73262758D01*
X90319697Y-73474990D01*
X89926371Y-73867630D01*
X89713243Y-74380900D01*
X89712758Y-74936661D01*
X89924990Y-75450303D01*
X90317630Y-75843629D01*
X90830900Y-76056757D01*
X91365147Y-76057223D01*
X87961185Y-79461185D01*
X87796004Y-79708395D01*
X87738000Y-80000000D01*
X87738000Y-84378917D01*
X87671460Y-84445341D01*
X87522270Y-84804630D01*
X87521931Y-85193663D01*
X87670493Y-85553212D01*
X87945341Y-85828540D01*
X88304630Y-85977730D01*
X88693663Y-85978069D01*
X89053212Y-85829507D01*
X89328540Y-85554659D01*
X89477730Y-85195370D01*
X89478069Y-84806337D01*
X89329507Y-84446788D01*
X89262000Y-84379163D01*
X89262000Y-80315630D01*
X89383967Y-80193663D01*
X90021931Y-80193663D01*
X90170493Y-80553212D01*
X90238000Y-80620837D01*
X90238000Y-81378917D01*
X90171460Y-81445341D01*
X90022270Y-81804630D01*
X90021931Y-82193663D01*
X90170493Y-82553212D01*
X90445341Y-82828540D01*
X90804630Y-82977730D01*
X91193663Y-82978069D01*
X91553212Y-82829507D01*
X91828540Y-82554659D01*
X91977730Y-82195370D01*
X91978069Y-81806337D01*
X91829507Y-81446788D01*
X91762000Y-81379163D01*
X91762000Y-80621083D01*
X91828540Y-80554659D01*
X91977730Y-80195370D01*
X91978069Y-79806337D01*
X91829507Y-79446788D01*
X91554659Y-79171460D01*
X91195370Y-79022270D01*
X90806337Y-79021931D01*
X90446788Y-79170493D01*
X90171460Y-79445341D01*
X90022270Y-79804630D01*
X90021931Y-80193663D01*
X89383967Y-80193663D01*
X93520742Y-76056888D01*
X93926661Y-76057242D01*
X94440303Y-75845010D01*
X94833629Y-75452370D01*
X94919949Y-75244488D01*
X95004990Y-75450303D01*
X95397630Y-75843629D01*
X95910900Y-76056757D01*
X96466661Y-76057242D01*
X96980303Y-75845010D01*
X97373629Y-75452370D01*
X97459949Y-75244488D01*
X97544990Y-75450303D01*
X97937630Y-75843629D01*
X98450900Y-76056757D01*
X99006661Y-76057242D01*
X99520303Y-75845010D01*
X99913629Y-75452370D01*
X99999949Y-75244488D01*
X100084990Y-75450303D01*
X100477630Y-75843629D01*
X100508000Y-75856240D01*
X100508000Y-76414369D01*
X86684370Y-90238000D01*
X81822747Y-90238000D01*
X82262908Y-90056129D01*
X82910107Y-89410059D01*
X83260800Y-88565496D01*
X83260930Y-88415608D01*
X84900130Y-88415608D01*
X85137444Y-88989952D01*
X85576486Y-89429761D01*
X86150416Y-89668078D01*
X86771858Y-89668620D01*
X87346202Y-89431306D01*
X87786011Y-88992264D01*
X88024328Y-88418334D01*
X88024870Y-87796892D01*
X87787556Y-87222548D01*
X87348514Y-86782739D01*
X86774584Y-86544422D01*
X86153142Y-86543880D01*
X85578798Y-86781194D01*
X85138989Y-87220236D01*
X84900672Y-87794166D01*
X84900130Y-88415608D01*
X83260930Y-88415608D01*
X83261598Y-87651016D01*
X82912379Y-86805842D01*
X82266309Y-86158643D01*
X81421746Y-85807950D01*
X80507266Y-85807152D01*
X79662092Y-86156371D01*
X79014893Y-86802441D01*
X78664200Y-87647004D01*
X78663402Y-88561484D01*
X79012621Y-89406658D01*
X79658691Y-90053857D01*
X80102157Y-90238000D01*
X79500000Y-90238000D01*
X79208400Y-90296003D01*
X79208395Y-90296004D01*
X78961185Y-90461185D01*
X77613586Y-91808784D01*
X77613786Y-91579287D01*
X77362966Y-90972255D01*
X76898937Y-90507416D01*
X76292345Y-90255537D01*
X75635537Y-90254964D01*
X75028505Y-90505784D01*
X74563666Y-90969813D01*
X74311787Y-91576405D01*
X74311214Y-92233213D01*
X74562034Y-92840245D01*
X75026063Y-93305084D01*
X75632655Y-93556963D01*
X75865204Y-93557166D01*
X72461185Y-96961185D01*
X72296004Y-97208395D01*
X72238000Y-97500000D01*
X72147500Y-97500000D01*
X72147500Y-88415608D01*
X73900130Y-88415608D01*
X74137444Y-88989952D01*
X74576486Y-89429761D01*
X75150416Y-89668078D01*
X75771858Y-89668620D01*
X76346202Y-89431306D01*
X76786011Y-88992264D01*
X77024328Y-88418334D01*
X77024870Y-87796892D01*
X76787556Y-87222548D01*
X76348514Y-86782739D01*
X75774584Y-86544422D01*
X75153142Y-86543880D01*
X74578798Y-86781194D01*
X74138989Y-87220236D01*
X73900672Y-87794166D01*
X73900130Y-88415608D01*
X72147500Y-88415608D01*
X72147500Y-84130094D01*
X85052004Y-84130094D01*
X85223719Y-84545677D01*
X85541400Y-84863913D01*
X85956683Y-85036353D01*
X86406344Y-85036746D01*
X86821927Y-84865031D01*
X87140163Y-84547350D01*
X87312603Y-84132067D01*
X87312996Y-83682406D01*
X87141281Y-83266823D01*
X86823600Y-82948587D01*
X86408317Y-82776147D01*
X85958656Y-82775754D01*
X85543073Y-82947469D01*
X85224837Y-83265150D01*
X85052397Y-83680433D01*
X85052004Y-84130094D01*
X72147500Y-84130094D01*
X72147500Y-64603108D01*
X73900130Y-64603108D01*
X74137444Y-65177452D01*
X74576486Y-65617261D01*
X75150416Y-65855578D01*
X75771858Y-65856120D01*
X76346202Y-65618806D01*
X76786011Y-65179764D01*
X76964886Y-64748984D01*
X78663402Y-64748984D01*
X79012621Y-65594158D01*
X79658691Y-66241357D01*
X80503254Y-66592050D01*
X81417734Y-66592848D01*
X82262908Y-66243629D01*
X82910107Y-65597559D01*
X83260800Y-64752996D01*
X83260930Y-64603108D01*
X84900130Y-64603108D01*
X85137444Y-65177452D01*
X85576486Y-65617261D01*
X86150416Y-65855578D01*
X86771858Y-65856120D01*
X87346202Y-65618806D01*
X87786011Y-65179764D01*
X88024328Y-64605834D01*
X88024330Y-64603108D01*
X92950130Y-64603108D01*
X93187444Y-65177452D01*
X93626486Y-65617261D01*
X94200416Y-65855578D01*
X94821858Y-65856120D01*
X95396202Y-65618806D01*
X95836011Y-65179764D01*
X96014886Y-64748984D01*
X97713402Y-64748984D01*
X98062621Y-65594158D01*
X98708691Y-66241357D01*
X99553254Y-66592050D01*
X100467734Y-66592848D01*
X101312908Y-66243629D01*
X101960107Y-65597559D01*
X102310800Y-64752996D01*
X102310930Y-64603108D01*
X103950130Y-64603108D01*
X104187444Y-65177452D01*
X104626486Y-65617261D01*
X105200416Y-65855578D01*
X105821858Y-65856120D01*
X106396202Y-65618806D01*
X106836011Y-65179764D01*
X107074328Y-64605834D01*
X107074330Y-64603108D01*
X112000130Y-64603108D01*
X112237444Y-65177452D01*
X112676486Y-65617261D01*
X113250416Y-65855578D01*
X113871858Y-65856120D01*
X114446202Y-65618806D01*
X114886011Y-65179764D01*
X115064886Y-64748984D01*
X116763402Y-64748984D01*
X117112621Y-65594158D01*
X117758691Y-66241357D01*
X118603254Y-66592050D01*
X119517734Y-66592848D01*
X120362908Y-66243629D01*
X121010107Y-65597559D01*
X121360800Y-64752996D01*
X121360930Y-64603108D01*
X123000130Y-64603108D01*
X123237444Y-65177452D01*
X123676486Y-65617261D01*
X124250416Y-65855578D01*
X124871858Y-65856120D01*
X125446202Y-65618806D01*
X125886011Y-65179764D01*
X126124328Y-64605834D01*
X126124870Y-63984392D01*
X125887556Y-63410048D01*
X125448514Y-62970239D01*
X124874584Y-62731922D01*
X124253142Y-62731380D01*
X123678798Y-62968694D01*
X123238989Y-63407736D01*
X123000672Y-63981666D01*
X123000130Y-64603108D01*
X121360930Y-64603108D01*
X121361598Y-63838516D01*
X121012379Y-62993342D01*
X120366309Y-62346143D01*
X119521746Y-61995450D01*
X118607266Y-61994652D01*
X117762092Y-62343871D01*
X117114893Y-62989941D01*
X116764200Y-63834504D01*
X116763402Y-64748984D01*
X115064886Y-64748984D01*
X115124328Y-64605834D01*
X115124870Y-63984392D01*
X114887556Y-63410048D01*
X114448514Y-62970239D01*
X113874584Y-62731922D01*
X113253142Y-62731380D01*
X112678798Y-62968694D01*
X112238989Y-63407736D01*
X112000672Y-63981666D01*
X112000130Y-64603108D01*
X107074330Y-64603108D01*
X107074870Y-63984392D01*
X106837556Y-63410048D01*
X106398514Y-62970239D01*
X105824584Y-62731922D01*
X105203142Y-62731380D01*
X104628798Y-62968694D01*
X104188989Y-63407736D01*
X103950672Y-63981666D01*
X103950130Y-64603108D01*
X102310930Y-64603108D01*
X102311598Y-63838516D01*
X101962379Y-62993342D01*
X101316309Y-62346143D01*
X100471746Y-61995450D01*
X99557266Y-61994652D01*
X98712092Y-62343871D01*
X98064893Y-62989941D01*
X97714200Y-63834504D01*
X97713402Y-64748984D01*
X96014886Y-64748984D01*
X96074328Y-64605834D01*
X96074870Y-63984392D01*
X95837556Y-63410048D01*
X95398514Y-62970239D01*
X94824584Y-62731922D01*
X94203142Y-62731380D01*
X93628798Y-62968694D01*
X93188989Y-63407736D01*
X92950672Y-63981666D01*
X92950130Y-64603108D01*
X88024330Y-64603108D01*
X88024870Y-63984392D01*
X87787556Y-63410048D01*
X87348514Y-62970239D01*
X86774584Y-62731922D01*
X86153142Y-62731380D01*
X85578798Y-62968694D01*
X85138989Y-63407736D01*
X84900672Y-63981666D01*
X84900130Y-64603108D01*
X83260930Y-64603108D01*
X83261598Y-63838516D01*
X82912379Y-62993342D01*
X82266309Y-62346143D01*
X81421746Y-61995450D01*
X80507266Y-61994652D01*
X79662092Y-62343871D01*
X79014893Y-62989941D01*
X78664200Y-63834504D01*
X78663402Y-64748984D01*
X76964886Y-64748984D01*
X77024328Y-64605834D01*
X77024870Y-63984392D01*
X76787556Y-63410048D01*
X76348514Y-62970239D01*
X75774584Y-62731922D01*
X75153142Y-62731380D01*
X74578798Y-62968694D01*
X74138989Y-63407736D01*
X73900672Y-63981666D01*
X73900130Y-64603108D01*
X72147500Y-64603108D01*
X72147500Y-60317594D01*
X85052004Y-60317594D01*
X85223719Y-60733177D01*
X85541400Y-61051413D01*
X85956683Y-61223853D01*
X86406344Y-61224246D01*
X86821927Y-61052531D01*
X87140163Y-60734850D01*
X87312603Y-60319567D01*
X87312604Y-60317594D01*
X104102004Y-60317594D01*
X104273719Y-60733177D01*
X104591400Y-61051413D01*
X105006683Y-61223853D01*
X105456344Y-61224246D01*
X105871927Y-61052531D01*
X106190163Y-60734850D01*
X106362603Y-60319567D01*
X106362604Y-60317594D01*
X123152004Y-60317594D01*
X123323719Y-60733177D01*
X123641400Y-61051413D01*
X124056683Y-61223853D01*
X124506344Y-61224246D01*
X124921927Y-61052531D01*
X125240163Y-60734850D01*
X125412603Y-60319567D01*
X125412996Y-59869906D01*
X125241281Y-59454323D01*
X124923600Y-59136087D01*
X124508317Y-58963647D01*
X124058656Y-58963254D01*
X123643073Y-59134969D01*
X123324837Y-59452650D01*
X123152397Y-59867933D01*
X123152004Y-60317594D01*
X106362604Y-60317594D01*
X106362996Y-59869906D01*
X106191281Y-59454323D01*
X105873600Y-59136087D01*
X105458317Y-58963647D01*
X105008656Y-58963254D01*
X104593073Y-59134969D01*
X104274837Y-59452650D01*
X104102397Y-59867933D01*
X104102004Y-60317594D01*
X87312604Y-60317594D01*
X87312996Y-59869906D01*
X87141281Y-59454323D01*
X86823600Y-59136087D01*
X86408317Y-58963647D01*
X85958656Y-58963254D01*
X85543073Y-59134969D01*
X85224837Y-59452650D01*
X85052397Y-59867933D01*
X85052004Y-60317594D01*
X72147500Y-60317594D01*
X72147500Y-58193663D01*
X99021931Y-58193663D01*
X99170493Y-58553212D01*
X99445341Y-58828540D01*
X99804630Y-58977730D01*
X100193663Y-58978069D01*
X100553212Y-58829507D01*
X100620837Y-58762000D01*
X109878917Y-58762000D01*
X109945341Y-58828540D01*
X110304630Y-58977730D01*
X110693663Y-58978069D01*
X111053212Y-58829507D01*
X111328540Y-58554659D01*
X111477730Y-58195370D01*
X111478069Y-57806337D01*
X111329507Y-57446788D01*
X111054659Y-57171460D01*
X110695370Y-57022270D01*
X110306337Y-57021931D01*
X109946788Y-57170493D01*
X109879163Y-57238000D01*
X100621083Y-57238000D01*
X100554659Y-57171460D01*
X100195370Y-57022270D01*
X99806337Y-57021931D01*
X99446788Y-57170493D01*
X99171460Y-57445341D01*
X99022270Y-57804630D01*
X99021931Y-58193663D01*
X72147500Y-58193663D01*
X72147500Y-53097500D01*
X80298834Y-53097500D01*
X80159697Y-53154990D01*
M02*
