G04 #@! TF.GenerationSoftware,KiCad,Pcbnew,(5.1.5-0-10_14)*
G04 #@! TF.CreationDate,2020-01-22T02:16:51-06:00*
G04 #@! TF.ProjectId,imacro,696d6163-726f-42e6-9b69-6361645f7063,rev?*
G04 #@! TF.SameCoordinates,Original*
G04 #@! TF.FileFunction,Legend,Top*
G04 #@! TF.FilePolarity,Positive*
%FSLAX46Y46*%
G04 Gerber Fmt 4.6, Leading zero omitted, Abs format (unit mm)*
G04 Created by KiCad (PCBNEW (5.1.5-0-10_14)) date 2020-01-22 02:16:51*
%MOMM*%
%LPD*%
G04 APERTURE LIST*
%ADD10C,0.150000*%
%ADD11C,2.006600*%
%ADD12C,1.803400*%
%ADD13C,1.092200*%
%ADD14C,2.133600*%
%ADD15C,3.530600*%
%ADD16C,1.625600*%
G04 APERTURE END LIST*
D10*
X87962500Y-57293750D02*
X87962500Y-58293750D01*
X86962500Y-71293750D02*
X87962500Y-71293750D01*
X87962500Y-57293750D02*
X86962500Y-57293750D01*
X87962500Y-70293750D02*
X87962500Y-71293750D01*
X73962500Y-71293750D02*
X73962500Y-70293750D01*
X74962500Y-57293750D02*
X73962500Y-57293750D01*
X73962500Y-71293750D02*
X74962500Y-71293750D01*
X73962500Y-58293750D02*
X73962500Y-57293750D01*
X107012500Y-81106250D02*
X107012500Y-82106250D01*
X106012500Y-95106250D02*
X107012500Y-95106250D01*
X107012500Y-81106250D02*
X106012500Y-81106250D01*
X107012500Y-94106250D02*
X107012500Y-95106250D01*
X93012500Y-95106250D02*
X93012500Y-94106250D01*
X94012500Y-81106250D02*
X93012500Y-81106250D01*
X93012500Y-95106250D02*
X94012500Y-95106250D01*
X93012500Y-82106250D02*
X93012500Y-81106250D01*
X87962500Y-81106250D02*
X87962500Y-82106250D01*
X86962500Y-95106250D02*
X87962500Y-95106250D01*
X87962500Y-81106250D02*
X86962500Y-81106250D01*
X87962500Y-94106250D02*
X87962500Y-95106250D01*
X73962500Y-95106250D02*
X73962500Y-94106250D01*
X74962500Y-81106250D02*
X73962500Y-81106250D01*
X73962500Y-95106250D02*
X74962500Y-95106250D01*
X73962500Y-82106250D02*
X73962500Y-81106250D01*
X87962500Y-119206250D02*
X87962500Y-120206250D01*
X86962500Y-133206250D02*
X87962500Y-133206250D01*
X87962500Y-119206250D02*
X86962500Y-119206250D01*
X87962500Y-132206250D02*
X87962500Y-133206250D01*
X73962500Y-133206250D02*
X73962500Y-132206250D01*
X74962500Y-119206250D02*
X73962500Y-119206250D01*
X73962500Y-133206250D02*
X74962500Y-133206250D01*
X73962500Y-120206250D02*
X73962500Y-119206250D01*
X107012500Y-119206250D02*
X107012500Y-120206250D01*
X106012500Y-133206250D02*
X107012500Y-133206250D01*
X107012500Y-119206250D02*
X106012500Y-119206250D01*
X107012500Y-132206250D02*
X107012500Y-133206250D01*
X93012500Y-133206250D02*
X93012500Y-132206250D01*
X94012500Y-119206250D02*
X93012500Y-119206250D01*
X93012500Y-133206250D02*
X94012500Y-133206250D01*
X93012500Y-120206250D02*
X93012500Y-119206250D01*
X126062500Y-119206250D02*
X126062500Y-120206250D01*
X125062500Y-133206250D02*
X126062500Y-133206250D01*
X126062500Y-119206250D02*
X125062500Y-119206250D01*
X126062500Y-132206250D02*
X126062500Y-133206250D01*
X112062500Y-133206250D02*
X112062500Y-132206250D01*
X113062500Y-119206250D02*
X112062500Y-119206250D01*
X112062500Y-133206250D02*
X113062500Y-133206250D01*
X112062500Y-120206250D02*
X112062500Y-119206250D01*
X87962500Y-100156250D02*
X87962500Y-101156250D01*
X86962500Y-114156250D02*
X87962500Y-114156250D01*
X87962500Y-100156250D02*
X86962500Y-100156250D01*
X87962500Y-113156250D02*
X87962500Y-114156250D01*
X73962500Y-114156250D02*
X73962500Y-113156250D01*
X74962500Y-100156250D02*
X73962500Y-100156250D01*
X73962500Y-114156250D02*
X74962500Y-114156250D01*
X73962500Y-101156250D02*
X73962500Y-100156250D01*
X107012500Y-100156250D02*
X107012500Y-101156250D01*
X106012500Y-114156250D02*
X107012500Y-114156250D01*
X107012500Y-100156250D02*
X106012500Y-100156250D01*
X107012500Y-113156250D02*
X107012500Y-114156250D01*
X93012500Y-114156250D02*
X93012500Y-113156250D01*
X94012500Y-100156250D02*
X93012500Y-100156250D01*
X93012500Y-114156250D02*
X94012500Y-114156250D01*
X93012500Y-101156250D02*
X93012500Y-100156250D01*
X126062500Y-100156250D02*
X126062500Y-101156250D01*
X125062500Y-114156250D02*
X126062500Y-114156250D01*
X126062500Y-100156250D02*
X125062500Y-100156250D01*
X126062500Y-113156250D02*
X126062500Y-114156250D01*
X112062500Y-114156250D02*
X112062500Y-113156250D01*
X113062500Y-100156250D02*
X112062500Y-100156250D01*
X112062500Y-114156250D02*
X113062500Y-114156250D01*
X112062500Y-101156250D02*
X112062500Y-100156250D01*
X126062500Y-81106250D02*
X126062500Y-82106250D01*
X125062500Y-95106250D02*
X126062500Y-95106250D01*
X126062500Y-81106250D02*
X125062500Y-81106250D01*
X126062500Y-94106250D02*
X126062500Y-95106250D01*
X112062500Y-95106250D02*
X112062500Y-94106250D01*
X113062500Y-81106250D02*
X112062500Y-81106250D01*
X112062500Y-95106250D02*
X113062500Y-95106250D01*
X112062500Y-82106250D02*
X112062500Y-81106250D01*
X107012500Y-57293750D02*
X107012500Y-58293750D01*
X106012500Y-71293750D02*
X107012500Y-71293750D01*
X107012500Y-57293750D02*
X106012500Y-57293750D01*
X107012500Y-70293750D02*
X107012500Y-71293750D01*
X93012500Y-71293750D02*
X93012500Y-70293750D01*
X94012500Y-57293750D02*
X93012500Y-57293750D01*
X93012500Y-71293750D02*
X94012500Y-71293750D01*
X93012500Y-58293750D02*
X93012500Y-57293750D01*
X126062500Y-57293750D02*
X126062500Y-58293750D01*
X125062500Y-71293750D02*
X126062500Y-71293750D01*
X126062500Y-57293750D02*
X125062500Y-57293750D01*
X126062500Y-70293750D02*
X126062500Y-71293750D01*
X112062500Y-71293750D02*
X112062500Y-70293750D01*
X113062500Y-57293750D02*
X112062500Y-57293750D01*
X112062500Y-71293750D02*
X113062500Y-71293750D01*
X112062500Y-58293750D02*
X112062500Y-57293750D01*
X78914880Y-56904761D02*
X79057738Y-56952380D01*
X79295833Y-56952380D01*
X79391071Y-56904761D01*
X79438690Y-56857142D01*
X79486309Y-56761904D01*
X79486309Y-56666666D01*
X79438690Y-56571428D01*
X79391071Y-56523809D01*
X79295833Y-56476190D01*
X79105357Y-56428571D01*
X79010119Y-56380952D01*
X78962500Y-56333333D01*
X78914880Y-56238095D01*
X78914880Y-56142857D01*
X78962500Y-56047619D01*
X79010119Y-56000000D01*
X79105357Y-55952380D01*
X79343452Y-55952380D01*
X79486309Y-56000000D01*
X79819642Y-55952380D02*
X80057738Y-56952380D01*
X80248214Y-56238095D01*
X80438690Y-56952380D01*
X80676785Y-55952380D01*
X80962500Y-55952380D02*
X81581547Y-55952380D01*
X81248214Y-56333333D01*
X81391071Y-56333333D01*
X81486309Y-56380952D01*
X81533928Y-56428571D01*
X81581547Y-56523809D01*
X81581547Y-56761904D01*
X81533928Y-56857142D01*
X81486309Y-56904761D01*
X81391071Y-56952380D01*
X81105357Y-56952380D01*
X81010119Y-56904761D01*
X80962500Y-56857142D01*
X82010119Y-56857142D02*
X82057738Y-56904761D01*
X82010119Y-56952380D01*
X81962500Y-56904761D01*
X82010119Y-56857142D01*
X82010119Y-56952380D01*
X82010119Y-56333333D02*
X82057738Y-56380952D01*
X82010119Y-56428571D01*
X81962500Y-56380952D01*
X82010119Y-56333333D01*
X82010119Y-56428571D01*
X82676785Y-55952380D02*
X82772023Y-55952380D01*
X82867261Y-56000000D01*
X82914880Y-56047619D01*
X82962500Y-56142857D01*
X83010119Y-56333333D01*
X83010119Y-56571428D01*
X82962500Y-56761904D01*
X82914880Y-56857142D01*
X82867261Y-56904761D01*
X82772023Y-56952380D01*
X82676785Y-56952380D01*
X82581547Y-56904761D01*
X82533928Y-56857142D01*
X82486309Y-56761904D01*
X82438690Y-56571428D01*
X82438690Y-56333333D01*
X82486309Y-56142857D01*
X82533928Y-56047619D01*
X82581547Y-56000000D01*
X82676785Y-55952380D01*
X97952380Y-80404761D02*
X98095238Y-80452380D01*
X98333333Y-80452380D01*
X98428571Y-80404761D01*
X98476190Y-80357142D01*
X98523809Y-80261904D01*
X98523809Y-80166666D01*
X98476190Y-80071428D01*
X98428571Y-80023809D01*
X98333333Y-79976190D01*
X98142857Y-79928571D01*
X98047619Y-79880952D01*
X98000000Y-79833333D01*
X97952380Y-79738095D01*
X97952380Y-79642857D01*
X98000000Y-79547619D01*
X98047619Y-79500000D01*
X98142857Y-79452380D01*
X98380952Y-79452380D01*
X98523809Y-79500000D01*
X98857142Y-79452380D02*
X99095238Y-80452380D01*
X99285714Y-79738095D01*
X99476190Y-80452380D01*
X99714285Y-79452380D01*
X100047619Y-79547619D02*
X100095238Y-79500000D01*
X100190476Y-79452380D01*
X100428571Y-79452380D01*
X100523809Y-79500000D01*
X100571428Y-79547619D01*
X100619047Y-79642857D01*
X100619047Y-79738095D01*
X100571428Y-79880952D01*
X100000000Y-80452380D01*
X100619047Y-80452380D01*
X101047619Y-80357142D02*
X101095238Y-80404761D01*
X101047619Y-80452380D01*
X101000000Y-80404761D01*
X101047619Y-80357142D01*
X101047619Y-80452380D01*
X101047619Y-79833333D02*
X101095238Y-79880952D01*
X101047619Y-79928571D01*
X101000000Y-79880952D01*
X101047619Y-79833333D01*
X101047619Y-79928571D01*
X102047619Y-80452380D02*
X101476190Y-80452380D01*
X101761904Y-80452380D02*
X101761904Y-79452380D01*
X101666666Y-79595238D01*
X101571428Y-79690476D01*
X101476190Y-79738095D01*
X78952380Y-80404761D02*
X79095238Y-80452380D01*
X79333333Y-80452380D01*
X79428571Y-80404761D01*
X79476190Y-80357142D01*
X79523809Y-80261904D01*
X79523809Y-80166666D01*
X79476190Y-80071428D01*
X79428571Y-80023809D01*
X79333333Y-79976190D01*
X79142857Y-79928571D01*
X79047619Y-79880952D01*
X79000000Y-79833333D01*
X78952380Y-79738095D01*
X78952380Y-79642857D01*
X79000000Y-79547619D01*
X79047619Y-79500000D01*
X79142857Y-79452380D01*
X79380952Y-79452380D01*
X79523809Y-79500000D01*
X79857142Y-79452380D02*
X80095238Y-80452380D01*
X80285714Y-79738095D01*
X80476190Y-80452380D01*
X80714285Y-79452380D01*
X81047619Y-79547619D02*
X81095238Y-79500000D01*
X81190476Y-79452380D01*
X81428571Y-79452380D01*
X81523809Y-79500000D01*
X81571428Y-79547619D01*
X81619047Y-79642857D01*
X81619047Y-79738095D01*
X81571428Y-79880952D01*
X81000000Y-80452380D01*
X81619047Y-80452380D01*
X82047619Y-80357142D02*
X82095238Y-80404761D01*
X82047619Y-80452380D01*
X82000000Y-80404761D01*
X82047619Y-80357142D01*
X82047619Y-80452380D01*
X82047619Y-79833333D02*
X82095238Y-79880952D01*
X82047619Y-79928571D01*
X82000000Y-79880952D01*
X82047619Y-79833333D01*
X82047619Y-79928571D01*
X82714285Y-79452380D02*
X82809523Y-79452380D01*
X82904761Y-79500000D01*
X82952380Y-79547619D01*
X83000000Y-79642857D01*
X83047619Y-79833333D01*
X83047619Y-80071428D01*
X83000000Y-80261904D01*
X82952380Y-80357142D01*
X82904761Y-80404761D01*
X82809523Y-80452380D01*
X82714285Y-80452380D01*
X82619047Y-80404761D01*
X82571428Y-80357142D01*
X82523809Y-80261904D01*
X82476190Y-80071428D01*
X82476190Y-79833333D01*
X82523809Y-79642857D01*
X82571428Y-79547619D01*
X82619047Y-79500000D01*
X82714285Y-79452380D01*
X83952380Y-118404761D02*
X84095238Y-118452380D01*
X84333333Y-118452380D01*
X84428571Y-118404761D01*
X84476190Y-118357142D01*
X84523809Y-118261904D01*
X84523809Y-118166666D01*
X84476190Y-118071428D01*
X84428571Y-118023809D01*
X84333333Y-117976190D01*
X84142857Y-117928571D01*
X84047619Y-117880952D01*
X84000000Y-117833333D01*
X83952380Y-117738095D01*
X83952380Y-117642857D01*
X84000000Y-117547619D01*
X84047619Y-117500000D01*
X84142857Y-117452380D01*
X84380952Y-117452380D01*
X84523809Y-117500000D01*
X84857142Y-117452380D02*
X85095238Y-118452380D01*
X85285714Y-117738095D01*
X85476190Y-118452380D01*
X85714285Y-117452380D01*
X86285714Y-117452380D02*
X86380952Y-117452380D01*
X86476190Y-117500000D01*
X86523809Y-117547619D01*
X86571428Y-117642857D01*
X86619047Y-117833333D01*
X86619047Y-118071428D01*
X86571428Y-118261904D01*
X86523809Y-118357142D01*
X86476190Y-118404761D01*
X86380952Y-118452380D01*
X86285714Y-118452380D01*
X86190476Y-118404761D01*
X86142857Y-118357142D01*
X86095238Y-118261904D01*
X86047619Y-118071428D01*
X86047619Y-117833333D01*
X86095238Y-117642857D01*
X86142857Y-117547619D01*
X86190476Y-117500000D01*
X86285714Y-117452380D01*
X87047619Y-118357142D02*
X87095238Y-118404761D01*
X87047619Y-118452380D01*
X87000000Y-118404761D01*
X87047619Y-118357142D01*
X87047619Y-118452380D01*
X87047619Y-117833333D02*
X87095238Y-117880952D01*
X87047619Y-117928571D01*
X87000000Y-117880952D01*
X87047619Y-117833333D01*
X87047619Y-117928571D01*
X87714285Y-117452380D02*
X87809523Y-117452380D01*
X87904761Y-117500000D01*
X87952380Y-117547619D01*
X88000000Y-117642857D01*
X88047619Y-117833333D01*
X88047619Y-118071428D01*
X88000000Y-118261904D01*
X87952380Y-118357142D01*
X87904761Y-118404761D01*
X87809523Y-118452380D01*
X87714285Y-118452380D01*
X87619047Y-118404761D01*
X87571428Y-118357142D01*
X87523809Y-118261904D01*
X87476190Y-118071428D01*
X87476190Y-117833333D01*
X87523809Y-117642857D01*
X87571428Y-117547619D01*
X87619047Y-117500000D01*
X87714285Y-117452380D01*
X97952380Y-118404761D02*
X98095238Y-118452380D01*
X98333333Y-118452380D01*
X98428571Y-118404761D01*
X98476190Y-118357142D01*
X98523809Y-118261904D01*
X98523809Y-118166666D01*
X98476190Y-118071428D01*
X98428571Y-118023809D01*
X98333333Y-117976190D01*
X98142857Y-117928571D01*
X98047619Y-117880952D01*
X98000000Y-117833333D01*
X97952380Y-117738095D01*
X97952380Y-117642857D01*
X98000000Y-117547619D01*
X98047619Y-117500000D01*
X98142857Y-117452380D01*
X98380952Y-117452380D01*
X98523809Y-117500000D01*
X98857142Y-117452380D02*
X99095238Y-118452380D01*
X99285714Y-117738095D01*
X99476190Y-118452380D01*
X99714285Y-117452380D01*
X100285714Y-117452380D02*
X100380952Y-117452380D01*
X100476190Y-117500000D01*
X100523809Y-117547619D01*
X100571428Y-117642857D01*
X100619047Y-117833333D01*
X100619047Y-118071428D01*
X100571428Y-118261904D01*
X100523809Y-118357142D01*
X100476190Y-118404761D01*
X100380952Y-118452380D01*
X100285714Y-118452380D01*
X100190476Y-118404761D01*
X100142857Y-118357142D01*
X100095238Y-118261904D01*
X100047619Y-118071428D01*
X100047619Y-117833333D01*
X100095238Y-117642857D01*
X100142857Y-117547619D01*
X100190476Y-117500000D01*
X100285714Y-117452380D01*
X101047619Y-118357142D02*
X101095238Y-118404761D01*
X101047619Y-118452380D01*
X101000000Y-118404761D01*
X101047619Y-118357142D01*
X101047619Y-118452380D01*
X101047619Y-117833333D02*
X101095238Y-117880952D01*
X101047619Y-117928571D01*
X101000000Y-117880952D01*
X101047619Y-117833333D01*
X101047619Y-117928571D01*
X102047619Y-118452380D02*
X101476190Y-118452380D01*
X101761904Y-118452380D02*
X101761904Y-117452380D01*
X101666666Y-117595238D01*
X101571428Y-117690476D01*
X101476190Y-117738095D01*
X116952380Y-118404761D02*
X117095238Y-118452380D01*
X117333333Y-118452380D01*
X117428571Y-118404761D01*
X117476190Y-118357142D01*
X117523809Y-118261904D01*
X117523809Y-118166666D01*
X117476190Y-118071428D01*
X117428571Y-118023809D01*
X117333333Y-117976190D01*
X117142857Y-117928571D01*
X117047619Y-117880952D01*
X117000000Y-117833333D01*
X116952380Y-117738095D01*
X116952380Y-117642857D01*
X117000000Y-117547619D01*
X117047619Y-117500000D01*
X117142857Y-117452380D01*
X117380952Y-117452380D01*
X117523809Y-117500000D01*
X117857142Y-117452380D02*
X118095238Y-118452380D01*
X118285714Y-117738095D01*
X118476190Y-118452380D01*
X118714285Y-117452380D01*
X119285714Y-117452380D02*
X119380952Y-117452380D01*
X119476190Y-117500000D01*
X119523809Y-117547619D01*
X119571428Y-117642857D01*
X119619047Y-117833333D01*
X119619047Y-118071428D01*
X119571428Y-118261904D01*
X119523809Y-118357142D01*
X119476190Y-118404761D01*
X119380952Y-118452380D01*
X119285714Y-118452380D01*
X119190476Y-118404761D01*
X119142857Y-118357142D01*
X119095238Y-118261904D01*
X119047619Y-118071428D01*
X119047619Y-117833333D01*
X119095238Y-117642857D01*
X119142857Y-117547619D01*
X119190476Y-117500000D01*
X119285714Y-117452380D01*
X120047619Y-118357142D02*
X120095238Y-118404761D01*
X120047619Y-118452380D01*
X120000000Y-118404761D01*
X120047619Y-118357142D01*
X120047619Y-118452380D01*
X120047619Y-117833333D02*
X120095238Y-117880952D01*
X120047619Y-117928571D01*
X120000000Y-117880952D01*
X120047619Y-117833333D01*
X120047619Y-117928571D01*
X120476190Y-117547619D02*
X120523809Y-117500000D01*
X120619047Y-117452380D01*
X120857142Y-117452380D01*
X120952380Y-117500000D01*
X121000000Y-117547619D01*
X121047619Y-117642857D01*
X121047619Y-117738095D01*
X121000000Y-117880952D01*
X120428571Y-118452380D01*
X121047619Y-118452380D01*
X78952380Y-99404761D02*
X79095238Y-99452380D01*
X79333333Y-99452380D01*
X79428571Y-99404761D01*
X79476190Y-99357142D01*
X79523809Y-99261904D01*
X79523809Y-99166666D01*
X79476190Y-99071428D01*
X79428571Y-99023809D01*
X79333333Y-98976190D01*
X79142857Y-98928571D01*
X79047619Y-98880952D01*
X79000000Y-98833333D01*
X78952380Y-98738095D01*
X78952380Y-98642857D01*
X79000000Y-98547619D01*
X79047619Y-98500000D01*
X79142857Y-98452380D01*
X79380952Y-98452380D01*
X79523809Y-98500000D01*
X79857142Y-98452380D02*
X80095238Y-99452380D01*
X80285714Y-98738095D01*
X80476190Y-99452380D01*
X80714285Y-98452380D01*
X81619047Y-99452380D02*
X81047619Y-99452380D01*
X81333333Y-99452380D02*
X81333333Y-98452380D01*
X81238095Y-98595238D01*
X81142857Y-98690476D01*
X81047619Y-98738095D01*
X82047619Y-99357142D02*
X82095238Y-99404761D01*
X82047619Y-99452380D01*
X82000000Y-99404761D01*
X82047619Y-99357142D01*
X82047619Y-99452380D01*
X82047619Y-98833333D02*
X82095238Y-98880952D01*
X82047619Y-98928571D01*
X82000000Y-98880952D01*
X82047619Y-98833333D01*
X82047619Y-98928571D01*
X82714285Y-98452380D02*
X82809523Y-98452380D01*
X82904761Y-98500000D01*
X82952380Y-98547619D01*
X83000000Y-98642857D01*
X83047619Y-98833333D01*
X83047619Y-99071428D01*
X83000000Y-99261904D01*
X82952380Y-99357142D01*
X82904761Y-99404761D01*
X82809523Y-99452380D01*
X82714285Y-99452380D01*
X82619047Y-99404761D01*
X82571428Y-99357142D01*
X82523809Y-99261904D01*
X82476190Y-99071428D01*
X82476190Y-98833333D01*
X82523809Y-98642857D01*
X82571428Y-98547619D01*
X82619047Y-98500000D01*
X82714285Y-98452380D01*
X97964880Y-99404761D02*
X98107738Y-99452380D01*
X98345833Y-99452380D01*
X98441071Y-99404761D01*
X98488690Y-99357142D01*
X98536309Y-99261904D01*
X98536309Y-99166666D01*
X98488690Y-99071428D01*
X98441071Y-99023809D01*
X98345833Y-98976190D01*
X98155357Y-98928571D01*
X98060119Y-98880952D01*
X98012500Y-98833333D01*
X97964880Y-98738095D01*
X97964880Y-98642857D01*
X98012500Y-98547619D01*
X98060119Y-98500000D01*
X98155357Y-98452380D01*
X98393452Y-98452380D01*
X98536309Y-98500000D01*
X98869642Y-98452380D02*
X99107738Y-99452380D01*
X99298214Y-98738095D01*
X99488690Y-99452380D01*
X99726785Y-98452380D01*
X100631547Y-99452380D02*
X100060119Y-99452380D01*
X100345833Y-99452380D02*
X100345833Y-98452380D01*
X100250595Y-98595238D01*
X100155357Y-98690476D01*
X100060119Y-98738095D01*
X101060119Y-99357142D02*
X101107738Y-99404761D01*
X101060119Y-99452380D01*
X101012500Y-99404761D01*
X101060119Y-99357142D01*
X101060119Y-99452380D01*
X101060119Y-98833333D02*
X101107738Y-98880952D01*
X101060119Y-98928571D01*
X101012500Y-98880952D01*
X101060119Y-98833333D01*
X101060119Y-98928571D01*
X102060119Y-99452380D02*
X101488690Y-99452380D01*
X101774404Y-99452380D02*
X101774404Y-98452380D01*
X101679166Y-98595238D01*
X101583928Y-98690476D01*
X101488690Y-98738095D01*
X116952380Y-99404761D02*
X117095238Y-99452380D01*
X117333333Y-99452380D01*
X117428571Y-99404761D01*
X117476190Y-99357142D01*
X117523809Y-99261904D01*
X117523809Y-99166666D01*
X117476190Y-99071428D01*
X117428571Y-99023809D01*
X117333333Y-98976190D01*
X117142857Y-98928571D01*
X117047619Y-98880952D01*
X117000000Y-98833333D01*
X116952380Y-98738095D01*
X116952380Y-98642857D01*
X117000000Y-98547619D01*
X117047619Y-98500000D01*
X117142857Y-98452380D01*
X117380952Y-98452380D01*
X117523809Y-98500000D01*
X117857142Y-98452380D02*
X118095238Y-99452380D01*
X118285714Y-98738095D01*
X118476190Y-99452380D01*
X118714285Y-98452380D01*
X119619047Y-99452380D02*
X119047619Y-99452380D01*
X119333333Y-99452380D02*
X119333333Y-98452380D01*
X119238095Y-98595238D01*
X119142857Y-98690476D01*
X119047619Y-98738095D01*
X120047619Y-99357142D02*
X120095238Y-99404761D01*
X120047619Y-99452380D01*
X120000000Y-99404761D01*
X120047619Y-99357142D01*
X120047619Y-99452380D01*
X120047619Y-98833333D02*
X120095238Y-98880952D01*
X120047619Y-98928571D01*
X120000000Y-98880952D01*
X120047619Y-98833333D01*
X120047619Y-98928571D01*
X120476190Y-98547619D02*
X120523809Y-98500000D01*
X120619047Y-98452380D01*
X120857142Y-98452380D01*
X120952380Y-98500000D01*
X121000000Y-98547619D01*
X121047619Y-98642857D01*
X121047619Y-98738095D01*
X121000000Y-98880952D01*
X120428571Y-99452380D01*
X121047619Y-99452380D01*
X116952380Y-80404761D02*
X117095238Y-80452380D01*
X117333333Y-80452380D01*
X117428571Y-80404761D01*
X117476190Y-80357142D01*
X117523809Y-80261904D01*
X117523809Y-80166666D01*
X117476190Y-80071428D01*
X117428571Y-80023809D01*
X117333333Y-79976190D01*
X117142857Y-79928571D01*
X117047619Y-79880952D01*
X117000000Y-79833333D01*
X116952380Y-79738095D01*
X116952380Y-79642857D01*
X117000000Y-79547619D01*
X117047619Y-79500000D01*
X117142857Y-79452380D01*
X117380952Y-79452380D01*
X117523809Y-79500000D01*
X117857142Y-79452380D02*
X118095238Y-80452380D01*
X118285714Y-79738095D01*
X118476190Y-80452380D01*
X118714285Y-79452380D01*
X119047619Y-79547619D02*
X119095238Y-79500000D01*
X119190476Y-79452380D01*
X119428571Y-79452380D01*
X119523809Y-79500000D01*
X119571428Y-79547619D01*
X119619047Y-79642857D01*
X119619047Y-79738095D01*
X119571428Y-79880952D01*
X119000000Y-80452380D01*
X119619047Y-80452380D01*
X120047619Y-80357142D02*
X120095238Y-80404761D01*
X120047619Y-80452380D01*
X120000000Y-80404761D01*
X120047619Y-80357142D01*
X120047619Y-80452380D01*
X120047619Y-79833333D02*
X120095238Y-79880952D01*
X120047619Y-79928571D01*
X120000000Y-79880952D01*
X120047619Y-79833333D01*
X120047619Y-79928571D01*
X120476190Y-79547619D02*
X120523809Y-79500000D01*
X120619047Y-79452380D01*
X120857142Y-79452380D01*
X120952380Y-79500000D01*
X121000000Y-79547619D01*
X121047619Y-79642857D01*
X121047619Y-79738095D01*
X121000000Y-79880952D01*
X120428571Y-80452380D01*
X121047619Y-80452380D01*
X97952380Y-56904761D02*
X98095238Y-56952380D01*
X98333333Y-56952380D01*
X98428571Y-56904761D01*
X98476190Y-56857142D01*
X98523809Y-56761904D01*
X98523809Y-56666666D01*
X98476190Y-56571428D01*
X98428571Y-56523809D01*
X98333333Y-56476190D01*
X98142857Y-56428571D01*
X98047619Y-56380952D01*
X98000000Y-56333333D01*
X97952380Y-56238095D01*
X97952380Y-56142857D01*
X98000000Y-56047619D01*
X98047619Y-56000000D01*
X98142857Y-55952380D01*
X98380952Y-55952380D01*
X98523809Y-56000000D01*
X98857142Y-55952380D02*
X99095238Y-56952380D01*
X99285714Y-56238095D01*
X99476190Y-56952380D01*
X99714285Y-55952380D01*
X100000000Y-55952380D02*
X100619047Y-55952380D01*
X100285714Y-56333333D01*
X100428571Y-56333333D01*
X100523809Y-56380952D01*
X100571428Y-56428571D01*
X100619047Y-56523809D01*
X100619047Y-56761904D01*
X100571428Y-56857142D01*
X100523809Y-56904761D01*
X100428571Y-56952380D01*
X100142857Y-56952380D01*
X100047619Y-56904761D01*
X100000000Y-56857142D01*
X101047619Y-56857142D02*
X101095238Y-56904761D01*
X101047619Y-56952380D01*
X101000000Y-56904761D01*
X101047619Y-56857142D01*
X101047619Y-56952380D01*
X101047619Y-56333333D02*
X101095238Y-56380952D01*
X101047619Y-56428571D01*
X101000000Y-56380952D01*
X101047619Y-56333333D01*
X101047619Y-56428571D01*
X102047619Y-56952380D02*
X101476190Y-56952380D01*
X101761904Y-56952380D02*
X101761904Y-55952380D01*
X101666666Y-56095238D01*
X101571428Y-56190476D01*
X101476190Y-56238095D01*
X117014880Y-56904761D02*
X117157738Y-56952380D01*
X117395833Y-56952380D01*
X117491071Y-56904761D01*
X117538690Y-56857142D01*
X117586309Y-56761904D01*
X117586309Y-56666666D01*
X117538690Y-56571428D01*
X117491071Y-56523809D01*
X117395833Y-56476190D01*
X117205357Y-56428571D01*
X117110119Y-56380952D01*
X117062500Y-56333333D01*
X117014880Y-56238095D01*
X117014880Y-56142857D01*
X117062500Y-56047619D01*
X117110119Y-56000000D01*
X117205357Y-55952380D01*
X117443452Y-55952380D01*
X117586309Y-56000000D01*
X117919642Y-55952380D02*
X118157738Y-56952380D01*
X118348214Y-56238095D01*
X118538690Y-56952380D01*
X118776785Y-55952380D01*
X119062500Y-55952380D02*
X119681547Y-55952380D01*
X119348214Y-56333333D01*
X119491071Y-56333333D01*
X119586309Y-56380952D01*
X119633928Y-56428571D01*
X119681547Y-56523809D01*
X119681547Y-56761904D01*
X119633928Y-56857142D01*
X119586309Y-56904761D01*
X119491071Y-56952380D01*
X119205357Y-56952380D01*
X119110119Y-56904761D01*
X119062500Y-56857142D01*
X120110119Y-56857142D02*
X120157738Y-56904761D01*
X120110119Y-56952380D01*
X120062500Y-56904761D01*
X120110119Y-56857142D01*
X120110119Y-56952380D01*
X120110119Y-56333333D02*
X120157738Y-56380952D01*
X120110119Y-56428571D01*
X120062500Y-56380952D01*
X120110119Y-56333333D01*
X120110119Y-56428571D01*
X120538690Y-56047619D02*
X120586309Y-56000000D01*
X120681547Y-55952380D01*
X120919642Y-55952380D01*
X121014880Y-56000000D01*
X121062500Y-56047619D01*
X121110119Y-56142857D01*
X121110119Y-56238095D01*
X121062500Y-56380952D01*
X120491071Y-56952380D01*
X121110119Y-56952380D01*
%LPC*%
D11*
X80650000Y-117000000D03*
X75350000Y-117000000D03*
D12*
X75462500Y-64293750D03*
X86462500Y-64293750D03*
D13*
X86182500Y-60093750D03*
D14*
X80962500Y-70193750D03*
X75962500Y-68093750D03*
D15*
X80962500Y-64293750D03*
D12*
X94512500Y-88106250D03*
X105512500Y-88106250D03*
D13*
X105232500Y-83906250D03*
D14*
X100012500Y-94006250D03*
X95012500Y-91906250D03*
D15*
X100012500Y-88106250D03*
D12*
X75462500Y-88106250D03*
X86462500Y-88106250D03*
D13*
X86182500Y-83906250D03*
D14*
X80962500Y-94006250D03*
X75962500Y-91906250D03*
D15*
X80962500Y-88106250D03*
D12*
X75462500Y-126206250D03*
X86462500Y-126206250D03*
D13*
X86182500Y-122006250D03*
D14*
X80962500Y-132106250D03*
X75962500Y-130006250D03*
D15*
X80962500Y-126206250D03*
D12*
X94512500Y-126206250D03*
X105512500Y-126206250D03*
D13*
X105232500Y-122006250D03*
D14*
X100012500Y-132106250D03*
X95012500Y-130006250D03*
D15*
X100012500Y-126206250D03*
D12*
X113562500Y-126206250D03*
X124562500Y-126206250D03*
D13*
X124282500Y-122006250D03*
D14*
X119062500Y-132106250D03*
X114062500Y-130006250D03*
D15*
X119062500Y-126206250D03*
D12*
X75462500Y-107156250D03*
X86462500Y-107156250D03*
D13*
X86182500Y-102956250D03*
D14*
X80962500Y-113056250D03*
X75962500Y-110956250D03*
D15*
X80962500Y-107156250D03*
D12*
X94512500Y-107156250D03*
X105512500Y-107156250D03*
D13*
X105232500Y-102956250D03*
D14*
X100012500Y-113056250D03*
X95012500Y-110956250D03*
D15*
X100012500Y-107156250D03*
D12*
X113562500Y-107156250D03*
X124562500Y-107156250D03*
D13*
X124282500Y-102956250D03*
D14*
X119062500Y-113056250D03*
X114062500Y-110956250D03*
D15*
X119062500Y-107156250D03*
D12*
X113562500Y-88106250D03*
X124562500Y-88106250D03*
D13*
X124282500Y-83906250D03*
D14*
X119062500Y-94006250D03*
X114062500Y-91906250D03*
D15*
X119062500Y-88106250D03*
D12*
X94512500Y-64293750D03*
X105512500Y-64293750D03*
D13*
X105232500Y-60093750D03*
D14*
X100012500Y-70193750D03*
X95012500Y-68093750D03*
D15*
X100012500Y-64293750D03*
D12*
X113562500Y-64293750D03*
X124562500Y-64293750D03*
D13*
X124282500Y-60093750D03*
D14*
X119062500Y-70193750D03*
X114062500Y-68093750D03*
D15*
X119062500Y-64293750D03*
D16*
X91110000Y-74660000D03*
X93650000Y-74660000D03*
X96190000Y-74660000D03*
X98730000Y-74660000D03*
X101270000Y-74660000D03*
X103810000Y-74660000D03*
X106350000Y-74660000D03*
X108890000Y-74660000D03*
X111430000Y-74660000D03*
X113970000Y-74660000D03*
X116510000Y-74660000D03*
X119050000Y-74660000D03*
X119050000Y-54340000D03*
X116510000Y-54340000D03*
X113970000Y-54340000D03*
X111430000Y-54340000D03*
X108890000Y-54340000D03*
X106350000Y-54340000D03*
X103810000Y-54340000D03*
X101270000Y-54340000D03*
X98730000Y-54340000D03*
X96190000Y-54340000D03*
X93650000Y-54340000D03*
X91110000Y-54340000D03*
X88570000Y-54340000D03*
X86030000Y-54340000D03*
X83490000Y-54340000D03*
X80950000Y-54340000D03*
D11*
X124740000Y-116540000D03*
X122200000Y-116540000D03*
M02*
