G04 #@! TF.FileFunction,Copper,L2,Bot,Signal*
%FSLAX46Y46*%
G04 Gerber Fmt 4.6, Leading zero omitted, Abs format (unit mm)*
G04 Created by KiCad (PCBNEW 4.0.7) date Tuesday, March 20, 2018 'PMt' 07:43:28 PM*
%MOMM*%
%LPD*%
G01*
G04 APERTURE LIST*
%ADD10C,0.100000*%
%ADD11C,1.524000*%
%ADD12R,1.200000X0.900000*%
%ADD13R,0.900000X1.200000*%
%ADD14R,1.100000X1.100000*%
%ADD15C,2.032000*%
%ADD16C,1.905000*%
%ADD17C,0.685800*%
%ADD18C,0.254000*%
%ADD19C,0.250000*%
%ADD20C,0.508000*%
G04 APERTURE END LIST*
D10*
D11*
X91110000Y-74660000D03*
X93650000Y-74660000D03*
X96190000Y-74660000D03*
X98730000Y-74660000D03*
X101270000Y-74660000D03*
X103810000Y-74660000D03*
X106350000Y-74660000D03*
X108890000Y-74660000D03*
X111430000Y-74660000D03*
X113970000Y-74660000D03*
X116510000Y-74660000D03*
X119050000Y-74660000D03*
X119050000Y-54340000D03*
X116510000Y-54340000D03*
X113970000Y-54340000D03*
X111430000Y-54340000D03*
X108890000Y-54340000D03*
X106350000Y-54340000D03*
X103810000Y-54340000D03*
X101270000Y-54340000D03*
X98730000Y-54340000D03*
X96190000Y-54340000D03*
X93650000Y-54340000D03*
X91110000Y-54340000D03*
X88570000Y-54340000D03*
X86030000Y-54340000D03*
X83490000Y-54340000D03*
X80950000Y-54340000D03*
D12*
X123444000Y-80644000D03*
X123444000Y-77344000D03*
D13*
X82612500Y-78581250D03*
X79312500Y-78581250D03*
X82612500Y-80962500D03*
X79312500Y-80962500D03*
X120712500Y-83343750D03*
X117412500Y-83343750D03*
X101662500Y-83343750D03*
X98362500Y-83343750D03*
X82612500Y-83343750D03*
X79312500Y-83343750D03*
X120712500Y-102393750D03*
X117412500Y-102393750D03*
X101662500Y-102393750D03*
X98362500Y-102393750D03*
X82612500Y-102393750D03*
X79312500Y-102393750D03*
D14*
X125500000Y-110100000D03*
X125500000Y-112900000D03*
D13*
X120712500Y-121443750D03*
X117412500Y-121443750D03*
X101662500Y-121443750D03*
X98362500Y-121443750D03*
X89650000Y-130000000D03*
X86350000Y-130000000D03*
D15*
X75962500Y-68093750D03*
X80962500Y-70193750D03*
X95012500Y-91906250D03*
X100012500Y-94006250D03*
X75962500Y-91906250D03*
X80962500Y-94006250D03*
X75962500Y-130006250D03*
X80962500Y-132106250D03*
X95012500Y-130006250D03*
X100012500Y-132106250D03*
X114062500Y-130006250D03*
X119062500Y-132106250D03*
X75962500Y-110956250D03*
X80962500Y-113056250D03*
X95012500Y-110956250D03*
X100012500Y-113056250D03*
X114062500Y-110956250D03*
X119062500Y-113056250D03*
X114062500Y-91906250D03*
X119062500Y-94006250D03*
X95012500Y-68093750D03*
X100012500Y-70193750D03*
X114062500Y-68093750D03*
X119062500Y-70193750D03*
D16*
X124740000Y-116540000D03*
X122200000Y-116540000D03*
X75350000Y-117000000D03*
X80650000Y-117000000D03*
D17*
X110500000Y-58000000D03*
X100000000Y-58000000D03*
X91000000Y-80000000D03*
X91000000Y-82000000D03*
X126500000Y-72500000D03*
X77724000Y-69850000D03*
X88500000Y-85000000D03*
X87500000Y-117000000D03*
D18*
X84000000Y-103781250D02*
X82612500Y-102393750D01*
X84000000Y-127000000D02*
X84000000Y-103781250D01*
X85000000Y-128000000D02*
X84000000Y-127000000D01*
X87000000Y-128000000D02*
X85000000Y-128000000D01*
X89000000Y-130000000D02*
X87000000Y-128000000D01*
X89650000Y-130000000D02*
X89000000Y-130000000D01*
X111430000Y-74660000D02*
X111430000Y-78570000D01*
X109037500Y-80962500D02*
X82612500Y-80962500D01*
X111430000Y-78570000D02*
X109037500Y-80962500D01*
X82612500Y-83343750D02*
X82612500Y-80962500D01*
X82612500Y-83343750D02*
X82612500Y-82866500D01*
D19*
X82612500Y-102393750D02*
X82612500Y-95981250D01*
X83343750Y-84075000D02*
X82612500Y-83343750D01*
X83343750Y-95250000D02*
X83343750Y-84075000D01*
X82612500Y-95981250D02*
X83343750Y-95250000D01*
D18*
X75962500Y-130006250D02*
X86343750Y-130006250D01*
X86343750Y-130006250D02*
X86350000Y-130000000D01*
X86650000Y-130000000D02*
X86650000Y-129650000D01*
X82612500Y-78581250D02*
X82612500Y-71887500D01*
X110500000Y-58000000D02*
X113970000Y-54530000D01*
X96500000Y-58000000D02*
X100000000Y-58000000D01*
X82612500Y-71887500D02*
X96500000Y-58000000D01*
X113970000Y-54530000D02*
X113970000Y-54340000D01*
X101662500Y-83343750D02*
X100843750Y-83343750D01*
X89581250Y-78581250D02*
X82612500Y-78581250D01*
X91000000Y-80000000D02*
X89581250Y-78581250D01*
X99500000Y-82000000D02*
X91000000Y-82000000D01*
X100843750Y-83343750D02*
X99500000Y-82000000D01*
D19*
X101662500Y-102393750D02*
X101662500Y-95981250D01*
X102393750Y-84075000D02*
X101662500Y-83343750D01*
X102393750Y-95250000D02*
X102393750Y-84075000D01*
X101662500Y-95981250D02*
X102393750Y-95250000D01*
X101662500Y-121443750D02*
X101662500Y-115031250D01*
X102393750Y-103125000D02*
X101662500Y-102393750D01*
X102393750Y-114300000D02*
X102393750Y-103125000D01*
X101662500Y-115031250D02*
X102393750Y-114300000D01*
X97631250Y-122175000D02*
X98362500Y-121443750D01*
X97631250Y-128587500D02*
X97631250Y-122175000D01*
X96212500Y-130006250D02*
X97631250Y-128587500D01*
X95012500Y-130006250D02*
X96212500Y-130006250D01*
D18*
X123444000Y-80644000D02*
X123444000Y-80556000D01*
X123444000Y-80556000D02*
X125000000Y-79000000D01*
X122000000Y-59830000D02*
X116510000Y-54340000D01*
X122000000Y-64500000D02*
X122000000Y-59830000D01*
X125000000Y-67500000D02*
X122000000Y-64500000D01*
X125000000Y-79000000D02*
X125000000Y-67500000D01*
X120712500Y-83343750D02*
X120744250Y-83343750D01*
X120744250Y-83343750D02*
X123444000Y-80644000D01*
D19*
X120712500Y-102393750D02*
X120712500Y-95981250D01*
X121443750Y-84075000D02*
X120712500Y-83343750D01*
X121443750Y-95250000D02*
X121443750Y-84075000D01*
X120712500Y-95981250D02*
X121443750Y-95250000D01*
X120712500Y-121443750D02*
X120712500Y-115031250D01*
X121443750Y-103125000D02*
X120712500Y-102393750D01*
X121443750Y-114300000D02*
X121443750Y-103125000D01*
X120712500Y-115031250D02*
X121443750Y-114300000D01*
X116681250Y-122175000D02*
X117412500Y-121443750D01*
X116681250Y-128587500D02*
X116681250Y-122175000D01*
X115262500Y-130006250D02*
X116681250Y-128587500D01*
X114062500Y-130006250D02*
X115262500Y-130006250D01*
D20*
X126500000Y-72500000D02*
X126500000Y-108000000D01*
X126500000Y-108000000D02*
X126500000Y-109000000D01*
X126500000Y-109000000D02*
X125500000Y-110000000D01*
X125500000Y-110000000D02*
X125500000Y-110100000D01*
D18*
X125500000Y-110100000D02*
X125500000Y-110000000D01*
D20*
X124740000Y-116540000D02*
X124740000Y-113660000D01*
X124740000Y-113660000D02*
X125500000Y-112900000D01*
D19*
X75962500Y-110956250D02*
X77162500Y-110956250D01*
X78581250Y-103125000D02*
X79312500Y-102393750D01*
X78581250Y-109537500D02*
X78581250Y-103125000D01*
X77162500Y-110956250D02*
X78581250Y-109537500D01*
X95012500Y-110956250D02*
X96212500Y-110956250D01*
X97631250Y-103125000D02*
X98362500Y-102393750D01*
X97631250Y-109537500D02*
X97631250Y-103125000D01*
X96212500Y-110956250D02*
X97631250Y-109537500D01*
X114062500Y-110956250D02*
X115262500Y-110956250D01*
X116681250Y-103125000D02*
X117412500Y-102393750D01*
X116681250Y-109537500D02*
X116681250Y-103125000D01*
X115262500Y-110956250D02*
X116681250Y-109537500D01*
X75962500Y-91906250D02*
X77162500Y-91906250D01*
X78581250Y-84075000D02*
X79312500Y-83343750D01*
X78581250Y-90487500D02*
X78581250Y-84075000D01*
X77162500Y-91906250D02*
X78581250Y-90487500D01*
X95012500Y-91906250D02*
X96212500Y-91906250D01*
X97631250Y-84075000D02*
X98362500Y-83343750D01*
X97631250Y-90487500D02*
X97631250Y-84075000D01*
X96212500Y-91906250D02*
X97631250Y-90487500D01*
X114062500Y-91906250D02*
X115262500Y-91906250D01*
X116681250Y-84075000D02*
X117412500Y-83343750D01*
X116681250Y-90487500D02*
X116681250Y-84075000D01*
X115262500Y-91906250D02*
X116681250Y-90487500D01*
D18*
X79312500Y-80962500D02*
X78930500Y-80962500D01*
X78930500Y-80962500D02*
X75962500Y-77994500D01*
X75962500Y-77994500D02*
X75962500Y-68093750D01*
X79312500Y-78581250D02*
X78835250Y-78581250D01*
X77724000Y-77470000D02*
X77724000Y-69850000D01*
X78835250Y-78581250D02*
X77724000Y-77470000D01*
X118104750Y-72136000D02*
X114062500Y-68093750D01*
X120142000Y-72136000D02*
X118104750Y-72136000D01*
X123444000Y-75438000D02*
X120142000Y-72136000D01*
X123444000Y-77344000D02*
X123444000Y-75438000D01*
X100012500Y-70193750D02*
X100306250Y-70193750D01*
X100306250Y-70193750D02*
X103810000Y-66690000D01*
X103810000Y-66690000D02*
X103810000Y-54340000D01*
X88500000Y-116000000D02*
X88500000Y-85000000D01*
X87500000Y-117000000D02*
X88500000Y-116000000D01*
G36*
X80159697Y-53154990D02*
X79766371Y-53547630D01*
X79553243Y-54060900D01*
X79552758Y-54616661D01*
X79764990Y-55130303D01*
X80157630Y-55523629D01*
X80670900Y-55736757D01*
X81226661Y-55737242D01*
X81740303Y-55525010D01*
X82133629Y-55132370D01*
X82219949Y-54924488D01*
X82304990Y-55130303D01*
X82697630Y-55523629D01*
X83210900Y-55736757D01*
X83766661Y-55737242D01*
X84280303Y-55525010D01*
X84673629Y-55132370D01*
X84759949Y-54924488D01*
X84844990Y-55130303D01*
X85237630Y-55523629D01*
X85750900Y-55736757D01*
X86306661Y-55737242D01*
X86820303Y-55525010D01*
X87025457Y-55320213D01*
X87769392Y-55320213D01*
X87838857Y-55562397D01*
X88362302Y-55749144D01*
X88917368Y-55721362D01*
X89301143Y-55562397D01*
X89370608Y-55320213D01*
X88570000Y-54519605D01*
X87769392Y-55320213D01*
X87025457Y-55320213D01*
X87213629Y-55132370D01*
X87293395Y-54940273D01*
X87347603Y-55071143D01*
X87589787Y-55140608D01*
X88390395Y-54340000D01*
X87589787Y-53539392D01*
X87347603Y-53608857D01*
X87297491Y-53749318D01*
X87215010Y-53549697D01*
X86822370Y-53156371D01*
X86680593Y-53097500D01*
X87887390Y-53097500D01*
X87838857Y-53117603D01*
X87769392Y-53359787D01*
X88570000Y-54160395D01*
X89370608Y-53359787D01*
X89301143Y-53117603D01*
X89244795Y-53097500D01*
X90458834Y-53097500D01*
X90319697Y-53154990D01*
X89926371Y-53547630D01*
X89846605Y-53739727D01*
X89792397Y-53608857D01*
X89550213Y-53539392D01*
X88749605Y-54340000D01*
X89550213Y-55140608D01*
X89792397Y-55071143D01*
X89842509Y-54930682D01*
X89924990Y-55130303D01*
X90317630Y-55523629D01*
X90830900Y-55736757D01*
X91386661Y-55737242D01*
X91900303Y-55525010D01*
X92293629Y-55132370D01*
X92379949Y-54924488D01*
X92464990Y-55130303D01*
X92857630Y-55523629D01*
X93370900Y-55736757D01*
X93926661Y-55737242D01*
X94440303Y-55525010D01*
X94833629Y-55132370D01*
X94919949Y-54924488D01*
X95004990Y-55130303D01*
X95397630Y-55523629D01*
X95910900Y-55736757D01*
X96466661Y-55737242D01*
X96980303Y-55525010D01*
X97373629Y-55132370D01*
X97459949Y-54924488D01*
X97544990Y-55130303D01*
X97937630Y-55523629D01*
X98450900Y-55736757D01*
X99006661Y-55737242D01*
X99520303Y-55525010D01*
X99913629Y-55132370D01*
X99999949Y-54924488D01*
X100084990Y-55130303D01*
X100477630Y-55523629D01*
X100990900Y-55736757D01*
X101546661Y-55737242D01*
X102060303Y-55525010D01*
X102453629Y-55132370D01*
X102539949Y-54924488D01*
X102624990Y-55130303D01*
X103017630Y-55523629D01*
X103048000Y-55536240D01*
X103048000Y-66374369D01*
X100721778Y-68700591D01*
X100342345Y-68543037D01*
X99685537Y-68542464D01*
X99078505Y-68793284D01*
X98613666Y-69257313D01*
X98361787Y-69863905D01*
X98361214Y-70520713D01*
X98612034Y-71127745D01*
X99076063Y-71592584D01*
X99682655Y-71844463D01*
X100339463Y-71845036D01*
X100946495Y-71594216D01*
X101411334Y-71130187D01*
X101663213Y-70523595D01*
X101663745Y-69913885D01*
X104348816Y-67228815D01*
X104447834Y-67080623D01*
X104513996Y-66981605D01*
X104572000Y-66690000D01*
X104572000Y-65454824D01*
X104669706Y-65552701D01*
X105215639Y-65779392D01*
X105806767Y-65779908D01*
X106353095Y-65554170D01*
X106771451Y-65136544D01*
X106998142Y-64590611D01*
X106998144Y-64588017D01*
X112076342Y-64588017D01*
X112302080Y-65134345D01*
X112719706Y-65552701D01*
X113265639Y-65779392D01*
X113856767Y-65779908D01*
X114403095Y-65554170D01*
X114821451Y-65136544D01*
X115048142Y-64590611D01*
X115048658Y-63999483D01*
X114822920Y-63453155D01*
X114405294Y-63034799D01*
X113859361Y-62808108D01*
X113268233Y-62807592D01*
X112721905Y-63033330D01*
X112303549Y-63450956D01*
X112076858Y-63996889D01*
X112076342Y-64588017D01*
X106998144Y-64588017D01*
X106998658Y-63999483D01*
X106772920Y-63453155D01*
X106355294Y-63034799D01*
X105809361Y-62808108D01*
X105218233Y-62807592D01*
X104671905Y-63033330D01*
X104572000Y-63133061D01*
X104572000Y-61031979D01*
X104591400Y-61051413D01*
X105006683Y-61223853D01*
X105456344Y-61224246D01*
X105871927Y-61052531D01*
X106190163Y-60734850D01*
X106362603Y-60319567D01*
X106362996Y-59869906D01*
X106191281Y-59454323D01*
X105873600Y-59136087D01*
X105458317Y-58963647D01*
X105008656Y-58963254D01*
X104593073Y-59134969D01*
X104572000Y-59156005D01*
X104572000Y-55536705D01*
X104600303Y-55525010D01*
X104993629Y-55132370D01*
X105079949Y-54924488D01*
X105164990Y-55130303D01*
X105557630Y-55523629D01*
X106070900Y-55736757D01*
X106626661Y-55737242D01*
X107140303Y-55525010D01*
X107533629Y-55132370D01*
X107619949Y-54924488D01*
X107704990Y-55130303D01*
X108097630Y-55523629D01*
X108610900Y-55736757D01*
X109166661Y-55737242D01*
X109680303Y-55525010D01*
X110073629Y-55132370D01*
X110159949Y-54924488D01*
X110244990Y-55130303D01*
X110637630Y-55523629D01*
X111150900Y-55736757D01*
X111685147Y-55737223D01*
X110400357Y-57022013D01*
X110306337Y-57021931D01*
X109946788Y-57170493D01*
X109671460Y-57445341D01*
X109522270Y-57804630D01*
X109521931Y-58193663D01*
X109670493Y-58553212D01*
X109945341Y-58828540D01*
X110304630Y-58977730D01*
X110693663Y-58978069D01*
X111053212Y-58829507D01*
X111328540Y-58554659D01*
X111477730Y-58195370D01*
X111477813Y-58099817D01*
X113840742Y-55736888D01*
X114246661Y-55737242D01*
X114760303Y-55525010D01*
X115153629Y-55132370D01*
X115239949Y-54924488D01*
X115324990Y-55130303D01*
X115717630Y-55523629D01*
X116230900Y-55736757D01*
X116786661Y-55737242D01*
X116817054Y-55724684D01*
X121238000Y-60145631D01*
X121238000Y-63406360D01*
X121055470Y-62964604D01*
X120395122Y-62303103D01*
X119531895Y-61944659D01*
X118597206Y-61943843D01*
X117733354Y-62300780D01*
X117071853Y-62961128D01*
X116713409Y-63824355D01*
X116712593Y-64759044D01*
X117069530Y-65622896D01*
X117729878Y-66284397D01*
X118593105Y-66642841D01*
X119527794Y-66643657D01*
X120391646Y-66286720D01*
X121053147Y-65626372D01*
X121360002Y-64887385D01*
X121461185Y-65038815D01*
X124238000Y-67815631D01*
X124238000Y-76285846D01*
X124206000Y-76279366D01*
X124206000Y-75438000D01*
X124147996Y-75146395D01*
X123982815Y-74899185D01*
X120680815Y-71597185D01*
X120568697Y-71522270D01*
X120433605Y-71432004D01*
X120204618Y-71386456D01*
X120461334Y-71130187D01*
X120713213Y-70523595D01*
X120713786Y-69866787D01*
X120462966Y-69259755D01*
X119998937Y-68794916D01*
X119392345Y-68543037D01*
X118735537Y-68542464D01*
X118128505Y-68793284D01*
X117663666Y-69257313D01*
X117411787Y-69863905D01*
X117411350Y-70364969D01*
X115641846Y-68595466D01*
X115713213Y-68423595D01*
X115713786Y-67766787D01*
X115462966Y-67159755D01*
X114998937Y-66694916D01*
X114392345Y-66443037D01*
X113735537Y-66442464D01*
X113128505Y-66693284D01*
X112663666Y-67157313D01*
X112411787Y-67763905D01*
X112411214Y-68420713D01*
X112662034Y-69027745D01*
X113126063Y-69492584D01*
X113732655Y-69744463D01*
X114389463Y-69745036D01*
X114564027Y-69672908D01*
X117565935Y-72674816D01*
X117714127Y-72773834D01*
X117813145Y-72839996D01*
X118104750Y-72898000D01*
X119826370Y-72898000D01*
X122682000Y-75753630D01*
X122682000Y-76277042D01*
X122608683Y-76290838D01*
X122392559Y-76429910D01*
X122247569Y-76642110D01*
X122196560Y-76894000D01*
X122196560Y-77794000D01*
X122240838Y-78029317D01*
X122379910Y-78245441D01*
X122592110Y-78390431D01*
X122844000Y-78441440D01*
X124044000Y-78441440D01*
X124238000Y-78404936D01*
X124238000Y-78684369D01*
X123375810Y-79546560D01*
X122844000Y-79546560D01*
X122608683Y-79590838D01*
X122392559Y-79729910D01*
X122247569Y-79942110D01*
X122196560Y-80194000D01*
X122196560Y-80813810D01*
X120914060Y-82096310D01*
X120262500Y-82096310D01*
X120027183Y-82140588D01*
X119811059Y-82279660D01*
X119666069Y-82491860D01*
X119615060Y-82743750D01*
X119615060Y-83943750D01*
X119659338Y-84179067D01*
X119798410Y-84395191D01*
X120010610Y-84540181D01*
X120262500Y-84591190D01*
X120683750Y-84591190D01*
X120683750Y-86404735D01*
X120395122Y-86115603D01*
X119531895Y-85757159D01*
X118597206Y-85756343D01*
X117733354Y-86113280D01*
X117441250Y-86404875D01*
X117441250Y-84591190D01*
X117862500Y-84591190D01*
X118097817Y-84546912D01*
X118313941Y-84407840D01*
X118458931Y-84195640D01*
X118509940Y-83943750D01*
X118509940Y-82743750D01*
X118465662Y-82508433D01*
X118326590Y-82292309D01*
X118114390Y-82147319D01*
X117862500Y-82096310D01*
X116962500Y-82096310D01*
X116727183Y-82140588D01*
X116511059Y-82279660D01*
X116366069Y-82491860D01*
X116315060Y-82743750D01*
X116315060Y-83366388D01*
X116143849Y-83537599D01*
X115979102Y-83784161D01*
X115921250Y-84075000D01*
X115921250Y-90172697D01*
X115292478Y-90801469D01*
X114998937Y-90507416D01*
X114392345Y-90255537D01*
X113735537Y-90254964D01*
X113128505Y-90505784D01*
X112663666Y-90969813D01*
X112411787Y-91576405D01*
X112411214Y-92233213D01*
X112662034Y-92840245D01*
X113126063Y-93305084D01*
X113732655Y-93556963D01*
X114389463Y-93557536D01*
X114996495Y-93306716D01*
X115461334Y-92842687D01*
X115560647Y-92603515D01*
X115799901Y-92443651D01*
X117218651Y-91024902D01*
X117383397Y-90778340D01*
X117383398Y-90778339D01*
X117441250Y-90487500D01*
X117441250Y-89807765D01*
X117729878Y-90096897D01*
X118593105Y-90455341D01*
X119527794Y-90456157D01*
X120391646Y-90099220D01*
X120683750Y-89807625D01*
X120683750Y-93606594D01*
X120462966Y-93072255D01*
X119998937Y-92607416D01*
X119392345Y-92355537D01*
X118735537Y-92354964D01*
X118128505Y-92605784D01*
X117663666Y-93069813D01*
X117411787Y-93676405D01*
X117411214Y-94333213D01*
X117662034Y-94940245D01*
X118126063Y-95405084D01*
X118732655Y-95656963D01*
X119389463Y-95657536D01*
X119996495Y-95406716D01*
X120461334Y-94942687D01*
X120683750Y-94407050D01*
X120683750Y-94935198D01*
X120175099Y-95443849D01*
X120010352Y-95690411D01*
X119952500Y-95981250D01*
X119952500Y-101238645D01*
X119811059Y-101329660D01*
X119666069Y-101541860D01*
X119615060Y-101793750D01*
X119615060Y-102993750D01*
X119659338Y-103229067D01*
X119798410Y-103445191D01*
X120010610Y-103590181D01*
X120262500Y-103641190D01*
X120683750Y-103641190D01*
X120683750Y-105454735D01*
X120395122Y-105165603D01*
X119531895Y-104807159D01*
X118597206Y-104806343D01*
X117733354Y-105163280D01*
X117441250Y-105454875D01*
X117441250Y-103641190D01*
X117862500Y-103641190D01*
X118097817Y-103596912D01*
X118313941Y-103457840D01*
X118458931Y-103245640D01*
X118509940Y-102993750D01*
X118509940Y-101793750D01*
X118465662Y-101558433D01*
X118326590Y-101342309D01*
X118114390Y-101197319D01*
X117862500Y-101146310D01*
X116962500Y-101146310D01*
X116727183Y-101190588D01*
X116511059Y-101329660D01*
X116366069Y-101541860D01*
X116315060Y-101793750D01*
X116315060Y-102416388D01*
X116143849Y-102587599D01*
X115979102Y-102834161D01*
X115921250Y-103125000D01*
X115921250Y-109222697D01*
X115292478Y-109851469D01*
X114998937Y-109557416D01*
X114392345Y-109305537D01*
X113735537Y-109304964D01*
X113128505Y-109555784D01*
X112663666Y-110019813D01*
X112411787Y-110626405D01*
X112411214Y-111283213D01*
X112662034Y-111890245D01*
X113126063Y-112355084D01*
X113732655Y-112606963D01*
X114389463Y-112607536D01*
X114996495Y-112356716D01*
X115461334Y-111892687D01*
X115560647Y-111653515D01*
X115799901Y-111493651D01*
X117218651Y-110074902D01*
X117383397Y-109828340D01*
X117383398Y-109828339D01*
X117441250Y-109537500D01*
X117441250Y-108857765D01*
X117729878Y-109146897D01*
X118593105Y-109505341D01*
X119527794Y-109506157D01*
X120391646Y-109149220D01*
X120683750Y-108857625D01*
X120683750Y-112656594D01*
X120462966Y-112122255D01*
X119998937Y-111657416D01*
X119392345Y-111405537D01*
X118735537Y-111404964D01*
X118128505Y-111655784D01*
X117663666Y-112119813D01*
X117411787Y-112726405D01*
X117411214Y-113383213D01*
X117662034Y-113990245D01*
X118126063Y-114455084D01*
X118732655Y-114706963D01*
X119389463Y-114707536D01*
X119996495Y-114456716D01*
X120461334Y-113992687D01*
X120683750Y-113457050D01*
X120683750Y-113985198D01*
X120175099Y-114493849D01*
X120010352Y-114740411D01*
X119952500Y-115031250D01*
X119952500Y-120288645D01*
X119811059Y-120379660D01*
X119666069Y-120591860D01*
X119615060Y-120843750D01*
X119615060Y-122043750D01*
X119659338Y-122279067D01*
X119798410Y-122495191D01*
X120010610Y-122640181D01*
X120262500Y-122691190D01*
X121162500Y-122691190D01*
X121397817Y-122646912D01*
X121613941Y-122507840D01*
X121758931Y-122295640D01*
X121772204Y-122230094D01*
X123152004Y-122230094D01*
X123323719Y-122645677D01*
X123641400Y-122963913D01*
X124056683Y-123136353D01*
X124506344Y-123136746D01*
X124921927Y-122965031D01*
X125240163Y-122647350D01*
X125412603Y-122232067D01*
X125412996Y-121782406D01*
X125241281Y-121366823D01*
X124923600Y-121048587D01*
X124508317Y-120876147D01*
X124058656Y-120875754D01*
X123643073Y-121047469D01*
X123324837Y-121365150D01*
X123152397Y-121780433D01*
X123152004Y-122230094D01*
X121772204Y-122230094D01*
X121809940Y-122043750D01*
X121809940Y-120843750D01*
X121765662Y-120608433D01*
X121626590Y-120392309D01*
X121472500Y-120287024D01*
X121472500Y-117963698D01*
X121946801Y-118138675D01*
X122577861Y-118113878D01*
X123045712Y-117920088D01*
X123138554Y-117658159D01*
X122200000Y-116719605D01*
X122185858Y-116733748D01*
X122006253Y-116554143D01*
X122020395Y-116540000D01*
X122379605Y-116540000D01*
X123318159Y-117478554D01*
X123403583Y-117448275D01*
X123839579Y-117885032D01*
X124422841Y-118127224D01*
X125054388Y-118127775D01*
X125638072Y-117886602D01*
X126085032Y-117440421D01*
X126327224Y-116857159D01*
X126327775Y-116225612D01*
X126086602Y-115641928D01*
X125640421Y-115194968D01*
X125629000Y-115190226D01*
X125629000Y-114097440D01*
X126050000Y-114097440D01*
X126285317Y-114053162D01*
X126501441Y-113914090D01*
X126646431Y-113701890D01*
X126697440Y-113450000D01*
X126697440Y-112350000D01*
X126653162Y-112114683D01*
X126514090Y-111898559D01*
X126301890Y-111753569D01*
X126050000Y-111702560D01*
X124950000Y-111702560D01*
X124714683Y-111746838D01*
X124498559Y-111885910D01*
X124353569Y-112098110D01*
X124302560Y-112350000D01*
X124302560Y-112840204D01*
X124111382Y-113031382D01*
X123918671Y-113319794D01*
X123851000Y-113660000D01*
X123851000Y-115189650D01*
X123841928Y-115193398D01*
X123403032Y-115631529D01*
X123318159Y-115601446D01*
X122379605Y-116540000D01*
X122020395Y-116540000D01*
X122006253Y-116525858D01*
X122185858Y-116346253D01*
X122200000Y-116360395D01*
X123138554Y-115421841D01*
X123045712Y-115159912D01*
X122453199Y-114941325D01*
X121853669Y-114964883D01*
X121981151Y-114837401D01*
X122145898Y-114590839D01*
X122203750Y-114300000D01*
X122203750Y-103180094D01*
X123152004Y-103180094D01*
X123323719Y-103595677D01*
X123641400Y-103913913D01*
X124056683Y-104086353D01*
X124506344Y-104086746D01*
X124921927Y-103915031D01*
X125240163Y-103597350D01*
X125412603Y-103182067D01*
X125412996Y-102732406D01*
X125241281Y-102316823D01*
X124923600Y-101998587D01*
X124508317Y-101826147D01*
X124058656Y-101825754D01*
X123643073Y-101997469D01*
X123324837Y-102315150D01*
X123152397Y-102730433D01*
X123152004Y-103180094D01*
X122203750Y-103180094D01*
X122203750Y-103125000D01*
X122145898Y-102834161D01*
X121981151Y-102587599D01*
X121809940Y-102416388D01*
X121809940Y-101793750D01*
X121765662Y-101558433D01*
X121626590Y-101342309D01*
X121472500Y-101237024D01*
X121472500Y-96296052D01*
X121981151Y-95787401D01*
X122145898Y-95540839D01*
X122203750Y-95250000D01*
X122203750Y-84130094D01*
X123152004Y-84130094D01*
X123323719Y-84545677D01*
X123641400Y-84863913D01*
X124056683Y-85036353D01*
X124506344Y-85036746D01*
X124921927Y-84865031D01*
X125240163Y-84547350D01*
X125412603Y-84132067D01*
X125412996Y-83682406D01*
X125241281Y-83266823D01*
X124923600Y-82948587D01*
X124508317Y-82776147D01*
X124058656Y-82775754D01*
X123643073Y-82947469D01*
X123324837Y-83265150D01*
X123152397Y-83680433D01*
X123152004Y-84130094D01*
X122203750Y-84130094D01*
X122203750Y-84075000D01*
X122145898Y-83784161D01*
X121981151Y-83537599D01*
X121809940Y-83366388D01*
X121809940Y-83355690D01*
X123424190Y-81741440D01*
X124044000Y-81741440D01*
X124279317Y-81697162D01*
X124495441Y-81558090D01*
X124640431Y-81345890D01*
X124691440Y-81094000D01*
X124691440Y-80386190D01*
X125538815Y-79538816D01*
X125611000Y-79430783D01*
X125611000Y-87053365D01*
X125405294Y-86847299D01*
X124859361Y-86620608D01*
X124268233Y-86620092D01*
X123721905Y-86845830D01*
X123303549Y-87263456D01*
X123076858Y-87809389D01*
X123076342Y-88400517D01*
X123302080Y-88946845D01*
X123719706Y-89365201D01*
X124265639Y-89591892D01*
X124856767Y-89592408D01*
X125403095Y-89366670D01*
X125611000Y-89159128D01*
X125611000Y-106103365D01*
X125405294Y-105897299D01*
X124859361Y-105670608D01*
X124268233Y-105670092D01*
X123721905Y-105895830D01*
X123303549Y-106313456D01*
X123076858Y-106859389D01*
X123076342Y-107450517D01*
X123302080Y-107996845D01*
X123719706Y-108415201D01*
X124265639Y-108641892D01*
X124856767Y-108642408D01*
X125403095Y-108416670D01*
X125611000Y-108209128D01*
X125611000Y-108631764D01*
X125340204Y-108902560D01*
X124950000Y-108902560D01*
X124714683Y-108946838D01*
X124498559Y-109085910D01*
X124353569Y-109298110D01*
X124302560Y-109550000D01*
X124302560Y-110650000D01*
X124346838Y-110885317D01*
X124485910Y-111101441D01*
X124698110Y-111246431D01*
X124950000Y-111297440D01*
X126050000Y-111297440D01*
X126285317Y-111253162D01*
X126501441Y-111114090D01*
X126646431Y-110901890D01*
X126697440Y-110650000D01*
X126697440Y-110059796D01*
X127128618Y-109628618D01*
X127321330Y-109340205D01*
X127389000Y-109000000D01*
X127389000Y-72909055D01*
X127477730Y-72695370D01*
X127478069Y-72306337D01*
X127329507Y-71946788D01*
X127054659Y-71671460D01*
X126695370Y-71522270D01*
X126306337Y-71521931D01*
X125946788Y-71670493D01*
X125762000Y-71854959D01*
X125762000Y-67500000D01*
X125703996Y-67208395D01*
X125637834Y-67109377D01*
X125538816Y-66961185D01*
X124357102Y-65779472D01*
X124856767Y-65779908D01*
X125403095Y-65554170D01*
X125821451Y-65136544D01*
X126048142Y-64590611D01*
X126048658Y-63999483D01*
X125822920Y-63453155D01*
X125405294Y-63034799D01*
X124859361Y-62808108D01*
X124268233Y-62807592D01*
X123721905Y-63033330D01*
X123303549Y-63450956D01*
X123076858Y-63996889D01*
X123076420Y-64498790D01*
X122762000Y-64184370D01*
X122762000Y-60317594D01*
X123152004Y-60317594D01*
X123323719Y-60733177D01*
X123641400Y-61051413D01*
X124056683Y-61223853D01*
X124506344Y-61224246D01*
X124921927Y-61052531D01*
X125240163Y-60734850D01*
X125412603Y-60319567D01*
X125412996Y-59869906D01*
X125241281Y-59454323D01*
X124923600Y-59136087D01*
X124508317Y-58963647D01*
X124058656Y-58963254D01*
X123643073Y-59134969D01*
X123324837Y-59452650D01*
X123152397Y-59867933D01*
X123152004Y-60317594D01*
X122762000Y-60317594D01*
X122762000Y-59830000D01*
X122703996Y-59538395D01*
X122646703Y-59452650D01*
X122538815Y-59291184D01*
X118984574Y-55736943D01*
X119326661Y-55737242D01*
X119840303Y-55525010D01*
X120233629Y-55132370D01*
X120446757Y-54619100D01*
X120447242Y-54063339D01*
X120235010Y-53549697D01*
X119842370Y-53156371D01*
X119700593Y-53097500D01*
X127877500Y-53097500D01*
X127877500Y-135021250D01*
X72147500Y-135021250D01*
X72147500Y-126500517D01*
X73976342Y-126500517D01*
X74202080Y-127046845D01*
X74619706Y-127465201D01*
X75165639Y-127691892D01*
X75756767Y-127692408D01*
X76303095Y-127466670D01*
X76721451Y-127049044D01*
X76948142Y-126503111D01*
X76948658Y-125911983D01*
X76722920Y-125365655D01*
X76305294Y-124947299D01*
X75759361Y-124720608D01*
X75168233Y-124720092D01*
X74621905Y-124945830D01*
X74203549Y-125363456D01*
X73976858Y-125909389D01*
X73976342Y-126500517D01*
X72147500Y-126500517D01*
X72147500Y-118118159D01*
X74411446Y-118118159D01*
X74504288Y-118380088D01*
X75096801Y-118598675D01*
X75727861Y-118573878D01*
X76195712Y-118380088D01*
X76288554Y-118118159D01*
X75350000Y-117179605D01*
X74411446Y-118118159D01*
X72147500Y-118118159D01*
X72147500Y-116746801D01*
X73751325Y-116746801D01*
X73776122Y-117377861D01*
X73969912Y-117845712D01*
X74231841Y-117938554D01*
X75170395Y-117000000D01*
X75529605Y-117000000D01*
X76468159Y-117938554D01*
X76730088Y-117845712D01*
X76926101Y-117314388D01*
X79062225Y-117314388D01*
X79303398Y-117898072D01*
X79749579Y-118345032D01*
X80332841Y-118587224D01*
X80964388Y-118587775D01*
X81548072Y-118346602D01*
X81995032Y-117900421D01*
X82237224Y-117317159D01*
X82237775Y-116685612D01*
X81996602Y-116101928D01*
X81550421Y-115654968D01*
X80967159Y-115412776D01*
X80335612Y-115412225D01*
X79751928Y-115653398D01*
X79304968Y-116099579D01*
X79062776Y-116682841D01*
X79062225Y-117314388D01*
X76926101Y-117314388D01*
X76948675Y-117253199D01*
X76923878Y-116622139D01*
X76730088Y-116154288D01*
X76468159Y-116061446D01*
X75529605Y-117000000D01*
X75170395Y-117000000D01*
X74231841Y-116061446D01*
X73969912Y-116154288D01*
X73751325Y-116746801D01*
X72147500Y-116746801D01*
X72147500Y-115881841D01*
X74411446Y-115881841D01*
X75350000Y-116820395D01*
X76288554Y-115881841D01*
X76195712Y-115619912D01*
X75603199Y-115401325D01*
X74972139Y-115426122D01*
X74504288Y-115619912D01*
X74411446Y-115881841D01*
X72147500Y-115881841D01*
X72147500Y-113383213D01*
X79311214Y-113383213D01*
X79562034Y-113990245D01*
X80026063Y-114455084D01*
X80632655Y-114706963D01*
X81289463Y-114707536D01*
X81896495Y-114456716D01*
X82361334Y-113992687D01*
X82613213Y-113386095D01*
X82613786Y-112729287D01*
X82362966Y-112122255D01*
X81898937Y-111657416D01*
X81292345Y-111405537D01*
X80635537Y-111404964D01*
X80028505Y-111655784D01*
X79563666Y-112119813D01*
X79311787Y-112726405D01*
X79311214Y-113383213D01*
X72147500Y-113383213D01*
X72147500Y-107450517D01*
X73976342Y-107450517D01*
X74202080Y-107996845D01*
X74619706Y-108415201D01*
X75165639Y-108641892D01*
X75756767Y-108642408D01*
X76303095Y-108416670D01*
X76721451Y-107999044D01*
X76948142Y-107453111D01*
X76948658Y-106861983D01*
X76722920Y-106315655D01*
X76305294Y-105897299D01*
X75759361Y-105670608D01*
X75168233Y-105670092D01*
X74621905Y-105895830D01*
X74203549Y-106313456D01*
X73976858Y-106859389D01*
X73976342Y-107450517D01*
X72147500Y-107450517D01*
X72147500Y-88400517D01*
X73976342Y-88400517D01*
X74202080Y-88946845D01*
X74619706Y-89365201D01*
X75165639Y-89591892D01*
X75756767Y-89592408D01*
X76303095Y-89366670D01*
X76721451Y-88949044D01*
X76948142Y-88403111D01*
X76948658Y-87811983D01*
X76722920Y-87265655D01*
X76305294Y-86847299D01*
X75759361Y-86620608D01*
X75168233Y-86620092D01*
X74621905Y-86845830D01*
X74203549Y-87263456D01*
X73976858Y-87809389D01*
X73976342Y-88400517D01*
X72147500Y-88400517D01*
X72147500Y-68420713D01*
X74311214Y-68420713D01*
X74562034Y-69027745D01*
X75026063Y-69492584D01*
X75200500Y-69565017D01*
X75200500Y-77994500D01*
X75258504Y-78286105D01*
X75362296Y-78441440D01*
X75423685Y-78533315D01*
X78215060Y-81324690D01*
X78215060Y-81562500D01*
X78259338Y-81797817D01*
X78398410Y-82013941D01*
X78604823Y-82154977D01*
X78411059Y-82279660D01*
X78266069Y-82491860D01*
X78215060Y-82743750D01*
X78215060Y-83366388D01*
X78043849Y-83537599D01*
X77879102Y-83784161D01*
X77821250Y-84075000D01*
X77821250Y-90172697D01*
X77192478Y-90801469D01*
X76898937Y-90507416D01*
X76292345Y-90255537D01*
X75635537Y-90254964D01*
X75028505Y-90505784D01*
X74563666Y-90969813D01*
X74311787Y-91576405D01*
X74311214Y-92233213D01*
X74562034Y-92840245D01*
X75026063Y-93305084D01*
X75632655Y-93556963D01*
X76289463Y-93557536D01*
X76896495Y-93306716D01*
X77361334Y-92842687D01*
X77460647Y-92603515D01*
X77699901Y-92443651D01*
X79118651Y-91024902D01*
X79283397Y-90778340D01*
X79283398Y-90778339D01*
X79341250Y-90487500D01*
X79341250Y-89807765D01*
X79629878Y-90096897D01*
X80493105Y-90455341D01*
X81427794Y-90456157D01*
X82291646Y-90099220D01*
X82583750Y-89807625D01*
X82583750Y-93606594D01*
X82362966Y-93072255D01*
X81898937Y-92607416D01*
X81292345Y-92355537D01*
X80635537Y-92354964D01*
X80028505Y-92605784D01*
X79563666Y-93069813D01*
X79311787Y-93676405D01*
X79311214Y-94333213D01*
X79562034Y-94940245D01*
X80026063Y-95405084D01*
X80632655Y-95656963D01*
X81289463Y-95657536D01*
X81896495Y-95406716D01*
X82361334Y-94942687D01*
X82583750Y-94407050D01*
X82583750Y-94935198D01*
X82075099Y-95443849D01*
X81910352Y-95690411D01*
X81852500Y-95981250D01*
X81852500Y-101238645D01*
X81711059Y-101329660D01*
X81566069Y-101541860D01*
X81515060Y-101793750D01*
X81515060Y-102993750D01*
X81559338Y-103229067D01*
X81698410Y-103445191D01*
X81910610Y-103590181D01*
X82162500Y-103641190D01*
X82782309Y-103641190D01*
X83238000Y-104096881D01*
X83238000Y-106510878D01*
X82955470Y-105827104D01*
X82295122Y-105165603D01*
X81431895Y-104807159D01*
X80497206Y-104806343D01*
X79633354Y-105163280D01*
X79341250Y-105454875D01*
X79341250Y-103641190D01*
X79762500Y-103641190D01*
X79997817Y-103596912D01*
X80213941Y-103457840D01*
X80358931Y-103245640D01*
X80409940Y-102993750D01*
X80409940Y-101793750D01*
X80365662Y-101558433D01*
X80226590Y-101342309D01*
X80014390Y-101197319D01*
X79762500Y-101146310D01*
X78862500Y-101146310D01*
X78627183Y-101190588D01*
X78411059Y-101329660D01*
X78266069Y-101541860D01*
X78215060Y-101793750D01*
X78215060Y-102416388D01*
X78043849Y-102587599D01*
X77879102Y-102834161D01*
X77821250Y-103125000D01*
X77821250Y-109222697D01*
X77192478Y-109851469D01*
X76898937Y-109557416D01*
X76292345Y-109305537D01*
X75635537Y-109304964D01*
X75028505Y-109555784D01*
X74563666Y-110019813D01*
X74311787Y-110626405D01*
X74311214Y-111283213D01*
X74562034Y-111890245D01*
X75026063Y-112355084D01*
X75632655Y-112606963D01*
X76289463Y-112607536D01*
X76896495Y-112356716D01*
X77361334Y-111892687D01*
X77460647Y-111653515D01*
X77699901Y-111493651D01*
X79118651Y-110074902D01*
X79283397Y-109828340D01*
X79283398Y-109828339D01*
X79341250Y-109537500D01*
X79341250Y-108857765D01*
X79629878Y-109146897D01*
X80493105Y-109505341D01*
X81427794Y-109506157D01*
X82291646Y-109149220D01*
X82953147Y-108488872D01*
X83238000Y-107802871D01*
X83238000Y-125560878D01*
X82955470Y-124877104D01*
X82295122Y-124215603D01*
X81431895Y-123857159D01*
X80497206Y-123856343D01*
X79633354Y-124213280D01*
X78971853Y-124873628D01*
X78613409Y-125736855D01*
X78612593Y-126671544D01*
X78969530Y-127535396D01*
X79629878Y-128196897D01*
X80493105Y-128555341D01*
X81427794Y-128556157D01*
X82291646Y-128199220D01*
X82953147Y-127538872D01*
X83238000Y-126852871D01*
X83238000Y-127000000D01*
X83296004Y-127291605D01*
X83409314Y-127461185D01*
X83461185Y-127538815D01*
X84461185Y-128538816D01*
X84708396Y-128703997D01*
X85000000Y-128762000D01*
X85849831Y-128762000D01*
X85664683Y-128796838D01*
X85448559Y-128935910D01*
X85303569Y-129148110D01*
X85284100Y-129244250D01*
X77434033Y-129244250D01*
X77362966Y-129072255D01*
X76898937Y-128607416D01*
X76292345Y-128355537D01*
X75635537Y-128354964D01*
X75028505Y-128605784D01*
X74563666Y-129069813D01*
X74311787Y-129676405D01*
X74311214Y-130333213D01*
X74562034Y-130940245D01*
X75026063Y-131405084D01*
X75632655Y-131656963D01*
X76289463Y-131657536D01*
X76896495Y-131406716D01*
X77361334Y-130942687D01*
X77433767Y-130768250D01*
X79965930Y-130768250D01*
X79563666Y-131169813D01*
X79311787Y-131776405D01*
X79311214Y-132433213D01*
X79562034Y-133040245D01*
X80026063Y-133505084D01*
X80632655Y-133756963D01*
X81289463Y-133757536D01*
X81896495Y-133506716D01*
X82361334Y-133042687D01*
X82613213Y-132436095D01*
X82613215Y-132433213D01*
X98361214Y-132433213D01*
X98612034Y-133040245D01*
X99076063Y-133505084D01*
X99682655Y-133756963D01*
X100339463Y-133757536D01*
X100946495Y-133506716D01*
X101411334Y-133042687D01*
X101663213Y-132436095D01*
X101663215Y-132433213D01*
X117411214Y-132433213D01*
X117662034Y-133040245D01*
X118126063Y-133505084D01*
X118732655Y-133756963D01*
X119389463Y-133757536D01*
X119996495Y-133506716D01*
X120461334Y-133042687D01*
X120713213Y-132436095D01*
X120713786Y-131779287D01*
X120462966Y-131172255D01*
X119998937Y-130707416D01*
X119392345Y-130455537D01*
X118735537Y-130454964D01*
X118128505Y-130705784D01*
X117663666Y-131169813D01*
X117411787Y-131776405D01*
X117411214Y-132433213D01*
X101663215Y-132433213D01*
X101663786Y-131779287D01*
X101412966Y-131172255D01*
X100948937Y-130707416D01*
X100342345Y-130455537D01*
X99685537Y-130454964D01*
X99078505Y-130705784D01*
X98613666Y-131169813D01*
X98361787Y-131776405D01*
X98361214Y-132433213D01*
X82613215Y-132433213D01*
X82613786Y-131779287D01*
X82362966Y-131172255D01*
X81959665Y-130768250D01*
X85284218Y-130768250D01*
X85296838Y-130835317D01*
X85435910Y-131051441D01*
X85648110Y-131196431D01*
X85900000Y-131247440D01*
X86800000Y-131247440D01*
X87035317Y-131203162D01*
X87251441Y-131064090D01*
X87396431Y-130851890D01*
X87447440Y-130600000D01*
X87447440Y-129525070D01*
X88461185Y-130538815D01*
X88552560Y-130599870D01*
X88552560Y-130600000D01*
X88596838Y-130835317D01*
X88735910Y-131051441D01*
X88948110Y-131196431D01*
X89200000Y-131247440D01*
X90100000Y-131247440D01*
X90335317Y-131203162D01*
X90551441Y-131064090D01*
X90696431Y-130851890D01*
X90747440Y-130600000D01*
X90747440Y-130333213D01*
X93361214Y-130333213D01*
X93612034Y-130940245D01*
X94076063Y-131405084D01*
X94682655Y-131656963D01*
X95339463Y-131657536D01*
X95946495Y-131406716D01*
X96411334Y-130942687D01*
X96510647Y-130703515D01*
X96749901Y-130543651D01*
X96960339Y-130333213D01*
X112411214Y-130333213D01*
X112662034Y-130940245D01*
X113126063Y-131405084D01*
X113732655Y-131656963D01*
X114389463Y-131657536D01*
X114996495Y-131406716D01*
X115461334Y-130942687D01*
X115560647Y-130703515D01*
X115799901Y-130543651D01*
X117218651Y-129124902D01*
X117344930Y-128935910D01*
X117383398Y-128878339D01*
X117441250Y-128587500D01*
X117441250Y-127907765D01*
X117729878Y-128196897D01*
X118593105Y-128555341D01*
X119527794Y-128556157D01*
X120391646Y-128199220D01*
X121053147Y-127538872D01*
X121411591Y-126675645D01*
X121411743Y-126500517D01*
X123076342Y-126500517D01*
X123302080Y-127046845D01*
X123719706Y-127465201D01*
X124265639Y-127691892D01*
X124856767Y-127692408D01*
X125403095Y-127466670D01*
X125821451Y-127049044D01*
X126048142Y-126503111D01*
X126048658Y-125911983D01*
X125822920Y-125365655D01*
X125405294Y-124947299D01*
X124859361Y-124720608D01*
X124268233Y-124720092D01*
X123721905Y-124945830D01*
X123303549Y-125363456D01*
X123076858Y-125909389D01*
X123076342Y-126500517D01*
X121411743Y-126500517D01*
X121412407Y-125740956D01*
X121055470Y-124877104D01*
X120395122Y-124215603D01*
X119531895Y-123857159D01*
X118597206Y-123856343D01*
X117733354Y-124213280D01*
X117441250Y-124504875D01*
X117441250Y-122691190D01*
X117862500Y-122691190D01*
X118097817Y-122646912D01*
X118313941Y-122507840D01*
X118458931Y-122295640D01*
X118509940Y-122043750D01*
X118509940Y-120843750D01*
X118465662Y-120608433D01*
X118326590Y-120392309D01*
X118114390Y-120247319D01*
X117862500Y-120196310D01*
X116962500Y-120196310D01*
X116727183Y-120240588D01*
X116511059Y-120379660D01*
X116366069Y-120591860D01*
X116315060Y-120843750D01*
X116315060Y-121466388D01*
X116143849Y-121637599D01*
X115979102Y-121884161D01*
X115921250Y-122175000D01*
X115921250Y-128272697D01*
X115292478Y-128901469D01*
X114998937Y-128607416D01*
X114392345Y-128355537D01*
X113735537Y-128354964D01*
X113128505Y-128605784D01*
X112663666Y-129069813D01*
X112411787Y-129676405D01*
X112411214Y-130333213D01*
X96960339Y-130333213D01*
X98168651Y-129124902D01*
X98294930Y-128935910D01*
X98333398Y-128878339D01*
X98391250Y-128587500D01*
X98391250Y-127907765D01*
X98679878Y-128196897D01*
X99543105Y-128555341D01*
X100477794Y-128556157D01*
X101341646Y-128199220D01*
X102003147Y-127538872D01*
X102361591Y-126675645D01*
X102361743Y-126500517D01*
X104026342Y-126500517D01*
X104252080Y-127046845D01*
X104669706Y-127465201D01*
X105215639Y-127691892D01*
X105806767Y-127692408D01*
X106353095Y-127466670D01*
X106771451Y-127049044D01*
X106998142Y-126503111D01*
X106998144Y-126500517D01*
X112076342Y-126500517D01*
X112302080Y-127046845D01*
X112719706Y-127465201D01*
X113265639Y-127691892D01*
X113856767Y-127692408D01*
X114403095Y-127466670D01*
X114821451Y-127049044D01*
X115048142Y-126503111D01*
X115048658Y-125911983D01*
X114822920Y-125365655D01*
X114405294Y-124947299D01*
X113859361Y-124720608D01*
X113268233Y-124720092D01*
X112721905Y-124945830D01*
X112303549Y-125363456D01*
X112076858Y-125909389D01*
X112076342Y-126500517D01*
X106998144Y-126500517D01*
X106998658Y-125911983D01*
X106772920Y-125365655D01*
X106355294Y-124947299D01*
X105809361Y-124720608D01*
X105218233Y-124720092D01*
X104671905Y-124945830D01*
X104253549Y-125363456D01*
X104026858Y-125909389D01*
X104026342Y-126500517D01*
X102361743Y-126500517D01*
X102362407Y-125740956D01*
X102005470Y-124877104D01*
X101345122Y-124215603D01*
X100481895Y-123857159D01*
X99547206Y-123856343D01*
X98683354Y-124213280D01*
X98391250Y-124504875D01*
X98391250Y-122691190D01*
X98812500Y-122691190D01*
X99047817Y-122646912D01*
X99263941Y-122507840D01*
X99408931Y-122295640D01*
X99459940Y-122043750D01*
X99459940Y-120843750D01*
X99415662Y-120608433D01*
X99276590Y-120392309D01*
X99064390Y-120247319D01*
X98812500Y-120196310D01*
X97912500Y-120196310D01*
X97677183Y-120240588D01*
X97461059Y-120379660D01*
X97316069Y-120591860D01*
X97265060Y-120843750D01*
X97265060Y-121466388D01*
X97093849Y-121637599D01*
X96929102Y-121884161D01*
X96871250Y-122175000D01*
X96871250Y-128272697D01*
X96242478Y-128901469D01*
X95948937Y-128607416D01*
X95342345Y-128355537D01*
X94685537Y-128354964D01*
X94078505Y-128605784D01*
X93613666Y-129069813D01*
X93361787Y-129676405D01*
X93361214Y-130333213D01*
X90747440Y-130333213D01*
X90747440Y-129400000D01*
X90703162Y-129164683D01*
X90564090Y-128948559D01*
X90351890Y-128803569D01*
X90100000Y-128752560D01*
X89200000Y-128752560D01*
X88964683Y-128796838D01*
X88909790Y-128832160D01*
X87538815Y-127461185D01*
X87400902Y-127369034D01*
X87721451Y-127049044D01*
X87948142Y-126503111D01*
X87948144Y-126500517D01*
X93026342Y-126500517D01*
X93252080Y-127046845D01*
X93669706Y-127465201D01*
X94215639Y-127691892D01*
X94806767Y-127692408D01*
X95353095Y-127466670D01*
X95771451Y-127049044D01*
X95998142Y-126503111D01*
X95998658Y-125911983D01*
X95772920Y-125365655D01*
X95355294Y-124947299D01*
X94809361Y-124720608D01*
X94218233Y-124720092D01*
X93671905Y-124945830D01*
X93253549Y-125363456D01*
X93026858Y-125909389D01*
X93026342Y-126500517D01*
X87948144Y-126500517D01*
X87948658Y-125911983D01*
X87722920Y-125365655D01*
X87305294Y-124947299D01*
X86759361Y-124720608D01*
X86168233Y-124720092D01*
X85621905Y-124945830D01*
X85203549Y-125363456D01*
X84976858Y-125909389D01*
X84976342Y-126500517D01*
X85202080Y-127046845D01*
X85392901Y-127238000D01*
X85315631Y-127238000D01*
X84762000Y-126684370D01*
X84762000Y-122230094D01*
X85052004Y-122230094D01*
X85223719Y-122645677D01*
X85541400Y-122963913D01*
X85956683Y-123136353D01*
X86406344Y-123136746D01*
X86821927Y-122965031D01*
X87140163Y-122647350D01*
X87312603Y-122232067D01*
X87312996Y-121782406D01*
X87141281Y-121366823D01*
X86823600Y-121048587D01*
X86408317Y-120876147D01*
X85958656Y-120875754D01*
X85543073Y-121047469D01*
X85224837Y-121365150D01*
X85052397Y-121780433D01*
X85052004Y-122230094D01*
X84762000Y-122230094D01*
X84762000Y-103781250D01*
X84703996Y-103489645D01*
X84540957Y-103245640D01*
X84538815Y-103242434D01*
X84476475Y-103180094D01*
X85052004Y-103180094D01*
X85223719Y-103595677D01*
X85541400Y-103913913D01*
X85956683Y-104086353D01*
X86406344Y-104086746D01*
X86821927Y-103915031D01*
X87140163Y-103597350D01*
X87312603Y-103182067D01*
X87312996Y-102732406D01*
X87141281Y-102316823D01*
X86823600Y-101998587D01*
X86408317Y-101826147D01*
X85958656Y-101825754D01*
X85543073Y-101997469D01*
X85224837Y-102315150D01*
X85052397Y-102730433D01*
X85052004Y-103180094D01*
X84476475Y-103180094D01*
X83709940Y-102413560D01*
X83709940Y-101793750D01*
X83665662Y-101558433D01*
X83526590Y-101342309D01*
X83372500Y-101237024D01*
X83372500Y-96296052D01*
X83881151Y-95787401D01*
X84045898Y-95540839D01*
X84103750Y-95250000D01*
X84103750Y-88400517D01*
X84976342Y-88400517D01*
X85202080Y-88946845D01*
X85619706Y-89365201D01*
X86165639Y-89591892D01*
X86756767Y-89592408D01*
X87303095Y-89366670D01*
X87721451Y-88949044D01*
X87738000Y-88909190D01*
X87738000Y-106352151D01*
X87722920Y-106315655D01*
X87305294Y-105897299D01*
X86759361Y-105670608D01*
X86168233Y-105670092D01*
X85621905Y-105895830D01*
X85203549Y-106313456D01*
X84976858Y-106859389D01*
X84976342Y-107450517D01*
X85202080Y-107996845D01*
X85619706Y-108415201D01*
X86165639Y-108641892D01*
X86756767Y-108642408D01*
X87303095Y-108416670D01*
X87721451Y-107999044D01*
X87738000Y-107959190D01*
X87738000Y-115684369D01*
X87400357Y-116022013D01*
X87306337Y-116021931D01*
X86946788Y-116170493D01*
X86671460Y-116445341D01*
X86522270Y-116804630D01*
X86521931Y-117193663D01*
X86670493Y-117553212D01*
X86945341Y-117828540D01*
X87304630Y-117977730D01*
X87693663Y-117978069D01*
X88053212Y-117829507D01*
X88328540Y-117554659D01*
X88477730Y-117195370D01*
X88477813Y-117099817D01*
X89038816Y-116538815D01*
X89203997Y-116291604D01*
X89262000Y-116000000D01*
X89262000Y-107450517D01*
X93026342Y-107450517D01*
X93252080Y-107996845D01*
X93669706Y-108415201D01*
X94215639Y-108641892D01*
X94806767Y-108642408D01*
X95353095Y-108416670D01*
X95771451Y-107999044D01*
X95998142Y-107453111D01*
X95998658Y-106861983D01*
X95772920Y-106315655D01*
X95355294Y-105897299D01*
X94809361Y-105670608D01*
X94218233Y-105670092D01*
X93671905Y-105895830D01*
X93253549Y-106313456D01*
X93026858Y-106859389D01*
X93026342Y-107450517D01*
X89262000Y-107450517D01*
X89262000Y-88400517D01*
X93026342Y-88400517D01*
X93252080Y-88946845D01*
X93669706Y-89365201D01*
X94215639Y-89591892D01*
X94806767Y-89592408D01*
X95353095Y-89366670D01*
X95771451Y-88949044D01*
X95998142Y-88403111D01*
X95998658Y-87811983D01*
X95772920Y-87265655D01*
X95355294Y-86847299D01*
X94809361Y-86620608D01*
X94218233Y-86620092D01*
X93671905Y-86845830D01*
X93253549Y-87263456D01*
X93026858Y-87809389D01*
X93026342Y-88400517D01*
X89262000Y-88400517D01*
X89262000Y-85621083D01*
X89328540Y-85554659D01*
X89477730Y-85195370D01*
X89478069Y-84806337D01*
X89329507Y-84446788D01*
X89054659Y-84171460D01*
X88695370Y-84022270D01*
X88306337Y-84021931D01*
X87946788Y-84170493D01*
X87671460Y-84445341D01*
X87522270Y-84804630D01*
X87521931Y-85193663D01*
X87670493Y-85553212D01*
X87738000Y-85620837D01*
X87738000Y-87302151D01*
X87722920Y-87265655D01*
X87305294Y-86847299D01*
X86759361Y-86620608D01*
X86168233Y-86620092D01*
X85621905Y-86845830D01*
X85203549Y-87263456D01*
X84976858Y-87809389D01*
X84976342Y-88400517D01*
X84103750Y-88400517D01*
X84103750Y-84130094D01*
X85052004Y-84130094D01*
X85223719Y-84545677D01*
X85541400Y-84863913D01*
X85956683Y-85036353D01*
X86406344Y-85036746D01*
X86821927Y-84865031D01*
X87140163Y-84547350D01*
X87312603Y-84132067D01*
X87312996Y-83682406D01*
X87141281Y-83266823D01*
X86823600Y-82948587D01*
X86408317Y-82776147D01*
X85958656Y-82775754D01*
X85543073Y-82947469D01*
X85224837Y-83265150D01*
X85052397Y-83680433D01*
X85052004Y-84130094D01*
X84103750Y-84130094D01*
X84103750Y-84075000D01*
X84045898Y-83784161D01*
X83881151Y-83537599D01*
X83709940Y-83366388D01*
X83709940Y-82743750D01*
X83665662Y-82508433D01*
X83526590Y-82292309D01*
X83374500Y-82188390D01*
X83374500Y-82116318D01*
X83513941Y-82026590D01*
X83658931Y-81814390D01*
X83677134Y-81724500D01*
X90055543Y-81724500D01*
X90022270Y-81804630D01*
X90021931Y-82193663D01*
X90170493Y-82553212D01*
X90445341Y-82828540D01*
X90804630Y-82977730D01*
X91193663Y-82978069D01*
X91553212Y-82829507D01*
X91620837Y-82762000D01*
X97265060Y-82762000D01*
X97265060Y-83366388D01*
X97093849Y-83537599D01*
X96929102Y-83784161D01*
X96871250Y-84075000D01*
X96871250Y-90172697D01*
X96242478Y-90801469D01*
X95948937Y-90507416D01*
X95342345Y-90255537D01*
X94685537Y-90254964D01*
X94078505Y-90505784D01*
X93613666Y-90969813D01*
X93361787Y-91576405D01*
X93361214Y-92233213D01*
X93612034Y-92840245D01*
X94076063Y-93305084D01*
X94682655Y-93556963D01*
X95339463Y-93557536D01*
X95946495Y-93306716D01*
X96411334Y-92842687D01*
X96510647Y-92603515D01*
X96749901Y-92443651D01*
X98168651Y-91024902D01*
X98333397Y-90778340D01*
X98333398Y-90778339D01*
X98391250Y-90487500D01*
X98391250Y-89807765D01*
X98679878Y-90096897D01*
X99543105Y-90455341D01*
X100477794Y-90456157D01*
X101341646Y-90099220D01*
X101633750Y-89807625D01*
X101633750Y-93606594D01*
X101412966Y-93072255D01*
X100948937Y-92607416D01*
X100342345Y-92355537D01*
X99685537Y-92354964D01*
X99078505Y-92605784D01*
X98613666Y-93069813D01*
X98361787Y-93676405D01*
X98361214Y-94333213D01*
X98612034Y-94940245D01*
X99076063Y-95405084D01*
X99682655Y-95656963D01*
X100339463Y-95657536D01*
X100946495Y-95406716D01*
X101411334Y-94942687D01*
X101633750Y-94407050D01*
X101633750Y-94935198D01*
X101125099Y-95443849D01*
X100960352Y-95690411D01*
X100902500Y-95981250D01*
X100902500Y-101238645D01*
X100761059Y-101329660D01*
X100616069Y-101541860D01*
X100565060Y-101793750D01*
X100565060Y-102993750D01*
X100609338Y-103229067D01*
X100748410Y-103445191D01*
X100960610Y-103590181D01*
X101212500Y-103641190D01*
X101633750Y-103641190D01*
X101633750Y-105454735D01*
X101345122Y-105165603D01*
X100481895Y-104807159D01*
X99547206Y-104806343D01*
X98683354Y-105163280D01*
X98391250Y-105454875D01*
X98391250Y-103641190D01*
X98812500Y-103641190D01*
X99047817Y-103596912D01*
X99263941Y-103457840D01*
X99408931Y-103245640D01*
X99459940Y-102993750D01*
X99459940Y-101793750D01*
X99415662Y-101558433D01*
X99276590Y-101342309D01*
X99064390Y-101197319D01*
X98812500Y-101146310D01*
X97912500Y-101146310D01*
X97677183Y-101190588D01*
X97461059Y-101329660D01*
X97316069Y-101541860D01*
X97265060Y-101793750D01*
X97265060Y-102416388D01*
X97093849Y-102587599D01*
X96929102Y-102834161D01*
X96871250Y-103125000D01*
X96871250Y-109222697D01*
X96242478Y-109851469D01*
X95948937Y-109557416D01*
X95342345Y-109305537D01*
X94685537Y-109304964D01*
X94078505Y-109555784D01*
X93613666Y-110019813D01*
X93361787Y-110626405D01*
X93361214Y-111283213D01*
X93612034Y-111890245D01*
X94076063Y-112355084D01*
X94682655Y-112606963D01*
X95339463Y-112607536D01*
X95946495Y-112356716D01*
X96411334Y-111892687D01*
X96510647Y-111653515D01*
X96749901Y-111493651D01*
X98168651Y-110074902D01*
X98333397Y-109828340D01*
X98333398Y-109828339D01*
X98391250Y-109537500D01*
X98391250Y-108857765D01*
X98679878Y-109146897D01*
X99543105Y-109505341D01*
X100477794Y-109506157D01*
X101341646Y-109149220D01*
X101633750Y-108857625D01*
X101633750Y-112656594D01*
X101412966Y-112122255D01*
X100948937Y-111657416D01*
X100342345Y-111405537D01*
X99685537Y-111404964D01*
X99078505Y-111655784D01*
X98613666Y-112119813D01*
X98361787Y-112726405D01*
X98361214Y-113383213D01*
X98612034Y-113990245D01*
X99076063Y-114455084D01*
X99682655Y-114706963D01*
X100339463Y-114707536D01*
X100946495Y-114456716D01*
X101411334Y-113992687D01*
X101633750Y-113457050D01*
X101633750Y-113985198D01*
X101125099Y-114493849D01*
X100960352Y-114740411D01*
X100902500Y-115031250D01*
X100902500Y-120288645D01*
X100761059Y-120379660D01*
X100616069Y-120591860D01*
X100565060Y-120843750D01*
X100565060Y-122043750D01*
X100609338Y-122279067D01*
X100748410Y-122495191D01*
X100960610Y-122640181D01*
X101212500Y-122691190D01*
X102112500Y-122691190D01*
X102347817Y-122646912D01*
X102563941Y-122507840D01*
X102708931Y-122295640D01*
X102722204Y-122230094D01*
X104102004Y-122230094D01*
X104273719Y-122645677D01*
X104591400Y-122963913D01*
X105006683Y-123136353D01*
X105456344Y-123136746D01*
X105871927Y-122965031D01*
X106190163Y-122647350D01*
X106362603Y-122232067D01*
X106362996Y-121782406D01*
X106191281Y-121366823D01*
X105873600Y-121048587D01*
X105458317Y-120876147D01*
X105008656Y-120875754D01*
X104593073Y-121047469D01*
X104274837Y-121365150D01*
X104102397Y-121780433D01*
X104102004Y-122230094D01*
X102722204Y-122230094D01*
X102759940Y-122043750D01*
X102759940Y-120843750D01*
X102715662Y-120608433D01*
X102576590Y-120392309D01*
X102422500Y-120287024D01*
X102422500Y-115346052D01*
X102931151Y-114837401D01*
X103095898Y-114590839D01*
X103153750Y-114300000D01*
X103153750Y-107450517D01*
X104026342Y-107450517D01*
X104252080Y-107996845D01*
X104669706Y-108415201D01*
X105215639Y-108641892D01*
X105806767Y-108642408D01*
X106353095Y-108416670D01*
X106771451Y-107999044D01*
X106998142Y-107453111D01*
X106998144Y-107450517D01*
X112076342Y-107450517D01*
X112302080Y-107996845D01*
X112719706Y-108415201D01*
X113265639Y-108641892D01*
X113856767Y-108642408D01*
X114403095Y-108416670D01*
X114821451Y-107999044D01*
X115048142Y-107453111D01*
X115048658Y-106861983D01*
X114822920Y-106315655D01*
X114405294Y-105897299D01*
X113859361Y-105670608D01*
X113268233Y-105670092D01*
X112721905Y-105895830D01*
X112303549Y-106313456D01*
X112076858Y-106859389D01*
X112076342Y-107450517D01*
X106998144Y-107450517D01*
X106998658Y-106861983D01*
X106772920Y-106315655D01*
X106355294Y-105897299D01*
X105809361Y-105670608D01*
X105218233Y-105670092D01*
X104671905Y-105895830D01*
X104253549Y-106313456D01*
X104026858Y-106859389D01*
X104026342Y-107450517D01*
X103153750Y-107450517D01*
X103153750Y-103180094D01*
X104102004Y-103180094D01*
X104273719Y-103595677D01*
X104591400Y-103913913D01*
X105006683Y-104086353D01*
X105456344Y-104086746D01*
X105871927Y-103915031D01*
X106190163Y-103597350D01*
X106362603Y-103182067D01*
X106362996Y-102732406D01*
X106191281Y-102316823D01*
X105873600Y-101998587D01*
X105458317Y-101826147D01*
X105008656Y-101825754D01*
X104593073Y-101997469D01*
X104274837Y-102315150D01*
X104102397Y-102730433D01*
X104102004Y-103180094D01*
X103153750Y-103180094D01*
X103153750Y-103125000D01*
X103095898Y-102834161D01*
X102931151Y-102587599D01*
X102759940Y-102416388D01*
X102759940Y-101793750D01*
X102715662Y-101558433D01*
X102576590Y-101342309D01*
X102422500Y-101237024D01*
X102422500Y-96296052D01*
X102931151Y-95787401D01*
X103095898Y-95540839D01*
X103153750Y-95250000D01*
X103153750Y-88400517D01*
X104026342Y-88400517D01*
X104252080Y-88946845D01*
X104669706Y-89365201D01*
X105215639Y-89591892D01*
X105806767Y-89592408D01*
X106353095Y-89366670D01*
X106771451Y-88949044D01*
X106998142Y-88403111D01*
X106998144Y-88400517D01*
X112076342Y-88400517D01*
X112302080Y-88946845D01*
X112719706Y-89365201D01*
X113265639Y-89591892D01*
X113856767Y-89592408D01*
X114403095Y-89366670D01*
X114821451Y-88949044D01*
X115048142Y-88403111D01*
X115048658Y-87811983D01*
X114822920Y-87265655D01*
X114405294Y-86847299D01*
X113859361Y-86620608D01*
X113268233Y-86620092D01*
X112721905Y-86845830D01*
X112303549Y-87263456D01*
X112076858Y-87809389D01*
X112076342Y-88400517D01*
X106998144Y-88400517D01*
X106998658Y-87811983D01*
X106772920Y-87265655D01*
X106355294Y-86847299D01*
X105809361Y-86620608D01*
X105218233Y-86620092D01*
X104671905Y-86845830D01*
X104253549Y-87263456D01*
X104026858Y-87809389D01*
X104026342Y-88400517D01*
X103153750Y-88400517D01*
X103153750Y-84130094D01*
X104102004Y-84130094D01*
X104273719Y-84545677D01*
X104591400Y-84863913D01*
X105006683Y-85036353D01*
X105456344Y-85036746D01*
X105871927Y-84865031D01*
X106190163Y-84547350D01*
X106362603Y-84132067D01*
X106362996Y-83682406D01*
X106191281Y-83266823D01*
X105873600Y-82948587D01*
X105458317Y-82776147D01*
X105008656Y-82775754D01*
X104593073Y-82947469D01*
X104274837Y-83265150D01*
X104102397Y-83680433D01*
X104102004Y-84130094D01*
X103153750Y-84130094D01*
X103153750Y-84075000D01*
X103095898Y-83784161D01*
X102931151Y-83537599D01*
X102759940Y-83366388D01*
X102759940Y-82743750D01*
X102715662Y-82508433D01*
X102576590Y-82292309D01*
X102364390Y-82147319D01*
X102112500Y-82096310D01*
X101212500Y-82096310D01*
X100977183Y-82140588D01*
X100819612Y-82241982D01*
X100302130Y-81724500D01*
X109037500Y-81724500D01*
X109329105Y-81666496D01*
X109576315Y-81501315D01*
X111968815Y-79108815D01*
X112133996Y-78861605D01*
X112192000Y-78570000D01*
X112192000Y-75856705D01*
X112220303Y-75845010D01*
X112613629Y-75452370D01*
X112699949Y-75244488D01*
X112784990Y-75450303D01*
X113177630Y-75843629D01*
X113690900Y-76056757D01*
X114246661Y-76057242D01*
X114760303Y-75845010D01*
X115153629Y-75452370D01*
X115239949Y-75244488D01*
X115324990Y-75450303D01*
X115717630Y-75843629D01*
X116230900Y-76056757D01*
X116786661Y-76057242D01*
X117300303Y-75845010D01*
X117693629Y-75452370D01*
X117779949Y-75244488D01*
X117864990Y-75450303D01*
X118257630Y-75843629D01*
X118770900Y-76056757D01*
X119326661Y-76057242D01*
X119840303Y-75845010D01*
X120233629Y-75452370D01*
X120446757Y-74939100D01*
X120447242Y-74383339D01*
X120235010Y-73869697D01*
X119842370Y-73476371D01*
X119329100Y-73263243D01*
X118773339Y-73262758D01*
X118259697Y-73474990D01*
X117866371Y-73867630D01*
X117780051Y-74075512D01*
X117695010Y-73869697D01*
X117302370Y-73476371D01*
X116789100Y-73263243D01*
X116233339Y-73262758D01*
X115719697Y-73474990D01*
X115326371Y-73867630D01*
X115240051Y-74075512D01*
X115155010Y-73869697D01*
X114762370Y-73476371D01*
X114249100Y-73263243D01*
X113693339Y-73262758D01*
X113179697Y-73474990D01*
X112786371Y-73867630D01*
X112700051Y-74075512D01*
X112615010Y-73869697D01*
X112222370Y-73476371D01*
X111709100Y-73263243D01*
X111153339Y-73262758D01*
X110639697Y-73474990D01*
X110246371Y-73867630D01*
X110160051Y-74075512D01*
X110075010Y-73869697D01*
X109682370Y-73476371D01*
X109169100Y-73263243D01*
X108613339Y-73262758D01*
X108099697Y-73474990D01*
X107706371Y-73867630D01*
X107620051Y-74075512D01*
X107535010Y-73869697D01*
X107142370Y-73476371D01*
X106629100Y-73263243D01*
X106073339Y-73262758D01*
X105559697Y-73474990D01*
X105166371Y-73867630D01*
X105080051Y-74075512D01*
X104995010Y-73869697D01*
X104602370Y-73476371D01*
X104089100Y-73263243D01*
X103533339Y-73262758D01*
X103019697Y-73474990D01*
X102626371Y-73867630D01*
X102540051Y-74075512D01*
X102455010Y-73869697D01*
X102062370Y-73476371D01*
X101549100Y-73263243D01*
X100993339Y-73262758D01*
X100479697Y-73474990D01*
X100086371Y-73867630D01*
X100000051Y-74075512D01*
X99915010Y-73869697D01*
X99522370Y-73476371D01*
X99009100Y-73263243D01*
X98453339Y-73262758D01*
X97939697Y-73474990D01*
X97546371Y-73867630D01*
X97460051Y-74075512D01*
X97375010Y-73869697D01*
X96982370Y-73476371D01*
X96469100Y-73263243D01*
X95913339Y-73262758D01*
X95399697Y-73474990D01*
X95006371Y-73867630D01*
X94920051Y-74075512D01*
X94835010Y-73869697D01*
X94442370Y-73476371D01*
X93929100Y-73263243D01*
X93373339Y-73262758D01*
X92859697Y-73474990D01*
X92466371Y-73867630D01*
X92380051Y-74075512D01*
X92295010Y-73869697D01*
X91902370Y-73476371D01*
X91389100Y-73263243D01*
X90833339Y-73262758D01*
X90319697Y-73474990D01*
X89926371Y-73867630D01*
X89713243Y-74380900D01*
X89712758Y-74936661D01*
X89924990Y-75450303D01*
X90317630Y-75843629D01*
X90830900Y-76056757D01*
X91386661Y-76057242D01*
X91900303Y-75845010D01*
X92293629Y-75452370D01*
X92379949Y-75244488D01*
X92464990Y-75450303D01*
X92857630Y-75843629D01*
X93370900Y-76056757D01*
X93926661Y-76057242D01*
X94440303Y-75845010D01*
X94833629Y-75452370D01*
X94919949Y-75244488D01*
X95004990Y-75450303D01*
X95397630Y-75843629D01*
X95910900Y-76056757D01*
X96466661Y-76057242D01*
X96980303Y-75845010D01*
X97373629Y-75452370D01*
X97459949Y-75244488D01*
X97544990Y-75450303D01*
X97937630Y-75843629D01*
X98450900Y-76056757D01*
X99006661Y-76057242D01*
X99520303Y-75845010D01*
X99913629Y-75452370D01*
X99999949Y-75244488D01*
X100084990Y-75450303D01*
X100477630Y-75843629D01*
X100990900Y-76056757D01*
X101546661Y-76057242D01*
X102060303Y-75845010D01*
X102453629Y-75452370D01*
X102539949Y-75244488D01*
X102624990Y-75450303D01*
X103017630Y-75843629D01*
X103530900Y-76056757D01*
X104086661Y-76057242D01*
X104600303Y-75845010D01*
X104993629Y-75452370D01*
X105079949Y-75244488D01*
X105164990Y-75450303D01*
X105557630Y-75843629D01*
X106070900Y-76056757D01*
X106626661Y-76057242D01*
X107140303Y-75845010D01*
X107533629Y-75452370D01*
X107619949Y-75244488D01*
X107704990Y-75450303D01*
X108097630Y-75843629D01*
X108610900Y-76056757D01*
X109166661Y-76057242D01*
X109680303Y-75845010D01*
X110073629Y-75452370D01*
X110159949Y-75244488D01*
X110244990Y-75450303D01*
X110637630Y-75843629D01*
X110668000Y-75856240D01*
X110668000Y-78254370D01*
X108721870Y-80200500D01*
X91975600Y-80200500D01*
X91977730Y-80195370D01*
X91978069Y-79806337D01*
X91829507Y-79446788D01*
X91554659Y-79171460D01*
X91195370Y-79022270D01*
X91099817Y-79022187D01*
X90120065Y-78042435D01*
X90028495Y-77981250D01*
X89872855Y-77877254D01*
X89581250Y-77819250D01*
X83679458Y-77819250D01*
X83665662Y-77745933D01*
X83526590Y-77529809D01*
X83374500Y-77425890D01*
X83374500Y-72203130D01*
X87156917Y-68420713D01*
X93361214Y-68420713D01*
X93612034Y-69027745D01*
X94076063Y-69492584D01*
X94682655Y-69744463D01*
X95339463Y-69745036D01*
X95946495Y-69494216D01*
X96411334Y-69030187D01*
X96663213Y-68423595D01*
X96663786Y-67766787D01*
X96412966Y-67159755D01*
X95948937Y-66694916D01*
X95342345Y-66443037D01*
X94685537Y-66442464D01*
X94078505Y-66693284D01*
X93613666Y-67157313D01*
X93361787Y-67763905D01*
X93361214Y-68420713D01*
X87156917Y-68420713D01*
X90989613Y-64588017D01*
X93026342Y-64588017D01*
X93252080Y-65134345D01*
X93669706Y-65552701D01*
X94215639Y-65779392D01*
X94806767Y-65779908D01*
X95353095Y-65554170D01*
X95771451Y-65136544D01*
X95928202Y-64759044D01*
X97662593Y-64759044D01*
X98019530Y-65622896D01*
X98679878Y-66284397D01*
X99543105Y-66642841D01*
X100477794Y-66643657D01*
X101341646Y-66286720D01*
X102003147Y-65626372D01*
X102361591Y-64763145D01*
X102362407Y-63828456D01*
X102005470Y-62964604D01*
X101345122Y-62303103D01*
X100481895Y-61944659D01*
X99547206Y-61943843D01*
X98683354Y-62300780D01*
X98021853Y-62961128D01*
X97663409Y-63824355D01*
X97662593Y-64759044D01*
X95928202Y-64759044D01*
X95998142Y-64590611D01*
X95998658Y-63999483D01*
X95772920Y-63453155D01*
X95355294Y-63034799D01*
X94809361Y-62808108D01*
X94218233Y-62807592D01*
X93671905Y-63033330D01*
X93253549Y-63450956D01*
X93026858Y-63996889D01*
X93026342Y-64588017D01*
X90989613Y-64588017D01*
X96815630Y-58762000D01*
X99378917Y-58762000D01*
X99445341Y-58828540D01*
X99804630Y-58977730D01*
X100193663Y-58978069D01*
X100553212Y-58829507D01*
X100828540Y-58554659D01*
X100977730Y-58195370D01*
X100978069Y-57806337D01*
X100829507Y-57446788D01*
X100554659Y-57171460D01*
X100195370Y-57022270D01*
X99806337Y-57021931D01*
X99446788Y-57170493D01*
X99379163Y-57238000D01*
X96500000Y-57238000D01*
X96208395Y-57296004D01*
X95984897Y-57445341D01*
X95961185Y-57461185D01*
X82410438Y-71011932D01*
X82613213Y-70523595D01*
X82613786Y-69866787D01*
X82362966Y-69259755D01*
X81898937Y-68794916D01*
X81292345Y-68543037D01*
X80635537Y-68542464D01*
X80028505Y-68793284D01*
X79563666Y-69257313D01*
X79311787Y-69863905D01*
X79311214Y-70520713D01*
X79562034Y-71127745D01*
X80026063Y-71592584D01*
X80632655Y-71844463D01*
X81289463Y-71845036D01*
X81896495Y-71594216D01*
X81935929Y-71554851D01*
X81908504Y-71595895D01*
X81850500Y-71887500D01*
X81850500Y-77427432D01*
X81711059Y-77517160D01*
X81566069Y-77729360D01*
X81515060Y-77981250D01*
X81515060Y-79181250D01*
X81559338Y-79416567D01*
X81698410Y-79632691D01*
X81904823Y-79773727D01*
X81711059Y-79898410D01*
X81566069Y-80110610D01*
X81515060Y-80362500D01*
X81515060Y-81562500D01*
X81559338Y-81797817D01*
X81698410Y-82013941D01*
X81850500Y-82117860D01*
X81850500Y-82189932D01*
X81711059Y-82279660D01*
X81566069Y-82491860D01*
X81515060Y-82743750D01*
X81515060Y-83943750D01*
X81559338Y-84179067D01*
X81698410Y-84395191D01*
X81910610Y-84540181D01*
X82162500Y-84591190D01*
X82583750Y-84591190D01*
X82583750Y-86404735D01*
X82295122Y-86115603D01*
X81431895Y-85757159D01*
X80497206Y-85756343D01*
X79633354Y-86113280D01*
X79341250Y-86404875D01*
X79341250Y-84591190D01*
X79762500Y-84591190D01*
X79997817Y-84546912D01*
X80213941Y-84407840D01*
X80358931Y-84195640D01*
X80409940Y-83943750D01*
X80409940Y-82743750D01*
X80365662Y-82508433D01*
X80226590Y-82292309D01*
X80020177Y-82151273D01*
X80213941Y-82026590D01*
X80358931Y-81814390D01*
X80409940Y-81562500D01*
X80409940Y-80362500D01*
X80365662Y-80127183D01*
X80226590Y-79911059D01*
X80020177Y-79770023D01*
X80213941Y-79645340D01*
X80358931Y-79433140D01*
X80409940Y-79181250D01*
X80409940Y-77981250D01*
X80365662Y-77745933D01*
X80226590Y-77529809D01*
X80014390Y-77384819D01*
X79762500Y-77333810D01*
X78862500Y-77333810D01*
X78696647Y-77365017D01*
X78486000Y-77154370D01*
X78486000Y-70471083D01*
X78552540Y-70404659D01*
X78701730Y-70045370D01*
X78702069Y-69656337D01*
X78553507Y-69296788D01*
X78278659Y-69021460D01*
X77919370Y-68872270D01*
X77530337Y-68871931D01*
X77405656Y-68923448D01*
X77613213Y-68423595D01*
X77613786Y-67766787D01*
X77362966Y-67159755D01*
X76898937Y-66694916D01*
X76292345Y-66443037D01*
X75635537Y-66442464D01*
X75028505Y-66693284D01*
X74563666Y-67157313D01*
X74311787Y-67763905D01*
X74311214Y-68420713D01*
X72147500Y-68420713D01*
X72147500Y-64588017D01*
X73976342Y-64588017D01*
X74202080Y-65134345D01*
X74619706Y-65552701D01*
X75165639Y-65779392D01*
X75756767Y-65779908D01*
X76303095Y-65554170D01*
X76721451Y-65136544D01*
X76878202Y-64759044D01*
X78612593Y-64759044D01*
X78969530Y-65622896D01*
X79629878Y-66284397D01*
X80493105Y-66642841D01*
X81427794Y-66643657D01*
X82291646Y-66286720D01*
X82953147Y-65626372D01*
X83311591Y-64763145D01*
X83311743Y-64588017D01*
X84976342Y-64588017D01*
X85202080Y-65134345D01*
X85619706Y-65552701D01*
X86165639Y-65779392D01*
X86756767Y-65779908D01*
X87303095Y-65554170D01*
X87721451Y-65136544D01*
X87948142Y-64590611D01*
X87948658Y-63999483D01*
X87722920Y-63453155D01*
X87305294Y-63034799D01*
X86759361Y-62808108D01*
X86168233Y-62807592D01*
X85621905Y-63033330D01*
X85203549Y-63450956D01*
X84976858Y-63996889D01*
X84976342Y-64588017D01*
X83311743Y-64588017D01*
X83312407Y-63828456D01*
X82955470Y-62964604D01*
X82295122Y-62303103D01*
X81431895Y-61944659D01*
X80497206Y-61943843D01*
X79633354Y-62300780D01*
X78971853Y-62961128D01*
X78613409Y-63824355D01*
X78612593Y-64759044D01*
X76878202Y-64759044D01*
X76948142Y-64590611D01*
X76948658Y-63999483D01*
X76722920Y-63453155D01*
X76305294Y-63034799D01*
X75759361Y-62808108D01*
X75168233Y-62807592D01*
X74621905Y-63033330D01*
X74203549Y-63450956D01*
X73976858Y-63996889D01*
X73976342Y-64588017D01*
X72147500Y-64588017D01*
X72147500Y-60317594D01*
X85052004Y-60317594D01*
X85223719Y-60733177D01*
X85541400Y-61051413D01*
X85956683Y-61223853D01*
X86406344Y-61224246D01*
X86821927Y-61052531D01*
X87140163Y-60734850D01*
X87312603Y-60319567D01*
X87312996Y-59869906D01*
X87141281Y-59454323D01*
X86823600Y-59136087D01*
X86408317Y-58963647D01*
X85958656Y-58963254D01*
X85543073Y-59134969D01*
X85224837Y-59452650D01*
X85052397Y-59867933D01*
X85052004Y-60317594D01*
X72147500Y-60317594D01*
X72147500Y-53097500D01*
X80298834Y-53097500D01*
X80159697Y-53154990D01*
X80159697Y-53154990D01*
G37*
X80159697Y-53154990D02*
X79766371Y-53547630D01*
X79553243Y-54060900D01*
X79552758Y-54616661D01*
X79764990Y-55130303D01*
X80157630Y-55523629D01*
X80670900Y-55736757D01*
X81226661Y-55737242D01*
X81740303Y-55525010D01*
X82133629Y-55132370D01*
X82219949Y-54924488D01*
X82304990Y-55130303D01*
X82697630Y-55523629D01*
X83210900Y-55736757D01*
X83766661Y-55737242D01*
X84280303Y-55525010D01*
X84673629Y-55132370D01*
X84759949Y-54924488D01*
X84844990Y-55130303D01*
X85237630Y-55523629D01*
X85750900Y-55736757D01*
X86306661Y-55737242D01*
X86820303Y-55525010D01*
X87025457Y-55320213D01*
X87769392Y-55320213D01*
X87838857Y-55562397D01*
X88362302Y-55749144D01*
X88917368Y-55721362D01*
X89301143Y-55562397D01*
X89370608Y-55320213D01*
X88570000Y-54519605D01*
X87769392Y-55320213D01*
X87025457Y-55320213D01*
X87213629Y-55132370D01*
X87293395Y-54940273D01*
X87347603Y-55071143D01*
X87589787Y-55140608D01*
X88390395Y-54340000D01*
X87589787Y-53539392D01*
X87347603Y-53608857D01*
X87297491Y-53749318D01*
X87215010Y-53549697D01*
X86822370Y-53156371D01*
X86680593Y-53097500D01*
X87887390Y-53097500D01*
X87838857Y-53117603D01*
X87769392Y-53359787D01*
X88570000Y-54160395D01*
X89370608Y-53359787D01*
X89301143Y-53117603D01*
X89244795Y-53097500D01*
X90458834Y-53097500D01*
X90319697Y-53154990D01*
X89926371Y-53547630D01*
X89846605Y-53739727D01*
X89792397Y-53608857D01*
X89550213Y-53539392D01*
X88749605Y-54340000D01*
X89550213Y-55140608D01*
X89792397Y-55071143D01*
X89842509Y-54930682D01*
X89924990Y-55130303D01*
X90317630Y-55523629D01*
X90830900Y-55736757D01*
X91386661Y-55737242D01*
X91900303Y-55525010D01*
X92293629Y-55132370D01*
X92379949Y-54924488D01*
X92464990Y-55130303D01*
X92857630Y-55523629D01*
X93370900Y-55736757D01*
X93926661Y-55737242D01*
X94440303Y-55525010D01*
X94833629Y-55132370D01*
X94919949Y-54924488D01*
X95004990Y-55130303D01*
X95397630Y-55523629D01*
X95910900Y-55736757D01*
X96466661Y-55737242D01*
X96980303Y-55525010D01*
X97373629Y-55132370D01*
X97459949Y-54924488D01*
X97544990Y-55130303D01*
X97937630Y-55523629D01*
X98450900Y-55736757D01*
X99006661Y-55737242D01*
X99520303Y-55525010D01*
X99913629Y-55132370D01*
X99999949Y-54924488D01*
X100084990Y-55130303D01*
X100477630Y-55523629D01*
X100990900Y-55736757D01*
X101546661Y-55737242D01*
X102060303Y-55525010D01*
X102453629Y-55132370D01*
X102539949Y-54924488D01*
X102624990Y-55130303D01*
X103017630Y-55523629D01*
X103048000Y-55536240D01*
X103048000Y-66374369D01*
X100721778Y-68700591D01*
X100342345Y-68543037D01*
X99685537Y-68542464D01*
X99078505Y-68793284D01*
X98613666Y-69257313D01*
X98361787Y-69863905D01*
X98361214Y-70520713D01*
X98612034Y-71127745D01*
X99076063Y-71592584D01*
X99682655Y-71844463D01*
X100339463Y-71845036D01*
X100946495Y-71594216D01*
X101411334Y-71130187D01*
X101663213Y-70523595D01*
X101663745Y-69913885D01*
X104348816Y-67228815D01*
X104447834Y-67080623D01*
X104513996Y-66981605D01*
X104572000Y-66690000D01*
X104572000Y-65454824D01*
X104669706Y-65552701D01*
X105215639Y-65779392D01*
X105806767Y-65779908D01*
X106353095Y-65554170D01*
X106771451Y-65136544D01*
X106998142Y-64590611D01*
X106998144Y-64588017D01*
X112076342Y-64588017D01*
X112302080Y-65134345D01*
X112719706Y-65552701D01*
X113265639Y-65779392D01*
X113856767Y-65779908D01*
X114403095Y-65554170D01*
X114821451Y-65136544D01*
X115048142Y-64590611D01*
X115048658Y-63999483D01*
X114822920Y-63453155D01*
X114405294Y-63034799D01*
X113859361Y-62808108D01*
X113268233Y-62807592D01*
X112721905Y-63033330D01*
X112303549Y-63450956D01*
X112076858Y-63996889D01*
X112076342Y-64588017D01*
X106998144Y-64588017D01*
X106998658Y-63999483D01*
X106772920Y-63453155D01*
X106355294Y-63034799D01*
X105809361Y-62808108D01*
X105218233Y-62807592D01*
X104671905Y-63033330D01*
X104572000Y-63133061D01*
X104572000Y-61031979D01*
X104591400Y-61051413D01*
X105006683Y-61223853D01*
X105456344Y-61224246D01*
X105871927Y-61052531D01*
X106190163Y-60734850D01*
X106362603Y-60319567D01*
X106362996Y-59869906D01*
X106191281Y-59454323D01*
X105873600Y-59136087D01*
X105458317Y-58963647D01*
X105008656Y-58963254D01*
X104593073Y-59134969D01*
X104572000Y-59156005D01*
X104572000Y-55536705D01*
X104600303Y-55525010D01*
X104993629Y-55132370D01*
X105079949Y-54924488D01*
X105164990Y-55130303D01*
X105557630Y-55523629D01*
X106070900Y-55736757D01*
X106626661Y-55737242D01*
X107140303Y-55525010D01*
X107533629Y-55132370D01*
X107619949Y-54924488D01*
X107704990Y-55130303D01*
X108097630Y-55523629D01*
X108610900Y-55736757D01*
X109166661Y-55737242D01*
X109680303Y-55525010D01*
X110073629Y-55132370D01*
X110159949Y-54924488D01*
X110244990Y-55130303D01*
X110637630Y-55523629D01*
X111150900Y-55736757D01*
X111685147Y-55737223D01*
X110400357Y-57022013D01*
X110306337Y-57021931D01*
X109946788Y-57170493D01*
X109671460Y-57445341D01*
X109522270Y-57804630D01*
X109521931Y-58193663D01*
X109670493Y-58553212D01*
X109945341Y-58828540D01*
X110304630Y-58977730D01*
X110693663Y-58978069D01*
X111053212Y-58829507D01*
X111328540Y-58554659D01*
X111477730Y-58195370D01*
X111477813Y-58099817D01*
X113840742Y-55736888D01*
X114246661Y-55737242D01*
X114760303Y-55525010D01*
X115153629Y-55132370D01*
X115239949Y-54924488D01*
X115324990Y-55130303D01*
X115717630Y-55523629D01*
X116230900Y-55736757D01*
X116786661Y-55737242D01*
X116817054Y-55724684D01*
X121238000Y-60145631D01*
X121238000Y-63406360D01*
X121055470Y-62964604D01*
X120395122Y-62303103D01*
X119531895Y-61944659D01*
X118597206Y-61943843D01*
X117733354Y-62300780D01*
X117071853Y-62961128D01*
X116713409Y-63824355D01*
X116712593Y-64759044D01*
X117069530Y-65622896D01*
X117729878Y-66284397D01*
X118593105Y-66642841D01*
X119527794Y-66643657D01*
X120391646Y-66286720D01*
X121053147Y-65626372D01*
X121360002Y-64887385D01*
X121461185Y-65038815D01*
X124238000Y-67815631D01*
X124238000Y-76285846D01*
X124206000Y-76279366D01*
X124206000Y-75438000D01*
X124147996Y-75146395D01*
X123982815Y-74899185D01*
X120680815Y-71597185D01*
X120568697Y-71522270D01*
X120433605Y-71432004D01*
X120204618Y-71386456D01*
X120461334Y-71130187D01*
X120713213Y-70523595D01*
X120713786Y-69866787D01*
X120462966Y-69259755D01*
X119998937Y-68794916D01*
X119392345Y-68543037D01*
X118735537Y-68542464D01*
X118128505Y-68793284D01*
X117663666Y-69257313D01*
X117411787Y-69863905D01*
X117411350Y-70364969D01*
X115641846Y-68595466D01*
X115713213Y-68423595D01*
X115713786Y-67766787D01*
X115462966Y-67159755D01*
X114998937Y-66694916D01*
X114392345Y-66443037D01*
X113735537Y-66442464D01*
X113128505Y-66693284D01*
X112663666Y-67157313D01*
X112411787Y-67763905D01*
X112411214Y-68420713D01*
X112662034Y-69027745D01*
X113126063Y-69492584D01*
X113732655Y-69744463D01*
X114389463Y-69745036D01*
X114564027Y-69672908D01*
X117565935Y-72674816D01*
X117714127Y-72773834D01*
X117813145Y-72839996D01*
X118104750Y-72898000D01*
X119826370Y-72898000D01*
X122682000Y-75753630D01*
X122682000Y-76277042D01*
X122608683Y-76290838D01*
X122392559Y-76429910D01*
X122247569Y-76642110D01*
X122196560Y-76894000D01*
X122196560Y-77794000D01*
X122240838Y-78029317D01*
X122379910Y-78245441D01*
X122592110Y-78390431D01*
X122844000Y-78441440D01*
X124044000Y-78441440D01*
X124238000Y-78404936D01*
X124238000Y-78684369D01*
X123375810Y-79546560D01*
X122844000Y-79546560D01*
X122608683Y-79590838D01*
X122392559Y-79729910D01*
X122247569Y-79942110D01*
X122196560Y-80194000D01*
X122196560Y-80813810D01*
X120914060Y-82096310D01*
X120262500Y-82096310D01*
X120027183Y-82140588D01*
X119811059Y-82279660D01*
X119666069Y-82491860D01*
X119615060Y-82743750D01*
X119615060Y-83943750D01*
X119659338Y-84179067D01*
X119798410Y-84395191D01*
X120010610Y-84540181D01*
X120262500Y-84591190D01*
X120683750Y-84591190D01*
X120683750Y-86404735D01*
X120395122Y-86115603D01*
X119531895Y-85757159D01*
X118597206Y-85756343D01*
X117733354Y-86113280D01*
X117441250Y-86404875D01*
X117441250Y-84591190D01*
X117862500Y-84591190D01*
X118097817Y-84546912D01*
X118313941Y-84407840D01*
X118458931Y-84195640D01*
X118509940Y-83943750D01*
X118509940Y-82743750D01*
X118465662Y-82508433D01*
X118326590Y-82292309D01*
X118114390Y-82147319D01*
X117862500Y-82096310D01*
X116962500Y-82096310D01*
X116727183Y-82140588D01*
X116511059Y-82279660D01*
X116366069Y-82491860D01*
X116315060Y-82743750D01*
X116315060Y-83366388D01*
X116143849Y-83537599D01*
X115979102Y-83784161D01*
X115921250Y-84075000D01*
X115921250Y-90172697D01*
X115292478Y-90801469D01*
X114998937Y-90507416D01*
X114392345Y-90255537D01*
X113735537Y-90254964D01*
X113128505Y-90505784D01*
X112663666Y-90969813D01*
X112411787Y-91576405D01*
X112411214Y-92233213D01*
X112662034Y-92840245D01*
X113126063Y-93305084D01*
X113732655Y-93556963D01*
X114389463Y-93557536D01*
X114996495Y-93306716D01*
X115461334Y-92842687D01*
X115560647Y-92603515D01*
X115799901Y-92443651D01*
X117218651Y-91024902D01*
X117383397Y-90778340D01*
X117383398Y-90778339D01*
X117441250Y-90487500D01*
X117441250Y-89807765D01*
X117729878Y-90096897D01*
X118593105Y-90455341D01*
X119527794Y-90456157D01*
X120391646Y-90099220D01*
X120683750Y-89807625D01*
X120683750Y-93606594D01*
X120462966Y-93072255D01*
X119998937Y-92607416D01*
X119392345Y-92355537D01*
X118735537Y-92354964D01*
X118128505Y-92605784D01*
X117663666Y-93069813D01*
X117411787Y-93676405D01*
X117411214Y-94333213D01*
X117662034Y-94940245D01*
X118126063Y-95405084D01*
X118732655Y-95656963D01*
X119389463Y-95657536D01*
X119996495Y-95406716D01*
X120461334Y-94942687D01*
X120683750Y-94407050D01*
X120683750Y-94935198D01*
X120175099Y-95443849D01*
X120010352Y-95690411D01*
X119952500Y-95981250D01*
X119952500Y-101238645D01*
X119811059Y-101329660D01*
X119666069Y-101541860D01*
X119615060Y-101793750D01*
X119615060Y-102993750D01*
X119659338Y-103229067D01*
X119798410Y-103445191D01*
X120010610Y-103590181D01*
X120262500Y-103641190D01*
X120683750Y-103641190D01*
X120683750Y-105454735D01*
X120395122Y-105165603D01*
X119531895Y-104807159D01*
X118597206Y-104806343D01*
X117733354Y-105163280D01*
X117441250Y-105454875D01*
X117441250Y-103641190D01*
X117862500Y-103641190D01*
X118097817Y-103596912D01*
X118313941Y-103457840D01*
X118458931Y-103245640D01*
X118509940Y-102993750D01*
X118509940Y-101793750D01*
X118465662Y-101558433D01*
X118326590Y-101342309D01*
X118114390Y-101197319D01*
X117862500Y-101146310D01*
X116962500Y-101146310D01*
X116727183Y-101190588D01*
X116511059Y-101329660D01*
X116366069Y-101541860D01*
X116315060Y-101793750D01*
X116315060Y-102416388D01*
X116143849Y-102587599D01*
X115979102Y-102834161D01*
X115921250Y-103125000D01*
X115921250Y-109222697D01*
X115292478Y-109851469D01*
X114998937Y-109557416D01*
X114392345Y-109305537D01*
X113735537Y-109304964D01*
X113128505Y-109555784D01*
X112663666Y-110019813D01*
X112411787Y-110626405D01*
X112411214Y-111283213D01*
X112662034Y-111890245D01*
X113126063Y-112355084D01*
X113732655Y-112606963D01*
X114389463Y-112607536D01*
X114996495Y-112356716D01*
X115461334Y-111892687D01*
X115560647Y-111653515D01*
X115799901Y-111493651D01*
X117218651Y-110074902D01*
X117383397Y-109828340D01*
X117383398Y-109828339D01*
X117441250Y-109537500D01*
X117441250Y-108857765D01*
X117729878Y-109146897D01*
X118593105Y-109505341D01*
X119527794Y-109506157D01*
X120391646Y-109149220D01*
X120683750Y-108857625D01*
X120683750Y-112656594D01*
X120462966Y-112122255D01*
X119998937Y-111657416D01*
X119392345Y-111405537D01*
X118735537Y-111404964D01*
X118128505Y-111655784D01*
X117663666Y-112119813D01*
X117411787Y-112726405D01*
X117411214Y-113383213D01*
X117662034Y-113990245D01*
X118126063Y-114455084D01*
X118732655Y-114706963D01*
X119389463Y-114707536D01*
X119996495Y-114456716D01*
X120461334Y-113992687D01*
X120683750Y-113457050D01*
X120683750Y-113985198D01*
X120175099Y-114493849D01*
X120010352Y-114740411D01*
X119952500Y-115031250D01*
X119952500Y-120288645D01*
X119811059Y-120379660D01*
X119666069Y-120591860D01*
X119615060Y-120843750D01*
X119615060Y-122043750D01*
X119659338Y-122279067D01*
X119798410Y-122495191D01*
X120010610Y-122640181D01*
X120262500Y-122691190D01*
X121162500Y-122691190D01*
X121397817Y-122646912D01*
X121613941Y-122507840D01*
X121758931Y-122295640D01*
X121772204Y-122230094D01*
X123152004Y-122230094D01*
X123323719Y-122645677D01*
X123641400Y-122963913D01*
X124056683Y-123136353D01*
X124506344Y-123136746D01*
X124921927Y-122965031D01*
X125240163Y-122647350D01*
X125412603Y-122232067D01*
X125412996Y-121782406D01*
X125241281Y-121366823D01*
X124923600Y-121048587D01*
X124508317Y-120876147D01*
X124058656Y-120875754D01*
X123643073Y-121047469D01*
X123324837Y-121365150D01*
X123152397Y-121780433D01*
X123152004Y-122230094D01*
X121772204Y-122230094D01*
X121809940Y-122043750D01*
X121809940Y-120843750D01*
X121765662Y-120608433D01*
X121626590Y-120392309D01*
X121472500Y-120287024D01*
X121472500Y-117963698D01*
X121946801Y-118138675D01*
X122577861Y-118113878D01*
X123045712Y-117920088D01*
X123138554Y-117658159D01*
X122200000Y-116719605D01*
X122185858Y-116733748D01*
X122006253Y-116554143D01*
X122020395Y-116540000D01*
X122379605Y-116540000D01*
X123318159Y-117478554D01*
X123403583Y-117448275D01*
X123839579Y-117885032D01*
X124422841Y-118127224D01*
X125054388Y-118127775D01*
X125638072Y-117886602D01*
X126085032Y-117440421D01*
X126327224Y-116857159D01*
X126327775Y-116225612D01*
X126086602Y-115641928D01*
X125640421Y-115194968D01*
X125629000Y-115190226D01*
X125629000Y-114097440D01*
X126050000Y-114097440D01*
X126285317Y-114053162D01*
X126501441Y-113914090D01*
X126646431Y-113701890D01*
X126697440Y-113450000D01*
X126697440Y-112350000D01*
X126653162Y-112114683D01*
X126514090Y-111898559D01*
X126301890Y-111753569D01*
X126050000Y-111702560D01*
X124950000Y-111702560D01*
X124714683Y-111746838D01*
X124498559Y-111885910D01*
X124353569Y-112098110D01*
X124302560Y-112350000D01*
X124302560Y-112840204D01*
X124111382Y-113031382D01*
X123918671Y-113319794D01*
X123851000Y-113660000D01*
X123851000Y-115189650D01*
X123841928Y-115193398D01*
X123403032Y-115631529D01*
X123318159Y-115601446D01*
X122379605Y-116540000D01*
X122020395Y-116540000D01*
X122006253Y-116525858D01*
X122185858Y-116346253D01*
X122200000Y-116360395D01*
X123138554Y-115421841D01*
X123045712Y-115159912D01*
X122453199Y-114941325D01*
X121853669Y-114964883D01*
X121981151Y-114837401D01*
X122145898Y-114590839D01*
X122203750Y-114300000D01*
X122203750Y-103180094D01*
X123152004Y-103180094D01*
X123323719Y-103595677D01*
X123641400Y-103913913D01*
X124056683Y-104086353D01*
X124506344Y-104086746D01*
X124921927Y-103915031D01*
X125240163Y-103597350D01*
X125412603Y-103182067D01*
X125412996Y-102732406D01*
X125241281Y-102316823D01*
X124923600Y-101998587D01*
X124508317Y-101826147D01*
X124058656Y-101825754D01*
X123643073Y-101997469D01*
X123324837Y-102315150D01*
X123152397Y-102730433D01*
X123152004Y-103180094D01*
X122203750Y-103180094D01*
X122203750Y-103125000D01*
X122145898Y-102834161D01*
X121981151Y-102587599D01*
X121809940Y-102416388D01*
X121809940Y-101793750D01*
X121765662Y-101558433D01*
X121626590Y-101342309D01*
X121472500Y-101237024D01*
X121472500Y-96296052D01*
X121981151Y-95787401D01*
X122145898Y-95540839D01*
X122203750Y-95250000D01*
X122203750Y-84130094D01*
X123152004Y-84130094D01*
X123323719Y-84545677D01*
X123641400Y-84863913D01*
X124056683Y-85036353D01*
X124506344Y-85036746D01*
X124921927Y-84865031D01*
X125240163Y-84547350D01*
X125412603Y-84132067D01*
X125412996Y-83682406D01*
X125241281Y-83266823D01*
X124923600Y-82948587D01*
X124508317Y-82776147D01*
X124058656Y-82775754D01*
X123643073Y-82947469D01*
X123324837Y-83265150D01*
X123152397Y-83680433D01*
X123152004Y-84130094D01*
X122203750Y-84130094D01*
X122203750Y-84075000D01*
X122145898Y-83784161D01*
X121981151Y-83537599D01*
X121809940Y-83366388D01*
X121809940Y-83355690D01*
X123424190Y-81741440D01*
X124044000Y-81741440D01*
X124279317Y-81697162D01*
X124495441Y-81558090D01*
X124640431Y-81345890D01*
X124691440Y-81094000D01*
X124691440Y-80386190D01*
X125538815Y-79538816D01*
X125611000Y-79430783D01*
X125611000Y-87053365D01*
X125405294Y-86847299D01*
X124859361Y-86620608D01*
X124268233Y-86620092D01*
X123721905Y-86845830D01*
X123303549Y-87263456D01*
X123076858Y-87809389D01*
X123076342Y-88400517D01*
X123302080Y-88946845D01*
X123719706Y-89365201D01*
X124265639Y-89591892D01*
X124856767Y-89592408D01*
X125403095Y-89366670D01*
X125611000Y-89159128D01*
X125611000Y-106103365D01*
X125405294Y-105897299D01*
X124859361Y-105670608D01*
X124268233Y-105670092D01*
X123721905Y-105895830D01*
X123303549Y-106313456D01*
X123076858Y-106859389D01*
X123076342Y-107450517D01*
X123302080Y-107996845D01*
X123719706Y-108415201D01*
X124265639Y-108641892D01*
X124856767Y-108642408D01*
X125403095Y-108416670D01*
X125611000Y-108209128D01*
X125611000Y-108631764D01*
X125340204Y-108902560D01*
X124950000Y-108902560D01*
X124714683Y-108946838D01*
X124498559Y-109085910D01*
X124353569Y-109298110D01*
X124302560Y-109550000D01*
X124302560Y-110650000D01*
X124346838Y-110885317D01*
X124485910Y-111101441D01*
X124698110Y-111246431D01*
X124950000Y-111297440D01*
X126050000Y-111297440D01*
X126285317Y-111253162D01*
X126501441Y-111114090D01*
X126646431Y-110901890D01*
X126697440Y-110650000D01*
X126697440Y-110059796D01*
X127128618Y-109628618D01*
X127321330Y-109340205D01*
X127389000Y-109000000D01*
X127389000Y-72909055D01*
X127477730Y-72695370D01*
X127478069Y-72306337D01*
X127329507Y-71946788D01*
X127054659Y-71671460D01*
X126695370Y-71522270D01*
X126306337Y-71521931D01*
X125946788Y-71670493D01*
X125762000Y-71854959D01*
X125762000Y-67500000D01*
X125703996Y-67208395D01*
X125637834Y-67109377D01*
X125538816Y-66961185D01*
X124357102Y-65779472D01*
X124856767Y-65779908D01*
X125403095Y-65554170D01*
X125821451Y-65136544D01*
X126048142Y-64590611D01*
X126048658Y-63999483D01*
X125822920Y-63453155D01*
X125405294Y-63034799D01*
X124859361Y-62808108D01*
X124268233Y-62807592D01*
X123721905Y-63033330D01*
X123303549Y-63450956D01*
X123076858Y-63996889D01*
X123076420Y-64498790D01*
X122762000Y-64184370D01*
X122762000Y-60317594D01*
X123152004Y-60317594D01*
X123323719Y-60733177D01*
X123641400Y-61051413D01*
X124056683Y-61223853D01*
X124506344Y-61224246D01*
X124921927Y-61052531D01*
X125240163Y-60734850D01*
X125412603Y-60319567D01*
X125412996Y-59869906D01*
X125241281Y-59454323D01*
X124923600Y-59136087D01*
X124508317Y-58963647D01*
X124058656Y-58963254D01*
X123643073Y-59134969D01*
X123324837Y-59452650D01*
X123152397Y-59867933D01*
X123152004Y-60317594D01*
X122762000Y-60317594D01*
X122762000Y-59830000D01*
X122703996Y-59538395D01*
X122646703Y-59452650D01*
X122538815Y-59291184D01*
X118984574Y-55736943D01*
X119326661Y-55737242D01*
X119840303Y-55525010D01*
X120233629Y-55132370D01*
X120446757Y-54619100D01*
X120447242Y-54063339D01*
X120235010Y-53549697D01*
X119842370Y-53156371D01*
X119700593Y-53097500D01*
X127877500Y-53097500D01*
X127877500Y-135021250D01*
X72147500Y-135021250D01*
X72147500Y-126500517D01*
X73976342Y-126500517D01*
X74202080Y-127046845D01*
X74619706Y-127465201D01*
X75165639Y-127691892D01*
X75756767Y-127692408D01*
X76303095Y-127466670D01*
X76721451Y-127049044D01*
X76948142Y-126503111D01*
X76948658Y-125911983D01*
X76722920Y-125365655D01*
X76305294Y-124947299D01*
X75759361Y-124720608D01*
X75168233Y-124720092D01*
X74621905Y-124945830D01*
X74203549Y-125363456D01*
X73976858Y-125909389D01*
X73976342Y-126500517D01*
X72147500Y-126500517D01*
X72147500Y-118118159D01*
X74411446Y-118118159D01*
X74504288Y-118380088D01*
X75096801Y-118598675D01*
X75727861Y-118573878D01*
X76195712Y-118380088D01*
X76288554Y-118118159D01*
X75350000Y-117179605D01*
X74411446Y-118118159D01*
X72147500Y-118118159D01*
X72147500Y-116746801D01*
X73751325Y-116746801D01*
X73776122Y-117377861D01*
X73969912Y-117845712D01*
X74231841Y-117938554D01*
X75170395Y-117000000D01*
X75529605Y-117000000D01*
X76468159Y-117938554D01*
X76730088Y-117845712D01*
X76926101Y-117314388D01*
X79062225Y-117314388D01*
X79303398Y-117898072D01*
X79749579Y-118345032D01*
X80332841Y-118587224D01*
X80964388Y-118587775D01*
X81548072Y-118346602D01*
X81995032Y-117900421D01*
X82237224Y-117317159D01*
X82237775Y-116685612D01*
X81996602Y-116101928D01*
X81550421Y-115654968D01*
X80967159Y-115412776D01*
X80335612Y-115412225D01*
X79751928Y-115653398D01*
X79304968Y-116099579D01*
X79062776Y-116682841D01*
X79062225Y-117314388D01*
X76926101Y-117314388D01*
X76948675Y-117253199D01*
X76923878Y-116622139D01*
X76730088Y-116154288D01*
X76468159Y-116061446D01*
X75529605Y-117000000D01*
X75170395Y-117000000D01*
X74231841Y-116061446D01*
X73969912Y-116154288D01*
X73751325Y-116746801D01*
X72147500Y-116746801D01*
X72147500Y-115881841D01*
X74411446Y-115881841D01*
X75350000Y-116820395D01*
X76288554Y-115881841D01*
X76195712Y-115619912D01*
X75603199Y-115401325D01*
X74972139Y-115426122D01*
X74504288Y-115619912D01*
X74411446Y-115881841D01*
X72147500Y-115881841D01*
X72147500Y-113383213D01*
X79311214Y-113383213D01*
X79562034Y-113990245D01*
X80026063Y-114455084D01*
X80632655Y-114706963D01*
X81289463Y-114707536D01*
X81896495Y-114456716D01*
X82361334Y-113992687D01*
X82613213Y-113386095D01*
X82613786Y-112729287D01*
X82362966Y-112122255D01*
X81898937Y-111657416D01*
X81292345Y-111405537D01*
X80635537Y-111404964D01*
X80028505Y-111655784D01*
X79563666Y-112119813D01*
X79311787Y-112726405D01*
X79311214Y-113383213D01*
X72147500Y-113383213D01*
X72147500Y-107450517D01*
X73976342Y-107450517D01*
X74202080Y-107996845D01*
X74619706Y-108415201D01*
X75165639Y-108641892D01*
X75756767Y-108642408D01*
X76303095Y-108416670D01*
X76721451Y-107999044D01*
X76948142Y-107453111D01*
X76948658Y-106861983D01*
X76722920Y-106315655D01*
X76305294Y-105897299D01*
X75759361Y-105670608D01*
X75168233Y-105670092D01*
X74621905Y-105895830D01*
X74203549Y-106313456D01*
X73976858Y-106859389D01*
X73976342Y-107450517D01*
X72147500Y-107450517D01*
X72147500Y-88400517D01*
X73976342Y-88400517D01*
X74202080Y-88946845D01*
X74619706Y-89365201D01*
X75165639Y-89591892D01*
X75756767Y-89592408D01*
X76303095Y-89366670D01*
X76721451Y-88949044D01*
X76948142Y-88403111D01*
X76948658Y-87811983D01*
X76722920Y-87265655D01*
X76305294Y-86847299D01*
X75759361Y-86620608D01*
X75168233Y-86620092D01*
X74621905Y-86845830D01*
X74203549Y-87263456D01*
X73976858Y-87809389D01*
X73976342Y-88400517D01*
X72147500Y-88400517D01*
X72147500Y-68420713D01*
X74311214Y-68420713D01*
X74562034Y-69027745D01*
X75026063Y-69492584D01*
X75200500Y-69565017D01*
X75200500Y-77994500D01*
X75258504Y-78286105D01*
X75362296Y-78441440D01*
X75423685Y-78533315D01*
X78215060Y-81324690D01*
X78215060Y-81562500D01*
X78259338Y-81797817D01*
X78398410Y-82013941D01*
X78604823Y-82154977D01*
X78411059Y-82279660D01*
X78266069Y-82491860D01*
X78215060Y-82743750D01*
X78215060Y-83366388D01*
X78043849Y-83537599D01*
X77879102Y-83784161D01*
X77821250Y-84075000D01*
X77821250Y-90172697D01*
X77192478Y-90801469D01*
X76898937Y-90507416D01*
X76292345Y-90255537D01*
X75635537Y-90254964D01*
X75028505Y-90505784D01*
X74563666Y-90969813D01*
X74311787Y-91576405D01*
X74311214Y-92233213D01*
X74562034Y-92840245D01*
X75026063Y-93305084D01*
X75632655Y-93556963D01*
X76289463Y-93557536D01*
X76896495Y-93306716D01*
X77361334Y-92842687D01*
X77460647Y-92603515D01*
X77699901Y-92443651D01*
X79118651Y-91024902D01*
X79283397Y-90778340D01*
X79283398Y-90778339D01*
X79341250Y-90487500D01*
X79341250Y-89807765D01*
X79629878Y-90096897D01*
X80493105Y-90455341D01*
X81427794Y-90456157D01*
X82291646Y-90099220D01*
X82583750Y-89807625D01*
X82583750Y-93606594D01*
X82362966Y-93072255D01*
X81898937Y-92607416D01*
X81292345Y-92355537D01*
X80635537Y-92354964D01*
X80028505Y-92605784D01*
X79563666Y-93069813D01*
X79311787Y-93676405D01*
X79311214Y-94333213D01*
X79562034Y-94940245D01*
X80026063Y-95405084D01*
X80632655Y-95656963D01*
X81289463Y-95657536D01*
X81896495Y-95406716D01*
X82361334Y-94942687D01*
X82583750Y-94407050D01*
X82583750Y-94935198D01*
X82075099Y-95443849D01*
X81910352Y-95690411D01*
X81852500Y-95981250D01*
X81852500Y-101238645D01*
X81711059Y-101329660D01*
X81566069Y-101541860D01*
X81515060Y-101793750D01*
X81515060Y-102993750D01*
X81559338Y-103229067D01*
X81698410Y-103445191D01*
X81910610Y-103590181D01*
X82162500Y-103641190D01*
X82782309Y-103641190D01*
X83238000Y-104096881D01*
X83238000Y-106510878D01*
X82955470Y-105827104D01*
X82295122Y-105165603D01*
X81431895Y-104807159D01*
X80497206Y-104806343D01*
X79633354Y-105163280D01*
X79341250Y-105454875D01*
X79341250Y-103641190D01*
X79762500Y-103641190D01*
X79997817Y-103596912D01*
X80213941Y-103457840D01*
X80358931Y-103245640D01*
X80409940Y-102993750D01*
X80409940Y-101793750D01*
X80365662Y-101558433D01*
X80226590Y-101342309D01*
X80014390Y-101197319D01*
X79762500Y-101146310D01*
X78862500Y-101146310D01*
X78627183Y-101190588D01*
X78411059Y-101329660D01*
X78266069Y-101541860D01*
X78215060Y-101793750D01*
X78215060Y-102416388D01*
X78043849Y-102587599D01*
X77879102Y-102834161D01*
X77821250Y-103125000D01*
X77821250Y-109222697D01*
X77192478Y-109851469D01*
X76898937Y-109557416D01*
X76292345Y-109305537D01*
X75635537Y-109304964D01*
X75028505Y-109555784D01*
X74563666Y-110019813D01*
X74311787Y-110626405D01*
X74311214Y-111283213D01*
X74562034Y-111890245D01*
X75026063Y-112355084D01*
X75632655Y-112606963D01*
X76289463Y-112607536D01*
X76896495Y-112356716D01*
X77361334Y-111892687D01*
X77460647Y-111653515D01*
X77699901Y-111493651D01*
X79118651Y-110074902D01*
X79283397Y-109828340D01*
X79283398Y-109828339D01*
X79341250Y-109537500D01*
X79341250Y-108857765D01*
X79629878Y-109146897D01*
X80493105Y-109505341D01*
X81427794Y-109506157D01*
X82291646Y-109149220D01*
X82953147Y-108488872D01*
X83238000Y-107802871D01*
X83238000Y-125560878D01*
X82955470Y-124877104D01*
X82295122Y-124215603D01*
X81431895Y-123857159D01*
X80497206Y-123856343D01*
X79633354Y-124213280D01*
X78971853Y-124873628D01*
X78613409Y-125736855D01*
X78612593Y-126671544D01*
X78969530Y-127535396D01*
X79629878Y-128196897D01*
X80493105Y-128555341D01*
X81427794Y-128556157D01*
X82291646Y-128199220D01*
X82953147Y-127538872D01*
X83238000Y-126852871D01*
X83238000Y-127000000D01*
X83296004Y-127291605D01*
X83409314Y-127461185D01*
X83461185Y-127538815D01*
X84461185Y-128538816D01*
X84708396Y-128703997D01*
X85000000Y-128762000D01*
X85849831Y-128762000D01*
X85664683Y-128796838D01*
X85448559Y-128935910D01*
X85303569Y-129148110D01*
X85284100Y-129244250D01*
X77434033Y-129244250D01*
X77362966Y-129072255D01*
X76898937Y-128607416D01*
X76292345Y-128355537D01*
X75635537Y-128354964D01*
X75028505Y-128605784D01*
X74563666Y-129069813D01*
X74311787Y-129676405D01*
X74311214Y-130333213D01*
X74562034Y-130940245D01*
X75026063Y-131405084D01*
X75632655Y-131656963D01*
X76289463Y-131657536D01*
X76896495Y-131406716D01*
X77361334Y-130942687D01*
X77433767Y-130768250D01*
X79965930Y-130768250D01*
X79563666Y-131169813D01*
X79311787Y-131776405D01*
X79311214Y-132433213D01*
X79562034Y-133040245D01*
X80026063Y-133505084D01*
X80632655Y-133756963D01*
X81289463Y-133757536D01*
X81896495Y-133506716D01*
X82361334Y-133042687D01*
X82613213Y-132436095D01*
X82613215Y-132433213D01*
X98361214Y-132433213D01*
X98612034Y-133040245D01*
X99076063Y-133505084D01*
X99682655Y-133756963D01*
X100339463Y-133757536D01*
X100946495Y-133506716D01*
X101411334Y-133042687D01*
X101663213Y-132436095D01*
X101663215Y-132433213D01*
X117411214Y-132433213D01*
X117662034Y-133040245D01*
X118126063Y-133505084D01*
X118732655Y-133756963D01*
X119389463Y-133757536D01*
X119996495Y-133506716D01*
X120461334Y-133042687D01*
X120713213Y-132436095D01*
X120713786Y-131779287D01*
X120462966Y-131172255D01*
X119998937Y-130707416D01*
X119392345Y-130455537D01*
X118735537Y-130454964D01*
X118128505Y-130705784D01*
X117663666Y-131169813D01*
X117411787Y-131776405D01*
X117411214Y-132433213D01*
X101663215Y-132433213D01*
X101663786Y-131779287D01*
X101412966Y-131172255D01*
X100948937Y-130707416D01*
X100342345Y-130455537D01*
X99685537Y-130454964D01*
X99078505Y-130705784D01*
X98613666Y-131169813D01*
X98361787Y-131776405D01*
X98361214Y-132433213D01*
X82613215Y-132433213D01*
X82613786Y-131779287D01*
X82362966Y-131172255D01*
X81959665Y-130768250D01*
X85284218Y-130768250D01*
X85296838Y-130835317D01*
X85435910Y-131051441D01*
X85648110Y-131196431D01*
X85900000Y-131247440D01*
X86800000Y-131247440D01*
X87035317Y-131203162D01*
X87251441Y-131064090D01*
X87396431Y-130851890D01*
X87447440Y-130600000D01*
X87447440Y-129525070D01*
X88461185Y-130538815D01*
X88552560Y-130599870D01*
X88552560Y-130600000D01*
X88596838Y-130835317D01*
X88735910Y-131051441D01*
X88948110Y-131196431D01*
X89200000Y-131247440D01*
X90100000Y-131247440D01*
X90335317Y-131203162D01*
X90551441Y-131064090D01*
X90696431Y-130851890D01*
X90747440Y-130600000D01*
X90747440Y-130333213D01*
X93361214Y-130333213D01*
X93612034Y-130940245D01*
X94076063Y-131405084D01*
X94682655Y-131656963D01*
X95339463Y-131657536D01*
X95946495Y-131406716D01*
X96411334Y-130942687D01*
X96510647Y-130703515D01*
X96749901Y-130543651D01*
X96960339Y-130333213D01*
X112411214Y-130333213D01*
X112662034Y-130940245D01*
X113126063Y-131405084D01*
X113732655Y-131656963D01*
X114389463Y-131657536D01*
X114996495Y-131406716D01*
X115461334Y-130942687D01*
X115560647Y-130703515D01*
X115799901Y-130543651D01*
X117218651Y-129124902D01*
X117344930Y-128935910D01*
X117383398Y-128878339D01*
X117441250Y-128587500D01*
X117441250Y-127907765D01*
X117729878Y-128196897D01*
X118593105Y-128555341D01*
X119527794Y-128556157D01*
X120391646Y-128199220D01*
X121053147Y-127538872D01*
X121411591Y-126675645D01*
X121411743Y-126500517D01*
X123076342Y-126500517D01*
X123302080Y-127046845D01*
X123719706Y-127465201D01*
X124265639Y-127691892D01*
X124856767Y-127692408D01*
X125403095Y-127466670D01*
X125821451Y-127049044D01*
X126048142Y-126503111D01*
X126048658Y-125911983D01*
X125822920Y-125365655D01*
X125405294Y-124947299D01*
X124859361Y-124720608D01*
X124268233Y-124720092D01*
X123721905Y-124945830D01*
X123303549Y-125363456D01*
X123076858Y-125909389D01*
X123076342Y-126500517D01*
X121411743Y-126500517D01*
X121412407Y-125740956D01*
X121055470Y-124877104D01*
X120395122Y-124215603D01*
X119531895Y-123857159D01*
X118597206Y-123856343D01*
X117733354Y-124213280D01*
X117441250Y-124504875D01*
X117441250Y-122691190D01*
X117862500Y-122691190D01*
X118097817Y-122646912D01*
X118313941Y-122507840D01*
X118458931Y-122295640D01*
X118509940Y-122043750D01*
X118509940Y-120843750D01*
X118465662Y-120608433D01*
X118326590Y-120392309D01*
X118114390Y-120247319D01*
X117862500Y-120196310D01*
X116962500Y-120196310D01*
X116727183Y-120240588D01*
X116511059Y-120379660D01*
X116366069Y-120591860D01*
X116315060Y-120843750D01*
X116315060Y-121466388D01*
X116143849Y-121637599D01*
X115979102Y-121884161D01*
X115921250Y-122175000D01*
X115921250Y-128272697D01*
X115292478Y-128901469D01*
X114998937Y-128607416D01*
X114392345Y-128355537D01*
X113735537Y-128354964D01*
X113128505Y-128605784D01*
X112663666Y-129069813D01*
X112411787Y-129676405D01*
X112411214Y-130333213D01*
X96960339Y-130333213D01*
X98168651Y-129124902D01*
X98294930Y-128935910D01*
X98333398Y-128878339D01*
X98391250Y-128587500D01*
X98391250Y-127907765D01*
X98679878Y-128196897D01*
X99543105Y-128555341D01*
X100477794Y-128556157D01*
X101341646Y-128199220D01*
X102003147Y-127538872D01*
X102361591Y-126675645D01*
X102361743Y-126500517D01*
X104026342Y-126500517D01*
X104252080Y-127046845D01*
X104669706Y-127465201D01*
X105215639Y-127691892D01*
X105806767Y-127692408D01*
X106353095Y-127466670D01*
X106771451Y-127049044D01*
X106998142Y-126503111D01*
X106998144Y-126500517D01*
X112076342Y-126500517D01*
X112302080Y-127046845D01*
X112719706Y-127465201D01*
X113265639Y-127691892D01*
X113856767Y-127692408D01*
X114403095Y-127466670D01*
X114821451Y-127049044D01*
X115048142Y-126503111D01*
X115048658Y-125911983D01*
X114822920Y-125365655D01*
X114405294Y-124947299D01*
X113859361Y-124720608D01*
X113268233Y-124720092D01*
X112721905Y-124945830D01*
X112303549Y-125363456D01*
X112076858Y-125909389D01*
X112076342Y-126500517D01*
X106998144Y-126500517D01*
X106998658Y-125911983D01*
X106772920Y-125365655D01*
X106355294Y-124947299D01*
X105809361Y-124720608D01*
X105218233Y-124720092D01*
X104671905Y-124945830D01*
X104253549Y-125363456D01*
X104026858Y-125909389D01*
X104026342Y-126500517D01*
X102361743Y-126500517D01*
X102362407Y-125740956D01*
X102005470Y-124877104D01*
X101345122Y-124215603D01*
X100481895Y-123857159D01*
X99547206Y-123856343D01*
X98683354Y-124213280D01*
X98391250Y-124504875D01*
X98391250Y-122691190D01*
X98812500Y-122691190D01*
X99047817Y-122646912D01*
X99263941Y-122507840D01*
X99408931Y-122295640D01*
X99459940Y-122043750D01*
X99459940Y-120843750D01*
X99415662Y-120608433D01*
X99276590Y-120392309D01*
X99064390Y-120247319D01*
X98812500Y-120196310D01*
X97912500Y-120196310D01*
X97677183Y-120240588D01*
X97461059Y-120379660D01*
X97316069Y-120591860D01*
X97265060Y-120843750D01*
X97265060Y-121466388D01*
X97093849Y-121637599D01*
X96929102Y-121884161D01*
X96871250Y-122175000D01*
X96871250Y-128272697D01*
X96242478Y-128901469D01*
X95948937Y-128607416D01*
X95342345Y-128355537D01*
X94685537Y-128354964D01*
X94078505Y-128605784D01*
X93613666Y-129069813D01*
X93361787Y-129676405D01*
X93361214Y-130333213D01*
X90747440Y-130333213D01*
X90747440Y-129400000D01*
X90703162Y-129164683D01*
X90564090Y-128948559D01*
X90351890Y-128803569D01*
X90100000Y-128752560D01*
X89200000Y-128752560D01*
X88964683Y-128796838D01*
X88909790Y-128832160D01*
X87538815Y-127461185D01*
X87400902Y-127369034D01*
X87721451Y-127049044D01*
X87948142Y-126503111D01*
X87948144Y-126500517D01*
X93026342Y-126500517D01*
X93252080Y-127046845D01*
X93669706Y-127465201D01*
X94215639Y-127691892D01*
X94806767Y-127692408D01*
X95353095Y-127466670D01*
X95771451Y-127049044D01*
X95998142Y-126503111D01*
X95998658Y-125911983D01*
X95772920Y-125365655D01*
X95355294Y-124947299D01*
X94809361Y-124720608D01*
X94218233Y-124720092D01*
X93671905Y-124945830D01*
X93253549Y-125363456D01*
X93026858Y-125909389D01*
X93026342Y-126500517D01*
X87948144Y-126500517D01*
X87948658Y-125911983D01*
X87722920Y-125365655D01*
X87305294Y-124947299D01*
X86759361Y-124720608D01*
X86168233Y-124720092D01*
X85621905Y-124945830D01*
X85203549Y-125363456D01*
X84976858Y-125909389D01*
X84976342Y-126500517D01*
X85202080Y-127046845D01*
X85392901Y-127238000D01*
X85315631Y-127238000D01*
X84762000Y-126684370D01*
X84762000Y-122230094D01*
X85052004Y-122230094D01*
X85223719Y-122645677D01*
X85541400Y-122963913D01*
X85956683Y-123136353D01*
X86406344Y-123136746D01*
X86821927Y-122965031D01*
X87140163Y-122647350D01*
X87312603Y-122232067D01*
X87312996Y-121782406D01*
X87141281Y-121366823D01*
X86823600Y-121048587D01*
X86408317Y-120876147D01*
X85958656Y-120875754D01*
X85543073Y-121047469D01*
X85224837Y-121365150D01*
X85052397Y-121780433D01*
X85052004Y-122230094D01*
X84762000Y-122230094D01*
X84762000Y-103781250D01*
X84703996Y-103489645D01*
X84540957Y-103245640D01*
X84538815Y-103242434D01*
X84476475Y-103180094D01*
X85052004Y-103180094D01*
X85223719Y-103595677D01*
X85541400Y-103913913D01*
X85956683Y-104086353D01*
X86406344Y-104086746D01*
X86821927Y-103915031D01*
X87140163Y-103597350D01*
X87312603Y-103182067D01*
X87312996Y-102732406D01*
X87141281Y-102316823D01*
X86823600Y-101998587D01*
X86408317Y-101826147D01*
X85958656Y-101825754D01*
X85543073Y-101997469D01*
X85224837Y-102315150D01*
X85052397Y-102730433D01*
X85052004Y-103180094D01*
X84476475Y-103180094D01*
X83709940Y-102413560D01*
X83709940Y-101793750D01*
X83665662Y-101558433D01*
X83526590Y-101342309D01*
X83372500Y-101237024D01*
X83372500Y-96296052D01*
X83881151Y-95787401D01*
X84045898Y-95540839D01*
X84103750Y-95250000D01*
X84103750Y-88400517D01*
X84976342Y-88400517D01*
X85202080Y-88946845D01*
X85619706Y-89365201D01*
X86165639Y-89591892D01*
X86756767Y-89592408D01*
X87303095Y-89366670D01*
X87721451Y-88949044D01*
X87738000Y-88909190D01*
X87738000Y-106352151D01*
X87722920Y-106315655D01*
X87305294Y-105897299D01*
X86759361Y-105670608D01*
X86168233Y-105670092D01*
X85621905Y-105895830D01*
X85203549Y-106313456D01*
X84976858Y-106859389D01*
X84976342Y-107450517D01*
X85202080Y-107996845D01*
X85619706Y-108415201D01*
X86165639Y-108641892D01*
X86756767Y-108642408D01*
X87303095Y-108416670D01*
X87721451Y-107999044D01*
X87738000Y-107959190D01*
X87738000Y-115684369D01*
X87400357Y-116022013D01*
X87306337Y-116021931D01*
X86946788Y-116170493D01*
X86671460Y-116445341D01*
X86522270Y-116804630D01*
X86521931Y-117193663D01*
X86670493Y-117553212D01*
X86945341Y-117828540D01*
X87304630Y-117977730D01*
X87693663Y-117978069D01*
X88053212Y-117829507D01*
X88328540Y-117554659D01*
X88477730Y-117195370D01*
X88477813Y-117099817D01*
X89038816Y-116538815D01*
X89203997Y-116291604D01*
X89262000Y-116000000D01*
X89262000Y-107450517D01*
X93026342Y-107450517D01*
X93252080Y-107996845D01*
X93669706Y-108415201D01*
X94215639Y-108641892D01*
X94806767Y-108642408D01*
X95353095Y-108416670D01*
X95771451Y-107999044D01*
X95998142Y-107453111D01*
X95998658Y-106861983D01*
X95772920Y-106315655D01*
X95355294Y-105897299D01*
X94809361Y-105670608D01*
X94218233Y-105670092D01*
X93671905Y-105895830D01*
X93253549Y-106313456D01*
X93026858Y-106859389D01*
X93026342Y-107450517D01*
X89262000Y-107450517D01*
X89262000Y-88400517D01*
X93026342Y-88400517D01*
X93252080Y-88946845D01*
X93669706Y-89365201D01*
X94215639Y-89591892D01*
X94806767Y-89592408D01*
X95353095Y-89366670D01*
X95771451Y-88949044D01*
X95998142Y-88403111D01*
X95998658Y-87811983D01*
X95772920Y-87265655D01*
X95355294Y-86847299D01*
X94809361Y-86620608D01*
X94218233Y-86620092D01*
X93671905Y-86845830D01*
X93253549Y-87263456D01*
X93026858Y-87809389D01*
X93026342Y-88400517D01*
X89262000Y-88400517D01*
X89262000Y-85621083D01*
X89328540Y-85554659D01*
X89477730Y-85195370D01*
X89478069Y-84806337D01*
X89329507Y-84446788D01*
X89054659Y-84171460D01*
X88695370Y-84022270D01*
X88306337Y-84021931D01*
X87946788Y-84170493D01*
X87671460Y-84445341D01*
X87522270Y-84804630D01*
X87521931Y-85193663D01*
X87670493Y-85553212D01*
X87738000Y-85620837D01*
X87738000Y-87302151D01*
X87722920Y-87265655D01*
X87305294Y-86847299D01*
X86759361Y-86620608D01*
X86168233Y-86620092D01*
X85621905Y-86845830D01*
X85203549Y-87263456D01*
X84976858Y-87809389D01*
X84976342Y-88400517D01*
X84103750Y-88400517D01*
X84103750Y-84130094D01*
X85052004Y-84130094D01*
X85223719Y-84545677D01*
X85541400Y-84863913D01*
X85956683Y-85036353D01*
X86406344Y-85036746D01*
X86821927Y-84865031D01*
X87140163Y-84547350D01*
X87312603Y-84132067D01*
X87312996Y-83682406D01*
X87141281Y-83266823D01*
X86823600Y-82948587D01*
X86408317Y-82776147D01*
X85958656Y-82775754D01*
X85543073Y-82947469D01*
X85224837Y-83265150D01*
X85052397Y-83680433D01*
X85052004Y-84130094D01*
X84103750Y-84130094D01*
X84103750Y-84075000D01*
X84045898Y-83784161D01*
X83881151Y-83537599D01*
X83709940Y-83366388D01*
X83709940Y-82743750D01*
X83665662Y-82508433D01*
X83526590Y-82292309D01*
X83374500Y-82188390D01*
X83374500Y-82116318D01*
X83513941Y-82026590D01*
X83658931Y-81814390D01*
X83677134Y-81724500D01*
X90055543Y-81724500D01*
X90022270Y-81804630D01*
X90021931Y-82193663D01*
X90170493Y-82553212D01*
X90445341Y-82828540D01*
X90804630Y-82977730D01*
X91193663Y-82978069D01*
X91553212Y-82829507D01*
X91620837Y-82762000D01*
X97265060Y-82762000D01*
X97265060Y-83366388D01*
X97093849Y-83537599D01*
X96929102Y-83784161D01*
X96871250Y-84075000D01*
X96871250Y-90172697D01*
X96242478Y-90801469D01*
X95948937Y-90507416D01*
X95342345Y-90255537D01*
X94685537Y-90254964D01*
X94078505Y-90505784D01*
X93613666Y-90969813D01*
X93361787Y-91576405D01*
X93361214Y-92233213D01*
X93612034Y-92840245D01*
X94076063Y-93305084D01*
X94682655Y-93556963D01*
X95339463Y-93557536D01*
X95946495Y-93306716D01*
X96411334Y-92842687D01*
X96510647Y-92603515D01*
X96749901Y-92443651D01*
X98168651Y-91024902D01*
X98333397Y-90778340D01*
X98333398Y-90778339D01*
X98391250Y-90487500D01*
X98391250Y-89807765D01*
X98679878Y-90096897D01*
X99543105Y-90455341D01*
X100477794Y-90456157D01*
X101341646Y-90099220D01*
X101633750Y-89807625D01*
X101633750Y-93606594D01*
X101412966Y-93072255D01*
X100948937Y-92607416D01*
X100342345Y-92355537D01*
X99685537Y-92354964D01*
X99078505Y-92605784D01*
X98613666Y-93069813D01*
X98361787Y-93676405D01*
X98361214Y-94333213D01*
X98612034Y-94940245D01*
X99076063Y-95405084D01*
X99682655Y-95656963D01*
X100339463Y-95657536D01*
X100946495Y-95406716D01*
X101411334Y-94942687D01*
X101633750Y-94407050D01*
X101633750Y-94935198D01*
X101125099Y-95443849D01*
X100960352Y-95690411D01*
X100902500Y-95981250D01*
X100902500Y-101238645D01*
X100761059Y-101329660D01*
X100616069Y-101541860D01*
X100565060Y-101793750D01*
X100565060Y-102993750D01*
X100609338Y-103229067D01*
X100748410Y-103445191D01*
X100960610Y-103590181D01*
X101212500Y-103641190D01*
X101633750Y-103641190D01*
X101633750Y-105454735D01*
X101345122Y-105165603D01*
X100481895Y-104807159D01*
X99547206Y-104806343D01*
X98683354Y-105163280D01*
X98391250Y-105454875D01*
X98391250Y-103641190D01*
X98812500Y-103641190D01*
X99047817Y-103596912D01*
X99263941Y-103457840D01*
X99408931Y-103245640D01*
X99459940Y-102993750D01*
X99459940Y-101793750D01*
X99415662Y-101558433D01*
X99276590Y-101342309D01*
X99064390Y-101197319D01*
X98812500Y-101146310D01*
X97912500Y-101146310D01*
X97677183Y-101190588D01*
X97461059Y-101329660D01*
X97316069Y-101541860D01*
X97265060Y-101793750D01*
X97265060Y-102416388D01*
X97093849Y-102587599D01*
X96929102Y-102834161D01*
X96871250Y-103125000D01*
X96871250Y-109222697D01*
X96242478Y-109851469D01*
X95948937Y-109557416D01*
X95342345Y-109305537D01*
X94685537Y-109304964D01*
X94078505Y-109555784D01*
X93613666Y-110019813D01*
X93361787Y-110626405D01*
X93361214Y-111283213D01*
X93612034Y-111890245D01*
X94076063Y-112355084D01*
X94682655Y-112606963D01*
X95339463Y-112607536D01*
X95946495Y-112356716D01*
X96411334Y-111892687D01*
X96510647Y-111653515D01*
X96749901Y-111493651D01*
X98168651Y-110074902D01*
X98333397Y-109828340D01*
X98333398Y-109828339D01*
X98391250Y-109537500D01*
X98391250Y-108857765D01*
X98679878Y-109146897D01*
X99543105Y-109505341D01*
X100477794Y-109506157D01*
X101341646Y-109149220D01*
X101633750Y-108857625D01*
X101633750Y-112656594D01*
X101412966Y-112122255D01*
X100948937Y-111657416D01*
X100342345Y-111405537D01*
X99685537Y-111404964D01*
X99078505Y-111655784D01*
X98613666Y-112119813D01*
X98361787Y-112726405D01*
X98361214Y-113383213D01*
X98612034Y-113990245D01*
X99076063Y-114455084D01*
X99682655Y-114706963D01*
X100339463Y-114707536D01*
X100946495Y-114456716D01*
X101411334Y-113992687D01*
X101633750Y-113457050D01*
X101633750Y-113985198D01*
X101125099Y-114493849D01*
X100960352Y-114740411D01*
X100902500Y-115031250D01*
X100902500Y-120288645D01*
X100761059Y-120379660D01*
X100616069Y-120591860D01*
X100565060Y-120843750D01*
X100565060Y-122043750D01*
X100609338Y-122279067D01*
X100748410Y-122495191D01*
X100960610Y-122640181D01*
X101212500Y-122691190D01*
X102112500Y-122691190D01*
X102347817Y-122646912D01*
X102563941Y-122507840D01*
X102708931Y-122295640D01*
X102722204Y-122230094D01*
X104102004Y-122230094D01*
X104273719Y-122645677D01*
X104591400Y-122963913D01*
X105006683Y-123136353D01*
X105456344Y-123136746D01*
X105871927Y-122965031D01*
X106190163Y-122647350D01*
X106362603Y-122232067D01*
X106362996Y-121782406D01*
X106191281Y-121366823D01*
X105873600Y-121048587D01*
X105458317Y-120876147D01*
X105008656Y-120875754D01*
X104593073Y-121047469D01*
X104274837Y-121365150D01*
X104102397Y-121780433D01*
X104102004Y-122230094D01*
X102722204Y-122230094D01*
X102759940Y-122043750D01*
X102759940Y-120843750D01*
X102715662Y-120608433D01*
X102576590Y-120392309D01*
X102422500Y-120287024D01*
X102422500Y-115346052D01*
X102931151Y-114837401D01*
X103095898Y-114590839D01*
X103153750Y-114300000D01*
X103153750Y-107450517D01*
X104026342Y-107450517D01*
X104252080Y-107996845D01*
X104669706Y-108415201D01*
X105215639Y-108641892D01*
X105806767Y-108642408D01*
X106353095Y-108416670D01*
X106771451Y-107999044D01*
X106998142Y-107453111D01*
X106998144Y-107450517D01*
X112076342Y-107450517D01*
X112302080Y-107996845D01*
X112719706Y-108415201D01*
X113265639Y-108641892D01*
X113856767Y-108642408D01*
X114403095Y-108416670D01*
X114821451Y-107999044D01*
X115048142Y-107453111D01*
X115048658Y-106861983D01*
X114822920Y-106315655D01*
X114405294Y-105897299D01*
X113859361Y-105670608D01*
X113268233Y-105670092D01*
X112721905Y-105895830D01*
X112303549Y-106313456D01*
X112076858Y-106859389D01*
X112076342Y-107450517D01*
X106998144Y-107450517D01*
X106998658Y-106861983D01*
X106772920Y-106315655D01*
X106355294Y-105897299D01*
X105809361Y-105670608D01*
X105218233Y-105670092D01*
X104671905Y-105895830D01*
X104253549Y-106313456D01*
X104026858Y-106859389D01*
X104026342Y-107450517D01*
X103153750Y-107450517D01*
X103153750Y-103180094D01*
X104102004Y-103180094D01*
X104273719Y-103595677D01*
X104591400Y-103913913D01*
X105006683Y-104086353D01*
X105456344Y-104086746D01*
X105871927Y-103915031D01*
X106190163Y-103597350D01*
X106362603Y-103182067D01*
X106362996Y-102732406D01*
X106191281Y-102316823D01*
X105873600Y-101998587D01*
X105458317Y-101826147D01*
X105008656Y-101825754D01*
X104593073Y-101997469D01*
X104274837Y-102315150D01*
X104102397Y-102730433D01*
X104102004Y-103180094D01*
X103153750Y-103180094D01*
X103153750Y-103125000D01*
X103095898Y-102834161D01*
X102931151Y-102587599D01*
X102759940Y-102416388D01*
X102759940Y-101793750D01*
X102715662Y-101558433D01*
X102576590Y-101342309D01*
X102422500Y-101237024D01*
X102422500Y-96296052D01*
X102931151Y-95787401D01*
X103095898Y-95540839D01*
X103153750Y-95250000D01*
X103153750Y-88400517D01*
X104026342Y-88400517D01*
X104252080Y-88946845D01*
X104669706Y-89365201D01*
X105215639Y-89591892D01*
X105806767Y-89592408D01*
X106353095Y-89366670D01*
X106771451Y-88949044D01*
X106998142Y-88403111D01*
X106998144Y-88400517D01*
X112076342Y-88400517D01*
X112302080Y-88946845D01*
X112719706Y-89365201D01*
X113265639Y-89591892D01*
X113856767Y-89592408D01*
X114403095Y-89366670D01*
X114821451Y-88949044D01*
X115048142Y-88403111D01*
X115048658Y-87811983D01*
X114822920Y-87265655D01*
X114405294Y-86847299D01*
X113859361Y-86620608D01*
X113268233Y-86620092D01*
X112721905Y-86845830D01*
X112303549Y-87263456D01*
X112076858Y-87809389D01*
X112076342Y-88400517D01*
X106998144Y-88400517D01*
X106998658Y-87811983D01*
X106772920Y-87265655D01*
X106355294Y-86847299D01*
X105809361Y-86620608D01*
X105218233Y-86620092D01*
X104671905Y-86845830D01*
X104253549Y-87263456D01*
X104026858Y-87809389D01*
X104026342Y-88400517D01*
X103153750Y-88400517D01*
X103153750Y-84130094D01*
X104102004Y-84130094D01*
X104273719Y-84545677D01*
X104591400Y-84863913D01*
X105006683Y-85036353D01*
X105456344Y-85036746D01*
X105871927Y-84865031D01*
X106190163Y-84547350D01*
X106362603Y-84132067D01*
X106362996Y-83682406D01*
X106191281Y-83266823D01*
X105873600Y-82948587D01*
X105458317Y-82776147D01*
X105008656Y-82775754D01*
X104593073Y-82947469D01*
X104274837Y-83265150D01*
X104102397Y-83680433D01*
X104102004Y-84130094D01*
X103153750Y-84130094D01*
X103153750Y-84075000D01*
X103095898Y-83784161D01*
X102931151Y-83537599D01*
X102759940Y-83366388D01*
X102759940Y-82743750D01*
X102715662Y-82508433D01*
X102576590Y-82292309D01*
X102364390Y-82147319D01*
X102112500Y-82096310D01*
X101212500Y-82096310D01*
X100977183Y-82140588D01*
X100819612Y-82241982D01*
X100302130Y-81724500D01*
X109037500Y-81724500D01*
X109329105Y-81666496D01*
X109576315Y-81501315D01*
X111968815Y-79108815D01*
X112133996Y-78861605D01*
X112192000Y-78570000D01*
X112192000Y-75856705D01*
X112220303Y-75845010D01*
X112613629Y-75452370D01*
X112699949Y-75244488D01*
X112784990Y-75450303D01*
X113177630Y-75843629D01*
X113690900Y-76056757D01*
X114246661Y-76057242D01*
X114760303Y-75845010D01*
X115153629Y-75452370D01*
X115239949Y-75244488D01*
X115324990Y-75450303D01*
X115717630Y-75843629D01*
X116230900Y-76056757D01*
X116786661Y-76057242D01*
X117300303Y-75845010D01*
X117693629Y-75452370D01*
X117779949Y-75244488D01*
X117864990Y-75450303D01*
X118257630Y-75843629D01*
X118770900Y-76056757D01*
X119326661Y-76057242D01*
X119840303Y-75845010D01*
X120233629Y-75452370D01*
X120446757Y-74939100D01*
X120447242Y-74383339D01*
X120235010Y-73869697D01*
X119842370Y-73476371D01*
X119329100Y-73263243D01*
X118773339Y-73262758D01*
X118259697Y-73474990D01*
X117866371Y-73867630D01*
X117780051Y-74075512D01*
X117695010Y-73869697D01*
X117302370Y-73476371D01*
X116789100Y-73263243D01*
X116233339Y-73262758D01*
X115719697Y-73474990D01*
X115326371Y-73867630D01*
X115240051Y-74075512D01*
X115155010Y-73869697D01*
X114762370Y-73476371D01*
X114249100Y-73263243D01*
X113693339Y-73262758D01*
X113179697Y-73474990D01*
X112786371Y-73867630D01*
X112700051Y-74075512D01*
X112615010Y-73869697D01*
X112222370Y-73476371D01*
X111709100Y-73263243D01*
X111153339Y-73262758D01*
X110639697Y-73474990D01*
X110246371Y-73867630D01*
X110160051Y-74075512D01*
X110075010Y-73869697D01*
X109682370Y-73476371D01*
X109169100Y-73263243D01*
X108613339Y-73262758D01*
X108099697Y-73474990D01*
X107706371Y-73867630D01*
X107620051Y-74075512D01*
X107535010Y-73869697D01*
X107142370Y-73476371D01*
X106629100Y-73263243D01*
X106073339Y-73262758D01*
X105559697Y-73474990D01*
X105166371Y-73867630D01*
X105080051Y-74075512D01*
X104995010Y-73869697D01*
X104602370Y-73476371D01*
X104089100Y-73263243D01*
X103533339Y-73262758D01*
X103019697Y-73474990D01*
X102626371Y-73867630D01*
X102540051Y-74075512D01*
X102455010Y-73869697D01*
X102062370Y-73476371D01*
X101549100Y-73263243D01*
X100993339Y-73262758D01*
X100479697Y-73474990D01*
X100086371Y-73867630D01*
X100000051Y-74075512D01*
X99915010Y-73869697D01*
X99522370Y-73476371D01*
X99009100Y-73263243D01*
X98453339Y-73262758D01*
X97939697Y-73474990D01*
X97546371Y-73867630D01*
X97460051Y-74075512D01*
X97375010Y-73869697D01*
X96982370Y-73476371D01*
X96469100Y-73263243D01*
X95913339Y-73262758D01*
X95399697Y-73474990D01*
X95006371Y-73867630D01*
X94920051Y-74075512D01*
X94835010Y-73869697D01*
X94442370Y-73476371D01*
X93929100Y-73263243D01*
X93373339Y-73262758D01*
X92859697Y-73474990D01*
X92466371Y-73867630D01*
X92380051Y-74075512D01*
X92295010Y-73869697D01*
X91902370Y-73476371D01*
X91389100Y-73263243D01*
X90833339Y-73262758D01*
X90319697Y-73474990D01*
X89926371Y-73867630D01*
X89713243Y-74380900D01*
X89712758Y-74936661D01*
X89924990Y-75450303D01*
X90317630Y-75843629D01*
X90830900Y-76056757D01*
X91386661Y-76057242D01*
X91900303Y-75845010D01*
X92293629Y-75452370D01*
X92379949Y-75244488D01*
X92464990Y-75450303D01*
X92857630Y-75843629D01*
X93370900Y-76056757D01*
X93926661Y-76057242D01*
X94440303Y-75845010D01*
X94833629Y-75452370D01*
X94919949Y-75244488D01*
X95004990Y-75450303D01*
X95397630Y-75843629D01*
X95910900Y-76056757D01*
X96466661Y-76057242D01*
X96980303Y-75845010D01*
X97373629Y-75452370D01*
X97459949Y-75244488D01*
X97544990Y-75450303D01*
X97937630Y-75843629D01*
X98450900Y-76056757D01*
X99006661Y-76057242D01*
X99520303Y-75845010D01*
X99913629Y-75452370D01*
X99999949Y-75244488D01*
X100084990Y-75450303D01*
X100477630Y-75843629D01*
X100990900Y-76056757D01*
X101546661Y-76057242D01*
X102060303Y-75845010D01*
X102453629Y-75452370D01*
X102539949Y-75244488D01*
X102624990Y-75450303D01*
X103017630Y-75843629D01*
X103530900Y-76056757D01*
X104086661Y-76057242D01*
X104600303Y-75845010D01*
X104993629Y-75452370D01*
X105079949Y-75244488D01*
X105164990Y-75450303D01*
X105557630Y-75843629D01*
X106070900Y-76056757D01*
X106626661Y-76057242D01*
X107140303Y-75845010D01*
X107533629Y-75452370D01*
X107619949Y-75244488D01*
X107704990Y-75450303D01*
X108097630Y-75843629D01*
X108610900Y-76056757D01*
X109166661Y-76057242D01*
X109680303Y-75845010D01*
X110073629Y-75452370D01*
X110159949Y-75244488D01*
X110244990Y-75450303D01*
X110637630Y-75843629D01*
X110668000Y-75856240D01*
X110668000Y-78254370D01*
X108721870Y-80200500D01*
X91975600Y-80200500D01*
X91977730Y-80195370D01*
X91978069Y-79806337D01*
X91829507Y-79446788D01*
X91554659Y-79171460D01*
X91195370Y-79022270D01*
X91099817Y-79022187D01*
X90120065Y-78042435D01*
X90028495Y-77981250D01*
X89872855Y-77877254D01*
X89581250Y-77819250D01*
X83679458Y-77819250D01*
X83665662Y-77745933D01*
X83526590Y-77529809D01*
X83374500Y-77425890D01*
X83374500Y-72203130D01*
X87156917Y-68420713D01*
X93361214Y-68420713D01*
X93612034Y-69027745D01*
X94076063Y-69492584D01*
X94682655Y-69744463D01*
X95339463Y-69745036D01*
X95946495Y-69494216D01*
X96411334Y-69030187D01*
X96663213Y-68423595D01*
X96663786Y-67766787D01*
X96412966Y-67159755D01*
X95948937Y-66694916D01*
X95342345Y-66443037D01*
X94685537Y-66442464D01*
X94078505Y-66693284D01*
X93613666Y-67157313D01*
X93361787Y-67763905D01*
X93361214Y-68420713D01*
X87156917Y-68420713D01*
X90989613Y-64588017D01*
X93026342Y-64588017D01*
X93252080Y-65134345D01*
X93669706Y-65552701D01*
X94215639Y-65779392D01*
X94806767Y-65779908D01*
X95353095Y-65554170D01*
X95771451Y-65136544D01*
X95928202Y-64759044D01*
X97662593Y-64759044D01*
X98019530Y-65622896D01*
X98679878Y-66284397D01*
X99543105Y-66642841D01*
X100477794Y-66643657D01*
X101341646Y-66286720D01*
X102003147Y-65626372D01*
X102361591Y-64763145D01*
X102362407Y-63828456D01*
X102005470Y-62964604D01*
X101345122Y-62303103D01*
X100481895Y-61944659D01*
X99547206Y-61943843D01*
X98683354Y-62300780D01*
X98021853Y-62961128D01*
X97663409Y-63824355D01*
X97662593Y-64759044D01*
X95928202Y-64759044D01*
X95998142Y-64590611D01*
X95998658Y-63999483D01*
X95772920Y-63453155D01*
X95355294Y-63034799D01*
X94809361Y-62808108D01*
X94218233Y-62807592D01*
X93671905Y-63033330D01*
X93253549Y-63450956D01*
X93026858Y-63996889D01*
X93026342Y-64588017D01*
X90989613Y-64588017D01*
X96815630Y-58762000D01*
X99378917Y-58762000D01*
X99445341Y-58828540D01*
X99804630Y-58977730D01*
X100193663Y-58978069D01*
X100553212Y-58829507D01*
X100828540Y-58554659D01*
X100977730Y-58195370D01*
X100978069Y-57806337D01*
X100829507Y-57446788D01*
X100554659Y-57171460D01*
X100195370Y-57022270D01*
X99806337Y-57021931D01*
X99446788Y-57170493D01*
X99379163Y-57238000D01*
X96500000Y-57238000D01*
X96208395Y-57296004D01*
X95984897Y-57445341D01*
X95961185Y-57461185D01*
X82410438Y-71011932D01*
X82613213Y-70523595D01*
X82613786Y-69866787D01*
X82362966Y-69259755D01*
X81898937Y-68794916D01*
X81292345Y-68543037D01*
X80635537Y-68542464D01*
X80028505Y-68793284D01*
X79563666Y-69257313D01*
X79311787Y-69863905D01*
X79311214Y-70520713D01*
X79562034Y-71127745D01*
X80026063Y-71592584D01*
X80632655Y-71844463D01*
X81289463Y-71845036D01*
X81896495Y-71594216D01*
X81935929Y-71554851D01*
X81908504Y-71595895D01*
X81850500Y-71887500D01*
X81850500Y-77427432D01*
X81711059Y-77517160D01*
X81566069Y-77729360D01*
X81515060Y-77981250D01*
X81515060Y-79181250D01*
X81559338Y-79416567D01*
X81698410Y-79632691D01*
X81904823Y-79773727D01*
X81711059Y-79898410D01*
X81566069Y-80110610D01*
X81515060Y-80362500D01*
X81515060Y-81562500D01*
X81559338Y-81797817D01*
X81698410Y-82013941D01*
X81850500Y-82117860D01*
X81850500Y-82189932D01*
X81711059Y-82279660D01*
X81566069Y-82491860D01*
X81515060Y-82743750D01*
X81515060Y-83943750D01*
X81559338Y-84179067D01*
X81698410Y-84395191D01*
X81910610Y-84540181D01*
X82162500Y-84591190D01*
X82583750Y-84591190D01*
X82583750Y-86404735D01*
X82295122Y-86115603D01*
X81431895Y-85757159D01*
X80497206Y-85756343D01*
X79633354Y-86113280D01*
X79341250Y-86404875D01*
X79341250Y-84591190D01*
X79762500Y-84591190D01*
X79997817Y-84546912D01*
X80213941Y-84407840D01*
X80358931Y-84195640D01*
X80409940Y-83943750D01*
X80409940Y-82743750D01*
X80365662Y-82508433D01*
X80226590Y-82292309D01*
X80020177Y-82151273D01*
X80213941Y-82026590D01*
X80358931Y-81814390D01*
X80409940Y-81562500D01*
X80409940Y-80362500D01*
X80365662Y-80127183D01*
X80226590Y-79911059D01*
X80020177Y-79770023D01*
X80213941Y-79645340D01*
X80358931Y-79433140D01*
X80409940Y-79181250D01*
X80409940Y-77981250D01*
X80365662Y-77745933D01*
X80226590Y-77529809D01*
X80014390Y-77384819D01*
X79762500Y-77333810D01*
X78862500Y-77333810D01*
X78696647Y-77365017D01*
X78486000Y-77154370D01*
X78486000Y-70471083D01*
X78552540Y-70404659D01*
X78701730Y-70045370D01*
X78702069Y-69656337D01*
X78553507Y-69296788D01*
X78278659Y-69021460D01*
X77919370Y-68872270D01*
X77530337Y-68871931D01*
X77405656Y-68923448D01*
X77613213Y-68423595D01*
X77613786Y-67766787D01*
X77362966Y-67159755D01*
X76898937Y-66694916D01*
X76292345Y-66443037D01*
X75635537Y-66442464D01*
X75028505Y-66693284D01*
X74563666Y-67157313D01*
X74311787Y-67763905D01*
X74311214Y-68420713D01*
X72147500Y-68420713D01*
X72147500Y-64588017D01*
X73976342Y-64588017D01*
X74202080Y-65134345D01*
X74619706Y-65552701D01*
X75165639Y-65779392D01*
X75756767Y-65779908D01*
X76303095Y-65554170D01*
X76721451Y-65136544D01*
X76878202Y-64759044D01*
X78612593Y-64759044D01*
X78969530Y-65622896D01*
X79629878Y-66284397D01*
X80493105Y-66642841D01*
X81427794Y-66643657D01*
X82291646Y-66286720D01*
X82953147Y-65626372D01*
X83311591Y-64763145D01*
X83311743Y-64588017D01*
X84976342Y-64588017D01*
X85202080Y-65134345D01*
X85619706Y-65552701D01*
X86165639Y-65779392D01*
X86756767Y-65779908D01*
X87303095Y-65554170D01*
X87721451Y-65136544D01*
X87948142Y-64590611D01*
X87948658Y-63999483D01*
X87722920Y-63453155D01*
X87305294Y-63034799D01*
X86759361Y-62808108D01*
X86168233Y-62807592D01*
X85621905Y-63033330D01*
X85203549Y-63450956D01*
X84976858Y-63996889D01*
X84976342Y-64588017D01*
X83311743Y-64588017D01*
X83312407Y-63828456D01*
X82955470Y-62964604D01*
X82295122Y-62303103D01*
X81431895Y-61944659D01*
X80497206Y-61943843D01*
X79633354Y-62300780D01*
X78971853Y-62961128D01*
X78613409Y-63824355D01*
X78612593Y-64759044D01*
X76878202Y-64759044D01*
X76948142Y-64590611D01*
X76948658Y-63999483D01*
X76722920Y-63453155D01*
X76305294Y-63034799D01*
X75759361Y-62808108D01*
X75168233Y-62807592D01*
X74621905Y-63033330D01*
X74203549Y-63450956D01*
X73976858Y-63996889D01*
X73976342Y-64588017D01*
X72147500Y-64588017D01*
X72147500Y-60317594D01*
X85052004Y-60317594D01*
X85223719Y-60733177D01*
X85541400Y-61051413D01*
X85956683Y-61223853D01*
X86406344Y-61224246D01*
X86821927Y-61052531D01*
X87140163Y-60734850D01*
X87312603Y-60319567D01*
X87312996Y-59869906D01*
X87141281Y-59454323D01*
X86823600Y-59136087D01*
X86408317Y-58963647D01*
X85958656Y-58963254D01*
X85543073Y-59134969D01*
X85224837Y-59452650D01*
X85052397Y-59867933D01*
X85052004Y-60317594D01*
X72147500Y-60317594D01*
X72147500Y-53097500D01*
X80298834Y-53097500D01*
X80159697Y-53154990D01*
M02*
