M48
;DRILL file {KiCad 4.0.7} date Tuesday, March 20, 2018 'PMt' 07:44:37 PM
;FORMAT={-:-/ absolute / inch / decimal}
FMAT,2
INCH,TZ
T1C0.013
T2C0.040
T3C0.048
T4C0.050
T5C0.039
T6C0.067
T7C0.135
%
G90
G05
M72
T1
X3.06Y-2.75
X3.4449Y-4.6063
X3.4843Y-3.3465
X3.5827Y-3.1496
X3.5827Y-3.2283
X3.937Y-2.2835
X4.3504Y-2.2835
X4.9803Y-2.8543
T2
X3.187Y-2.1394
X3.287Y-2.1394
X3.387Y-2.1394
X3.487Y-2.1394
X3.587Y-2.1394
X3.587Y-2.9394
X3.687Y-2.1394
X3.687Y-2.9394
X3.787Y-2.1394
X3.787Y-2.9394
X3.887Y-2.1394
X3.887Y-2.9394
X3.987Y-2.1394
X3.987Y-2.9394
X4.087Y-2.1394
X4.087Y-2.9394
X4.187Y-2.1394
X4.187Y-2.9394
X4.287Y-2.1394
X4.287Y-2.9394
X4.387Y-2.1394
X4.387Y-2.9394
X4.487Y-2.1394
X4.487Y-2.9394
X4.587Y-2.1394
X4.587Y-2.9394
X4.687Y-2.1394
X4.687Y-2.9394
X4.811Y-4.5882
X4.911Y-4.5882
T3
X2.9665Y-4.6063
X3.1752Y-4.6063
T4
X2.9906Y-2.6809
X2.9906Y-3.6184
X2.9906Y-4.3684
X2.9906Y-5.1184
X3.1875Y-2.7635
X3.1875Y-3.701
X3.1875Y-4.451
X3.1875Y-5.201
X3.7406Y-2.6809
X3.7406Y-3.6184
X3.7406Y-4.3684
X3.7406Y-5.1184
X3.9375Y-2.7635
X3.9375Y-3.701
X3.9375Y-4.451
X3.9375Y-5.201
X4.4906Y-2.6809
X4.4906Y-3.6184
X4.4906Y-4.3684
X4.4906Y-5.1184
X4.6875Y-2.7635
X4.6875Y-3.701
X4.6875Y-4.451
X4.6875Y-5.201
T5
X3.393Y-2.3659
X3.393Y-3.3034
X3.393Y-4.0534
X3.393Y-4.8034
X4.143Y-2.3659
X4.143Y-3.3034
X4.143Y-4.0534
X4.143Y-4.8034
X4.893Y-2.3659
X4.893Y-3.3034
X4.893Y-4.0534
X4.893Y-4.8034
T6
X2.971Y-2.5312
X2.971Y-3.4688
X2.971Y-4.2188
X2.971Y-4.9688
X3.404Y-2.5312
X3.404Y-3.4688
X3.404Y-4.2188
X3.404Y-4.9688
X3.721Y-2.5312
X3.721Y-3.4688
X3.721Y-4.2188
X3.721Y-4.9688
X4.154Y-2.5312
X4.154Y-3.4688
X4.154Y-4.2188
X4.154Y-4.9688
X4.471Y-2.5312
X4.471Y-3.4688
X4.471Y-4.2188
X4.471Y-4.9688
X4.904Y-2.5312
X4.904Y-3.4688
X4.904Y-4.2188
X4.904Y-4.9688
T7
X3.1875Y-2.5312
X3.1875Y-3.4688
X3.1875Y-4.2188
X3.1875Y-4.9688
X3.9375Y-2.5312
X3.9375Y-3.4688
X3.9375Y-4.2188
X3.9375Y-4.9688
X4.6875Y-2.5312
X4.6875Y-3.4688
X4.6875Y-4.2188
X4.6875Y-4.9688
T0
M30
