M48
; DRILL file {KiCad (5.1.5-0-10_14)} date Wednesday, January 22, 2020 at 02:55:00 AM
; FORMAT={-:-/ absolute / inch / decimal}
; #@! TF.CreationDate,2020-01-22T02:55:00-06:00
; #@! TF.GenerationSoftware,Kicad,Pcbnew,(5.1.5-0-10_14)
; #@! TF.FileFunction,NonPlated,1,2,NPTH
FMAT,2
INCH
T1C0.0390
T2C0.0670
T3C0.1350
%
G90
G05
T1
X4.1031Y-3.0846
X3.3945Y-2.3659
X4.8118Y-2.3659
X3.3945Y-4.4232
X3.3945Y-3.0846
X4.1031Y-2.3659
X4.8118Y-3.0846
X4.1031Y-4.4232
X4.8118Y-3.7539
X4.1031Y-3.7539
X4.8118Y-4.4232
X3.3945Y-3.7539
T2
X2.9724Y-2.5312
X3.4055Y-2.5312
X3.6811Y-3.9193
X4.1142Y-3.9193
X4.3898Y-2.5312
X4.8228Y-2.5312
X2.9724Y-4.5886
X3.4055Y-4.5886
X2.9724Y-3.25
X3.4055Y-3.25
X4.3898Y-4.5886
X4.8228Y-4.5886
X2.9724Y-3.9193
X3.4055Y-3.9193
X3.6811Y-2.5312
X4.1142Y-2.5312
X4.3898Y-3.25
X4.8228Y-3.25
X3.6811Y-4.5886
X4.1142Y-4.5886
X4.3898Y-3.9193
X4.8228Y-3.9193
X3.6811Y-3.25
X4.1142Y-3.25
T3
X4.6063Y-4.5886
X3.189Y-3.9193
X3.8976Y-4.5886
X4.6063Y-3.9193
X3.8976Y-3.9193
X4.6063Y-2.5312
X3.189Y-4.5886
X3.189Y-3.25
X3.8976Y-2.5312
X4.6063Y-3.25
X3.8976Y-3.25
X3.189Y-2.5312
T0
M30
