G04 #@! TF.GenerationSoftware,KiCad,Pcbnew,(5.1.5-0-10_14)*
G04 #@! TF.CreationDate,2020-01-22T02:54:57-06:00*
G04 #@! TF.ProjectId,imacro,696d6163-726f-42e6-9b69-6361645f7063,rev?*
G04 #@! TF.SameCoordinates,Original*
G04 #@! TF.FileFunction,Soldermask,Bot*
G04 #@! TF.FilePolarity,Negative*
%FSLAX46Y46*%
G04 Gerber Fmt 4.6, Leading zero omitted, Abs format (unit mm)*
G04 Created by KiCad (PCBNEW (5.1.5-0-10_14)) date 2020-01-22 02:54:57*
%MOMM*%
%LPD*%
G04 APERTURE LIST*
%ADD10C,2.006600*%
%ADD11C,3.530600*%
%ADD12C,2.133600*%
%ADD13C,1.092200*%
%ADD14C,1.803400*%
%ADD15C,1.625600*%
%ADD16R,1.301600X1.001600*%
%ADD17R,1.001600X1.301600*%
%ADD18R,1.201600X1.201600*%
G04 APERTURE END LIST*
D10*
X82150000Y-108000000D03*
X76850000Y-108000000D03*
D11*
X81000000Y-64293750D03*
D12*
X76000000Y-68093750D03*
X81000000Y-70193750D03*
D13*
X86220000Y-60093750D03*
D14*
X86500000Y-64293750D03*
X75500000Y-64293750D03*
D11*
X99000000Y-82550000D03*
D12*
X94000000Y-86350000D03*
X99000000Y-88450000D03*
D13*
X104220000Y-78350000D03*
D14*
X104500000Y-82550000D03*
X93500000Y-82550000D03*
X75500000Y-82550000D03*
X86500000Y-82550000D03*
D13*
X86220000Y-78350000D03*
D12*
X81000000Y-88450000D03*
X76000000Y-86350000D03*
D11*
X81000000Y-82550000D03*
D14*
X75500000Y-116550000D03*
X86500000Y-116550000D03*
D13*
X86220000Y-112350000D03*
D12*
X81000000Y-122450000D03*
X76000000Y-120350000D03*
D11*
X81000000Y-116550000D03*
D14*
X93500000Y-116550000D03*
X104500000Y-116550000D03*
D13*
X104220000Y-112350000D03*
D12*
X99000000Y-122450000D03*
X94000000Y-120350000D03*
D11*
X99000000Y-116550000D03*
D14*
X111500000Y-116550000D03*
X122500000Y-116550000D03*
D13*
X122220000Y-112350000D03*
D12*
X117000000Y-122450000D03*
X112000000Y-120350000D03*
D11*
X117000000Y-116550000D03*
D14*
X75500000Y-99550000D03*
X86500000Y-99550000D03*
D13*
X86220000Y-95350000D03*
D12*
X81000000Y-105450000D03*
X76000000Y-103350000D03*
D11*
X81000000Y-99550000D03*
D14*
X93500000Y-99550000D03*
X104500000Y-99550000D03*
D13*
X104220000Y-95350000D03*
D12*
X99000000Y-105450000D03*
X94000000Y-103350000D03*
D11*
X99000000Y-99550000D03*
D14*
X111500000Y-99550000D03*
X122500000Y-99550000D03*
D13*
X122220000Y-95350000D03*
D12*
X117000000Y-105450000D03*
X112000000Y-103350000D03*
D11*
X117000000Y-99550000D03*
X117000000Y-82550000D03*
D12*
X112000000Y-86350000D03*
X117000000Y-88450000D03*
D13*
X122220000Y-78350000D03*
D14*
X122500000Y-82550000D03*
X111500000Y-82550000D03*
D11*
X99000000Y-64293750D03*
D12*
X94000000Y-68093750D03*
X99000000Y-70193750D03*
D13*
X104220000Y-60093750D03*
D14*
X104500000Y-64293750D03*
X93500000Y-64293750D03*
D11*
X117000000Y-64293750D03*
D12*
X112000000Y-68093750D03*
X117000000Y-70193750D03*
D13*
X122220000Y-60093750D03*
D14*
X122500000Y-64293750D03*
X111500000Y-64293750D03*
D15*
X90110000Y-74660000D03*
X92650000Y-74660000D03*
X95190000Y-74660000D03*
X97730000Y-74660000D03*
X100270000Y-74660000D03*
X102810000Y-74660000D03*
X105350000Y-74660000D03*
X107890000Y-74660000D03*
X110430000Y-74660000D03*
X112970000Y-74660000D03*
X115510000Y-74660000D03*
X118050000Y-74660000D03*
X118050000Y-54340000D03*
X115510000Y-54340000D03*
X112970000Y-54340000D03*
X110430000Y-54340000D03*
X107890000Y-54340000D03*
X105350000Y-54340000D03*
X102810000Y-54340000D03*
X100270000Y-54340000D03*
X97730000Y-54340000D03*
X95190000Y-54340000D03*
X92650000Y-54340000D03*
X90110000Y-54340000D03*
X87570000Y-54340000D03*
X85030000Y-54340000D03*
X82490000Y-54340000D03*
X79950000Y-54340000D03*
D16*
X120500000Y-87350000D03*
X120500000Y-90650000D03*
D17*
X90350000Y-78000000D03*
X93650000Y-78000000D03*
X81350000Y-78000000D03*
X84650000Y-78000000D03*
X115350000Y-78000000D03*
X118650000Y-78000000D03*
X97350000Y-78000000D03*
X100650000Y-78000000D03*
X74350000Y-78000000D03*
X77650000Y-78000000D03*
X118650000Y-95000000D03*
X115350000Y-95000000D03*
X100650000Y-95000000D03*
X97350000Y-95000000D03*
X82650000Y-95000000D03*
X79350000Y-95000000D03*
D18*
X124000000Y-102600000D03*
X124000000Y-105400000D03*
D17*
X118650000Y-112000000D03*
X115350000Y-112000000D03*
X100650000Y-112000000D03*
X97350000Y-112000000D03*
X90250000Y-120000000D03*
X86950000Y-120000000D03*
D10*
X124000000Y-108000000D03*
X121460000Y-108000000D03*
M02*
