G04 #@! TF.GenerationSoftware,KiCad,Pcbnew,(5.1.5-0-10_14)*
G04 #@! TF.CreationDate,2020-01-22T02:16:51-06:00*
G04 #@! TF.ProjectId,imacro,696d6163-726f-42e6-9b69-6361645f7063,rev?*
G04 #@! TF.SameCoordinates,Original*
G04 #@! TF.FileFunction,Soldermask,Bot*
G04 #@! TF.FilePolarity,Negative*
%FSLAX46Y46*%
G04 Gerber Fmt 4.6, Leading zero omitted, Abs format (unit mm)*
G04 Created by KiCad (PCBNEW (5.1.5-0-10_14)) date 2020-01-22 02:16:51*
%MOMM*%
%LPD*%
G04 APERTURE LIST*
%ADD10C,2.006600*%
%ADD11C,1.803400*%
%ADD12C,1.092200*%
%ADD13C,2.133600*%
%ADD14C,3.530600*%
%ADD15C,1.625600*%
%ADD16R,1.301600X1.001600*%
%ADD17R,1.001600X1.301600*%
%ADD18R,1.201600X1.201600*%
G04 APERTURE END LIST*
D10*
X80650000Y-117000000D03*
X75350000Y-117000000D03*
D11*
X75462500Y-64293750D03*
X86462500Y-64293750D03*
D12*
X86182500Y-60093750D03*
D13*
X80962500Y-70193750D03*
X75962500Y-68093750D03*
D14*
X80962500Y-64293750D03*
D11*
X94512500Y-88106250D03*
X105512500Y-88106250D03*
D12*
X105232500Y-83906250D03*
D13*
X100012500Y-94006250D03*
X95012500Y-91906250D03*
D14*
X100012500Y-88106250D03*
D11*
X75462500Y-88106250D03*
X86462500Y-88106250D03*
D12*
X86182500Y-83906250D03*
D13*
X80962500Y-94006250D03*
X75962500Y-91906250D03*
D14*
X80962500Y-88106250D03*
D11*
X75462500Y-126206250D03*
X86462500Y-126206250D03*
D12*
X86182500Y-122006250D03*
D13*
X80962500Y-132106250D03*
X75962500Y-130006250D03*
D14*
X80962500Y-126206250D03*
D11*
X94512500Y-126206250D03*
X105512500Y-126206250D03*
D12*
X105232500Y-122006250D03*
D13*
X100012500Y-132106250D03*
X95012500Y-130006250D03*
D14*
X100012500Y-126206250D03*
D11*
X113562500Y-126206250D03*
X124562500Y-126206250D03*
D12*
X124282500Y-122006250D03*
D13*
X119062500Y-132106250D03*
X114062500Y-130006250D03*
D14*
X119062500Y-126206250D03*
D11*
X75462500Y-107156250D03*
X86462500Y-107156250D03*
D12*
X86182500Y-102956250D03*
D13*
X80962500Y-113056250D03*
X75962500Y-110956250D03*
D14*
X80962500Y-107156250D03*
D11*
X94512500Y-107156250D03*
X105512500Y-107156250D03*
D12*
X105232500Y-102956250D03*
D13*
X100012500Y-113056250D03*
X95012500Y-110956250D03*
D14*
X100012500Y-107156250D03*
D11*
X113562500Y-107156250D03*
X124562500Y-107156250D03*
D12*
X124282500Y-102956250D03*
D13*
X119062500Y-113056250D03*
X114062500Y-110956250D03*
D14*
X119062500Y-107156250D03*
D11*
X113562500Y-88106250D03*
X124562500Y-88106250D03*
D12*
X124282500Y-83906250D03*
D13*
X119062500Y-94006250D03*
X114062500Y-91906250D03*
D14*
X119062500Y-88106250D03*
D11*
X94512500Y-64293750D03*
X105512500Y-64293750D03*
D12*
X105232500Y-60093750D03*
D13*
X100012500Y-70193750D03*
X95012500Y-68093750D03*
D14*
X100012500Y-64293750D03*
D11*
X113562500Y-64293750D03*
X124562500Y-64293750D03*
D12*
X124282500Y-60093750D03*
D13*
X119062500Y-70193750D03*
X114062500Y-68093750D03*
D14*
X119062500Y-64293750D03*
D15*
X91110000Y-74660000D03*
X93650000Y-74660000D03*
X96190000Y-74660000D03*
X98730000Y-74660000D03*
X101270000Y-74660000D03*
X103810000Y-74660000D03*
X106350000Y-74660000D03*
X108890000Y-74660000D03*
X111430000Y-74660000D03*
X113970000Y-74660000D03*
X116510000Y-74660000D03*
X119050000Y-74660000D03*
X119050000Y-54340000D03*
X116510000Y-54340000D03*
X113970000Y-54340000D03*
X111430000Y-54340000D03*
X108890000Y-54340000D03*
X106350000Y-54340000D03*
X103810000Y-54340000D03*
X101270000Y-54340000D03*
X98730000Y-54340000D03*
X96190000Y-54340000D03*
X93650000Y-54340000D03*
X91110000Y-54340000D03*
X88570000Y-54340000D03*
X86030000Y-54340000D03*
X83490000Y-54340000D03*
X80950000Y-54340000D03*
D16*
X123444000Y-80644000D03*
X123444000Y-77344000D03*
D17*
X82612500Y-78581250D03*
X79312500Y-78581250D03*
X82612500Y-80962500D03*
X79312500Y-80962500D03*
X120712500Y-83343750D03*
X117412500Y-83343750D03*
X101662500Y-83343750D03*
X98362500Y-83343750D03*
X82612500Y-83343750D03*
X79312500Y-83343750D03*
X120712500Y-102393750D03*
X117412500Y-102393750D03*
X101662500Y-102393750D03*
X98362500Y-102393750D03*
X82612500Y-102393750D03*
X79312500Y-102393750D03*
D18*
X125500000Y-110100000D03*
X125500000Y-112900000D03*
D17*
X120712500Y-121443750D03*
X117412500Y-121443750D03*
X101662500Y-121443750D03*
X98362500Y-121443750D03*
X89650000Y-130000000D03*
X86350000Y-130000000D03*
D10*
X124740000Y-116540000D03*
X122200000Y-116540000D03*
M02*
