M48
; DRILL file {KiCad (5.1.5-0-10_14)} date Wednesday, January 22, 2020 at 02:19:15 AM
; FORMAT={-:-/ absolute / inch / decimal}
; #@! TF.CreationDate,2020-01-22T02:19:15-06:00
; #@! TF.GenerationSoftware,Kicad,Pcbnew,(5.1.5-0-10_14)
; #@! TF.FileFunction,Plated,1,2,PTH
FMAT,2
INCH
T1C0.0130
T2C0.0402
T3C0.0480
T4C0.0500
%
G90
G05
T1
X2.9291Y-2.8898
X2.9764Y-3.8425
X3.0394Y-2.189
X3.06Y-3.05
X3.0709Y-4.5354
X3.1496Y-2.8898
X3.1732Y-3.8425
X3.3543Y-2.8898
X3.3701Y-3.8425
X3.4449Y-4.6063
X3.4843Y-3.3465
X3.5669Y-2.378
X3.5669Y-2.6063
X3.5669Y-4.2205
X3.5669Y-4.6063
X3.5669Y-5.2441
X3.5827Y-3.1496
X3.5827Y-3.2283
X3.5827Y-3.315
X3.7638Y-3.0551
X3.937Y-3.8346
X4.2835Y-3.0551
X4.315Y-2.3701
X4.315Y-2.6614
X4.315Y-2.8189
X4.315Y-3.4724
X4.315Y-4.2205
X4.315Y-4.5984
X4.315Y-5.2441
X4.3228Y-3.8504
X4.6457Y-3.0472
X4.6929Y-3.8346
X4.7953Y-3.0472
X4.8346Y-2.1654
X4.8425Y-2.6929
X4.8898Y-3.8346
X4.9213Y-3.1102
X4.9213Y-3.1102
T2
X4.811Y-4.5882
X4.911Y-4.5882
X3.187Y-2.1394
X3.287Y-2.1394
X3.387Y-2.1394
X3.487Y-2.1394
X3.587Y-2.1394
X3.587Y-2.9394
X3.687Y-2.1394
X3.687Y-2.9394
X3.787Y-2.1394
X3.787Y-2.9394
X3.887Y-2.1394
X3.887Y-2.9394
X3.987Y-2.1394
X3.987Y-2.9394
X4.087Y-2.1394
X4.087Y-2.9394
X4.187Y-2.1394
X4.187Y-2.9394
X4.287Y-2.1394
X4.287Y-2.9394
X4.387Y-2.1394
X4.387Y-2.9394
X4.487Y-2.1394
X4.487Y-2.9394
X4.587Y-2.1394
X4.587Y-2.9394
X4.687Y-2.1394
X4.687Y-2.9394
T3
X2.9665Y-4.6063
X3.1752Y-4.6063
T4
X4.4906Y-2.6809
X4.6875Y-2.7635
X3.7406Y-2.6809
X3.9375Y-2.7635
X3.7406Y-4.3684
X3.9375Y-4.451
X4.4906Y-3.6184
X4.6875Y-3.701
X2.9906Y-4.3684
X3.1875Y-4.451
X4.4906Y-4.3684
X4.6875Y-4.451
X3.1875Y-5.201
X4.4906Y-5.1184
X4.6875Y-5.201
X3.7406Y-5.1184
X3.9375Y-5.201
X2.9906Y-3.6184
X3.1875Y-3.701
X3.7406Y-3.6184
X3.9375Y-3.701
X2.9906Y-2.6809
X3.1875Y-2.7635
X2.9906Y-5.1184
T0
M30
