G04 #@! TF.GenerationSoftware,KiCad,Pcbnew,(5.1.5-0-10_14)*
G04 #@! TF.CreationDate,2020-01-22T02:16:51-06:00*
G04 #@! TF.ProjectId,imacro,696d6163-726f-42e6-9b69-6361645f7063,rev?*
G04 #@! TF.SameCoordinates,Original*
G04 #@! TF.FileFunction,Legend,Bot*
G04 #@! TF.FilePolarity,Positive*
%FSLAX46Y46*%
G04 Gerber Fmt 4.6, Leading zero omitted, Abs format (unit mm)*
G04 Created by KiCad (PCBNEW (5.1.5-0-10_14)) date 2020-01-22 02:16:51*
%MOMM*%
%LPD*%
G04 APERTURE LIST*
%ADD10C,0.300000*%
%ADD11C,0.184500*%
%ADD12C,0.150000*%
%ADD13C,0.120000*%
%ADD14C,2.006600*%
%ADD15C,1.803400*%
%ADD16C,1.092200*%
%ADD17C,2.133600*%
%ADD18C,3.530600*%
%ADD19C,1.625600*%
%ADD20R,1.301600X1.001600*%
%ADD21R,1.001600X1.301600*%
%ADD22R,1.201600X1.201600*%
G04 APERTURE END LIST*
D10*
X125928571Y-116607142D02*
X127071428Y-116607142D01*
X126500000Y-117178571D02*
X126500000Y-116035714D01*
D11*
X96483714Y-134833857D02*
X96483714Y-134095857D01*
X96167428Y-134833857D02*
X96167428Y-134447285D01*
X96202571Y-134377000D01*
X96272857Y-134341857D01*
X96378285Y-134341857D01*
X96448571Y-134377000D01*
X96483714Y-134412142D01*
X95921428Y-134341857D02*
X95640285Y-134341857D01*
X95816000Y-134095857D02*
X95816000Y-134728428D01*
X95780857Y-134798714D01*
X95710571Y-134833857D01*
X95640285Y-134833857D01*
X95499714Y-134341857D02*
X95218571Y-134341857D01*
X95394285Y-134095857D02*
X95394285Y-134728428D01*
X95359142Y-134798714D01*
X95288857Y-134833857D01*
X95218571Y-134833857D01*
X94972571Y-134341857D02*
X94972571Y-135079857D01*
X94972571Y-134377000D02*
X94902285Y-134341857D01*
X94761714Y-134341857D01*
X94691428Y-134377000D01*
X94656285Y-134412142D01*
X94621142Y-134482428D01*
X94621142Y-134693285D01*
X94656285Y-134763571D01*
X94691428Y-134798714D01*
X94761714Y-134833857D01*
X94902285Y-134833857D01*
X94972571Y-134798714D01*
X94340000Y-134798714D02*
X94269714Y-134833857D01*
X94129142Y-134833857D01*
X94058857Y-134798714D01*
X94023714Y-134728428D01*
X94023714Y-134693285D01*
X94058857Y-134623000D01*
X94129142Y-134587857D01*
X94234571Y-134587857D01*
X94304857Y-134552714D01*
X94340000Y-134482428D01*
X94340000Y-134447285D01*
X94304857Y-134377000D01*
X94234571Y-134341857D01*
X94129142Y-134341857D01*
X94058857Y-134377000D01*
X93707428Y-134763571D02*
X93672285Y-134798714D01*
X93707428Y-134833857D01*
X93742571Y-134798714D01*
X93707428Y-134763571D01*
X93707428Y-134833857D01*
X93707428Y-134377000D02*
X93672285Y-134412142D01*
X93707428Y-134447285D01*
X93742571Y-134412142D01*
X93707428Y-134377000D01*
X93707428Y-134447285D01*
X92828857Y-134060714D02*
X93461428Y-135009571D01*
X92055714Y-134060714D02*
X92688285Y-135009571D01*
X91493428Y-134341857D02*
X91493428Y-134939285D01*
X91528571Y-135009571D01*
X91563714Y-135044714D01*
X91634000Y-135079857D01*
X91739428Y-135079857D01*
X91809714Y-135044714D01*
X91493428Y-134798714D02*
X91563714Y-134833857D01*
X91704285Y-134833857D01*
X91774571Y-134798714D01*
X91809714Y-134763571D01*
X91844857Y-134693285D01*
X91844857Y-134482428D01*
X91809714Y-134412142D01*
X91774571Y-134377000D01*
X91704285Y-134341857D01*
X91563714Y-134341857D01*
X91493428Y-134377000D01*
X91142000Y-134833857D02*
X91142000Y-134341857D01*
X91142000Y-134095857D02*
X91177142Y-134131000D01*
X91142000Y-134166142D01*
X91106857Y-134131000D01*
X91142000Y-134095857D01*
X91142000Y-134166142D01*
X90896000Y-134341857D02*
X90614857Y-134341857D01*
X90790571Y-134095857D02*
X90790571Y-134728428D01*
X90755428Y-134798714D01*
X90685142Y-134833857D01*
X90614857Y-134833857D01*
X90368857Y-134833857D02*
X90368857Y-134095857D01*
X90052571Y-134833857D02*
X90052571Y-134447285D01*
X90087714Y-134377000D01*
X90158000Y-134341857D01*
X90263428Y-134341857D01*
X90333714Y-134377000D01*
X90368857Y-134412142D01*
X89384857Y-134341857D02*
X89384857Y-134833857D01*
X89701142Y-134341857D02*
X89701142Y-134728428D01*
X89666000Y-134798714D01*
X89595714Y-134833857D01*
X89490285Y-134833857D01*
X89420000Y-134798714D01*
X89384857Y-134763571D01*
X89033428Y-134833857D02*
X89033428Y-134095857D01*
X89033428Y-134377000D02*
X88963142Y-134341857D01*
X88822571Y-134341857D01*
X88752285Y-134377000D01*
X88717142Y-134412142D01*
X88682000Y-134482428D01*
X88682000Y-134693285D01*
X88717142Y-134763571D01*
X88752285Y-134798714D01*
X88822571Y-134833857D01*
X88963142Y-134833857D01*
X89033428Y-134798714D01*
X88365714Y-134763571D02*
X88330571Y-134798714D01*
X88365714Y-134833857D01*
X88400857Y-134798714D01*
X88365714Y-134763571D01*
X88365714Y-134833857D01*
X87698000Y-134798714D02*
X87768285Y-134833857D01*
X87908857Y-134833857D01*
X87979142Y-134798714D01*
X88014285Y-134763571D01*
X88049428Y-134693285D01*
X88049428Y-134482428D01*
X88014285Y-134412142D01*
X87979142Y-134377000D01*
X87908857Y-134341857D01*
X87768285Y-134341857D01*
X87698000Y-134377000D01*
X87276285Y-134833857D02*
X87346571Y-134798714D01*
X87381714Y-134763571D01*
X87416857Y-134693285D01*
X87416857Y-134482428D01*
X87381714Y-134412142D01*
X87346571Y-134377000D01*
X87276285Y-134341857D01*
X87170857Y-134341857D01*
X87100571Y-134377000D01*
X87065428Y-134412142D01*
X87030285Y-134482428D01*
X87030285Y-134693285D01*
X87065428Y-134763571D01*
X87100571Y-134798714D01*
X87170857Y-134833857D01*
X87276285Y-134833857D01*
X86714000Y-134833857D02*
X86714000Y-134341857D01*
X86714000Y-134412142D02*
X86678857Y-134377000D01*
X86608571Y-134341857D01*
X86503142Y-134341857D01*
X86432857Y-134377000D01*
X86397714Y-134447285D01*
X86397714Y-134833857D01*
X86397714Y-134447285D02*
X86362571Y-134377000D01*
X86292285Y-134341857D01*
X86186857Y-134341857D01*
X86116571Y-134377000D01*
X86081428Y-134447285D01*
X86081428Y-134833857D01*
X85202857Y-134060714D02*
X85835428Y-135009571D01*
X84640571Y-134833857D02*
X84640571Y-134095857D01*
X84640571Y-134798714D02*
X84710857Y-134833857D01*
X84851428Y-134833857D01*
X84921714Y-134798714D01*
X84956857Y-134763571D01*
X84992000Y-134693285D01*
X84992000Y-134482428D01*
X84956857Y-134412142D01*
X84921714Y-134377000D01*
X84851428Y-134341857D01*
X84710857Y-134341857D01*
X84640571Y-134377000D01*
X83972857Y-134833857D02*
X83972857Y-134447285D01*
X84008000Y-134377000D01*
X84078285Y-134341857D01*
X84218857Y-134341857D01*
X84289142Y-134377000D01*
X83972857Y-134798714D02*
X84043142Y-134833857D01*
X84218857Y-134833857D01*
X84289142Y-134798714D01*
X84324285Y-134728428D01*
X84324285Y-134658142D01*
X84289142Y-134587857D01*
X84218857Y-134552714D01*
X84043142Y-134552714D01*
X83972857Y-134517571D01*
X83621428Y-134341857D02*
X83621428Y-135079857D01*
X83621428Y-134377000D02*
X83551142Y-134341857D01*
X83410571Y-134341857D01*
X83340285Y-134377000D01*
X83305142Y-134412142D01*
X83270000Y-134482428D01*
X83270000Y-134693285D01*
X83305142Y-134763571D01*
X83340285Y-134798714D01*
X83410571Y-134833857D01*
X83551142Y-134833857D01*
X83621428Y-134798714D01*
X82953714Y-134833857D02*
X82953714Y-134341857D01*
X82953714Y-134482428D02*
X82918571Y-134412142D01*
X82883428Y-134377000D01*
X82813142Y-134341857D01*
X82742857Y-134341857D01*
X82496857Y-134833857D02*
X82496857Y-134341857D01*
X82496857Y-134095857D02*
X82532000Y-134131000D01*
X82496857Y-134166142D01*
X82461714Y-134131000D01*
X82496857Y-134095857D01*
X82496857Y-134166142D01*
X81829142Y-134798714D02*
X81899428Y-134833857D01*
X82040000Y-134833857D01*
X82110285Y-134798714D01*
X82145428Y-134763571D01*
X82180571Y-134693285D01*
X82180571Y-134482428D01*
X82145428Y-134412142D01*
X82110285Y-134377000D01*
X82040000Y-134341857D01*
X81899428Y-134341857D01*
X81829142Y-134377000D01*
X81231714Y-134798714D02*
X81302000Y-134833857D01*
X81442571Y-134833857D01*
X81512857Y-134798714D01*
X81548000Y-134728428D01*
X81548000Y-134447285D01*
X81512857Y-134377000D01*
X81442571Y-134341857D01*
X81302000Y-134341857D01*
X81231714Y-134377000D01*
X81196571Y-134447285D01*
X81196571Y-134517571D01*
X81548000Y-134587857D01*
X80353142Y-134060714D02*
X80985714Y-135009571D01*
X80107142Y-134833857D02*
X80107142Y-134341857D01*
X80107142Y-134095857D02*
X80142285Y-134131000D01*
X80107142Y-134166142D01*
X80072000Y-134131000D01*
X80107142Y-134095857D01*
X80107142Y-134166142D01*
X79650285Y-134833857D02*
X79720571Y-134798714D01*
X79755714Y-134763571D01*
X79790857Y-134693285D01*
X79790857Y-134482428D01*
X79755714Y-134412142D01*
X79720571Y-134377000D01*
X79650285Y-134341857D01*
X79544857Y-134341857D01*
X79474571Y-134377000D01*
X79439428Y-134412142D01*
X79404285Y-134482428D01*
X79404285Y-134693285D01*
X79439428Y-134763571D01*
X79474571Y-134798714D01*
X79544857Y-134833857D01*
X79650285Y-134833857D01*
X79123142Y-134798714D02*
X79052857Y-134833857D01*
X78912285Y-134833857D01*
X78842000Y-134798714D01*
X78806857Y-134728428D01*
X78806857Y-134693285D01*
X78842000Y-134623000D01*
X78912285Y-134587857D01*
X79017714Y-134587857D01*
X79088000Y-134552714D01*
X79123142Y-134482428D01*
X79123142Y-134447285D01*
X79088000Y-134377000D01*
X79017714Y-134341857D01*
X78912285Y-134341857D01*
X78842000Y-134377000D01*
X78490571Y-134552714D02*
X77928285Y-134552714D01*
X77576857Y-134833857D02*
X77576857Y-134341857D01*
X77576857Y-134412142D02*
X77541714Y-134377000D01*
X77471428Y-134341857D01*
X77366000Y-134341857D01*
X77295714Y-134377000D01*
X77260571Y-134447285D01*
X77260571Y-134833857D01*
X77260571Y-134447285D02*
X77225428Y-134377000D01*
X77155142Y-134341857D01*
X77049714Y-134341857D01*
X76979428Y-134377000D01*
X76944285Y-134447285D01*
X76944285Y-134833857D01*
X76276571Y-134833857D02*
X76276571Y-134447285D01*
X76311714Y-134377000D01*
X76382000Y-134341857D01*
X76522571Y-134341857D01*
X76592857Y-134377000D01*
X76276571Y-134798714D02*
X76346857Y-134833857D01*
X76522571Y-134833857D01*
X76592857Y-134798714D01*
X76628000Y-134728428D01*
X76628000Y-134658142D01*
X76592857Y-134587857D01*
X76522571Y-134552714D01*
X76346857Y-134552714D01*
X76276571Y-134517571D01*
X75608857Y-134798714D02*
X75679142Y-134833857D01*
X75819714Y-134833857D01*
X75890000Y-134798714D01*
X75925142Y-134763571D01*
X75960285Y-134693285D01*
X75960285Y-134482428D01*
X75925142Y-134412142D01*
X75890000Y-134377000D01*
X75819714Y-134341857D01*
X75679142Y-134341857D01*
X75608857Y-134377000D01*
X75292571Y-134833857D02*
X75292571Y-134341857D01*
X75292571Y-134482428D02*
X75257428Y-134412142D01*
X75222285Y-134377000D01*
X75152000Y-134341857D01*
X75081714Y-134341857D01*
X74730285Y-134833857D02*
X74800571Y-134798714D01*
X74835714Y-134763571D01*
X74870857Y-134693285D01*
X74870857Y-134482428D01*
X74835714Y-134412142D01*
X74800571Y-134377000D01*
X74730285Y-134341857D01*
X74624857Y-134341857D01*
X74554571Y-134377000D01*
X74519428Y-134412142D01*
X74484285Y-134482428D01*
X74484285Y-134693285D01*
X74519428Y-134763571D01*
X74554571Y-134798714D01*
X74624857Y-134833857D01*
X74730285Y-134833857D01*
X74168000Y-134341857D02*
X74168000Y-135079857D01*
X74168000Y-134377000D02*
X74097714Y-134341857D01*
X73957142Y-134341857D01*
X73886857Y-134377000D01*
X73851714Y-134412142D01*
X73816571Y-134482428D01*
X73816571Y-134693285D01*
X73851714Y-134763571D01*
X73886857Y-134798714D01*
X73957142Y-134833857D01*
X74097714Y-134833857D01*
X74168000Y-134798714D01*
X73184000Y-134833857D02*
X73184000Y-134447285D01*
X73219142Y-134377000D01*
X73289428Y-134341857D01*
X73430000Y-134341857D01*
X73500285Y-134377000D01*
X73184000Y-134798714D02*
X73254285Y-134833857D01*
X73430000Y-134833857D01*
X73500285Y-134798714D01*
X73535428Y-134728428D01*
X73535428Y-134658142D01*
X73500285Y-134587857D01*
X73430000Y-134552714D01*
X73254285Y-134552714D01*
X73184000Y-134517571D01*
X72516285Y-134833857D02*
X72516285Y-134095857D01*
X72516285Y-134798714D02*
X72586571Y-134833857D01*
X72727142Y-134833857D01*
X72797428Y-134798714D01*
X72832571Y-134763571D01*
X72867714Y-134693285D01*
X72867714Y-134482428D01*
X72832571Y-134412142D01*
X72797428Y-134377000D01*
X72727142Y-134341857D01*
X72586571Y-134341857D01*
X72516285Y-134377000D01*
X110027000Y-134833857D02*
X110027000Y-134095857D01*
X110027000Y-134798714D02*
X110097285Y-134833857D01*
X110237857Y-134833857D01*
X110308142Y-134798714D01*
X110343285Y-134763571D01*
X110378428Y-134693285D01*
X110378428Y-134482428D01*
X110343285Y-134412142D01*
X110308142Y-134377000D01*
X110237857Y-134341857D01*
X110097285Y-134341857D01*
X110027000Y-134377000D01*
X109394428Y-134798714D02*
X109464714Y-134833857D01*
X109605285Y-134833857D01*
X109675571Y-134798714D01*
X109710714Y-134728428D01*
X109710714Y-134447285D01*
X109675571Y-134377000D01*
X109605285Y-134341857D01*
X109464714Y-134341857D01*
X109394428Y-134377000D01*
X109359285Y-134447285D01*
X109359285Y-134517571D01*
X109710714Y-134587857D01*
X109078142Y-134798714D02*
X109007857Y-134833857D01*
X108867285Y-134833857D01*
X108797000Y-134798714D01*
X108761857Y-134728428D01*
X108761857Y-134693285D01*
X108797000Y-134623000D01*
X108867285Y-134587857D01*
X108972714Y-134587857D01*
X109043000Y-134552714D01*
X109078142Y-134482428D01*
X109078142Y-134447285D01*
X109043000Y-134377000D01*
X108972714Y-134341857D01*
X108867285Y-134341857D01*
X108797000Y-134377000D01*
X108445571Y-134833857D02*
X108445571Y-134341857D01*
X108445571Y-134095857D02*
X108480714Y-134131000D01*
X108445571Y-134166142D01*
X108410428Y-134131000D01*
X108445571Y-134095857D01*
X108445571Y-134166142D01*
X107777857Y-134341857D02*
X107777857Y-134939285D01*
X107813000Y-135009571D01*
X107848142Y-135044714D01*
X107918428Y-135079857D01*
X108023857Y-135079857D01*
X108094142Y-135044714D01*
X107777857Y-134798714D02*
X107848142Y-134833857D01*
X107988714Y-134833857D01*
X108059000Y-134798714D01*
X108094142Y-134763571D01*
X108129285Y-134693285D01*
X108129285Y-134482428D01*
X108094142Y-134412142D01*
X108059000Y-134377000D01*
X107988714Y-134341857D01*
X107848142Y-134341857D01*
X107777857Y-134377000D01*
X107426428Y-134341857D02*
X107426428Y-134833857D01*
X107426428Y-134412142D02*
X107391285Y-134377000D01*
X107321000Y-134341857D01*
X107215571Y-134341857D01*
X107145285Y-134377000D01*
X107110142Y-134447285D01*
X107110142Y-134833857D01*
X106477571Y-134798714D02*
X106547857Y-134833857D01*
X106688428Y-134833857D01*
X106758714Y-134798714D01*
X106793857Y-134728428D01*
X106793857Y-134447285D01*
X106758714Y-134377000D01*
X106688428Y-134341857D01*
X106547857Y-134341857D01*
X106477571Y-134377000D01*
X106442428Y-134447285D01*
X106442428Y-134517571D01*
X106793857Y-134587857D01*
X105809857Y-134833857D02*
X105809857Y-134095857D01*
X105809857Y-134798714D02*
X105880142Y-134833857D01*
X106020714Y-134833857D01*
X106091000Y-134798714D01*
X106126142Y-134763571D01*
X106161285Y-134693285D01*
X106161285Y-134482428D01*
X106126142Y-134412142D01*
X106091000Y-134377000D01*
X106020714Y-134341857D01*
X105880142Y-134341857D01*
X105809857Y-134377000D01*
X104896142Y-134833857D02*
X104896142Y-134095857D01*
X104896142Y-134377000D02*
X104825857Y-134341857D01*
X104685285Y-134341857D01*
X104615000Y-134377000D01*
X104579857Y-134412142D01*
X104544714Y-134482428D01*
X104544714Y-134693285D01*
X104579857Y-134763571D01*
X104615000Y-134798714D01*
X104685285Y-134833857D01*
X104825857Y-134833857D01*
X104896142Y-134798714D01*
X104298714Y-134341857D02*
X104123000Y-134833857D01*
X103947285Y-134341857D02*
X104123000Y-134833857D01*
X104193285Y-135009571D01*
X104228428Y-135044714D01*
X104298714Y-135079857D01*
X103103857Y-134833857D02*
X103103857Y-134095857D01*
X102928142Y-134095857D01*
X102822714Y-134131000D01*
X102752428Y-134201285D01*
X102717285Y-134271571D01*
X102682142Y-134412142D01*
X102682142Y-134517571D01*
X102717285Y-134658142D01*
X102752428Y-134728428D01*
X102822714Y-134798714D01*
X102928142Y-134833857D01*
X103103857Y-134833857D01*
X102049571Y-134833857D02*
X102049571Y-134447285D01*
X102084714Y-134377000D01*
X102155000Y-134341857D01*
X102295571Y-134341857D01*
X102365857Y-134377000D01*
X102049571Y-134798714D02*
X102119857Y-134833857D01*
X102295571Y-134833857D01*
X102365857Y-134798714D01*
X102401000Y-134728428D01*
X102401000Y-134658142D01*
X102365857Y-134587857D01*
X102295571Y-134552714D01*
X102119857Y-134552714D01*
X102049571Y-134517571D01*
X101592714Y-134833857D02*
X101663000Y-134798714D01*
X101698142Y-134728428D01*
X101698142Y-134095857D01*
X101030428Y-134798714D02*
X101100714Y-134833857D01*
X101241285Y-134833857D01*
X101311571Y-134798714D01*
X101346714Y-134728428D01*
X101346714Y-134447285D01*
X101311571Y-134377000D01*
X101241285Y-134341857D01*
X101100714Y-134341857D01*
X101030428Y-134377000D01*
X100995285Y-134447285D01*
X100995285Y-134517571D01*
X101346714Y-134587857D01*
X100116714Y-134833857D02*
X100116714Y-134095857D01*
X99835571Y-134095857D01*
X99765285Y-134131000D01*
X99730142Y-134166142D01*
X99695000Y-134236428D01*
X99695000Y-134341857D01*
X99730142Y-134412142D01*
X99765285Y-134447285D01*
X99835571Y-134482428D01*
X100116714Y-134482428D01*
X99378714Y-134833857D02*
X99378714Y-134341857D01*
X99378714Y-134482428D02*
X99343571Y-134412142D01*
X99308428Y-134377000D01*
X99238142Y-134341857D01*
X99167857Y-134341857D01*
X98921857Y-134833857D02*
X98921857Y-134341857D01*
X98921857Y-134095857D02*
X98957000Y-134131000D01*
X98921857Y-134166142D01*
X98886714Y-134131000D01*
X98921857Y-134095857D01*
X98921857Y-134166142D01*
X98254142Y-134798714D02*
X98324428Y-134833857D01*
X98465000Y-134833857D01*
X98535285Y-134798714D01*
X98570428Y-134763571D01*
X98605571Y-134693285D01*
X98605571Y-134482428D01*
X98570428Y-134412142D01*
X98535285Y-134377000D01*
X98465000Y-134341857D01*
X98324428Y-134341857D01*
X98254142Y-134377000D01*
X97656714Y-134798714D02*
X97727000Y-134833857D01*
X97867571Y-134833857D01*
X97937857Y-134798714D01*
X97973000Y-134728428D01*
X97973000Y-134447285D01*
X97937857Y-134377000D01*
X97867571Y-134341857D01*
X97727000Y-134341857D01*
X97656714Y-134377000D01*
X97621571Y-134447285D01*
X97621571Y-134517571D01*
X97973000Y-134587857D01*
D10*
X127642857Y-134178571D02*
X127285714Y-135178571D01*
X126928571Y-134178571D01*
X125571428Y-135178571D02*
X126428571Y-135178571D01*
X126000000Y-135178571D02*
X126000000Y-133678571D01*
X126142857Y-133892857D01*
X126285714Y-134035714D01*
X126428571Y-134107142D01*
X124928571Y-135035714D02*
X124857142Y-135107142D01*
X124928571Y-135178571D01*
X125000000Y-135107142D01*
X124928571Y-135035714D01*
X124928571Y-135178571D01*
X123428571Y-135178571D02*
X124285714Y-135178571D01*
X123857142Y-135178571D02*
X123857142Y-133678571D01*
X124000000Y-133892857D01*
X124142857Y-134035714D01*
X124285714Y-134107142D01*
D11*
X124962571Y-56213857D02*
X124962571Y-55475857D01*
X124786857Y-55475857D01*
X124681428Y-55511000D01*
X124611142Y-55581285D01*
X124576000Y-55651571D01*
X124540857Y-55792142D01*
X124540857Y-55897571D01*
X124576000Y-56038142D01*
X124611142Y-56108428D01*
X124681428Y-56178714D01*
X124786857Y-56213857D01*
X124962571Y-56213857D01*
X123943428Y-56178714D02*
X124013714Y-56213857D01*
X124154285Y-56213857D01*
X124224571Y-56178714D01*
X124259714Y-56108428D01*
X124259714Y-55827285D01*
X124224571Y-55757000D01*
X124154285Y-55721857D01*
X124013714Y-55721857D01*
X123943428Y-55757000D01*
X123908285Y-55827285D01*
X123908285Y-55897571D01*
X124259714Y-55967857D01*
X123627142Y-56178714D02*
X123556857Y-56213857D01*
X123416285Y-56213857D01*
X123346000Y-56178714D01*
X123310857Y-56108428D01*
X123310857Y-56073285D01*
X123346000Y-56003000D01*
X123416285Y-55967857D01*
X123521714Y-55967857D01*
X123592000Y-55932714D01*
X123627142Y-55862428D01*
X123627142Y-55827285D01*
X123592000Y-55757000D01*
X123521714Y-55721857D01*
X123416285Y-55721857D01*
X123346000Y-55757000D01*
X122994571Y-56213857D02*
X122994571Y-55721857D01*
X122994571Y-55475857D02*
X123029714Y-55511000D01*
X122994571Y-55546142D01*
X122959428Y-55511000D01*
X122994571Y-55475857D01*
X122994571Y-55546142D01*
X122326857Y-55721857D02*
X122326857Y-56319285D01*
X122362000Y-56389571D01*
X122397142Y-56424714D01*
X122467428Y-56459857D01*
X122572857Y-56459857D01*
X122643142Y-56424714D01*
X122326857Y-56178714D02*
X122397142Y-56213857D01*
X122537714Y-56213857D01*
X122608000Y-56178714D01*
X122643142Y-56143571D01*
X122678285Y-56073285D01*
X122678285Y-55862428D01*
X122643142Y-55792142D01*
X122608000Y-55757000D01*
X122537714Y-55721857D01*
X122397142Y-55721857D01*
X122326857Y-55757000D01*
X121975428Y-55721857D02*
X121975428Y-56213857D01*
X121975428Y-55792142D02*
X121940285Y-55757000D01*
X121870000Y-55721857D01*
X121764571Y-55721857D01*
X121694285Y-55757000D01*
X121659142Y-55827285D01*
X121659142Y-56213857D01*
X121026571Y-56178714D02*
X121096857Y-56213857D01*
X121237428Y-56213857D01*
X121307714Y-56178714D01*
X121342857Y-56108428D01*
X121342857Y-55827285D01*
X121307714Y-55757000D01*
X121237428Y-55721857D01*
X121096857Y-55721857D01*
X121026571Y-55757000D01*
X120991428Y-55827285D01*
X120991428Y-55897571D01*
X121342857Y-55967857D01*
X120358857Y-56213857D02*
X120358857Y-55475857D01*
X120358857Y-56178714D02*
X120429142Y-56213857D01*
X120569714Y-56213857D01*
X120640000Y-56178714D01*
X120675142Y-56143571D01*
X120710285Y-56073285D01*
X120710285Y-55862428D01*
X120675142Y-55792142D01*
X120640000Y-55757000D01*
X120569714Y-55721857D01*
X120429142Y-55721857D01*
X120358857Y-55757000D01*
X119550571Y-55721857D02*
X119269428Y-55721857D01*
X119445142Y-56213857D02*
X119445142Y-55581285D01*
X119410000Y-55511000D01*
X119339714Y-55475857D01*
X119269428Y-55475857D01*
X118918000Y-56213857D02*
X118988285Y-56178714D01*
X119023428Y-56143571D01*
X119058571Y-56073285D01*
X119058571Y-55862428D01*
X119023428Y-55792142D01*
X118988285Y-55757000D01*
X118918000Y-55721857D01*
X118812571Y-55721857D01*
X118742285Y-55757000D01*
X118707142Y-55792142D01*
X118672000Y-55862428D01*
X118672000Y-56073285D01*
X118707142Y-56143571D01*
X118742285Y-56178714D01*
X118812571Y-56213857D01*
X118918000Y-56213857D01*
X118355714Y-56213857D02*
X118355714Y-55721857D01*
X118355714Y-55862428D02*
X118320571Y-55792142D01*
X118285428Y-55757000D01*
X118215142Y-55721857D01*
X118144857Y-55721857D01*
X117371714Y-56003000D02*
X117020285Y-56003000D01*
X117442000Y-56213857D02*
X117196000Y-55475857D01*
X116950000Y-56213857D01*
X116387714Y-56213857D02*
X116387714Y-55475857D01*
X116387714Y-56178714D02*
X116458000Y-56213857D01*
X116598571Y-56213857D01*
X116668857Y-56178714D01*
X116704000Y-56143571D01*
X116739142Y-56073285D01*
X116739142Y-55862428D01*
X116704000Y-55792142D01*
X116668857Y-55757000D01*
X116598571Y-55721857D01*
X116458000Y-55721857D01*
X116387714Y-55757000D01*
X115720000Y-56213857D02*
X115720000Y-55827285D01*
X115755142Y-55757000D01*
X115825428Y-55721857D01*
X115966000Y-55721857D01*
X116036285Y-55757000D01*
X115720000Y-56178714D02*
X115790285Y-56213857D01*
X115966000Y-56213857D01*
X116036285Y-56178714D01*
X116071428Y-56108428D01*
X116071428Y-56038142D01*
X116036285Y-55967857D01*
X115966000Y-55932714D01*
X115790285Y-55932714D01*
X115720000Y-55897571D01*
X115474000Y-55721857D02*
X115192857Y-55721857D01*
X115368571Y-56213857D02*
X115368571Y-55581285D01*
X115333428Y-55511000D01*
X115263142Y-55475857D01*
X115192857Y-55475857D01*
X114946857Y-56213857D02*
X114946857Y-55721857D01*
X114946857Y-55862428D02*
X114911714Y-55792142D01*
X114876571Y-55757000D01*
X114806285Y-55721857D01*
X114736000Y-55721857D01*
X114173714Y-55721857D02*
X114173714Y-56213857D01*
X114490000Y-55721857D02*
X114490000Y-56108428D01*
X114454857Y-56178714D01*
X114384571Y-56213857D01*
X114279142Y-56213857D01*
X114208857Y-56178714D01*
X114173714Y-56143571D01*
X113822285Y-56213857D02*
X113822285Y-55721857D01*
X113822285Y-55475857D02*
X113857428Y-55511000D01*
X113822285Y-55546142D01*
X113787142Y-55511000D01*
X113822285Y-55475857D01*
X113822285Y-55546142D01*
X113576285Y-55721857D02*
X113295142Y-55721857D01*
X113470857Y-55475857D02*
X113470857Y-56108428D01*
X113435714Y-56178714D01*
X113365428Y-56213857D01*
X113295142Y-56213857D01*
X112240857Y-55827285D02*
X112486857Y-55827285D01*
X112486857Y-56213857D02*
X112486857Y-55475857D01*
X112135428Y-55475857D01*
X111573142Y-56178714D02*
X111643428Y-56213857D01*
X111784000Y-56213857D01*
X111854285Y-56178714D01*
X111889428Y-56108428D01*
X111889428Y-55827285D01*
X111854285Y-55757000D01*
X111784000Y-55721857D01*
X111643428Y-55721857D01*
X111573142Y-55757000D01*
X111538000Y-55827285D01*
X111538000Y-55897571D01*
X111889428Y-55967857D01*
X110905428Y-56213857D02*
X110905428Y-55827285D01*
X110940571Y-55757000D01*
X111010857Y-55721857D01*
X111151428Y-55721857D01*
X111221714Y-55757000D01*
X110905428Y-56178714D02*
X110975714Y-56213857D01*
X111151428Y-56213857D01*
X111221714Y-56178714D01*
X111256857Y-56108428D01*
X111256857Y-56038142D01*
X111221714Y-55967857D01*
X111151428Y-55932714D01*
X110975714Y-55932714D01*
X110905428Y-55897571D01*
X110659428Y-55721857D02*
X110378285Y-55721857D01*
X110554000Y-55475857D02*
X110554000Y-56108428D01*
X110518857Y-56178714D01*
X110448571Y-56213857D01*
X110378285Y-56213857D01*
X110132285Y-56213857D02*
X110132285Y-55475857D01*
X109816000Y-56213857D02*
X109816000Y-55827285D01*
X109851142Y-55757000D01*
X109921428Y-55721857D01*
X110026857Y-55721857D01*
X110097142Y-55757000D01*
X110132285Y-55792142D01*
X109183428Y-56178714D02*
X109253714Y-56213857D01*
X109394285Y-56213857D01*
X109464571Y-56178714D01*
X109499714Y-56108428D01*
X109499714Y-55827285D01*
X109464571Y-55757000D01*
X109394285Y-55721857D01*
X109253714Y-55721857D01*
X109183428Y-55757000D01*
X109148285Y-55827285D01*
X109148285Y-55897571D01*
X109499714Y-55967857D01*
X108832000Y-56213857D02*
X108832000Y-55721857D01*
X108832000Y-55862428D02*
X108796857Y-55792142D01*
X108761714Y-55757000D01*
X108691428Y-55721857D01*
X108621142Y-55721857D01*
X107883142Y-55475857D02*
X107426285Y-55475857D01*
X107672285Y-55757000D01*
X107566857Y-55757000D01*
X107496571Y-55792142D01*
X107461428Y-55827285D01*
X107426285Y-55897571D01*
X107426285Y-56073285D01*
X107461428Y-56143571D01*
X107496571Y-56178714D01*
X107566857Y-56213857D01*
X107777714Y-56213857D01*
X107848000Y-56178714D01*
X107883142Y-56143571D01*
X107145142Y-55546142D02*
X107110000Y-55511000D01*
X107039714Y-55475857D01*
X106864000Y-55475857D01*
X106793714Y-55511000D01*
X106758571Y-55546142D01*
X106723428Y-55616428D01*
X106723428Y-55686714D01*
X106758571Y-55792142D01*
X107180285Y-56213857D01*
X106723428Y-56213857D01*
X106090857Y-55721857D02*
X106090857Y-56213857D01*
X106407142Y-55721857D02*
X106407142Y-56108428D01*
X106372000Y-56178714D01*
X106301714Y-56213857D01*
X106196285Y-56213857D01*
X106126000Y-56178714D01*
X106090857Y-56143571D01*
X105423142Y-55721857D02*
X105423142Y-56213857D01*
X105598857Y-55440714D02*
X105774571Y-55967857D01*
X105317714Y-55967857D01*
X104228285Y-55827285D02*
X104122857Y-55862428D01*
X104087714Y-55897571D01*
X104052571Y-55967857D01*
X104052571Y-56073285D01*
X104087714Y-56143571D01*
X104122857Y-56178714D01*
X104193142Y-56213857D01*
X104474285Y-56213857D01*
X104474285Y-55475857D01*
X104228285Y-55475857D01*
X104158000Y-55511000D01*
X104122857Y-55546142D01*
X104087714Y-55616428D01*
X104087714Y-55686714D01*
X104122857Y-55757000D01*
X104158000Y-55792142D01*
X104228285Y-55827285D01*
X104474285Y-55827285D01*
X103630857Y-56213857D02*
X103701142Y-56178714D01*
X103736285Y-56108428D01*
X103736285Y-55475857D01*
X103033428Y-55721857D02*
X103033428Y-56213857D01*
X103349714Y-55721857D02*
X103349714Y-56108428D01*
X103314571Y-56178714D01*
X103244285Y-56213857D01*
X103138857Y-56213857D01*
X103068571Y-56178714D01*
X103033428Y-56143571D01*
X102400857Y-56178714D02*
X102471142Y-56213857D01*
X102611714Y-56213857D01*
X102682000Y-56178714D01*
X102717142Y-56108428D01*
X102717142Y-55827285D01*
X102682000Y-55757000D01*
X102611714Y-55721857D01*
X102471142Y-55721857D01*
X102400857Y-55757000D01*
X102365714Y-55827285D01*
X102365714Y-55897571D01*
X102717142Y-55967857D01*
X102154857Y-55721857D02*
X101873714Y-55721857D01*
X102049428Y-56213857D02*
X102049428Y-55581285D01*
X102014285Y-55511000D01*
X101944000Y-55475857D01*
X101873714Y-55475857D01*
X101627714Y-56213857D02*
X101627714Y-55721857D01*
X101627714Y-55862428D02*
X101592571Y-55792142D01*
X101557428Y-55757000D01*
X101487142Y-55721857D01*
X101416857Y-55721857D01*
X100854571Y-55721857D02*
X100854571Y-56213857D01*
X101170857Y-55721857D02*
X101170857Y-56108428D01*
X101135714Y-56178714D01*
X101065428Y-56213857D01*
X100960000Y-56213857D01*
X100889714Y-56178714D01*
X100854571Y-56143571D01*
X100503142Y-56213857D02*
X100503142Y-55721857D01*
X100503142Y-55475857D02*
X100538285Y-55511000D01*
X100503142Y-55546142D01*
X100468000Y-55511000D01*
X100503142Y-55475857D01*
X100503142Y-55546142D01*
X100257142Y-55721857D02*
X99976000Y-55721857D01*
X100151714Y-55475857D02*
X100151714Y-56108428D01*
X100116571Y-56178714D01*
X100046285Y-56213857D01*
X99976000Y-56213857D01*
D12*
X79000000Y-117500000D02*
X77000000Y-117500000D01*
X84000000Y-117500000D02*
X82000000Y-117500000D01*
X84000000Y-129500000D02*
X84000000Y-117500000D01*
X72000000Y-129500000D02*
X84000000Y-129500000D01*
X72000000Y-117500000D02*
X72000000Y-129500000D01*
X74000000Y-117500000D02*
X72000000Y-117500000D01*
X77140000Y-75930000D02*
X122860000Y-75930000D01*
X74600000Y-55610000D02*
X74600000Y-73390000D01*
X122860000Y-53070000D02*
X77140000Y-53070000D01*
X125400000Y-73390000D02*
X125400000Y-55610000D01*
X122860000Y-53070000D02*
G75*
G02X125400000Y-55610000I0J-2540000D01*
G01*
X74600000Y-55610000D02*
G75*
G02X77140000Y-53070000I2540000J0D01*
G01*
X77140000Y-75930000D02*
G75*
G02X74600000Y-73390000I0J2540000D01*
G01*
X125400000Y-73390000D02*
G75*
G02X122860000Y-75930000I-2540000J0D01*
G01*
D13*
X124444000Y-81244000D02*
X122444000Y-81244000D01*
X122444000Y-81244000D02*
X122444000Y-77344000D01*
X124444000Y-81244000D02*
X124444000Y-77344000D01*
X83212500Y-77581250D02*
X83212500Y-79581250D01*
X83212500Y-79581250D02*
X79312500Y-79581250D01*
X83212500Y-77581250D02*
X79312500Y-77581250D01*
X83212500Y-79962500D02*
X83212500Y-81962500D01*
X83212500Y-81962500D02*
X79312500Y-81962500D01*
X83212500Y-79962500D02*
X79312500Y-79962500D01*
X121312500Y-82343750D02*
X121312500Y-84343750D01*
X121312500Y-84343750D02*
X117412500Y-84343750D01*
X121312500Y-82343750D02*
X117412500Y-82343750D01*
X102262500Y-82343750D02*
X102262500Y-84343750D01*
X102262500Y-84343750D02*
X98362500Y-84343750D01*
X102262500Y-82343750D02*
X98362500Y-82343750D01*
X83212500Y-82343750D02*
X83212500Y-84343750D01*
X83212500Y-84343750D02*
X79312500Y-84343750D01*
X83212500Y-82343750D02*
X79312500Y-82343750D01*
X121312500Y-101393750D02*
X121312500Y-103393750D01*
X121312500Y-103393750D02*
X117412500Y-103393750D01*
X121312500Y-101393750D02*
X117412500Y-101393750D01*
X102262500Y-101393750D02*
X102262500Y-103393750D01*
X102262500Y-103393750D02*
X98362500Y-103393750D01*
X102262500Y-101393750D02*
X98362500Y-101393750D01*
X83212500Y-101393750D02*
X83212500Y-103393750D01*
X83212500Y-103393750D02*
X79312500Y-103393750D01*
X83212500Y-101393750D02*
X79312500Y-101393750D01*
X124500000Y-109300000D02*
X126500000Y-109300000D01*
X126500000Y-109300000D02*
X126500000Y-113150000D01*
X124500000Y-109300000D02*
X124500000Y-113150000D01*
X121312500Y-120443750D02*
X121312500Y-122443750D01*
X121312500Y-122443750D02*
X117412500Y-122443750D01*
X121312500Y-120443750D02*
X117412500Y-120443750D01*
X102262500Y-120443750D02*
X102262500Y-122443750D01*
X102262500Y-122443750D02*
X98362500Y-122443750D01*
X102262500Y-120443750D02*
X98362500Y-120443750D01*
X90250000Y-129000000D02*
X90250000Y-131000000D01*
X90250000Y-131000000D02*
X86350000Y-131000000D01*
X90250000Y-129000000D02*
X86350000Y-129000000D01*
D12*
X79333333Y-116904761D02*
X79190476Y-116952380D01*
X78952380Y-116952380D01*
X78857142Y-116904761D01*
X78809523Y-116857142D01*
X78761904Y-116761904D01*
X78761904Y-116666666D01*
X78809523Y-116571428D01*
X78857142Y-116523809D01*
X78952380Y-116476190D01*
X79142857Y-116428571D01*
X79238095Y-116380952D01*
X79285714Y-116333333D01*
X79333333Y-116238095D01*
X79333333Y-116142857D01*
X79285714Y-116047619D01*
X79238095Y-116000000D01*
X79142857Y-115952380D01*
X78904761Y-115952380D01*
X78761904Y-116000000D01*
X78428571Y-115952380D02*
X78190476Y-116952380D01*
X78000000Y-116238095D01*
X77809523Y-116952380D01*
X77571428Y-115952380D01*
X76666666Y-116952380D02*
X77238095Y-116952380D01*
X76952380Y-116952380D02*
X76952380Y-115952380D01*
X77047619Y-116095238D01*
X77142857Y-116190476D01*
X77238095Y-116238095D01*
X72782380Y-71358095D02*
X73591904Y-71358095D01*
X73687142Y-71405714D01*
X73734761Y-71453333D01*
X73782380Y-71548571D01*
X73782380Y-71739047D01*
X73734761Y-71834285D01*
X73687142Y-71881904D01*
X73591904Y-71929523D01*
X72782380Y-71929523D01*
X73782380Y-72929523D02*
X73782380Y-72358095D01*
X73782380Y-72643809D02*
X72782380Y-72643809D01*
X72925238Y-72548571D01*
X73020476Y-72453333D01*
X73068095Y-72358095D01*
X125896380Y-77541619D02*
X124896380Y-77541619D01*
X124896380Y-77779714D01*
X124944000Y-77922571D01*
X125039238Y-78017809D01*
X125134476Y-78065428D01*
X125324952Y-78113047D01*
X125467809Y-78113047D01*
X125658285Y-78065428D01*
X125753523Y-78017809D01*
X125848761Y-77922571D01*
X125896380Y-77779714D01*
X125896380Y-77541619D01*
X124896380Y-78446380D02*
X124896380Y-79065428D01*
X125277333Y-78732095D01*
X125277333Y-78874952D01*
X125324952Y-78970190D01*
X125372571Y-79017809D01*
X125467809Y-79065428D01*
X125705904Y-79065428D01*
X125801142Y-79017809D01*
X125848761Y-78970190D01*
X125896380Y-78874952D01*
X125896380Y-78589238D01*
X125848761Y-78494000D01*
X125801142Y-78446380D01*
X125801142Y-79494000D02*
X125848761Y-79541619D01*
X125896380Y-79494000D01*
X125848761Y-79446380D01*
X125801142Y-79494000D01*
X125896380Y-79494000D01*
X125277333Y-79494000D02*
X125324952Y-79541619D01*
X125372571Y-79494000D01*
X125324952Y-79446380D01*
X125277333Y-79494000D01*
X125372571Y-79494000D01*
X124991619Y-79922571D02*
X124944000Y-79970190D01*
X124896380Y-80065428D01*
X124896380Y-80303523D01*
X124944000Y-80398761D01*
X124991619Y-80446380D01*
X125086857Y-80494000D01*
X125182095Y-80494000D01*
X125324952Y-80446380D01*
X125896380Y-79874952D01*
X125896380Y-80494000D01*
X77952380Y-78952380D02*
X77952380Y-77952380D01*
X77714285Y-77952380D01*
X77571428Y-78000000D01*
X77476190Y-78095238D01*
X77428571Y-78190476D01*
X77380952Y-78380952D01*
X77380952Y-78523809D01*
X77428571Y-78714285D01*
X77476190Y-78809523D01*
X77571428Y-78904761D01*
X77714285Y-78952380D01*
X77952380Y-78952380D01*
X77047619Y-77952380D02*
X76428571Y-77952380D01*
X76761904Y-78333333D01*
X76619047Y-78333333D01*
X76523809Y-78380952D01*
X76476190Y-78428571D01*
X76428571Y-78523809D01*
X76428571Y-78761904D01*
X76476190Y-78857142D01*
X76523809Y-78904761D01*
X76619047Y-78952380D01*
X76904761Y-78952380D01*
X77000000Y-78904761D01*
X77047619Y-78857142D01*
X76000000Y-78857142D02*
X75952380Y-78904761D01*
X76000000Y-78952380D01*
X76047619Y-78904761D01*
X76000000Y-78857142D01*
X76000000Y-78952380D01*
X76000000Y-78333333D02*
X75952380Y-78380952D01*
X76000000Y-78428571D01*
X76047619Y-78380952D01*
X76000000Y-78333333D01*
X76000000Y-78428571D01*
X75000000Y-78952380D02*
X75571428Y-78952380D01*
X75285714Y-78952380D02*
X75285714Y-77952380D01*
X75380952Y-78095238D01*
X75476190Y-78190476D01*
X75571428Y-78238095D01*
X77952380Y-81452380D02*
X77952380Y-80452380D01*
X77714285Y-80452380D01*
X77571428Y-80500000D01*
X77476190Y-80595238D01*
X77428571Y-80690476D01*
X77380952Y-80880952D01*
X77380952Y-81023809D01*
X77428571Y-81214285D01*
X77476190Y-81309523D01*
X77571428Y-81404761D01*
X77714285Y-81452380D01*
X77952380Y-81452380D01*
X77047619Y-80452380D02*
X76428571Y-80452380D01*
X76761904Y-80833333D01*
X76619047Y-80833333D01*
X76523809Y-80880952D01*
X76476190Y-80928571D01*
X76428571Y-81023809D01*
X76428571Y-81261904D01*
X76476190Y-81357142D01*
X76523809Y-81404761D01*
X76619047Y-81452380D01*
X76904761Y-81452380D01*
X77000000Y-81404761D01*
X77047619Y-81357142D01*
X76000000Y-81357142D02*
X75952380Y-81404761D01*
X76000000Y-81452380D01*
X76047619Y-81404761D01*
X76000000Y-81357142D01*
X76000000Y-81452380D01*
X76000000Y-80833333D02*
X75952380Y-80880952D01*
X76000000Y-80928571D01*
X76047619Y-80880952D01*
X76000000Y-80833333D01*
X76000000Y-80928571D01*
X75333333Y-80452380D02*
X75238095Y-80452380D01*
X75142857Y-80500000D01*
X75095238Y-80547619D01*
X75047619Y-80642857D01*
X75000000Y-80833333D01*
X75000000Y-81071428D01*
X75047619Y-81261904D01*
X75095238Y-81357142D01*
X75142857Y-81404761D01*
X75238095Y-81452380D01*
X75333333Y-81452380D01*
X75428571Y-81404761D01*
X75476190Y-81357142D01*
X75523809Y-81261904D01*
X75571428Y-81071428D01*
X75571428Y-80833333D01*
X75523809Y-80642857D01*
X75476190Y-80547619D01*
X75428571Y-80500000D01*
X75333333Y-80452380D01*
X120514880Y-81796130D02*
X120514880Y-80796130D01*
X120276785Y-80796130D01*
X120133928Y-80843750D01*
X120038690Y-80938988D01*
X119991071Y-81034226D01*
X119943452Y-81224702D01*
X119943452Y-81367559D01*
X119991071Y-81558035D01*
X120038690Y-81653273D01*
X120133928Y-81748511D01*
X120276785Y-81796130D01*
X120514880Y-81796130D01*
X119562500Y-80891369D02*
X119514880Y-80843750D01*
X119419642Y-80796130D01*
X119181547Y-80796130D01*
X119086309Y-80843750D01*
X119038690Y-80891369D01*
X118991071Y-80986607D01*
X118991071Y-81081845D01*
X119038690Y-81224702D01*
X119610119Y-81796130D01*
X118991071Y-81796130D01*
X118562500Y-81700892D02*
X118514880Y-81748511D01*
X118562500Y-81796130D01*
X118610119Y-81748511D01*
X118562500Y-81700892D01*
X118562500Y-81796130D01*
X118562500Y-81177083D02*
X118514880Y-81224702D01*
X118562500Y-81272321D01*
X118610119Y-81224702D01*
X118562500Y-81177083D01*
X118562500Y-81272321D01*
X118133928Y-80891369D02*
X118086309Y-80843750D01*
X117991071Y-80796130D01*
X117752976Y-80796130D01*
X117657738Y-80843750D01*
X117610119Y-80891369D01*
X117562500Y-80986607D01*
X117562500Y-81081845D01*
X117610119Y-81224702D01*
X118181547Y-81796130D01*
X117562500Y-81796130D01*
X101464880Y-81796130D02*
X101464880Y-80796130D01*
X101226785Y-80796130D01*
X101083928Y-80843750D01*
X100988690Y-80938988D01*
X100941071Y-81034226D01*
X100893452Y-81224702D01*
X100893452Y-81367559D01*
X100941071Y-81558035D01*
X100988690Y-81653273D01*
X101083928Y-81748511D01*
X101226785Y-81796130D01*
X101464880Y-81796130D01*
X100512500Y-80891369D02*
X100464880Y-80843750D01*
X100369642Y-80796130D01*
X100131547Y-80796130D01*
X100036309Y-80843750D01*
X99988690Y-80891369D01*
X99941071Y-80986607D01*
X99941071Y-81081845D01*
X99988690Y-81224702D01*
X100560119Y-81796130D01*
X99941071Y-81796130D01*
X99512500Y-81700892D02*
X99464880Y-81748511D01*
X99512500Y-81796130D01*
X99560119Y-81748511D01*
X99512500Y-81700892D01*
X99512500Y-81796130D01*
X99512500Y-81177083D02*
X99464880Y-81224702D01*
X99512500Y-81272321D01*
X99560119Y-81224702D01*
X99512500Y-81177083D01*
X99512500Y-81272321D01*
X98512500Y-81796130D02*
X99083928Y-81796130D01*
X98798214Y-81796130D02*
X98798214Y-80796130D01*
X98893452Y-80938988D01*
X98988690Y-81034226D01*
X99083928Y-81081845D01*
X77952380Y-83952380D02*
X77952380Y-82952380D01*
X77714285Y-82952380D01*
X77571428Y-83000000D01*
X77476190Y-83095238D01*
X77428571Y-83190476D01*
X77380952Y-83380952D01*
X77380952Y-83523809D01*
X77428571Y-83714285D01*
X77476190Y-83809523D01*
X77571428Y-83904761D01*
X77714285Y-83952380D01*
X77952380Y-83952380D01*
X77000000Y-83047619D02*
X76952380Y-83000000D01*
X76857142Y-82952380D01*
X76619047Y-82952380D01*
X76523809Y-83000000D01*
X76476190Y-83047619D01*
X76428571Y-83142857D01*
X76428571Y-83238095D01*
X76476190Y-83380952D01*
X77047619Y-83952380D01*
X76428571Y-83952380D01*
X76000000Y-83857142D02*
X75952380Y-83904761D01*
X76000000Y-83952380D01*
X76047619Y-83904761D01*
X76000000Y-83857142D01*
X76000000Y-83952380D01*
X76000000Y-83333333D02*
X75952380Y-83380952D01*
X76000000Y-83428571D01*
X76047619Y-83380952D01*
X76000000Y-83333333D01*
X76000000Y-83428571D01*
X75333333Y-82952380D02*
X75238095Y-82952380D01*
X75142857Y-83000000D01*
X75095238Y-83047619D01*
X75047619Y-83142857D01*
X75000000Y-83333333D01*
X75000000Y-83571428D01*
X75047619Y-83761904D01*
X75095238Y-83857142D01*
X75142857Y-83904761D01*
X75238095Y-83952380D01*
X75333333Y-83952380D01*
X75428571Y-83904761D01*
X75476190Y-83857142D01*
X75523809Y-83761904D01*
X75571428Y-83571428D01*
X75571428Y-83333333D01*
X75523809Y-83142857D01*
X75476190Y-83047619D01*
X75428571Y-83000000D01*
X75333333Y-82952380D01*
X120514880Y-100846130D02*
X120514880Y-99846130D01*
X120276785Y-99846130D01*
X120133928Y-99893750D01*
X120038690Y-99988988D01*
X119991071Y-100084226D01*
X119943452Y-100274702D01*
X119943452Y-100417559D01*
X119991071Y-100608035D01*
X120038690Y-100703273D01*
X120133928Y-100798511D01*
X120276785Y-100846130D01*
X120514880Y-100846130D01*
X118991071Y-100846130D02*
X119562500Y-100846130D01*
X119276785Y-100846130D02*
X119276785Y-99846130D01*
X119372023Y-99988988D01*
X119467261Y-100084226D01*
X119562500Y-100131845D01*
X118562500Y-100750892D02*
X118514880Y-100798511D01*
X118562500Y-100846130D01*
X118610119Y-100798511D01*
X118562500Y-100750892D01*
X118562500Y-100846130D01*
X118562500Y-100227083D02*
X118514880Y-100274702D01*
X118562500Y-100322321D01*
X118610119Y-100274702D01*
X118562500Y-100227083D01*
X118562500Y-100322321D01*
X118133928Y-99941369D02*
X118086309Y-99893750D01*
X117991071Y-99846130D01*
X117752976Y-99846130D01*
X117657738Y-99893750D01*
X117610119Y-99941369D01*
X117562500Y-100036607D01*
X117562500Y-100131845D01*
X117610119Y-100274702D01*
X118181547Y-100846130D01*
X117562500Y-100846130D01*
X101464880Y-100846130D02*
X101464880Y-99846130D01*
X101226785Y-99846130D01*
X101083928Y-99893750D01*
X100988690Y-99988988D01*
X100941071Y-100084226D01*
X100893452Y-100274702D01*
X100893452Y-100417559D01*
X100941071Y-100608035D01*
X100988690Y-100703273D01*
X101083928Y-100798511D01*
X101226785Y-100846130D01*
X101464880Y-100846130D01*
X99941071Y-100846130D02*
X100512500Y-100846130D01*
X100226785Y-100846130D02*
X100226785Y-99846130D01*
X100322023Y-99988988D01*
X100417261Y-100084226D01*
X100512500Y-100131845D01*
X99512500Y-100750892D02*
X99464880Y-100798511D01*
X99512500Y-100846130D01*
X99560119Y-100798511D01*
X99512500Y-100750892D01*
X99512500Y-100846130D01*
X99512500Y-100227083D02*
X99464880Y-100274702D01*
X99512500Y-100322321D01*
X99560119Y-100274702D01*
X99512500Y-100227083D01*
X99512500Y-100322321D01*
X98512500Y-100846130D02*
X99083928Y-100846130D01*
X98798214Y-100846130D02*
X98798214Y-99846130D01*
X98893452Y-99988988D01*
X98988690Y-100084226D01*
X99083928Y-100131845D01*
X82414880Y-100846130D02*
X82414880Y-99846130D01*
X82176785Y-99846130D01*
X82033928Y-99893750D01*
X81938690Y-99988988D01*
X81891071Y-100084226D01*
X81843452Y-100274702D01*
X81843452Y-100417559D01*
X81891071Y-100608035D01*
X81938690Y-100703273D01*
X82033928Y-100798511D01*
X82176785Y-100846130D01*
X82414880Y-100846130D01*
X80891071Y-100846130D02*
X81462500Y-100846130D01*
X81176785Y-100846130D02*
X81176785Y-99846130D01*
X81272023Y-99988988D01*
X81367261Y-100084226D01*
X81462500Y-100131845D01*
X80462500Y-100750892D02*
X80414880Y-100798511D01*
X80462500Y-100846130D01*
X80510119Y-100798511D01*
X80462500Y-100750892D01*
X80462500Y-100846130D01*
X80462500Y-100227083D02*
X80414880Y-100274702D01*
X80462500Y-100322321D01*
X80510119Y-100274702D01*
X80462500Y-100227083D01*
X80462500Y-100322321D01*
X79795833Y-99846130D02*
X79700595Y-99846130D01*
X79605357Y-99893750D01*
X79557738Y-99941369D01*
X79510119Y-100036607D01*
X79462500Y-100227083D01*
X79462500Y-100465178D01*
X79510119Y-100655654D01*
X79557738Y-100750892D01*
X79605357Y-100798511D01*
X79700595Y-100846130D01*
X79795833Y-100846130D01*
X79891071Y-100798511D01*
X79938690Y-100750892D01*
X79986309Y-100655654D01*
X80033928Y-100465178D01*
X80033928Y-100227083D01*
X79986309Y-100036607D01*
X79938690Y-99941369D01*
X79891071Y-99893750D01*
X79795833Y-99846130D01*
X124047380Y-110634904D02*
X123047380Y-110634904D01*
X123047380Y-110873000D01*
X123095000Y-111015857D01*
X123190238Y-111111095D01*
X123285476Y-111158714D01*
X123475952Y-111206333D01*
X123618809Y-111206333D01*
X123809285Y-111158714D01*
X123904523Y-111111095D01*
X123999761Y-111015857D01*
X124047380Y-110873000D01*
X124047380Y-110634904D01*
X124047380Y-112158714D02*
X124047380Y-111587285D01*
X124047380Y-111873000D02*
X123047380Y-111873000D01*
X123190238Y-111777761D01*
X123285476Y-111682523D01*
X123333095Y-111587285D01*
X120514880Y-119896130D02*
X120514880Y-118896130D01*
X120276785Y-118896130D01*
X120133928Y-118943750D01*
X120038690Y-119038988D01*
X119991071Y-119134226D01*
X119943452Y-119324702D01*
X119943452Y-119467559D01*
X119991071Y-119658035D01*
X120038690Y-119753273D01*
X120133928Y-119848511D01*
X120276785Y-119896130D01*
X120514880Y-119896130D01*
X119324404Y-118896130D02*
X119229166Y-118896130D01*
X119133928Y-118943750D01*
X119086309Y-118991369D01*
X119038690Y-119086607D01*
X118991071Y-119277083D01*
X118991071Y-119515178D01*
X119038690Y-119705654D01*
X119086309Y-119800892D01*
X119133928Y-119848511D01*
X119229166Y-119896130D01*
X119324404Y-119896130D01*
X119419642Y-119848511D01*
X119467261Y-119800892D01*
X119514880Y-119705654D01*
X119562500Y-119515178D01*
X119562500Y-119277083D01*
X119514880Y-119086607D01*
X119467261Y-118991369D01*
X119419642Y-118943750D01*
X119324404Y-118896130D01*
X118562500Y-119800892D02*
X118514880Y-119848511D01*
X118562500Y-119896130D01*
X118610119Y-119848511D01*
X118562500Y-119800892D01*
X118562500Y-119896130D01*
X118562500Y-119277083D02*
X118514880Y-119324702D01*
X118562500Y-119372321D01*
X118610119Y-119324702D01*
X118562500Y-119277083D01*
X118562500Y-119372321D01*
X118133928Y-118991369D02*
X118086309Y-118943750D01*
X117991071Y-118896130D01*
X117752976Y-118896130D01*
X117657738Y-118943750D01*
X117610119Y-118991369D01*
X117562500Y-119086607D01*
X117562500Y-119181845D01*
X117610119Y-119324702D01*
X118181547Y-119896130D01*
X117562500Y-119896130D01*
X101464880Y-119896130D02*
X101464880Y-118896130D01*
X101226785Y-118896130D01*
X101083928Y-118943750D01*
X100988690Y-119038988D01*
X100941071Y-119134226D01*
X100893452Y-119324702D01*
X100893452Y-119467559D01*
X100941071Y-119658035D01*
X100988690Y-119753273D01*
X101083928Y-119848511D01*
X101226785Y-119896130D01*
X101464880Y-119896130D01*
X100274404Y-118896130D02*
X100179166Y-118896130D01*
X100083928Y-118943750D01*
X100036309Y-118991369D01*
X99988690Y-119086607D01*
X99941071Y-119277083D01*
X99941071Y-119515178D01*
X99988690Y-119705654D01*
X100036309Y-119800892D01*
X100083928Y-119848511D01*
X100179166Y-119896130D01*
X100274404Y-119896130D01*
X100369642Y-119848511D01*
X100417261Y-119800892D01*
X100464880Y-119705654D01*
X100512500Y-119515178D01*
X100512500Y-119277083D01*
X100464880Y-119086607D01*
X100417261Y-118991369D01*
X100369642Y-118943750D01*
X100274404Y-118896130D01*
X99512500Y-119800892D02*
X99464880Y-119848511D01*
X99512500Y-119896130D01*
X99560119Y-119848511D01*
X99512500Y-119800892D01*
X99512500Y-119896130D01*
X99512500Y-119277083D02*
X99464880Y-119324702D01*
X99512500Y-119372321D01*
X99560119Y-119324702D01*
X99512500Y-119277083D01*
X99512500Y-119372321D01*
X98512500Y-119896130D02*
X99083928Y-119896130D01*
X98798214Y-119896130D02*
X98798214Y-118896130D01*
X98893452Y-119038988D01*
X98988690Y-119134226D01*
X99083928Y-119181845D01*
X89452380Y-128452380D02*
X89452380Y-127452380D01*
X89214285Y-127452380D01*
X89071428Y-127500000D01*
X88976190Y-127595238D01*
X88928571Y-127690476D01*
X88880952Y-127880952D01*
X88880952Y-128023809D01*
X88928571Y-128214285D01*
X88976190Y-128309523D01*
X89071428Y-128404761D01*
X89214285Y-128452380D01*
X89452380Y-128452380D01*
X88261904Y-127452380D02*
X88166666Y-127452380D01*
X88071428Y-127500000D01*
X88023809Y-127547619D01*
X87976190Y-127642857D01*
X87928571Y-127833333D01*
X87928571Y-128071428D01*
X87976190Y-128261904D01*
X88023809Y-128357142D01*
X88071428Y-128404761D01*
X88166666Y-128452380D01*
X88261904Y-128452380D01*
X88357142Y-128404761D01*
X88404761Y-128357142D01*
X88452380Y-128261904D01*
X88500000Y-128071428D01*
X88500000Y-127833333D01*
X88452380Y-127642857D01*
X88404761Y-127547619D01*
X88357142Y-127500000D01*
X88261904Y-127452380D01*
X87500000Y-128357142D02*
X87452380Y-128404761D01*
X87500000Y-128452380D01*
X87547619Y-128404761D01*
X87500000Y-128357142D01*
X87500000Y-128452380D01*
X87500000Y-127833333D02*
X87452380Y-127880952D01*
X87500000Y-127928571D01*
X87547619Y-127880952D01*
X87500000Y-127833333D01*
X87500000Y-127928571D01*
X86833333Y-127452380D02*
X86738095Y-127452380D01*
X86642857Y-127500000D01*
X86595238Y-127547619D01*
X86547619Y-127642857D01*
X86500000Y-127833333D01*
X86500000Y-128071428D01*
X86547619Y-128261904D01*
X86595238Y-128357142D01*
X86642857Y-128404761D01*
X86738095Y-128452380D01*
X86833333Y-128452380D01*
X86928571Y-128404761D01*
X86976190Y-128357142D01*
X87023809Y-128261904D01*
X87071428Y-128071428D01*
X87071428Y-127833333D01*
X87023809Y-127642857D01*
X86976190Y-127547619D01*
X86928571Y-127500000D01*
X86833333Y-127452380D01*
X123833333Y-115047619D02*
X123928571Y-115000000D01*
X124023809Y-114904761D01*
X124166666Y-114761904D01*
X124261904Y-114714285D01*
X124357142Y-114714285D01*
X124309523Y-114952380D02*
X124404761Y-114904761D01*
X124500000Y-114809523D01*
X124547619Y-114619047D01*
X124547619Y-114285714D01*
X124500000Y-114095238D01*
X124404761Y-114000000D01*
X124309523Y-113952380D01*
X124119047Y-113952380D01*
X124023809Y-114000000D01*
X123928571Y-114095238D01*
X123880952Y-114285714D01*
X123880952Y-114619047D01*
X123928571Y-114809523D01*
X124023809Y-114904761D01*
X124119047Y-114952380D01*
X124309523Y-114952380D01*
X123452380Y-114952380D02*
X123452380Y-113952380D01*
X122452380Y-114952380D02*
X123023809Y-114952380D01*
X122738095Y-114952380D02*
X122738095Y-113952380D01*
X122833333Y-114095238D01*
X122928571Y-114190476D01*
X123023809Y-114238095D01*
X126801952Y-116571428D02*
X126040047Y-116571428D01*
X126421000Y-116952380D02*
X126421000Y-116190476D01*
%LPC*%
D14*
X80650000Y-117000000D03*
X75350000Y-117000000D03*
D15*
X75462500Y-64293750D03*
X86462500Y-64293750D03*
D16*
X86182500Y-60093750D03*
D17*
X80962500Y-70193750D03*
X75962500Y-68093750D03*
D18*
X80962500Y-64293750D03*
D15*
X94512500Y-88106250D03*
X105512500Y-88106250D03*
D16*
X105232500Y-83906250D03*
D17*
X100012500Y-94006250D03*
X95012500Y-91906250D03*
D18*
X100012500Y-88106250D03*
D15*
X75462500Y-88106250D03*
X86462500Y-88106250D03*
D16*
X86182500Y-83906250D03*
D17*
X80962500Y-94006250D03*
X75962500Y-91906250D03*
D18*
X80962500Y-88106250D03*
D15*
X75462500Y-126206250D03*
X86462500Y-126206250D03*
D16*
X86182500Y-122006250D03*
D17*
X80962500Y-132106250D03*
X75962500Y-130006250D03*
D18*
X80962500Y-126206250D03*
D15*
X94512500Y-126206250D03*
X105512500Y-126206250D03*
D16*
X105232500Y-122006250D03*
D17*
X100012500Y-132106250D03*
X95012500Y-130006250D03*
D18*
X100012500Y-126206250D03*
D15*
X113562500Y-126206250D03*
X124562500Y-126206250D03*
D16*
X124282500Y-122006250D03*
D17*
X119062500Y-132106250D03*
X114062500Y-130006250D03*
D18*
X119062500Y-126206250D03*
D15*
X75462500Y-107156250D03*
X86462500Y-107156250D03*
D16*
X86182500Y-102956250D03*
D17*
X80962500Y-113056250D03*
X75962500Y-110956250D03*
D18*
X80962500Y-107156250D03*
D15*
X94512500Y-107156250D03*
X105512500Y-107156250D03*
D16*
X105232500Y-102956250D03*
D17*
X100012500Y-113056250D03*
X95012500Y-110956250D03*
D18*
X100012500Y-107156250D03*
D15*
X113562500Y-107156250D03*
X124562500Y-107156250D03*
D16*
X124282500Y-102956250D03*
D17*
X119062500Y-113056250D03*
X114062500Y-110956250D03*
D18*
X119062500Y-107156250D03*
D15*
X113562500Y-88106250D03*
X124562500Y-88106250D03*
D16*
X124282500Y-83906250D03*
D17*
X119062500Y-94006250D03*
X114062500Y-91906250D03*
D18*
X119062500Y-88106250D03*
D15*
X94512500Y-64293750D03*
X105512500Y-64293750D03*
D16*
X105232500Y-60093750D03*
D17*
X100012500Y-70193750D03*
X95012500Y-68093750D03*
D18*
X100012500Y-64293750D03*
D15*
X113562500Y-64293750D03*
X124562500Y-64293750D03*
D16*
X124282500Y-60093750D03*
D17*
X119062500Y-70193750D03*
X114062500Y-68093750D03*
D18*
X119062500Y-64293750D03*
D19*
X91110000Y-74660000D03*
X93650000Y-74660000D03*
X96190000Y-74660000D03*
X98730000Y-74660000D03*
X101270000Y-74660000D03*
X103810000Y-74660000D03*
X106350000Y-74660000D03*
X108890000Y-74660000D03*
X111430000Y-74660000D03*
X113970000Y-74660000D03*
X116510000Y-74660000D03*
X119050000Y-74660000D03*
X119050000Y-54340000D03*
X116510000Y-54340000D03*
X113970000Y-54340000D03*
X111430000Y-54340000D03*
X108890000Y-54340000D03*
X106350000Y-54340000D03*
X103810000Y-54340000D03*
X101270000Y-54340000D03*
X98730000Y-54340000D03*
X96190000Y-54340000D03*
X93650000Y-54340000D03*
X91110000Y-54340000D03*
X88570000Y-54340000D03*
X86030000Y-54340000D03*
X83490000Y-54340000D03*
X80950000Y-54340000D03*
D20*
X123444000Y-80644000D03*
X123444000Y-77344000D03*
D21*
X82612500Y-78581250D03*
X79312500Y-78581250D03*
X82612500Y-80962500D03*
X79312500Y-80962500D03*
X120712500Y-83343750D03*
X117412500Y-83343750D03*
X101662500Y-83343750D03*
X98362500Y-83343750D03*
X82612500Y-83343750D03*
X79312500Y-83343750D03*
X120712500Y-102393750D03*
X117412500Y-102393750D03*
X101662500Y-102393750D03*
X98362500Y-102393750D03*
X82612500Y-102393750D03*
X79312500Y-102393750D03*
D22*
X125500000Y-110100000D03*
X125500000Y-112900000D03*
D21*
X120712500Y-121443750D03*
X117412500Y-121443750D03*
X101662500Y-121443750D03*
X98362500Y-121443750D03*
X89650000Y-130000000D03*
X86350000Y-130000000D03*
D14*
X124740000Y-116540000D03*
X122200000Y-116540000D03*
M02*
