M48
; DRILL file {KiCad (5.1.5-0-10_14)} date Wednesday, January 22, 2020 at 02:55:00 AM
; FORMAT={-:-/ absolute / inch / decimal}
; #@! TF.CreationDate,2020-01-22T02:55:00-06:00
; #@! TF.GenerationSoftware,Kicad,Pcbnew,(5.1.5-0-10_14)
; #@! TF.FileFunction,Plated,1,2,PTH
FMAT,2
INCH
T1C0.0130
T2C0.0402
T3C0.0480
T4C0.0500
%
G90
G05
T1
X3.0Y-2.189
X3.0Y-2.8898
X3.0Y-3.5827
X3.3701Y-2.8661
X3.4882Y-4.2126
X3.4882Y-4.2913
X3.5118Y-3.252
X3.5433Y-2.2835
X3.5433Y-2.5354
X3.5433Y-4.874
X3.5512Y-3.378
X3.5512Y-4.252
X3.6614Y-4.2598
X3.7874Y-3.5827
X4.1024Y-3.3622
X4.1024Y-3.5827
X4.1417Y-4.2598
X4.2205Y-3.2913
X4.2205Y-4.1496
X4.252Y-2.5276
X4.252Y-3.0437
X4.252Y-4.7402
X4.252Y-4.874
X4.2598Y-2.8031
X4.4488Y-3.5827
X4.4567Y-4.2598
X4.6772Y-3.5906
X4.7953Y-2.189
X4.8031Y-3.0
X4.8346Y-3.5827
T2
X4.7819Y-4.252
X4.8819Y-4.252
X3.1476Y-2.1394
X3.2476Y-2.1394
X3.3476Y-2.1394
X3.4476Y-2.1394
X3.5476Y-2.1394
X3.5476Y-2.9394
X3.6476Y-2.1394
X3.6476Y-2.9394
X3.7476Y-2.1394
X3.7476Y-2.9394
X3.8476Y-2.1394
X3.8476Y-2.9394
X3.9476Y-2.1394
X3.9476Y-2.9394
X4.0476Y-2.1394
X4.0476Y-2.9394
X4.1476Y-2.1394
X4.1476Y-2.9394
X4.2476Y-2.1394
X4.2476Y-2.9394
X4.3476Y-2.1394
X4.3476Y-2.9394
X4.4476Y-2.1394
X4.4476Y-2.9394
X4.5476Y-2.1394
X4.5476Y-2.9394
X4.6476Y-2.1394
X4.6476Y-2.9394
T3
X3.0256Y-4.252
X3.2343Y-4.252
T4
X4.4094Y-2.6809
X4.6063Y-2.7635
X3.7008Y-2.6809
X3.8976Y-2.7635
X4.4094Y-3.3996
X4.6063Y-3.4823
X4.4094Y-4.0689
X4.6063Y-4.1516
X3.7008Y-4.0689
X3.8976Y-4.1516
X2.9921Y-4.7382
X3.189Y-4.8209
X2.9921Y-3.3996
X3.189Y-3.4823
X4.6063Y-4.8209
X2.9921Y-4.0689
X3.189Y-4.1516
X3.7008Y-4.7382
X3.8976Y-4.8209
X3.7008Y-3.3996
X3.8976Y-3.4823
X2.9921Y-2.6809
X3.189Y-2.7635
X4.4094Y-4.7382
T0
M30
