G04 #@! TF.GenerationSoftware,KiCad,Pcbnew,(5.1.5-0-10_14)*
G04 #@! TF.CreationDate,2020-01-22T02:54:57-06:00*
G04 #@! TF.ProjectId,imacro,696d6163-726f-42e6-9b69-6361645f7063,rev?*
G04 #@! TF.SameCoordinates,Original*
G04 #@! TF.FileFunction,Legend,Top*
G04 #@! TF.FilePolarity,Positive*
%FSLAX46Y46*%
G04 Gerber Fmt 4.6, Leading zero omitted, Abs format (unit mm)*
G04 Created by KiCad (PCBNEW (5.1.5-0-10_14)) date 2020-01-22 02:54:57*
%MOMM*%
%LPD*%
G04 APERTURE LIST*
%ADD10C,0.150000*%
%ADD11C,2.006600*%
%ADD12C,3.530600*%
%ADD13C,2.133600*%
%ADD14C,1.092200*%
%ADD15C,1.803400*%
%ADD16C,1.625600*%
G04 APERTURE END LIST*
D10*
X74000000Y-58293750D02*
X74000000Y-57293750D01*
X74000000Y-71293750D02*
X75000000Y-71293750D01*
X75000000Y-57293750D02*
X74000000Y-57293750D01*
X74000000Y-71293750D02*
X74000000Y-70293750D01*
X88000000Y-70293750D02*
X88000000Y-71293750D01*
X88000000Y-57293750D02*
X87000000Y-57293750D01*
X87000000Y-71293750D02*
X88000000Y-71293750D01*
X88000000Y-57293750D02*
X88000000Y-58293750D01*
X92000000Y-76550000D02*
X92000000Y-75550000D01*
X92000000Y-89550000D02*
X93000000Y-89550000D01*
X93000000Y-75550000D02*
X92000000Y-75550000D01*
X92000000Y-89550000D02*
X92000000Y-88550000D01*
X106000000Y-88550000D02*
X106000000Y-89550000D01*
X106000000Y-75550000D02*
X105000000Y-75550000D01*
X105000000Y-89550000D02*
X106000000Y-89550000D01*
X106000000Y-75550000D02*
X106000000Y-76550000D01*
X88000000Y-75550000D02*
X88000000Y-76550000D01*
X87000000Y-89550000D02*
X88000000Y-89550000D01*
X88000000Y-75550000D02*
X87000000Y-75550000D01*
X88000000Y-88550000D02*
X88000000Y-89550000D01*
X74000000Y-89550000D02*
X74000000Y-88550000D01*
X75000000Y-75550000D02*
X74000000Y-75550000D01*
X74000000Y-89550000D02*
X75000000Y-89550000D01*
X74000000Y-76550000D02*
X74000000Y-75550000D01*
X88000000Y-109550000D02*
X88000000Y-110550000D01*
X87000000Y-123550000D02*
X88000000Y-123550000D01*
X88000000Y-109550000D02*
X87000000Y-109550000D01*
X88000000Y-122550000D02*
X88000000Y-123550000D01*
X74000000Y-123550000D02*
X74000000Y-122550000D01*
X75000000Y-109550000D02*
X74000000Y-109550000D01*
X74000000Y-123550000D02*
X75000000Y-123550000D01*
X74000000Y-110550000D02*
X74000000Y-109550000D01*
X106000000Y-109550000D02*
X106000000Y-110550000D01*
X105000000Y-123550000D02*
X106000000Y-123550000D01*
X106000000Y-109550000D02*
X105000000Y-109550000D01*
X106000000Y-122550000D02*
X106000000Y-123550000D01*
X92000000Y-123550000D02*
X92000000Y-122550000D01*
X93000000Y-109550000D02*
X92000000Y-109550000D01*
X92000000Y-123550000D02*
X93000000Y-123550000D01*
X92000000Y-110550000D02*
X92000000Y-109550000D01*
X124000000Y-109550000D02*
X124000000Y-110550000D01*
X123000000Y-123550000D02*
X124000000Y-123550000D01*
X124000000Y-109550000D02*
X123000000Y-109550000D01*
X124000000Y-122550000D02*
X124000000Y-123550000D01*
X110000000Y-123550000D02*
X110000000Y-122550000D01*
X111000000Y-109550000D02*
X110000000Y-109550000D01*
X110000000Y-123550000D02*
X111000000Y-123550000D01*
X110000000Y-110550000D02*
X110000000Y-109550000D01*
X88000000Y-92550000D02*
X88000000Y-93550000D01*
X87000000Y-106550000D02*
X88000000Y-106550000D01*
X88000000Y-92550000D02*
X87000000Y-92550000D01*
X88000000Y-105550000D02*
X88000000Y-106550000D01*
X74000000Y-106550000D02*
X74000000Y-105550000D01*
X75000000Y-92550000D02*
X74000000Y-92550000D01*
X74000000Y-106550000D02*
X75000000Y-106550000D01*
X74000000Y-93550000D02*
X74000000Y-92550000D01*
X106000000Y-92550000D02*
X106000000Y-93550000D01*
X105000000Y-106550000D02*
X106000000Y-106550000D01*
X106000000Y-92550000D02*
X105000000Y-92550000D01*
X106000000Y-105550000D02*
X106000000Y-106550000D01*
X92000000Y-106550000D02*
X92000000Y-105550000D01*
X93000000Y-92550000D02*
X92000000Y-92550000D01*
X92000000Y-106550000D02*
X93000000Y-106550000D01*
X92000000Y-93550000D02*
X92000000Y-92550000D01*
X124000000Y-92550000D02*
X124000000Y-93550000D01*
X123000000Y-106550000D02*
X124000000Y-106550000D01*
X124000000Y-92550000D02*
X123000000Y-92550000D01*
X124000000Y-105550000D02*
X124000000Y-106550000D01*
X110000000Y-106550000D02*
X110000000Y-105550000D01*
X111000000Y-92550000D02*
X110000000Y-92550000D01*
X110000000Y-106550000D02*
X111000000Y-106550000D01*
X110000000Y-93550000D02*
X110000000Y-92550000D01*
X110000000Y-76550000D02*
X110000000Y-75550000D01*
X110000000Y-89550000D02*
X111000000Y-89550000D01*
X111000000Y-75550000D02*
X110000000Y-75550000D01*
X110000000Y-89550000D02*
X110000000Y-88550000D01*
X124000000Y-88550000D02*
X124000000Y-89550000D01*
X124000000Y-75550000D02*
X123000000Y-75550000D01*
X123000000Y-89550000D02*
X124000000Y-89550000D01*
X124000000Y-75550000D02*
X124000000Y-76550000D01*
X92000000Y-58293750D02*
X92000000Y-57293750D01*
X92000000Y-71293750D02*
X93000000Y-71293750D01*
X93000000Y-57293750D02*
X92000000Y-57293750D01*
X92000000Y-71293750D02*
X92000000Y-70293750D01*
X106000000Y-70293750D02*
X106000000Y-71293750D01*
X106000000Y-57293750D02*
X105000000Y-57293750D01*
X105000000Y-71293750D02*
X106000000Y-71293750D01*
X106000000Y-57293750D02*
X106000000Y-58293750D01*
X110000000Y-58293750D02*
X110000000Y-57293750D01*
X110000000Y-71293750D02*
X111000000Y-71293750D01*
X111000000Y-57293750D02*
X110000000Y-57293750D01*
X110000000Y-71293750D02*
X110000000Y-70293750D01*
X124000000Y-70293750D02*
X124000000Y-71293750D01*
X124000000Y-57293750D02*
X123000000Y-57293750D01*
X123000000Y-71293750D02*
X124000000Y-71293750D01*
X124000000Y-57293750D02*
X124000000Y-58293750D01*
X78952380Y-56904761D02*
X79095238Y-56952380D01*
X79333333Y-56952380D01*
X79428571Y-56904761D01*
X79476190Y-56857142D01*
X79523809Y-56761904D01*
X79523809Y-56666666D01*
X79476190Y-56571428D01*
X79428571Y-56523809D01*
X79333333Y-56476190D01*
X79142857Y-56428571D01*
X79047619Y-56380952D01*
X79000000Y-56333333D01*
X78952380Y-56238095D01*
X78952380Y-56142857D01*
X79000000Y-56047619D01*
X79047619Y-56000000D01*
X79142857Y-55952380D01*
X79380952Y-55952380D01*
X79523809Y-56000000D01*
X79857142Y-55952380D02*
X80095238Y-56952380D01*
X80285714Y-56238095D01*
X80476190Y-56952380D01*
X80714285Y-55952380D01*
X81000000Y-55952380D02*
X81619047Y-55952380D01*
X81285714Y-56333333D01*
X81428571Y-56333333D01*
X81523809Y-56380952D01*
X81571428Y-56428571D01*
X81619047Y-56523809D01*
X81619047Y-56761904D01*
X81571428Y-56857142D01*
X81523809Y-56904761D01*
X81428571Y-56952380D01*
X81142857Y-56952380D01*
X81047619Y-56904761D01*
X81000000Y-56857142D01*
X82047619Y-56857142D02*
X82095238Y-56904761D01*
X82047619Y-56952380D01*
X82000000Y-56904761D01*
X82047619Y-56857142D01*
X82047619Y-56952380D01*
X82047619Y-56333333D02*
X82095238Y-56380952D01*
X82047619Y-56428571D01*
X82000000Y-56380952D01*
X82047619Y-56333333D01*
X82047619Y-56428571D01*
X82714285Y-55952380D02*
X82809523Y-55952380D01*
X82904761Y-56000000D01*
X82952380Y-56047619D01*
X83000000Y-56142857D01*
X83047619Y-56333333D01*
X83047619Y-56571428D01*
X83000000Y-56761904D01*
X82952380Y-56857142D01*
X82904761Y-56904761D01*
X82809523Y-56952380D01*
X82714285Y-56952380D01*
X82619047Y-56904761D01*
X82571428Y-56857142D01*
X82523809Y-56761904D01*
X82476190Y-56571428D01*
X82476190Y-56333333D01*
X82523809Y-56142857D01*
X82571428Y-56047619D01*
X82619047Y-56000000D01*
X82714285Y-55952380D01*
X102202380Y-90654761D02*
X102345238Y-90702380D01*
X102583333Y-90702380D01*
X102678571Y-90654761D01*
X102726190Y-90607142D01*
X102773809Y-90511904D01*
X102773809Y-90416666D01*
X102726190Y-90321428D01*
X102678571Y-90273809D01*
X102583333Y-90226190D01*
X102392857Y-90178571D01*
X102297619Y-90130952D01*
X102250000Y-90083333D01*
X102202380Y-89988095D01*
X102202380Y-89892857D01*
X102250000Y-89797619D01*
X102297619Y-89750000D01*
X102392857Y-89702380D01*
X102630952Y-89702380D01*
X102773809Y-89750000D01*
X103107142Y-89702380D02*
X103345238Y-90702380D01*
X103535714Y-89988095D01*
X103726190Y-90702380D01*
X103964285Y-89702380D01*
X104297619Y-89797619D02*
X104345238Y-89750000D01*
X104440476Y-89702380D01*
X104678571Y-89702380D01*
X104773809Y-89750000D01*
X104821428Y-89797619D01*
X104869047Y-89892857D01*
X104869047Y-89988095D01*
X104821428Y-90130952D01*
X104250000Y-90702380D01*
X104869047Y-90702380D01*
X105297619Y-90607142D02*
X105345238Y-90654761D01*
X105297619Y-90702380D01*
X105250000Y-90654761D01*
X105297619Y-90607142D01*
X105297619Y-90702380D01*
X105297619Y-90083333D02*
X105345238Y-90130952D01*
X105297619Y-90178571D01*
X105250000Y-90130952D01*
X105297619Y-90083333D01*
X105297619Y-90178571D01*
X106297619Y-90702380D02*
X105726190Y-90702380D01*
X106011904Y-90702380D02*
X106011904Y-89702380D01*
X105916666Y-89845238D01*
X105821428Y-89940476D01*
X105726190Y-89988095D01*
X78989880Y-74848511D02*
X79132738Y-74896130D01*
X79370833Y-74896130D01*
X79466071Y-74848511D01*
X79513690Y-74800892D01*
X79561309Y-74705654D01*
X79561309Y-74610416D01*
X79513690Y-74515178D01*
X79466071Y-74467559D01*
X79370833Y-74419940D01*
X79180357Y-74372321D01*
X79085119Y-74324702D01*
X79037500Y-74277083D01*
X78989880Y-74181845D01*
X78989880Y-74086607D01*
X79037500Y-73991369D01*
X79085119Y-73943750D01*
X79180357Y-73896130D01*
X79418452Y-73896130D01*
X79561309Y-73943750D01*
X79894642Y-73896130D02*
X80132738Y-74896130D01*
X80323214Y-74181845D01*
X80513690Y-74896130D01*
X80751785Y-73896130D01*
X81085119Y-73991369D02*
X81132738Y-73943750D01*
X81227976Y-73896130D01*
X81466071Y-73896130D01*
X81561309Y-73943750D01*
X81608928Y-73991369D01*
X81656547Y-74086607D01*
X81656547Y-74181845D01*
X81608928Y-74324702D01*
X81037500Y-74896130D01*
X81656547Y-74896130D01*
X82085119Y-74800892D02*
X82132738Y-74848511D01*
X82085119Y-74896130D01*
X82037500Y-74848511D01*
X82085119Y-74800892D01*
X82085119Y-74896130D01*
X82085119Y-74277083D02*
X82132738Y-74324702D01*
X82085119Y-74372321D01*
X82037500Y-74324702D01*
X82085119Y-74277083D01*
X82085119Y-74372321D01*
X82751785Y-73896130D02*
X82847023Y-73896130D01*
X82942261Y-73943750D01*
X82989880Y-73991369D01*
X83037500Y-74086607D01*
X83085119Y-74277083D01*
X83085119Y-74515178D01*
X83037500Y-74705654D01*
X82989880Y-74800892D01*
X82942261Y-74848511D01*
X82847023Y-74896130D01*
X82751785Y-74896130D01*
X82656547Y-74848511D01*
X82608928Y-74800892D01*
X82561309Y-74705654D01*
X82513690Y-74515178D01*
X82513690Y-74277083D01*
X82561309Y-74086607D01*
X82608928Y-73991369D01*
X82656547Y-73943750D01*
X82751785Y-73896130D01*
X83989880Y-108748511D02*
X84132738Y-108796130D01*
X84370833Y-108796130D01*
X84466071Y-108748511D01*
X84513690Y-108700892D01*
X84561309Y-108605654D01*
X84561309Y-108510416D01*
X84513690Y-108415178D01*
X84466071Y-108367559D01*
X84370833Y-108319940D01*
X84180357Y-108272321D01*
X84085119Y-108224702D01*
X84037500Y-108177083D01*
X83989880Y-108081845D01*
X83989880Y-107986607D01*
X84037500Y-107891369D01*
X84085119Y-107843750D01*
X84180357Y-107796130D01*
X84418452Y-107796130D01*
X84561309Y-107843750D01*
X84894642Y-107796130D02*
X85132738Y-108796130D01*
X85323214Y-108081845D01*
X85513690Y-108796130D01*
X85751785Y-107796130D01*
X86323214Y-107796130D02*
X86418452Y-107796130D01*
X86513690Y-107843750D01*
X86561309Y-107891369D01*
X86608928Y-107986607D01*
X86656547Y-108177083D01*
X86656547Y-108415178D01*
X86608928Y-108605654D01*
X86561309Y-108700892D01*
X86513690Y-108748511D01*
X86418452Y-108796130D01*
X86323214Y-108796130D01*
X86227976Y-108748511D01*
X86180357Y-108700892D01*
X86132738Y-108605654D01*
X86085119Y-108415178D01*
X86085119Y-108177083D01*
X86132738Y-107986607D01*
X86180357Y-107891369D01*
X86227976Y-107843750D01*
X86323214Y-107796130D01*
X87085119Y-108700892D02*
X87132738Y-108748511D01*
X87085119Y-108796130D01*
X87037500Y-108748511D01*
X87085119Y-108700892D01*
X87085119Y-108796130D01*
X87085119Y-108177083D02*
X87132738Y-108224702D01*
X87085119Y-108272321D01*
X87037500Y-108224702D01*
X87085119Y-108177083D01*
X87085119Y-108272321D01*
X87751785Y-107796130D02*
X87847023Y-107796130D01*
X87942261Y-107843750D01*
X87989880Y-107891369D01*
X88037500Y-107986607D01*
X88085119Y-108177083D01*
X88085119Y-108415178D01*
X88037500Y-108605654D01*
X87989880Y-108700892D01*
X87942261Y-108748511D01*
X87847023Y-108796130D01*
X87751785Y-108796130D01*
X87656547Y-108748511D01*
X87608928Y-108700892D01*
X87561309Y-108605654D01*
X87513690Y-108415178D01*
X87513690Y-108177083D01*
X87561309Y-107986607D01*
X87608928Y-107891369D01*
X87656547Y-107843750D01*
X87751785Y-107796130D01*
X96939880Y-108748511D02*
X97082738Y-108796130D01*
X97320833Y-108796130D01*
X97416071Y-108748511D01*
X97463690Y-108700892D01*
X97511309Y-108605654D01*
X97511309Y-108510416D01*
X97463690Y-108415178D01*
X97416071Y-108367559D01*
X97320833Y-108319940D01*
X97130357Y-108272321D01*
X97035119Y-108224702D01*
X96987500Y-108177083D01*
X96939880Y-108081845D01*
X96939880Y-107986607D01*
X96987500Y-107891369D01*
X97035119Y-107843750D01*
X97130357Y-107796130D01*
X97368452Y-107796130D01*
X97511309Y-107843750D01*
X97844642Y-107796130D02*
X98082738Y-108796130D01*
X98273214Y-108081845D01*
X98463690Y-108796130D01*
X98701785Y-107796130D01*
X99273214Y-107796130D02*
X99368452Y-107796130D01*
X99463690Y-107843750D01*
X99511309Y-107891369D01*
X99558928Y-107986607D01*
X99606547Y-108177083D01*
X99606547Y-108415178D01*
X99558928Y-108605654D01*
X99511309Y-108700892D01*
X99463690Y-108748511D01*
X99368452Y-108796130D01*
X99273214Y-108796130D01*
X99177976Y-108748511D01*
X99130357Y-108700892D01*
X99082738Y-108605654D01*
X99035119Y-108415178D01*
X99035119Y-108177083D01*
X99082738Y-107986607D01*
X99130357Y-107891369D01*
X99177976Y-107843750D01*
X99273214Y-107796130D01*
X100035119Y-108700892D02*
X100082738Y-108748511D01*
X100035119Y-108796130D01*
X99987500Y-108748511D01*
X100035119Y-108700892D01*
X100035119Y-108796130D01*
X100035119Y-108177083D02*
X100082738Y-108224702D01*
X100035119Y-108272321D01*
X99987500Y-108224702D01*
X100035119Y-108177083D01*
X100035119Y-108272321D01*
X101035119Y-108796130D02*
X100463690Y-108796130D01*
X100749404Y-108796130D02*
X100749404Y-107796130D01*
X100654166Y-107938988D01*
X100558928Y-108034226D01*
X100463690Y-108081845D01*
X114889880Y-108748511D02*
X115032738Y-108796130D01*
X115270833Y-108796130D01*
X115366071Y-108748511D01*
X115413690Y-108700892D01*
X115461309Y-108605654D01*
X115461309Y-108510416D01*
X115413690Y-108415178D01*
X115366071Y-108367559D01*
X115270833Y-108319940D01*
X115080357Y-108272321D01*
X114985119Y-108224702D01*
X114937500Y-108177083D01*
X114889880Y-108081845D01*
X114889880Y-107986607D01*
X114937500Y-107891369D01*
X114985119Y-107843750D01*
X115080357Y-107796130D01*
X115318452Y-107796130D01*
X115461309Y-107843750D01*
X115794642Y-107796130D02*
X116032738Y-108796130D01*
X116223214Y-108081845D01*
X116413690Y-108796130D01*
X116651785Y-107796130D01*
X117223214Y-107796130D02*
X117318452Y-107796130D01*
X117413690Y-107843750D01*
X117461309Y-107891369D01*
X117508928Y-107986607D01*
X117556547Y-108177083D01*
X117556547Y-108415178D01*
X117508928Y-108605654D01*
X117461309Y-108700892D01*
X117413690Y-108748511D01*
X117318452Y-108796130D01*
X117223214Y-108796130D01*
X117127976Y-108748511D01*
X117080357Y-108700892D01*
X117032738Y-108605654D01*
X116985119Y-108415178D01*
X116985119Y-108177083D01*
X117032738Y-107986607D01*
X117080357Y-107891369D01*
X117127976Y-107843750D01*
X117223214Y-107796130D01*
X117985119Y-108700892D02*
X118032738Y-108748511D01*
X117985119Y-108796130D01*
X117937500Y-108748511D01*
X117985119Y-108700892D01*
X117985119Y-108796130D01*
X117985119Y-108177083D02*
X118032738Y-108224702D01*
X117985119Y-108272321D01*
X117937500Y-108224702D01*
X117985119Y-108177083D01*
X117985119Y-108272321D01*
X118413690Y-107891369D02*
X118461309Y-107843750D01*
X118556547Y-107796130D01*
X118794642Y-107796130D01*
X118889880Y-107843750D01*
X118937500Y-107891369D01*
X118985119Y-107986607D01*
X118985119Y-108081845D01*
X118937500Y-108224702D01*
X118366071Y-108796130D01*
X118985119Y-108796130D01*
X78989880Y-91798511D02*
X79132738Y-91846130D01*
X79370833Y-91846130D01*
X79466071Y-91798511D01*
X79513690Y-91750892D01*
X79561309Y-91655654D01*
X79561309Y-91560416D01*
X79513690Y-91465178D01*
X79466071Y-91417559D01*
X79370833Y-91369940D01*
X79180357Y-91322321D01*
X79085119Y-91274702D01*
X79037500Y-91227083D01*
X78989880Y-91131845D01*
X78989880Y-91036607D01*
X79037500Y-90941369D01*
X79085119Y-90893750D01*
X79180357Y-90846130D01*
X79418452Y-90846130D01*
X79561309Y-90893750D01*
X79894642Y-90846130D02*
X80132738Y-91846130D01*
X80323214Y-91131845D01*
X80513690Y-91846130D01*
X80751785Y-90846130D01*
X81656547Y-91846130D02*
X81085119Y-91846130D01*
X81370833Y-91846130D02*
X81370833Y-90846130D01*
X81275595Y-90988988D01*
X81180357Y-91084226D01*
X81085119Y-91131845D01*
X82085119Y-91750892D02*
X82132738Y-91798511D01*
X82085119Y-91846130D01*
X82037500Y-91798511D01*
X82085119Y-91750892D01*
X82085119Y-91846130D01*
X82085119Y-91227083D02*
X82132738Y-91274702D01*
X82085119Y-91322321D01*
X82037500Y-91274702D01*
X82085119Y-91227083D01*
X82085119Y-91322321D01*
X82751785Y-90846130D02*
X82847023Y-90846130D01*
X82942261Y-90893750D01*
X82989880Y-90941369D01*
X83037500Y-91036607D01*
X83085119Y-91227083D01*
X83085119Y-91465178D01*
X83037500Y-91655654D01*
X82989880Y-91750892D01*
X82942261Y-91798511D01*
X82847023Y-91846130D01*
X82751785Y-91846130D01*
X82656547Y-91798511D01*
X82608928Y-91750892D01*
X82561309Y-91655654D01*
X82513690Y-91465178D01*
X82513690Y-91227083D01*
X82561309Y-91036607D01*
X82608928Y-90941369D01*
X82656547Y-90893750D01*
X82751785Y-90846130D01*
X96952380Y-91798511D02*
X97095238Y-91846130D01*
X97333333Y-91846130D01*
X97428571Y-91798511D01*
X97476190Y-91750892D01*
X97523809Y-91655654D01*
X97523809Y-91560416D01*
X97476190Y-91465178D01*
X97428571Y-91417559D01*
X97333333Y-91369940D01*
X97142857Y-91322321D01*
X97047619Y-91274702D01*
X97000000Y-91227083D01*
X96952380Y-91131845D01*
X96952380Y-91036607D01*
X97000000Y-90941369D01*
X97047619Y-90893750D01*
X97142857Y-90846130D01*
X97380952Y-90846130D01*
X97523809Y-90893750D01*
X97857142Y-90846130D02*
X98095238Y-91846130D01*
X98285714Y-91131845D01*
X98476190Y-91846130D01*
X98714285Y-90846130D01*
X99619047Y-91846130D02*
X99047619Y-91846130D01*
X99333333Y-91846130D02*
X99333333Y-90846130D01*
X99238095Y-90988988D01*
X99142857Y-91084226D01*
X99047619Y-91131845D01*
X100047619Y-91750892D02*
X100095238Y-91798511D01*
X100047619Y-91846130D01*
X100000000Y-91798511D01*
X100047619Y-91750892D01*
X100047619Y-91846130D01*
X100047619Y-91227083D02*
X100095238Y-91274702D01*
X100047619Y-91322321D01*
X100000000Y-91274702D01*
X100047619Y-91227083D01*
X100047619Y-91322321D01*
X101047619Y-91846130D02*
X100476190Y-91846130D01*
X100761904Y-91846130D02*
X100761904Y-90846130D01*
X100666666Y-90988988D01*
X100571428Y-91084226D01*
X100476190Y-91131845D01*
X114889880Y-91798511D02*
X115032738Y-91846130D01*
X115270833Y-91846130D01*
X115366071Y-91798511D01*
X115413690Y-91750892D01*
X115461309Y-91655654D01*
X115461309Y-91560416D01*
X115413690Y-91465178D01*
X115366071Y-91417559D01*
X115270833Y-91369940D01*
X115080357Y-91322321D01*
X114985119Y-91274702D01*
X114937500Y-91227083D01*
X114889880Y-91131845D01*
X114889880Y-91036607D01*
X114937500Y-90941369D01*
X114985119Y-90893750D01*
X115080357Y-90846130D01*
X115318452Y-90846130D01*
X115461309Y-90893750D01*
X115794642Y-90846130D02*
X116032738Y-91846130D01*
X116223214Y-91131845D01*
X116413690Y-91846130D01*
X116651785Y-90846130D01*
X117556547Y-91846130D02*
X116985119Y-91846130D01*
X117270833Y-91846130D02*
X117270833Y-90846130D01*
X117175595Y-90988988D01*
X117080357Y-91084226D01*
X116985119Y-91131845D01*
X117985119Y-91750892D02*
X118032738Y-91798511D01*
X117985119Y-91846130D01*
X117937500Y-91798511D01*
X117985119Y-91750892D01*
X117985119Y-91846130D01*
X117985119Y-91227083D02*
X118032738Y-91274702D01*
X117985119Y-91322321D01*
X117937500Y-91274702D01*
X117985119Y-91227083D01*
X117985119Y-91322321D01*
X118413690Y-90941369D02*
X118461309Y-90893750D01*
X118556547Y-90846130D01*
X118794642Y-90846130D01*
X118889880Y-90893750D01*
X118937500Y-90941369D01*
X118985119Y-91036607D01*
X118985119Y-91131845D01*
X118937500Y-91274702D01*
X118366071Y-91846130D01*
X118985119Y-91846130D01*
X119952380Y-75154761D02*
X120095238Y-75202380D01*
X120333333Y-75202380D01*
X120428571Y-75154761D01*
X120476190Y-75107142D01*
X120523809Y-75011904D01*
X120523809Y-74916666D01*
X120476190Y-74821428D01*
X120428571Y-74773809D01*
X120333333Y-74726190D01*
X120142857Y-74678571D01*
X120047619Y-74630952D01*
X120000000Y-74583333D01*
X119952380Y-74488095D01*
X119952380Y-74392857D01*
X120000000Y-74297619D01*
X120047619Y-74250000D01*
X120142857Y-74202380D01*
X120380952Y-74202380D01*
X120523809Y-74250000D01*
X120857142Y-74202380D02*
X121095238Y-75202380D01*
X121285714Y-74488095D01*
X121476190Y-75202380D01*
X121714285Y-74202380D01*
X122047619Y-74297619D02*
X122095238Y-74250000D01*
X122190476Y-74202380D01*
X122428571Y-74202380D01*
X122523809Y-74250000D01*
X122571428Y-74297619D01*
X122619047Y-74392857D01*
X122619047Y-74488095D01*
X122571428Y-74630952D01*
X122000000Y-75202380D01*
X122619047Y-75202380D01*
X123047619Y-75107142D02*
X123095238Y-75154761D01*
X123047619Y-75202380D01*
X123000000Y-75154761D01*
X123047619Y-75107142D01*
X123047619Y-75202380D01*
X123047619Y-74583333D02*
X123095238Y-74630952D01*
X123047619Y-74678571D01*
X123000000Y-74630952D01*
X123047619Y-74583333D01*
X123047619Y-74678571D01*
X123476190Y-74297619D02*
X123523809Y-74250000D01*
X123619047Y-74202380D01*
X123857142Y-74202380D01*
X123952380Y-74250000D01*
X124000000Y-74297619D01*
X124047619Y-74392857D01*
X124047619Y-74488095D01*
X124000000Y-74630952D01*
X123428571Y-75202380D01*
X124047619Y-75202380D01*
X96939880Y-56904761D02*
X97082738Y-56952380D01*
X97320833Y-56952380D01*
X97416071Y-56904761D01*
X97463690Y-56857142D01*
X97511309Y-56761904D01*
X97511309Y-56666666D01*
X97463690Y-56571428D01*
X97416071Y-56523809D01*
X97320833Y-56476190D01*
X97130357Y-56428571D01*
X97035119Y-56380952D01*
X96987500Y-56333333D01*
X96939880Y-56238095D01*
X96939880Y-56142857D01*
X96987500Y-56047619D01*
X97035119Y-56000000D01*
X97130357Y-55952380D01*
X97368452Y-55952380D01*
X97511309Y-56000000D01*
X97844642Y-55952380D02*
X98082738Y-56952380D01*
X98273214Y-56238095D01*
X98463690Y-56952380D01*
X98701785Y-55952380D01*
X98987500Y-55952380D02*
X99606547Y-55952380D01*
X99273214Y-56333333D01*
X99416071Y-56333333D01*
X99511309Y-56380952D01*
X99558928Y-56428571D01*
X99606547Y-56523809D01*
X99606547Y-56761904D01*
X99558928Y-56857142D01*
X99511309Y-56904761D01*
X99416071Y-56952380D01*
X99130357Y-56952380D01*
X99035119Y-56904761D01*
X98987500Y-56857142D01*
X100035119Y-56857142D02*
X100082738Y-56904761D01*
X100035119Y-56952380D01*
X99987500Y-56904761D01*
X100035119Y-56857142D01*
X100035119Y-56952380D01*
X100035119Y-56333333D02*
X100082738Y-56380952D01*
X100035119Y-56428571D01*
X99987500Y-56380952D01*
X100035119Y-56333333D01*
X100035119Y-56428571D01*
X101035119Y-56952380D02*
X100463690Y-56952380D01*
X100749404Y-56952380D02*
X100749404Y-55952380D01*
X100654166Y-56095238D01*
X100558928Y-56190476D01*
X100463690Y-56238095D01*
X114952380Y-56904761D02*
X115095238Y-56952380D01*
X115333333Y-56952380D01*
X115428571Y-56904761D01*
X115476190Y-56857142D01*
X115523809Y-56761904D01*
X115523809Y-56666666D01*
X115476190Y-56571428D01*
X115428571Y-56523809D01*
X115333333Y-56476190D01*
X115142857Y-56428571D01*
X115047619Y-56380952D01*
X115000000Y-56333333D01*
X114952380Y-56238095D01*
X114952380Y-56142857D01*
X115000000Y-56047619D01*
X115047619Y-56000000D01*
X115142857Y-55952380D01*
X115380952Y-55952380D01*
X115523809Y-56000000D01*
X115857142Y-55952380D02*
X116095238Y-56952380D01*
X116285714Y-56238095D01*
X116476190Y-56952380D01*
X116714285Y-55952380D01*
X117000000Y-55952380D02*
X117619047Y-55952380D01*
X117285714Y-56333333D01*
X117428571Y-56333333D01*
X117523809Y-56380952D01*
X117571428Y-56428571D01*
X117619047Y-56523809D01*
X117619047Y-56761904D01*
X117571428Y-56857142D01*
X117523809Y-56904761D01*
X117428571Y-56952380D01*
X117142857Y-56952380D01*
X117047619Y-56904761D01*
X117000000Y-56857142D01*
X118047619Y-56857142D02*
X118095238Y-56904761D01*
X118047619Y-56952380D01*
X118000000Y-56904761D01*
X118047619Y-56857142D01*
X118047619Y-56952380D01*
X118047619Y-56333333D02*
X118095238Y-56380952D01*
X118047619Y-56428571D01*
X118000000Y-56380952D01*
X118047619Y-56333333D01*
X118047619Y-56428571D01*
X118476190Y-56047619D02*
X118523809Y-56000000D01*
X118619047Y-55952380D01*
X118857142Y-55952380D01*
X118952380Y-56000000D01*
X119000000Y-56047619D01*
X119047619Y-56142857D01*
X119047619Y-56238095D01*
X119000000Y-56380952D01*
X118428571Y-56952380D01*
X119047619Y-56952380D01*
%LPC*%
D11*
X82150000Y-108000000D03*
X76850000Y-108000000D03*
D12*
X81000000Y-64293750D03*
D13*
X76000000Y-68093750D03*
X81000000Y-70193750D03*
D14*
X86220000Y-60093750D03*
D15*
X86500000Y-64293750D03*
X75500000Y-64293750D03*
D12*
X99000000Y-82550000D03*
D13*
X94000000Y-86350000D03*
X99000000Y-88450000D03*
D14*
X104220000Y-78350000D03*
D15*
X104500000Y-82550000D03*
X93500000Y-82550000D03*
X75500000Y-82550000D03*
X86500000Y-82550000D03*
D14*
X86220000Y-78350000D03*
D13*
X81000000Y-88450000D03*
X76000000Y-86350000D03*
D12*
X81000000Y-82550000D03*
D15*
X75500000Y-116550000D03*
X86500000Y-116550000D03*
D14*
X86220000Y-112350000D03*
D13*
X81000000Y-122450000D03*
X76000000Y-120350000D03*
D12*
X81000000Y-116550000D03*
D15*
X93500000Y-116550000D03*
X104500000Y-116550000D03*
D14*
X104220000Y-112350000D03*
D13*
X99000000Y-122450000D03*
X94000000Y-120350000D03*
D12*
X99000000Y-116550000D03*
D15*
X111500000Y-116550000D03*
X122500000Y-116550000D03*
D14*
X122220000Y-112350000D03*
D13*
X117000000Y-122450000D03*
X112000000Y-120350000D03*
D12*
X117000000Y-116550000D03*
D15*
X75500000Y-99550000D03*
X86500000Y-99550000D03*
D14*
X86220000Y-95350000D03*
D13*
X81000000Y-105450000D03*
X76000000Y-103350000D03*
D12*
X81000000Y-99550000D03*
D15*
X93500000Y-99550000D03*
X104500000Y-99550000D03*
D14*
X104220000Y-95350000D03*
D13*
X99000000Y-105450000D03*
X94000000Y-103350000D03*
D12*
X99000000Y-99550000D03*
D15*
X111500000Y-99550000D03*
X122500000Y-99550000D03*
D14*
X122220000Y-95350000D03*
D13*
X117000000Y-105450000D03*
X112000000Y-103350000D03*
D12*
X117000000Y-99550000D03*
X117000000Y-82550000D03*
D13*
X112000000Y-86350000D03*
X117000000Y-88450000D03*
D14*
X122220000Y-78350000D03*
D15*
X122500000Y-82550000D03*
X111500000Y-82550000D03*
D12*
X99000000Y-64293750D03*
D13*
X94000000Y-68093750D03*
X99000000Y-70193750D03*
D14*
X104220000Y-60093750D03*
D15*
X104500000Y-64293750D03*
X93500000Y-64293750D03*
D12*
X117000000Y-64293750D03*
D13*
X112000000Y-68093750D03*
X117000000Y-70193750D03*
D14*
X122220000Y-60093750D03*
D15*
X122500000Y-64293750D03*
X111500000Y-64293750D03*
D16*
X90110000Y-74660000D03*
X92650000Y-74660000D03*
X95190000Y-74660000D03*
X97730000Y-74660000D03*
X100270000Y-74660000D03*
X102810000Y-74660000D03*
X105350000Y-74660000D03*
X107890000Y-74660000D03*
X110430000Y-74660000D03*
X112970000Y-74660000D03*
X115510000Y-74660000D03*
X118050000Y-74660000D03*
X118050000Y-54340000D03*
X115510000Y-54340000D03*
X112970000Y-54340000D03*
X110430000Y-54340000D03*
X107890000Y-54340000D03*
X105350000Y-54340000D03*
X102810000Y-54340000D03*
X100270000Y-54340000D03*
X97730000Y-54340000D03*
X95190000Y-54340000D03*
X92650000Y-54340000D03*
X90110000Y-54340000D03*
X87570000Y-54340000D03*
X85030000Y-54340000D03*
X82490000Y-54340000D03*
X79950000Y-54340000D03*
D11*
X124000000Y-108000000D03*
X121460000Y-108000000D03*
M02*
